<?xml version="1.0" encoding="utf-8"?>
<!-- Generator: Adobe Illustrator 17.1.0, SVG Export Plug-In . SVG Version: 6.00 Build 0)  -->
<!DOCTYPE svg PUBLIC "-//W3C//DTD SVG 1.1//EN" "http://www.w3.org/Graphics/SVG/1.1/DTD/svg11.dtd">
<svg version="1.1" id="Logo" xmlns="http://www.w3.org/2000/svg" xmlns:xlink="http://www.w3.org/1999/xlink" x="0px" y="0px"
	 viewBox="0 372.4 612 47.3" enable-background="new 0 372.4 612 47.3" xml:space="preserve">
<path fill="#FFFFFF" d="M221.9,419.6c-15.6,0-25.6-11.3-25.6-22.9v-1.5c0-11.9,10.2-22.9,25.6-22.9c15.6,0,25.7,11,25.7,22.9v1.5
	C247.7,408.4,237.5,419.6,221.9,419.6z M239.3,395.4c0-8.5-6.2-16.1-17.5-16.1c-11.3,0-17.3,7.6-17.3,16.1v1.1
	c0,8.5,6.2,16.2,17.3,16.2c11.3,0,17.5-7.7,17.5-16.2V395.4z"/>
<path fill="#FFFFFF" d="M45.9,417.9L40.1,407H14.4l-5.7,10.9H0L23.8,374h6.8l24.1,43.9H45.9z M27,382.5L17.5,401h19.4L27,382.5z"/>
<path fill="#FFFFFF" d="M92.3,419.6c-15.7,0-23.1-8.5-23.1-20.1V374h8.2v25.9c0,8.2,5.3,13,15.5,13c10.4,0,14.7-4.8,14.7-13V374h8.3
	v25.6C115.9,410.5,108.8,419.6,92.3,419.6z"/>
<path fill="#FFFFFF" d="M161.8,380.8v37.1h-8.3v-37.1h-19.2V374H181v6.8H161.8z"/>
<path fill="#FFFFFF" d="M321.2,417.9v-34.8L319,387l-18.4,30.9h-4.1L278.3,387l-2.2-3.8v34.8h-8V374h11.4l17.3,30.2l2.1,3.7l2.1-3.7
	l17.2-30.2h11.3v43.9H321.2z"/>
<path fill="#FFFFFF" d="M391.8,417.9L386,407h-25.7l-5.6,10.9H346l23.8-43.9h6.8l24.1,43.9H391.8z M372.8,382.5l-9.5,18.4h19.4
	L372.8,382.5z"/>
<path fill="#FFFFFF" d="M434,380.8v37.1h-8.3v-37.1h-19.2V374h46.7v6.8H434z"/>
<path fill="#FFFFFF" d="M494.5,380.8v37.1h-8.3v-37.1H467V374h46.7v6.8H494.5z"/>
<path fill="#FFFFFF" d="M534,417.9v-39.9c3.3,0,4.6-1.7,4.6-4.2h3.5v43.9h-8V417.9z"/>
<path fill="#FFFFFF" d="M606.8,386.3c-4-3.6-9.8-7.1-17.6-7.1c-11.8,0-18.3,8-18.3,16.5v0.9c0,8.3,6.7,16.1,18.9,16.1
	c7.3,0,13.4-3.5,17.2-7.1l5,5.2c-4.8,4.7-13,8.8-22.7,8.8c-16.6,0-26.7-10.8-26.7-22.7v-1.5c0-11.9,11-23.1,27.1-23.1
	c9.3,0,17.7,3.8,22.3,8.8L606.8,386.3z"/>
<path fill="#FFFFFF" d="M227.3,387.7c1.5,1,1.9,3,1,4.5l-7.6,11.6c-1,1.5-3,2-4.5,1l0,0c-1.5-1-1.9-3-1-4.5l7.6-11.6
	C223.8,387.1,225.8,386.7,227.3,387.7L227.3,387.7z"/>
</svg>
