<?xml version="1.0" encoding="utf-8"?>
<!-- Generator: Adobe Illustrator 17.1.0, SVG Export Plug-In . SVG Version: 6.00 Build 0)  -->
<!DOCTYPE svg PUBLIC "-//W3C//DTD SVG 1.1//EN" "http://www.w3.org/Graphics/SVG/1.1/DTD/svg11.dtd">
<svg version="1.1" id="Layer_1" xmlns="http://www.w3.org/2000/svg" xmlns:xlink="http://www.w3.org/1999/xlink" x="0px" y="0px"
	 viewBox="52.2 -295.9 611.6 106.7" enable-background="new 52.2 -295.9 611.6 106.7" xml:space="preserve">
<g>
	<path fill="#FFFFFF" d="M644.6-274.4v10.9h-3v-10.9h-3.4v-2.6h10.2v2.6H644.6z M661.2-263.4v-8.3l-2.6,4.9h-2.6l-2.6-4.9v8.3h-3
		V-277h3l3.8,7.5l3.8-7.5h3v13.6H661.2z"/>
	<g>
		<path fill="#FFFFFF" d="M101.6-295.9c4.9,0,9.4,0.4,13.6,1.5c4.1,0.8,7.5,2.3,10.6,4.1s5.3,4.5,6.8,7.9c1.5,3.4,2.3,7.5,2.3,12.4
			c0,5.3-1.1,9.8-3.8,13.2c-2.3,3.4-6,6.4-10.6,8.7c6.4,1.9,11.3,5.3,14.3,9.8c3,4.5,4.9,10.2,4.9,16.6c0,5.3-1.1,9.8-3,13.6
			s-4.9,7.2-8.3,9.4c-3.4,2.6-7.5,4.1-12.1,5.3c-4.5,1.1-9,1.9-13.6,1.9H52.2v-104.5L101.6-295.9L101.6-295.9z M98.6-253.6
			c4.1,0,7.5-1.1,10.2-3c2.6-1.9,3.8-5.3,3.8-9.4c0-2.3-0.4-4.5-1.1-6c-0.8-1.5-1.9-2.6-3.4-3.8c-1.5-0.8-3-1.5-4.9-1.9
			s-3.8-0.4-6-0.4H75.2v24.5L98.6-253.6L98.6-253.6z M99.7-209.1c2.3,0,4.5-0.4,6.4-0.8c1.9-0.4,3.8-1.1,5.3-2.3
			c1.5-1.1,2.6-2.3,3.8-4.1c0.8-1.9,1.5-4.1,1.5-6.8c0-5.3-1.5-9-4.5-11.7c-3-2.3-7.2-3.4-12.1-3.4H75.2v28.7h24.5V-209.1z"/>
		<path fill="#FFFFFF" d="M172.5-209.5c3,3,7.5,4.5,13.6,4.5c4.1,0,7.9-1.1,10.9-3c3-2.3,4.9-4.5,5.7-6.8h18.5
			c-3,9-7.5,15.5-13.6,19.6c-6,3.8-13.2,6-21.9,6c-6,0-11.3-1.1-16.2-3c-4.9-1.9-8.7-4.5-12.1-8.3c-3.4-3.4-6-7.5-7.5-12.4
			c-1.9-4.9-2.6-10.2-2.6-16.2c0-5.7,0.8-10.9,2.6-15.8c1.9-4.9,4.5-9,7.9-12.8c3.4-3.4,7.5-6.4,12.1-8.3c4.9-1.9,9.8-3,15.8-3
			c6.4,0,12.1,1.1,17,3.8c4.9,2.6,8.7,5.7,11.7,10.2c3,4.1,5.3,9,6.8,14.3c1.5,5.3,1.9,10.9,1.5,17h-55.4
			C167.2-218.2,169.5-212.5,172.5-209.5z M196.3-249.5c-2.6-2.6-6.8-4.1-11.7-4.1c-3.4,0-6,0.4-8.3,1.9c-2.3,1.1-3.8,2.6-5.3,4.1
			c-1.5,1.5-2.3,3.4-2.6,5.3c-0.4,1.9-0.8,3.4-0.8,4.9h33.9C200.8-242.7,198.9-246.5,196.3-249.5z"/>
		<path fill="#FFFFFF" d="M251.3-295.9v39.2h0.4c2.6-4.5,6-7.5,10.2-9.4c4.1-1.9,7.9-3,12.1-3c5.7,0,10.2,0.8,13.6,2.3
			c3.4,1.5,6.4,3.8,8.3,6.4c1.9,2.6,3.4,6,4.1,9.8s1.1,7.9,1.1,12.8v46.4h-20.7V-234c0-6.4-1.1-10.9-3-14s-5.3-4.5-10.2-4.5
			c-5.7,0-9.8,1.9-12.1,4.9c-2.6,3.4-3.8,9-3.8,16.6v39.6h-20.7v-104.5H251.3z"/>
		<path fill="#FFFFFF" d="M316.2-255.9c2.3-3.4,4.9-5.7,8.3-7.9c3.4-1.9,7.2-3.4,11.3-4.1c4.1-0.8,8.3-1.1,12.4-1.1
			c3.8,0,7.5,0.4,11.7,0.8c3.8,0.4,7.5,1.5,10.6,3c3.4,1.5,5.7,3.8,7.9,6.4c1.9,2.6,3,6.4,3,10.9v39.6c0,3.4,0.4,6.8,0.8,9.8
			s1.5,5.7,2.6,7.2h-21.1c-0.8-0.8-1.1-2.3-1.5-3.4c-0.4-1.1-0.4-2.3-0.4-3.8c-3.4,3.4-7.2,5.7-11.7,7.2c-4.5,1.5-9,1.9-13.6,1.9
			c-3.8,0-6.8-0.4-10.2-1.5c-3-0.8-5.7-2.3-8.3-4.1c-2.3-1.9-4.1-4.1-5.7-7.2c-1.1-3-1.9-6-1.9-10.2c0-4.1,0.8-7.9,2.3-10.6
			c1.5-2.6,3.4-4.9,5.7-6.8c2.3-1.5,5.3-3,8.3-3.8s6-1.5,9.4-1.9c3-0.4,6-0.8,9-1.1c3-0.4,5.7-0.8,7.9-1.5c2.3-0.8,4.1-1.5,5.7-2.6
			c1.5-1.1,1.9-2.6,1.9-4.9c0-2.3-0.4-4.1-1.1-5.3c-0.8-1.1-1.9-2.3-3-3s-2.6-1.1-4.1-1.5c-1.5-0.4-3.4-0.4-5.3-0.4
			c-4.1,0-7.2,0.8-9.4,2.6c-2.3,1.9-3.8,4.9-4.1,8.7h-20.7C312.8-248.7,314.3-252.9,316.2-255.9z M357.3-226.5
			c-1.1,0.4-2.6,0.8-4.1,1.1c-1.5,0.4-3,0.4-4.9,0.8c-1.5,0.4-3.4,0.4-4.9,0.8c-1.5,0.4-3,0.8-4.5,1.1c-1.5,0.4-3,1.1-3.8,1.9
			c-1.1,0.8-1.9,1.9-2.6,3c-0.8,1.1-1.1,3-1.1,4.9s0.4,3.4,1.1,4.5c0.8,1.1,1.5,2.3,2.6,3c1.1,0.8,2.6,1.1,4.1,1.5
			c1.5,0.4,3,0.4,4.9,0.4c4.1,0,7.2-0.8,9.4-1.9c2.3-1.5,3.8-3,4.9-4.9c1.1-1.9,1.9-3.8,1.9-5.7c0.4-1.9,0.4-3.4,0.4-4.5v-7.9
			C359.5-227.6,358.4-226.9,357.3-226.5z"/>
		<path fill="#FFFFFF" d="M412.7-267.2v10.6h0.4c2.6-4.5,6-7.5,10.2-9.4c4.1-1.9,8.7-3,12.8-3c5.7,0,10.2,0.8,13.6,2.3
			c3.8,1.5,6.4,3.8,8.3,6.4c1.9,2.6,3.4,6,4.5,9.8c0.8,3.8,1.1,7.9,1.1,12.8v46.4h-20.7V-234c0-6.4-1.1-10.9-3-14s-5.3-4.9-10.6-4.9
			c-5.7,0-9.8,2.3-12.4,5.7s-3.8,9-3.8,16.6v39.6h-20.7v-75.8h20.4V-267.2z"/>
		<path fill="#FFFFFF" d="M510-253.6c-3.4,0-6,0.8-8.3,2.3c-2.3,1.5-4.1,3.4-5.7,6c-1.5,2.3-2.3,4.9-3,7.9s-0.8,5.7-0.8,8.7
			c0,2.6,0.4,5.7,0.8,8.3c0.8,3,1.5,5.3,3,7.5s3,4.1,5.3,5.7c2.3,1.5,4.9,2.3,8.3,2.3c4.9,0,8.7-1.5,11.7-4.1
			c2.6-2.6,4.5-6.4,4.9-11.3h20c-1.5,10.2-5.3,17.7-11.7,23c-6.4,5.3-14.7,7.9-24.9,7.9c-5.7,0-10.9-1.1-15.5-3
			c-4.9-1.9-8.7-4.5-12.1-7.9c-3.4-3.4-6-7.5-7.9-12.1c-1.9-4.9-2.6-9.8-2.6-15.5c0-6,0.8-11.3,2.6-16.2c1.9-4.9,4.1-9.4,7.5-13.2
			c3.4-3.8,7.5-6.4,12.1-8.7c4.9-1.9,10.2-3,16.2-3c4.5,0,8.7,0.8,12.8,1.9c4.1,1.1,7.9,3,10.9,5.3c3.4,2.3,6,5.3,7.9,9
			c1.9,3.4,3,7.9,3.4,12.8h-20.4C523.9-249.1,519-253.6,510-253.6z"/>
		<rect x="163.1" y="-289.1" fill="#FFFFFF" width="42.2" height="10.2"/>
		<path fill="#FFFFFF" d="M577.5-209.5c3,3,7.9,4.5,13.6,4.5c4.1,0,7.9-1.1,10.9-3c3-2.3,4.9-4.5,5.7-6.8h18.1
			c-3,9-7.5,15.5-13.6,19.6c-6,3.8-13.2,6-21.9,6c-6,0-11.3-1.1-16.2-3c-4.9-1.9-8.7-4.5-12.1-8.3c-3.4-3.4-6-7.5-7.5-12.4
			c-1.9-4.9-2.6-10.2-2.6-16.2c0-5.7,0.8-10.9,2.6-15.8c1.9-4.9,4.5-9,7.9-12.8c3.4-3.4,7.5-6.4,12.1-8.3c4.9-1.9,10.2-3,15.8-3
			c6.4,0,12.1,1.1,16.6,3.8c4.9,2.6,8.7,5.7,11.7,10.2c3,4.1,5.3,9,6.8,14.3c1.5,5.3,1.9,10.9,1.5,17h-54.7
			C572.2-218.2,574.5-212.5,577.5-209.5z M601.6-249.5c-2.6-2.6-6.8-4.1-11.7-4.1c-3.4,0-6,0.4-8.3,1.9c-2.3,1.1-4.1,2.6-5.3,4.1
			c-1.1,1.5-2.3,3.4-2.6,5.3c-0.4,1.9-0.8,3.4-0.8,4.9h33.9C605.8-242.7,603.9-246.5,601.6-249.5z"/>
	</g>
</g>
</svg>
