<?xml version="1.0" encoding="utf-8"?>
<!-- Generator: Adobe Illustrator 17.1.0, SVG Export Plug-In . SVG Version: 6.00 Build 0)  -->
<!DOCTYPE svg PUBLIC "-//W3C//DTD SVG 1.1//EN" "http://www.w3.org/Graphics/SVG/1.1/DTD/svg11.dtd">
<svg version="1.1" id="Layer_1" xmlns="http://www.w3.org/2000/svg" xmlns:xlink="http://www.w3.org/1999/xlink" x="0px" y="0px"
	 viewBox="20.5 28 245.1 48" enable-background="new 20.5 28 245.1 48" xml:space="preserve">
<g id="guides">
</g>
<g id="Layer_2">
	<g>
		<g>
			<path fill="#FFFFFF" d="M27.2,48.3h6.2c5.2,0,7.9,1.2,7.9,4.9c0,4.7-4.6,5.2-7.9,5.2h-6.2L27.2,48.3L27.2,48.3z M20.5,64.1h13.1
				c6.9,0,14.3-2.6,14.3-10.4c0-4.6-3.3-8.1-7.8-8.6V45c3.7-1.1,6.3-4.1,6.3-8.1c0-6.5-5.6-9-11.1-9H20.5V64.1z M27.2,33.6h5.3
				c4.9,0,7.3,1.5,7.3,4.5c0,2.7-2.1,4.5-6.4,4.5h-6.1C27.2,42.7,27.2,33.6,27.2,33.6z"/>
		</g>
		<g>
			<rect x="51" y="28" fill="#FFFFFF" width="6.8" height="36.1"/>
		</g>
		<g>
			<path fill="#FFFFFF" d="M62.3,51.8c0,7.6,5.9,12.7,13.4,12.7c7.4,0,13.4-5.1,13.4-12.7c0-7.6-5.9-12.7-13.4-12.7
				C68.2,39.1,62.3,44.2,62.3,51.8z M68.4,51.8c0-3.8,2.7-7.3,7.2-7.3c4.5,0,7.2,3.5,7.2,7.3c0,3.8-2.7,7.2-7.2,7.2
				C71.1,59.1,68.4,55.6,68.4,51.8z"/>
		</g>
		<g>
			<path fill="#FFFFFF" d="M91.8,51.8c0,7.6,5.9,12.7,13.4,12.7c7.4,0,13.4-5.1,13.4-12.7c0-7.6-5.9-12.7-13.4-12.7
				C97.7,39.1,91.8,44.2,91.8,51.8z M97.9,51.8c0-3.8,2.7-7.3,7.2-7.3c4.5,0,7.2,3.5,7.2,7.3c0,3.8-2.7,7.2-7.2,7.2
				C100.6,59.1,97.9,55.6,97.9,51.8z"/>
		</g>
		<g>
			<path fill="#FFFFFF" d="M121,39.3h6.8v4.2h0.1c1.1-2.3,3.8-4.4,7.9-4.4c3.8,0,6.4,1.5,7.7,4.5c1.8-3.1,4.6-4.5,8.2-4.5
				c6.6,0,8.9,4.6,8.9,10.4v14.6h-6.8V50.5c0-3-0.6-5.9-4.2-5.9c-3.8,0-4.8,3.1-4.8,6.2v13.3h-6.8V49.7c0-3-1.9-5.2-4.9-5.2
				c-4,0-5.3,2.9-5.3,6.1v13.4H121L121,39.3L121,39.3z"/>
		</g>
		<g>
			<path fill="#FFFFFF" d="M163.9,64.1h6.8v-3.4h0.1c1.8,2.9,5.5,4.2,9,4.2c7.6,0,12.1-6,12.1-13.1c0-7.2-4.9-12.7-11.9-12.7
				c-4.6,0-7.9,2.1-9.1,3.7h-0.2V28h-6.8L163.9,64.1L163.9,64.1z M185.7,51.8c0,3.8-2.7,7.2-7.2,7.2c-4.5,0-7.2-3.5-7.2-7.2
				c0-3.8,2.7-7.3,7.2-7.3C183,44.6,185.7,48.1,185.7,51.8z"/>
		</g>
		<g>
			<path fill="#FFFFFF" d="M219.5,54v-1.7c0-8.4-4.7-13.1-11.5-13.1c-7.4,0-13.4,5.1-13.4,12.7c0,7.6,5.9,12.7,13.4,12.7
				c3.9,0,7.5-1.4,10.4-4.8l-4.4-3.3c-1.5,1.9-3.5,3.3-6.6,3.3c-3.4,0-6.2-2.2-6.6-5.7L219.5,54L219.5,54z M200.8,49.4
				c0.5-3.5,2.7-5.7,6.3-5.7c3.8,0,6.2,2.2,6.2,5.7H200.8z"/>
		</g>
		<g>
			<path fill="#FFFFFF" d="M222.6,39.8h7v3.8h0.1c1.3-2.8,4-4.4,7.3-4.4c0.8,0,1.5,0.2,2.2,0.4v5.8c-1-0.3-2-0.5-3-0.5
				c-5.8,0-6.6,4.8-6.6,6.1v12.9h-7L222.6,39.8L222.6,39.8z"/>
		</g>
		<g>
			<path fill="#FFFFFF" d="M259.9,39.3v3.6l0.3,0.5c-1.8-2.9-5-4.2-8.4-4.2c-7.6,0-12.1,5.5-12.1,12.7c0,6.8,4.9,12.4,12.2,12.4
				c3.1,0,6.2-1.2,8-3.5h0.1v1.8c0,4.8-1.8,8.1-7.8,8.1c-3.4,0-5.9-1.3-8.4-3.5L240,72c3.5,3,7.1,4,11.6,4c9.6,0,13.9-5.5,13.9-14.2
				V39.3H259.9z M253,44.6c4.5,0,7.3,2.9,7.3,7.1c0,4-2.8,7.1-7.3,7.1c-4.1,0-7.2-3.2-7.2-7C245.7,47.5,248.7,44.6,253,44.6z"/>
		</g>
	</g>
</g>
</svg>
