<?xml version="1.0" encoding="utf-8"?>
<!-- Generator: Adobe Illustrator 17.1.0, SVG Export Plug-In . SVG Version: 6.00 Build 0)  -->
<!DOCTYPE svg PUBLIC "-//W3C//DTD SVG 1.1//EN" "http://www.w3.org/Graphics/SVG/1.1/DTD/svg11.dtd">
<svg version="1.1" id="Layer_1" xmlns="http://www.w3.org/2000/svg" xmlns:xlink="http://www.w3.org/1999/xlink" x="0px" y="0px"
	 viewBox="0 0 405.1 63.2" enable-background="new 0 0 405.1 63.2" xml:space="preserve">
<g>
	<g>
		<path fill="#FFFFFF" d="M14.1,34.2c0-1.8,1.2-1.2,1.2-1.7c0-0.2-0.1-0.2-0.3-0.2c-0.8,0-1.3,0.1-1.9,0.1c-0.5,0-0.9,0-1.4-0.1
			c-0.2,0-0.5-0.1-0.5,0.2c0,0.6,2,0.1,2,1.9v3.2c0,2.7-0.4,5.2-3.7,5.2c-3,0-3.6-2-3.6-4.5v-3.5c0-2.6,1.4-1.8,1.4-2.3
			c0-0.1,0-0.2-0.2-0.2c-0.3,0-1.5,0.1-2.3,0.1c-0.8,0-2.1-0.1-2.3-0.1c-0.1,0-0.3,0-0.3,0.3c0,0.6,1.7,0.1,1.7,1.5v5.2
			c0,3.1,1.7,4.5,4.7,4.5c4.6,0,5.5-2.7,5.5-6V34.2L14.1,34.2z"/>
		<path fill="#FFFFFF" d="M27.6,41.4c0,1.6-1.6,1.3-1.6,2c0,0.3,0.3,0.2,0.5,0.2c0.4,0,0.9-0.1,1.4-0.1c0.6,0,1.1,0.1,2,0.1
			c0.2,0,0.6,0,0.6-0.2c0-0.8-2.1,0.3-2.1-2.7v-5.4c0-0.1,0-0.3,0.1-0.3c0.1,0,0.2,0.1,0.3,0.2l8,8.3c0.1,0.1,0.2,0.2,0.4,0.2
			c0.2,0,0.2-0.1,0.2-0.5v-9c0-1.7,1.4-1.3,1.4-1.8c0,0,0-0.2-0.3-0.2c-0.2,0-0.7,0.1-1.8,0.1c-1.1,0-1.6-0.1-1.9-0.1
			c-0.2,0-0.3,0.2-0.3,0.3c0,0.5,2,0.2,2,1.7v5.3c0,0.4,0,0.6-0.1,0.6c-0.1,0-0.3-0.2-0.5-0.4l-6.7-7.1c-0.3-0.3-0.1-0.4-0.6-0.4
			c-0.9,0-1.3,0.1-1.7,0.1c-0.3,0-0.6-0.1-0.9-0.1c-0.2,0-0.3,0.1-0.3,0.3c0,0.8,1.9-0.3,1.9,2.8V41.4L27.6,41.4z"/>
		<path fill="#FFFFFF" d="M53.4,34c0-1.5,1.2-0.9,1.2-1.5c0-0.2-0.1-0.2-0.6-0.2c-0.9,0-1.5,0.1-2.1,0.1c-0.6,0-1.2-0.1-1.9-0.1
			c-0.1,0-0.6,0-0.6,0.2c0,0.6,1.9,0.1,1.9,1.6v7.7c0,1.5-1.2,1.1-1.2,1.7c0,0.1,0,0.2,0.2,0.2c0.4,0,1.1-0.1,1.9-0.1
			c1.3,0,1.9,0.1,2.5,0.1c0.4,0,0.5-0.1,0.5-0.2c0-0.5-1.9,0.2-1.9-1.7V34L53.4,34z"/>
		<path fill="#FFFFFF" d="M76.9,33.7c0.4-0.9,1.1-0.9,1.1-1.2c0-0.3-0.2-0.2-0.6-0.2c-0.5,0-0.9,0.1-1.4,0.1c-0.5,0-0.9-0.1-1.4-0.1
			c-0.2,0-0.7,0-0.7,0.3c0,0.6,1.7,0,1.7,1.5c0,0.3,0,0.8-0.5,1.9l-2.3,4.9c0,0.1-0.1,0.3-0.2,0.3c-0.1,0-0.2-0.2-0.2-0.3l-2.2-5.1
			c-0.4-1-0.6-1.7-0.6-2.2c0-0.7,1-0.4,1-0.9c0-0.3-0.1-0.3-0.6-0.3c-0.3,0-0.7,0.1-1.8,0.1c-0.6,0-1.1-0.1-1.7-0.1
			c-0.2,0-0.8-0.1-0.8,0.3c0,0.1,0.2,0.2,0.3,0.2c0.7,0.2,0.9,0.3,1.2,1l4.1,9.3c0.3,0.7,0.5,0.8,0.6,0.8c0.2,0,0.3-0.1,0.4-0.5
			L76.9,33.7L76.9,33.7z"/>
		<path fill="#FFFFFF" d="M92,34.2c0-1.1,0.1-1.1,2.1-1.1c3.2,0,1.9,1.9,2.7,1.9c0.4,0,0.3-0.5,0.3-0.7L97,32.6
			c0-0.1-0.1-0.3-0.3-0.3c-1.5,0-2.6,0.1-3.8,0.1c-2.5,0-3.7-0.1-4.4-0.1c-0.2,0-0.4,0.1-0.4,0.3c0,0.6,1.9,0.1,1.9,1.6v7.5
			c0,2-1.3,1.1-1.3,1.8c0,0.1,0.1,0.2,0.3,0.2c0.9,0,1.6-0.1,2.1-0.1c0.8,0,1.8,0.1,4.3,0.1c1.4,0,2.3-1.3,2.3-2.6
			c0-0.3-0.1-0.4-0.2-0.4c-0.6,0-0.4,2.1-4.5,2.1c-1.2,0-1.1-0.6-1.1-1.6v-2c0-0.9-0.1-1.1,0.7-1.1h1.2c1.7,0,1.3,1.7,1.8,1.7
			c0.4,0,0.3-0.6,0.3-0.8l-0.1-2.8c0-0.4-0.2-0.4-0.3-0.4c-0.3,0-0.4,1.5-1.8,1.5h-1c-0.7,0-0.7-0.1-0.7-0.8V34.2L92,34.2z"/>
		<path fill-rule="evenodd" clip-rule="evenodd" fill="#FFFFFF" d="M111.9,33.9c0-1,0.5-1,1.1-1c1.7,0,2.6,1.2,2.6,2.8
			c0,0.9-0.1,1.8-2.6,1.8c-0.5,0-1.1,0-1.1-0.4V33.9L111.9,33.9z M109.9,41.3c0,2-1.3,1.5-1.3,2c0,0.3,0.3,0.3,0.5,0.3
			c0.8,0,1.7-0.1,2.5-0.1c0.7,0,1.1,0.1,1.4,0.1c0.4,0,0.5-0.1,0.5-0.2c0-0.6-1.6,0.1-1.6-1.6V39c0-0.6-0.1-0.7,0.8-0.7
			c0.8,0,1.1,0.1,1.5,0.8l1.4,2.5c0.5,0.9,1,1.9,2.3,1.9c0.7,0,1.8-0.4,1.8-0.8c0-0.1-0.1-0.2-0.2-0.2c-0.2,0-0.3,0.1-0.5,0.1
			c-0.1,0-0.4,0-0.6-0.3c-1.2-2-2.6-4.3-2.6-4.4c0-0.2,0.5-0.3,1-0.7c0.5-0.4,1-1,1-2c0-0.7-0.3-3-4-3c-1.1,0-2.2,0.1-3.3,0.1
			c-1,0-1.2-0.1-1.9-0.1c-0.2,0-0.4,0.1-0.4,0.2c0,0.6,1.8,0,1.8,1.8V41.3L109.9,41.3z"/>
		<path fill="#FFFFFF" d="M131.1,42.5c0.1,0.4,0.1,0.5,0.5,0.6c1,0.2,1.8,0.6,2.8,0.6c2.2,0,3.7-1.4,3.7-3.5c0-2-1.1-2.7-2.9-3.5
			c-2.2-0.9-3.1-1.2-3.1-2.2c0-1.1,0.7-1.7,1.8-1.7c2.8,0,3.1,3,3.5,3c0.4,0,0.4-0.2,0.4-0.5l-0.2-2.1c0-0.4,0-0.6-0.2-0.6
			c-0.2,0-0.6,0.3-0.8,0.3c-0.5,0-1.2-0.6-2.5-0.6c-1.9,0-3.3,1.3-3.3,3.2c0,1.7,1,2.3,2.4,2.9c2.7,1.1,3.7,1.3,3.7,2.7
			c0,1.3-1,2-2.3,2c-1.8,0-2.9-1.5-3.4-3c-0.1-0.2-0.1-0.4-0.4-0.4c-0.4,0-0.2,0.5-0.2,0.7L131.1,42.5L131.1,42.5z"/>
		<path fill="#FFFFFF" d="M153,34c0-1.5,1.2-0.9,1.2-1.5c0-0.2-0.1-0.2-0.6-0.2c-0.9,0-1.5,0.1-2.1,0.1c-0.6,0-1.2-0.1-1.9-0.1
			c-0.1,0-0.6,0-0.6,0.2c0,0.6,1.9,0.1,1.9,1.6v7.7c0,1.5-1.2,1.1-1.2,1.7c0,0.1,0,0.2,0.2,0.2c0.4,0,1.1-0.1,1.9-0.1
			c1.3,0,1.9,0.1,2.5,0.1c0.4,0,0.5-0.1,0.5-0.2c0-0.5-1.9,0.2-1.9-1.7V34L153,34z"/>
		<path fill="#FFFFFF" d="M169.9,41.5c0,1.9-1.9,1.1-1.9,1.8c0,0.4,0.3,0.3,0.6,0.3c0.7,0,1.2-0.1,2.3-0.1c1.1,0,1.7,0.1,2.3,0.1
			c0.5,0,0.8,0,0.8-0.3c0-0.4-2.1,0-2.1-2v-7.2c0-0.8,0.2-0.8,0.8-0.8h1.4c1.9-0.1,1.4,1.7,2,1.7c0.4,0,0.2-0.6,0.2-0.8l-0.2-1.5
			c0-0.2,0-0.4-0.3-0.4c-1.5,0-2.6,0.1-5.1,0.1s-3.5-0.1-5.1-0.1c-0.3,0-0.3,0.2-0.3,0.4l-0.3,2.1c0,0.2-0.1,0.6,0.2,0.6
			c0.7,0,0.2-2.1,2.1-2.1h1.4c0.7,0,0.8,0.1,0.8,0.8V41.5L169.9,41.5z"/>
		<path fill="#FFFFFF" d="M191.1,38.5c0.2,0.4,0.3,0.5,0.3,1v2.1c0,2-1.8,1.2-1.8,1.9c0,0.1,0.2,0.2,0.4,0.2c0.5,0,0.9-0.1,2.4-0.1
			c2.1,0,2.3,0.1,2.5,0.1c0.3,0,0.5,0,0.5-0.2c0-0.8-2,0.3-2-1.7v-2.4c0-0.6,0-0.7,0.2-1l2.2-4c1-1.8,1.7-1.4,1.7-1.9
			c0-0.1-0.1-0.2-0.3-0.2c-0.5,0-0.6,0.1-1.9,0.1c-0.9,0-1.2-0.1-1.4-0.1c-0.2,0-0.3,0.1-0.3,0.2c0,0.5,1.6,0.1,1.6,1.2
			c0,0.1,0,0.3-0.3,0.9l-1.5,2.6c-0.2,0.4-0.3,0.5-0.4,0.5c-0.1,0-0.2-0.2-0.5-0.7l-1.5-3c-0.2-0.4-0.2-0.6-0.2-0.7
			c0-0.5,0.9-0.4,0.9-0.8c0-0.1,0-0.2-0.3-0.2c-1,0.1-1.7,0.1-2.4,0.1c-0.8,0-1.2-0.1-1.5-0.1c-0.4,0-0.6,0-0.6,0.2
			c0,0.5,1,0.1,1.7,1.3L191.1,38.5L191.1,38.5z"/>
		<path fill-rule="evenodd" clip-rule="evenodd" fill="#FFFFFF" d="M7.6,4.5c0-1.9,0.1-3.1,2.3-3.1c3,0,5.4,2.1,5.4,5.1
			c0,2.4-1,3.7-3.5,3.7h-2C7.9,10,7.6,9.9,7.6,8.3V4.5L7.6,4.5z M3.5,19.3c0,3.2-2.9,2.3-2.9,3.4c0,0.5,0.3,0.5,1.1,0.5
			c0.7,0,1.6-0.1,2.4-0.1c1.7,0,3.3,0.1,8.3,0.1c5.4,0,8.5-2.8,8.5-7.1c0-2.9-1.3-4.7-5.3-5.7v-0.1c2.4-0.8,3.6-2.6,3.6-4.6
			c0-0.8,0-5.6-8.2-5.6C8.2,0,5.4,0.1,2.6,0.1C1,0.1,0.8,0,0.6,0C0.4,0,0,0,0,0.5c0,1.6,3.5-0.2,3.5,4.3V19.3L3.5,19.3z M7.6,14.2
			c0-1.7,0.1-2.5,2-2.5c6.1,0,7,2.9,7,4.9c0,3.2-1.7,5.3-5,5.3c-3.2,0-4.1-0.9-4.1-4V14.2L7.6,14.2z"/>
		<path fill="#FFFFFF" d="M28.5,7.4c0-2.5,2-1.5,2-2.4c0-0.3-0.1-0.4-0.9-0.4c-1.5,0-2.5,0.1-3.4,0.1c-0.9,0-2-0.1-3-0.1
			c-0.2,0-0.9-0.1-0.9,0.4c0,0.9,3,0.2,3,2.6v12.6c0,2.5-1.9,1.8-1.9,2.7c0,0.1,0.1,0.3,0.3,0.3c0.7,0,1.8-0.1,3-0.1
			c2.1,0,3.1,0.1,4,0.1c0.6,0,0.9-0.1,0.9-0.4c0-0.8-3,0.4-3-2.9V7.4L28.5,7.4z"/>
		<path fill="#FFFFFF" d="M34.7,19.6c0,2.7-2.6,2.2-2.6,3.2c0,0.4,0.5,0.3,0.8,0.3c0.7,0,1.4-0.1,2.3-0.1c0.9,0,1.8,0.1,3.1,0.1
			c0.3,0,1,0,1-0.3c0-1.2-3.4,0.6-3.4-4.5V9.4C36,9.2,36.1,9,36.2,9c0.1,0,0.3,0.1,0.5,0.3L49.5,23c0.2,0.2,0.3,0.4,0.7,0.4
			c0.3,0,0.3-0.2,0.3-0.8V7.9c0-2.7,2.3-2.1,2.3-2.9c0-0.1,0-0.3-0.5-0.3c-0.2,0-1.2,0.1-2.8,0.1c-1.8,0-2.6-0.1-3-0.1
			C46.1,4.6,46,4.9,46,5c0,0.9,3.2,0.4,3.2,2.8v8.7c0,0.7-0.1,1-0.2,1c-0.2,0-0.5-0.3-0.8-0.7L37.5,5.3c-0.5-0.5-0.2-0.7-1-0.7
			c-1.4,0-2.1,0.1-2.8,0.1c-0.5,0-1-0.1-1.5-0.1c-0.3,0-0.5,0.2-0.5,0.4c0,1.3,3-0.4,3,4.6V19.6L34.7,19.6z"/>
		<path fill="#FFFFFF" d="M71.6,6.3c0-0.4,0-1-0.4-1c-0.4,0-0.5,0.7-1.1,0.7c-0.7,0-3-1.7-6.7-1.7c-6.7,0-9.4,5.8-9.4,10.2
			c0,2.1,1.2,8.8,9,8.8c2.9,0,5.9-1.2,8.4-2.6c0.2-0.1,0.3-0.3,0.3-0.7c0-0.4-0.1-1.1-0.1-2.2c0-3.4,1.8-1.9,1.8-3.1
			c0-0.3-0.2-0.4-0.3-0.4c-1,0-1.9,0.1-2.9,0.1c-1.3,0-2.5-0.1-3.7-0.1c-0.5,0-1.3-0.2-1.3,0.5c0,1,3.2-0.8,3.2,3.3
			c0,1.5-0.1,3.7-4.9,3.7c-4.3,0-6.2-4.8-6.2-8.3c0-6.6,3.5-8.2,6-8.2c7,0,7,5.7,7.6,5.7c0.5,0,0.7-0.1,0.7-0.5V6.3L71.6,6.3z"/>
		<path fill="#FFFFFF" d="M92.9,7.4c0-2.6,1.9-1.4,1.9-2.4c0-0.2-0.1-0.3-0.6-0.3c-1.1,0-2.1,0.1-3.5,0.1c-1.6,0-2.3-0.1-3.4-0.1
			c-0.4,0-0.6-0.1-0.6,0.4c0,0.8,2.9-0.2,2.9,2.7v3.7c0,0.6-0.2,1.2-0.9,1.2h-7.9c-0.6,0-0.7-0.3-0.7-1V7.4c0-2.3,2-1.6,2-2.4
			c0-0.3-0.2-0.4-0.6-0.4c-0.8,0-1.8,0.1-3.4,0.1c-1.4,0-2.2-0.1-3-0.1c-0.5,0-1.3,0-1.3,0.4c0,1,3-0.2,3,2.7v11.7
			c0,3.2-2.3,2.3-2.3,3.3c0,0.3,0.3,0.4,0.6,0.4c1.3,0,2.4-0.1,3.6-0.1c1.9,0,2.8,0.1,3.9,0.1c0.9,0,0.8-0.2,0.8-0.4
			c0-0.9-3.3,0-3.3-3.2v-4.1c0-1.2,0.1-1.4,1.3-1.4h7.1c1.2,0,1.1,0.3,1.1,1.4v4.7c0,2.5-1.9,1.8-1.9,2.7c0,0.2,0.2,0.3,0.5,0.3
			c1.4,0,2.4-0.1,3.4-0.1c1.1,0,2.7,0.1,3.5,0.1c0.3,0,0.6,0,0.6-0.3c0-1-2.8-0.1-2.8-3.4V7.4L92.9,7.4z"/>
		<path fill-rule="evenodd" clip-rule="evenodd" fill="#FFFFFF" d="M102.9,15.3c-0.5,0-0.9,0-0.9-0.2c0-0.4,0.2-0.7,0.3-1l2-4.6
			c0.1-0.3,0.2-0.3,0.3-0.3c0.1,0,0.1,0,0.2,0.2l2.2,4.7c0.1,0.3,0.3,0.6,0.3,1c0,0.3-0.4,0.2-0.9,0.2H102.9L102.9,15.3z
			 M107.3,16.7c0.7,0,0.8,0.3,1.7,2.3c0.3,0.7,0.5,1.2,0.5,1.8c0,1.6-1.9,1.3-1.9,2.1c0,0.4,0.3,0.3,0.8,0.3c0.8,0,1.8-0.1,2.9-0.1
			c1.8,0,2.5,0.1,3.4,0.1c0.7,0,1,0.1,1-0.4c0-0.9-1.4,0.2-2.3-1.7l-7.2-16c-0.3-0.8-0.4-0.8-0.6-0.8c-0.3,0-0.5,0.5-0.7,0.9
			l-7.2,15.8c-0.7,1.5-2,1.3-2,1.9c0,0.3,0.4,0.3,0.8,0.3c0.8,0,1.5-0.1,2.3-0.1c0.9,0,1.6,0.1,2.5,0.1c0.6,0,1.4,0.2,1.4-0.4
			c0-0.7-2.9-0.3-2.9-2.2c0-0.6,0.4-1.5,0.6-2.1c0.6-1.7,1.2-1.8,1.6-1.8H107.3L107.3,16.7z"/>
		<path fill="#FFFFFF" d="M119.9,11.4c0-0.2,0-0.7,0.2-0.7c0.1,0,0.2,0.3,0.3,0.4l5.2,11.3c0.1,0.3,0.3,0.7,0.7,0.7
			c0.4,0,0.5-0.4,0.7-0.7l5-10.3c0.4-0.9,0.7-1.4,0.8-1.4c0.2,0,0.2,0.4,0.2,1.2l0.4,7.9c0.2,2.9-1.9,2-1.9,2.9
			c0,0.5,0.7,0.4,1.2,0.4c0.6,0,1.2-0.1,3-0.1c0.8,0,1.5,0.1,2.3,0.1c0.9,0,1.3,0,1.3-0.4c0-1-2.4,0.2-2.6-3.2l-0.5-11.6
			c-0.1-3,2.5-2,2.5-2.9c0-0.2-0.1-0.3-0.8-0.3c-0.7,0-1.2,0.1-1.7,0.1c-0.4,0-0.9-0.1-1.5-0.1c-0.5,0-0.6,0.3-0.7,0.5l-6.2,12.7
			c0,0.1-0.3,0.5-0.4,0.5c-0.2,0-0.2-0.2-0.3-0.4l-5.9-12.6c-0.4-0.8-0.6-0.8-0.9-0.8c-0.9,0-1.9,0.1-2.5,0.1
			c-0.9,0-1.3-0.1-1.6-0.1c-0.2,0-0.3,0.2-0.3,0.4c0,1.2,2.8-0.1,2.7,4.2l-0.4,10.5c-0.1,2.7-2.3,2.1-2.3,3c0,0.2,0.1,0.4,0.5,0.4
			c0.4,0,1.3-0.1,2.6-0.1c1.2,0,1.8,0.1,2.7,0.1c0.7,0,0.6-0.3,0.6-0.4c0-1.1-2.9,0.4-2.8-4L119.9,11.4L119.9,11.4z"/>
		<path fill="#FFFFFF" d="M147,19.7c0,3.1-3,1.9-3,2.9c0,0.6,0.5,0.5,0.9,0.5c1.1,0,1.9-0.1,3.7-0.1c1.8,0,2.7,0.1,3.7,0.1
			c0.8,0,1.3,0.1,1.3-0.5c0-0.7-3.4,0-3.4-3.2V7.6c0-1.3,0.3-1.4,1.4-1.4h2.3c3.1-0.1,2.2,2.8,3.3,2.8c0.7,0,0.4-1,0.3-1.3l-0.3-2.4
			c0-0.3,0-0.6-0.4-0.6c-2.5,0-4.3,0.1-8.1,0.1c-3.9,0-5.7-0.1-8.1-0.1c-0.4,0-0.4,0.4-0.4,0.6l-0.4,3.5c-0.1,0.3-0.2,0.9,0.3,0.9
			c1.2,0,0.4-3.4,3.4-3.4h2.2c1.1,0,1.4,0.1,1.4,1.4V19.7L147,19.7z"/>
		<path fill-rule="evenodd" clip-rule="evenodd" fill="#FFFFFF" d="M158.4,14.5c0,5.3,3.6,8.8,8.9,8.8c8.5,0,10.1-6.4,10.1-10.1
			c0-5.5-4-8.9-9.2-8.9C162,4.4,158.4,8.7,158.4,14.5L158.4,14.5z M161.7,13c0-3.8,1.3-7.4,5.8-7.5c3.4-0.1,6.7,3,6.7,8.8
			c0,4.3-1.5,7.9-6.1,7.9C163.4,22.3,161.7,16.8,161.7,13L161.7,13z"/>
		<path fill="#FFFFFF" d="M181.2,19.6c0,2.7-2.6,2.2-2.6,3.2c0,0.4,0.5,0.3,0.8,0.3c0.7,0,1.4-0.1,2.3-0.1c0.9,0,1.8,0.1,3.1,0.1
			c0.3,0,1,0,1-0.3c0-1.2-3.4,0.6-3.4-4.5V9.4c0-0.2,0.1-0.4,0.2-0.4c0.1,0,0.3,0.1,0.5,0.3L196,23c0.2,0.2,0.3,0.4,0.7,0.4
			c0.3,0,0.3-0.2,0.3-0.8V7.9c0-2.7,2.3-2.1,2.3-2.9c0-0.1,0-0.3-0.5-0.3c-0.2,0-1.2,0.1-2.8,0.1c-1.8,0-2.6-0.1-3-0.1
			c-0.3,0-0.4,0.3-0.4,0.4c0,0.9,3.2,0.4,3.2,2.8v8.7c0,0.7-0.1,1-0.2,1c-0.2,0-0.5-0.3-0.8-0.7L184,5.3c-0.5-0.5-0.2-0.7-1-0.7
			c-1.4,0-2.1,0.1-2.8,0.1c-0.5,0-1-0.1-1.5-0.1c-0.3,0-0.5,0.2-0.5,0.4c0,1.3,3-0.4,3,4.6V19.6L181.2,19.6z"/>
	</g>
	<g>
		<path fill="#FFFFFF" d="M13.8,56.8c-0.1-0.7-0.5-1.1-1.1-1.1c-0.8,0-1.1,0.5-1.1,0.9c0,0.4,0.3,0.7,0.9,0.9l0.7,0.3
			c0.9,0.3,1.4,0.8,1.4,1.5c0,0.9-0.8,1.5-1.9,1.5c-1.1,0-1.8-0.5-1.9-1.6h0.7c0.1,0.6,0.4,1,1.2,1c0.6,0,1.1-0.4,1.1-0.9
			c0-0.4-0.4-0.7-0.9-0.9l-0.8-0.3c-0.9-0.3-1.3-0.8-1.3-1.5c0-1,0.9-1.5,1.8-1.5c1,0,1.7,0.5,1.8,1.7H13.8z"/>
		<path fill="#FFFFFF" d="M18.6,55.8h-1.5v-0.7h3.7v0.7h-1.5v4.9h-0.7V55.8z"/>
		<path fill="#FFFFFF" d="M26.7,59.4h-2.8l-0.5,1.3h-0.8l2.4-5.5h0.7l2.4,5.5h-0.8L26.7,59.4z M25.3,56.1l-1.1,2.7h2.2L25.3,56.1z"
			/>
		<path fill="#FFFFFF" d="M31.2,55.8h-1.5v-0.7h3.7v0.7H32v4.9h-0.7V55.8z"/>
		<path fill="#FFFFFF" d="M36.3,55.2h3.1v0.7h-2.3v1.7h2.3v0.7h-2.3v1.8h2.3v0.7h-3.1V55.2z"/>
		<path fill="#FFFFFF" d="M46.6,55.2h0.7v3.3c0,0.9,0.5,1.6,1.6,1.6c1,0,1.6-0.7,1.6-1.6v-3.3h0.7v3.5c0,1.2-1,2.1-2.3,2.1
			c-1.3,0-2.3-0.9-2.3-2.1V55.2z"/>
		<path fill="#FFFFFF" d="M58.4,55.2h0.7v5.5h-0.7l-3.2-4.3h0v4.3h-0.7v-5.5h0.7l3.2,4.3h0V55.2z"/>
		<path fill="#FFFFFF" d="M62.4,55.2h0.7v5.5h-0.7V55.2z"/>
		<path fill="#FFFFFF" d="M70.2,55.2H71l-2.2,5.5h-0.6L66,55.2h0.8l1.7,4.4h0L70.2,55.2z"/>
		<path fill="#FFFFFF" d="M73.8,55.2h3.1v0.7h-2.3v1.7h2.3v0.7h-2.3v1.8h2.3v0.7h-3.1V55.2z"/>
		<path fill="#FFFFFF" d="M80.7,58.4v2.4H80v-5.5h1.7c1.1,0,2,0.6,2,1.7c0,1-0.8,1.6-1.8,1.6l2.3,2.2h-1.1L80.7,58.4z M80.7,57.9
			c0.1,0,0.2,0,0.7,0c1.1,0,1.5-0.5,1.5-1.1c0-0.6-0.5-1.1-1.3-1.1h-0.9V57.9z"/>
		<path fill="#FFFFFF" d="M89.8,56.8c-0.1-0.7-0.5-1.1-1.1-1.1c-0.8,0-1.1,0.5-1.1,0.9c0,0.4,0.3,0.7,0.9,0.9l0.7,0.3
			c0.9,0.3,1.4,0.8,1.4,1.5c0,0.9-0.8,1.5-1.9,1.5c-1.1,0-1.8-0.5-1.9-1.6h0.7c0.1,0.6,0.4,1,1.2,1c0.6,0,1.1-0.4,1.1-0.9
			c0-0.4-0.4-0.7-0.9-0.9l-0.8-0.3c-0.9-0.3-1.3-0.8-1.3-1.5c0-1,0.9-1.5,1.8-1.5c1,0,1.7,0.5,1.8,1.7H89.8z"/>
		<path fill="#FFFFFF" d="M93.6,55.2h0.7v5.5h-0.7V55.2z"/>
		<path fill="#FFFFFF" d="M98.6,55.8h-1.5v-0.7h3.7v0.7h-1.5v4.9h-0.7V55.8z"/>
		<path fill="#FFFFFF" d="M107.1,55.2h0.9l-2,3.3v2.2h-0.7v-2.2l-2-3.3h0.9l1.5,2.6L107.1,55.2z"/>
		<path fill="#FFFFFF" d="M117.8,55.1c2,0,3.1,1.5,3.1,2.8c0,1.4-1.1,2.8-3.1,2.8c-2,0-3.1-1.5-3.1-2.8
			C114.7,56.6,115.8,55.1,117.8,55.1z M117.8,60.1c1.2,0,2.3-0.9,2.3-2.2c0-1.3-1.1-2.2-2.3-2.2c-1.2,0-2.3,0.9-2.3,2.2
			C115.5,59.3,116.6,60.1,117.8,60.1z"/>
		<path fill="#FFFFFF" d="M124.1,55.2h3.1v0.7h-2.3v1.7h2.3v0.7h-2.3v2.5h-0.7V55.2z"/>
		<path fill="#FFFFFF" d="M138.2,55.2h0.7v5.5h-0.7l-3.2-4.3h0v4.3h-0.8v-5.5h0.7l3.2,4.3h0V55.2z"/>
		<path fill="#FFFFFF" d="M142.2,55.2h3.1v0.7H143v1.7h2.3v0.7H143v1.8h2.3v0.7h-3.1V55.2z"/>
		<path fill="#FFFFFF" d="M154.8,55.2h0.8l-1.8,5.5h-0.6l-1.4-4.4h0l-1.4,4.4h-0.6l-1.8-5.5h0.8l1.3,4.2h0l1.4-4.2h0.7l1.4,4.2h0
			L154.8,55.2z"/>
		<path fill="#FFFFFF" d="M165.7,55.2h0.9l-2,3.3v2.2h-0.7v-2.2l-2-3.3h0.9l1.5,2.6L165.7,55.2z"/>
		<path fill="#FFFFFF" d="M172,55.1c2,0,3.1,1.5,3.1,2.8c0,1.4-1.1,2.8-3.1,2.8s-3.1-1.5-3.1-2.8C168.9,56.6,170,55.1,172,55.1z
			 M172,60.1c1.2,0,2.3-0.9,2.3-2.2c0-1.3-1.1-2.2-2.3-2.2c-1.2,0-2.3,0.9-2.3,2.2C169.7,59.3,170.8,60.1,172,60.1z"/>
		<path fill="#FFFFFF" d="M179,58.4v2.4h-0.7v-5.5h1.7c1.1,0,2,0.6,2,1.7c0,1-0.8,1.6-1.8,1.6l2.3,2.2h-1.1L179,58.4z M179,57.9
			c0.1,0,0.2,0,0.7,0c1.1,0,1.5-0.5,1.5-1.1c0-0.6-0.5-1.1-1.3-1.1H179V57.9z"/>
		<path fill="#FFFFFF" d="M188.5,55.2h1l-2.7,2.7l2.7,2.8h-1.1l-2.4-2.5v2.5h-0.7v-5.5h0.7v2.5L188.5,55.2z"/>
	</g>
</g>
<line fill="#FFFFFF" stroke="#FFFFFF" stroke-width="1.25" x1="215.8" y1="3.5" x2="215.8" y2="63.2"/>
<g>
	<path fill="#FFFFFF" d="M231.6,28.4v-1.8h1.8v1.8H231.6z M231.6,38.3v-8.2h1.7v8.2H231.6z"/>
	<path fill="#FFFFFF" d="M240.8,38.3v-5c0-1.3-0.7-1.8-1.7-1.8s-1.7,0.6-1.7,1.8v5h-1.7v-8.2h1.6v0.8c0.6-0.6,1.4-0.9,2.2-0.9
		c0.8,0,1.5,0.3,2,0.7c0.6,0.6,0.8,1.4,0.8,2.3v5.3H240.8z"/>
	<path fill="#FFFFFF" d="M249.9,38.3v-5c0-1.3-0.7-1.8-1.7-1.8s-1.7,0.6-1.7,1.8v5h-1.7v-8.2h1.6v0.8c0.6-0.6,1.4-0.9,2.2-0.9
		c0.8,0,1.5,0.3,2,0.7c0.6,0.6,0.8,1.4,0.8,2.3v5.3H249.9z"/>
	<path fill="#FFFFFF" d="M259.4,37.4c-0.5,0.6-1.4,1-2.5,1c-1.1,0-1.9-0.4-2.5-1c-0.8-0.8-1-1.9-1-3.3c0-1.4,0.2-2.4,1-3.2
		c0.5-0.6,1.3-1,2.5-1c1.1,0,1.9,0.4,2.5,1c0.8,0.8,1,1.9,1,3.2C260.4,35.6,260.2,36.6,259.4,37.4z M258.2,31.9
		c-0.3-0.3-0.7-0.5-1.2-0.5s-0.9,0.2-1.2,0.5c-0.5,0.5-0.6,1.4-0.6,2.3c0,0.9,0.1,1.8,0.6,2.3c0.3,0.3,0.7,0.5,1.2,0.5
		s0.9-0.2,1.2-0.5c0.5-0.5,0.6-1.4,0.6-2.3C258.7,33.3,258.7,32.4,258.2,31.9z"/>
	<path fill="#FFFFFF" d="M265.5,38.3h-1.4l-3-8.2h1.8l2,5.8l1.9-5.8h1.8L265.5,38.3z"/>
	<path fill="#FFFFFF" d="M274.1,38.3v-0.7c-0.6,0.6-1.2,0.8-2.2,0.8c-1,0-1.7-0.2-2.2-0.7c-0.4-0.4-0.7-1.1-0.7-1.8
		c0-1.4,1-2.4,2.8-2.4h2.2v-0.6c0-1-0.5-1.5-1.8-1.5c-0.9,0-1.3,0.2-1.8,0.8l-1.1-1c0.8-0.9,1.6-1.2,3-1.2c2.3,0,3.4,1,3.4,2.8v5.5
		H274.1z M274.1,34.7h-1.9c-1,0-1.5,0.4-1.5,1.2c0,0.7,0.5,1.2,1.5,1.2c0.6,0,1.1,0,1.5-0.5c0.2-0.2,0.4-0.6,0.4-1.2V34.7z"/>
	<path fill="#FFFFFF" d="M280.6,38.3c-1.5,0-2.3-1.1-2.3-2.3v-4.5h-0.9v-1.3h0.9v-2.5h1.7v2.5h1.6v1.3H280v4.5c0,0.6,0.3,1,0.9,1
		h0.7v1.4H280.6z"/>
	<path fill="#FFFFFF" d="M283.5,28.4v-1.8h1.8v1.8H283.5z M283.5,38.3v-8.2h1.7v8.2H283.5z"/>
	<path fill="#FFFFFF" d="M293.2,37.4c-0.5,0.6-1.4,1-2.5,1s-1.9-0.4-2.5-1c-0.8-0.8-1-1.9-1-3.3c0-1.4,0.2-2.4,1-3.2
		c0.5-0.6,1.3-1,2.5-1s1.9,0.4,2.5,1c0.8,0.8,1,1.9,1,3.2C294.1,35.6,293.9,36.6,293.2,37.4z M291.9,31.9c-0.3-0.3-0.7-0.5-1.2-0.5
		s-0.9,0.2-1.2,0.5c-0.5,0.5-0.6,1.4-0.6,2.3c0,0.9,0.1,1.8,0.6,2.3c0.3,0.3,0.7,0.5,1.2,0.5s0.9-0.2,1.2-0.5
		c0.5-0.5,0.6-1.4,0.6-2.3C292.5,33.3,292.4,32.4,291.9,31.9z"/>
	<path fill="#FFFFFF" d="M301.2,38.3v-5c0-1.3-0.7-1.8-1.7-1.8s-1.7,0.6-1.7,1.8v5h-1.7v-8.2h1.6v0.8c0.6-0.6,1.4-0.9,2.2-0.9
		c0.8,0,1.5,0.3,2,0.7c0.6,0.6,0.8,1.4,0.8,2.3v5.3H301.2z"/>
	<path fill="#FFFFFF" d="M315.5,35.3c0,0.1,0,0.3,0,0.4c0,0.1,0,0.2,0.1,0.3s0.1,0.1,0.2,0.1c0.3,0,0.5-0.1,0.8-0.3s0.5-0.4,0.7-0.7
		c0.2-0.3,0.4-0.7,0.5-1.1c0.1-0.4,0.2-0.9,0.2-1.4c0-0.8-0.1-1.4-0.4-2c-0.3-0.6-0.6-1.1-1.1-1.5c-0.5-0.4-1-0.7-1.6-0.9
		s-1.3-0.3-2-0.3c-0.8,0-1.5,0.1-2.2,0.4c-0.7,0.3-1.2,0.7-1.7,1.2c-0.5,0.5-0.8,1.1-1.1,1.8c-0.3,0.7-0.4,1.4-0.4,2.2
		c0,0.8,0.1,1.6,0.4,2.3c0.3,0.7,0.7,1.3,1.2,1.7c0.5,0.5,1.1,0.9,1.8,1.1c0.7,0.3,1.4,0.4,2.3,0.4c0.8,0,1.6-0.1,2.3-0.4
		c0.7-0.3,1.3-0.7,1.8-1.1h1.6c-0.6,1-1.5,1.7-2.5,2.3s-2.1,0.8-3.3,0.8c-1,0-2-0.2-2.8-0.5c-0.9-0.4-1.7-0.8-2.3-1.5
		s-1.2-1.4-1.6-2.3s-0.6-1.8-0.6-2.8c0-1,0.2-1.9,0.6-2.8s0.9-1.6,1.6-2.3c0.7-0.6,1.4-1.1,2.3-1.5s1.8-0.6,2.8-0.6
		c0.9,0,1.7,0.1,2.5,0.4c0.8,0.3,1.5,0.7,2.1,1.2c0.6,0.5,1.1,1.1,1.5,1.8c0.4,0.7,0.6,1.5,0.6,2.4c0,1-0.2,1.8-0.5,2.5
		c-0.3,0.7-0.8,1.3-1.3,1.7s-1,0.8-1.5,1c-0.5,0.2-0.9,0.3-1.2,0.3c-0.4,0-0.7-0.1-1-0.3c-0.2-0.2-0.4-0.5-0.4-0.8h0
		c-0.2,0.4-0.5,0.7-0.9,0.8c-0.4,0.2-0.8,0.3-1.2,0.3s-0.8-0.1-1.1-0.3c-0.4-0.2-0.7-0.4-1-0.7c-0.3-0.3-0.5-0.6-0.6-1
		c-0.2-0.4-0.2-0.8-0.2-1.3c0-0.6,0.1-1.2,0.3-1.8c0.2-0.6,0.5-1.1,0.8-1.6c0.4-0.5,0.8-0.8,1.3-1.1c0.5-0.3,1.1-0.4,1.7-0.4
		c0.4,0,0.8,0.1,1.3,0.3c0.4,0.2,0.8,0.5,1,1l0.3-1h1.6l-1.2,4.9C315.5,35,315.5,35.1,315.5,35.3z M310.9,35.5
		c0.3,0.3,0.6,0.5,1.1,0.5c0.3,0,0.7-0.1,0.9-0.3c0.3-0.2,0.5-0.4,0.7-0.7c0.2-0.3,0.4-0.6,0.5-0.9c0.1-0.3,0.2-0.7,0.2-1
		c0-0.5-0.1-0.9-0.4-1.2c-0.3-0.3-0.6-0.5-1-0.5c-0.3,0-0.7,0.1-1,0.3c-0.3,0.2-0.5,0.4-0.8,0.7c-0.2,0.3-0.4,0.6-0.5,0.9
		c-0.1,0.3-0.2,0.7-0.2,1C310.5,34.8,310.6,35.2,310.9,35.5z"/>
	<path fill="#FFFFFF" d="M327.9,37.7c-0.5,0.5-1.2,0.7-2,0.7c-0.9,0-1.6-0.2-2.2-1v0.9H322V26.7h1.7v4.2c0.6-0.7,1.3-0.9,2.2-0.9
		c0.8,0,1.5,0.3,2,0.7c0.8,0.8,0.9,2.2,0.9,3.5S328.7,36.9,327.9,37.7z M325.4,31.5c-1.5,0-1.7,1.3-1.7,2.7c0,1.5,0.2,2.7,1.7,2.7
		c1.5,0,1.7-1.3,1.7-2.7C327.1,32.7,326.9,31.5,325.4,31.5z"/>
	<path fill="#FFFFFF" d="M330.8,28.4v-1.8h1.8v1.8H330.8z M330.9,38.3v-8.2h1.7v8.2H330.9z"/>
	<path fill="#FFFFFF" d="M340,38.3v-5c0-1.3-0.7-1.8-1.7-1.8s-1.7,0.6-1.7,1.8v5H335v-8.2h1.6v0.8c0.6-0.6,1.4-0.9,2.2-0.9
		c0.8,0,1.5,0.3,2,0.7c0.6,0.6,0.8,1.4,0.8,2.3v5.3H340z"/>
	<path fill="#FFFFFF" d="M346.9,41.7c-1.3,0-2-0.3-2.9-1.1l1.1-1.1c0.5,0.5,1,0.7,1.8,0.7c1.4,0,1.9-1,1.9-2.1v-1.1
		c-0.6,0.7-1.3,0.9-2.1,0.9c-0.8,0-1.5-0.3-2-0.7c-0.8-0.8-0.9-2-0.9-3.4s0.1-2.6,0.9-3.4c0.5-0.5,1.2-0.7,2-0.7
		c0.9,0,1.5,0.2,2.2,1v-0.9h1.6v8.2C350.4,40.3,349,41.7,346.9,41.7z M347,31.5c-1.5,0-1.7,1.3-1.7,2.6s0.2,2.6,1.7,2.6
		c1.5,0,1.7-1.3,1.7-2.6S348.5,31.5,347,31.5z"/>
	<path fill="#FFFFFF" d="M357.8,38.3v-5.1c0-1.3-0.7-1.8-1.7-1.8c-0.9,0-1.7,0.6-1.7,1.8v5.1h-1.7V26.7h1.7v4.2
		c0.6-0.6,1.3-0.9,2.1-0.9c1.8,0,2.9,1.2,2.9,3v5.3H357.8z"/>
	<path fill="#FFFFFF" d="M366.3,38.3v-0.7c-0.6,0.6-1.2,0.8-2.2,0.8c-1,0-1.7-0.2-2.2-0.7c-0.4-0.4-0.7-1.1-0.7-1.8
		c0-1.4,1-2.4,2.8-2.4h2.2v-0.6c0-1-0.5-1.5-1.8-1.5c-0.9,0-1.3,0.2-1.8,0.8l-1.1-1c0.8-0.9,1.6-1.2,3-1.2c2.3,0,3.4,1,3.4,2.8v5.5
		H366.3z M366.3,34.7h-1.9c-1,0-1.5,0.4-1.5,1.2c0,0.7,0.5,1.2,1.5,1.2c0.6,0,1.1,0,1.5-0.5c0.2-0.2,0.4-0.6,0.4-1.2V34.7z"/>
	<path fill="#FFFFFF" d="M380.4,38.3v-5c0-1.3-0.7-1.8-1.7-1.8c-0.9,0-1.7,0.6-1.7,1.8v5.1h-1.7v-5c0-1.3-0.7-1.8-1.7-1.8
		S372,32,372,33.3v5h-1.7v-8.2h1.6v0.8c0.6-0.6,1.4-0.9,2.2-0.9c1,0,1.8,0.4,2.3,1.2c0.7-0.8,1.5-1.2,2.6-1.2c0.8,0,1.6,0.3,2.1,0.7
		c0.6,0.6,0.9,1.4,0.9,2.3v5.3H380.4z"/>
	<path fill="#FFFFFF" d="M386.9,38.3c-1.5,0-2.3-1.1-2.3-2.3v-4.5h-0.9v-1.3h0.9v-2.5h1.7v2.5h1.6v1.3h-1.6v4.5c0,0.6,0.3,1,0.9,1
		h0.7v1.4H386.9z"/>
	<path fill="#FFFFFF" d="M395.3,37.4c-0.5,0.6-1.4,1-2.5,1s-1.9-0.4-2.5-1c-0.8-0.8-1-1.9-1-3.3c0-1.4,0.2-2.4,1-3.2
		c0.5-0.6,1.3-1,2.5-1s1.9,0.4,2.5,1c0.8,0.8,1,1.9,1,3.2C396.3,35.6,396.1,36.6,395.3,37.4z M394.1,31.9c-0.3-0.3-0.7-0.5-1.2-0.5
		s-0.9,0.2-1.2,0.5c-0.5,0.5-0.6,1.4-0.6,2.3c0,0.9,0.1,1.8,0.6,2.3c0.3,0.3,0.7,0.5,1.2,0.5s0.9-0.2,1.2-0.5
		c0.5-0.5,0.6-1.4,0.6-2.3C394.6,33.3,394.6,32.4,394.1,31.9z"/>
	<path fill="#FFFFFF" d="M403.4,38.3v-5c0-1.3-0.7-1.8-1.7-1.8S400,32,400,33.3v5h-1.7v-8.2h1.6v0.8c0.6-0.6,1.4-0.9,2.2-0.9
		c0.8,0,1.5,0.3,2,0.7c0.6,0.6,0.8,1.4,0.8,2.3v5.3H403.4z"/>
</g>
</svg>
