<?xml version="1.0" encoding="utf-8"?>
<!-- Generator: Adobe Illustrator 17.1.0, SVG Export Plug-In . SVG Version: 6.00 Build 0)  -->
<!DOCTYPE svg PUBLIC "-//W3C//DTD SVG 1.1//EN" "http://www.w3.org/Graphics/SVG/1.1/DTD/svg11.dtd">
<svg version="1.1" id="Layer_1" xmlns="http://www.w3.org/2000/svg" xmlns:xlink="http://www.w3.org/1999/xlink" x="0px" y="0px"
	 viewBox="0 0 385.5 63.2" enable-background="new 0 0 385.5 63.2" xml:space="preserve">
<g>
	<g>
		<g>
			<g>
				<path fill="#FFFFFF" d="M14.1,34.2c0-1.8,1.2-1.2,1.2-1.7c0-0.2-0.1-0.2-0.3-0.2c-0.8,0-1.3,0.1-1.9,0.1c-0.5,0-0.9,0-1.4-0.1
					c-0.2,0-0.5-0.1-0.5,0.2c0,0.6,2,0.1,2,1.9v3.2c0,2.7-0.4,5.2-3.7,5.2c-3,0-3.6-2-3.6-4.5v-3.5c0-2.6,1.4-1.8,1.4-2.3
					c0-0.1,0-0.2-0.2-0.2c-0.3,0-1.5,0.1-2.3,0.1c-0.8,0-2.1-0.1-2.3-0.1c-0.1,0-0.3,0-0.3,0.3c0,0.6,1.7,0.1,1.7,1.5v5.2
					c0,3.1,1.7,4.5,4.7,4.5c4.6,0,5.5-2.7,5.5-6V34.2L14.1,34.2z"/>
				<path fill="#FFFFFF" d="M27.6,41.4c0,1.6-1.6,1.3-1.6,2c0,0.3,0.3,0.2,0.5,0.2c0.4,0,0.9-0.1,1.4-0.1c0.6,0,1.1,0.1,2,0.1
					c0.2,0,0.6,0,0.6-0.2c0-0.8-2.1,0.3-2.1-2.7v-5.4c0-0.1,0-0.3,0.1-0.3c0.1,0,0.2,0.1,0.3,0.2l8,8.3c0.1,0.1,0.2,0.2,0.4,0.2
					c0.2,0,0.2-0.1,0.2-0.5v-9c0-1.7,1.4-1.3,1.4-1.8c0,0,0-0.2-0.3-0.2c-0.2,0-0.7,0.1-1.8,0.1c-1.1,0-1.6-0.1-1.9-0.1
					c-0.2,0-0.3,0.2-0.3,0.3c0,0.5,2,0.2,2,1.7v5.3c0,0.4,0,0.6-0.1,0.6c-0.1,0-0.3-0.2-0.5-0.4l-6.7-7.1c-0.3-0.3-0.1-0.4-0.6-0.4
					c-0.9,0-1.3,0.1-1.7,0.1c-0.3,0-0.6-0.1-0.9-0.1c-0.2,0-0.3,0.1-0.3,0.3c0,0.8,1.9-0.3,1.9,2.8V41.4L27.6,41.4z"/>
				<path fill="#FFFFFF" d="M53.4,34c0-1.5,1.2-0.9,1.2-1.5c0-0.2-0.1-0.2-0.6-0.2c-0.9,0-1.5,0.1-2.1,0.1c-0.6,0-1.2-0.1-1.9-0.1
					c-0.1,0-0.6,0-0.6,0.2c0,0.6,1.9,0.1,1.9,1.6v7.7c0,1.5-1.2,1.1-1.2,1.7c0,0.1,0,0.2,0.2,0.2c0.4,0,1.1-0.1,1.9-0.1
					c1.3,0,1.9,0.1,2.5,0.1c0.4,0,0.5-0.1,0.5-0.2c0-0.5-1.9,0.2-1.9-1.7V34L53.4,34z"/>
				<path fill="#FFFFFF" d="M76.9,33.7c0.4-0.9,1.1-0.9,1.1-1.2c0-0.3-0.2-0.2-0.6-0.2c-0.5,0-0.9,0.1-1.4,0.1
					c-0.5,0-0.9-0.1-1.4-0.1c-0.2,0-0.7,0-0.7,0.3c0,0.6,1.7,0,1.7,1.5c0,0.3,0,0.8-0.5,1.9l-2.3,4.9c0,0.1-0.1,0.3-0.2,0.3
					c-0.1,0-0.2-0.2-0.2-0.3l-2.2-5.1c-0.4-1-0.6-1.7-0.6-2.2c0-0.7,1-0.4,1-0.9c0-0.3-0.1-0.3-0.6-0.3c-0.3,0-0.7,0.1-1.8,0.1
					c-0.6,0-1.1-0.1-1.7-0.1c-0.2,0-0.8-0.1-0.8,0.3c0,0.1,0.2,0.2,0.3,0.2c0.7,0.2,0.9,0.3,1.2,1l4.1,9.3c0.3,0.7,0.5,0.8,0.6,0.8
					c0.2,0,0.3-0.1,0.4-0.5L76.9,33.7L76.9,33.7z"/>
				<path fill="#FFFFFF" d="M92,34.2c0-1.1,0.1-1.1,2.1-1.1c3.2,0,1.9,1.9,2.7,1.9c0.4,0,0.3-0.5,0.3-0.7L97,32.6
					c0-0.1-0.1-0.3-0.3-0.3c-1.5,0-2.6,0.1-3.8,0.1c-2.5,0-3.7-0.1-4.4-0.1c-0.2,0-0.4,0.1-0.4,0.3c0,0.6,1.9,0.1,1.9,1.6v7.5
					c0,2-1.3,1.1-1.3,1.8c0,0.1,0.1,0.2,0.3,0.2c0.9,0,1.6-0.1,2.1-0.1c0.8,0,1.8,0.1,4.3,0.1c1.4,0,2.3-1.3,2.3-2.6
					c0-0.3-0.1-0.4-0.2-0.4c-0.6,0-0.4,2.1-4.5,2.1c-1.2,0-1.1-0.6-1.1-1.6v-2c0-0.9-0.1-1.1,0.7-1.1h1.2c1.7,0,1.3,1.7,1.8,1.7
					c0.4,0,0.3-0.6,0.3-0.8l-0.1-2.8c0-0.4-0.2-0.4-0.3-0.4c-0.3,0-0.4,1.5-1.8,1.5h-1c-0.7,0-0.7-0.1-0.7-0.8V34.2L92,34.2z"/>
				<path fill-rule="evenodd" clip-rule="evenodd" fill="#FFFFFF" d="M111.9,33.9c0-1,0.5-1,1.1-1c1.7,0,2.6,1.2,2.6,2.8
					c0,0.9-0.1,1.8-2.6,1.8c-0.5,0-1.1,0-1.1-0.4V33.9L111.9,33.9z M109.9,41.3c0,2-1.3,1.5-1.3,2c0,0.3,0.3,0.3,0.5,0.3
					c0.8,0,1.7-0.1,2.5-0.1c0.7,0,1.1,0.1,1.4,0.1c0.4,0,0.5-0.1,0.5-0.2c0-0.6-1.6,0.1-1.6-1.6V39c0-0.6-0.1-0.7,0.8-0.7
					c0.8,0,1.1,0.1,1.5,0.8l1.4,2.5c0.5,0.9,1,1.9,2.3,1.9c0.7,0,1.8-0.4,1.8-0.8c0-0.1-0.1-0.2-0.2-0.2c-0.2,0-0.3,0.1-0.5,0.1
					c-0.1,0-0.4,0-0.6-0.3c-1.2-2-2.6-4.3-2.6-4.4c0-0.2,0.5-0.3,1-0.7c0.5-0.4,1-1,1-2c0-0.7-0.3-3-4-3c-1.1,0-2.2,0.1-3.3,0.1
					c-1,0-1.2-0.1-1.9-0.1c-0.2,0-0.4,0.1-0.4,0.2c0,0.6,1.8,0,1.8,1.8V41.3L109.9,41.3z"/>
				<path fill="#FFFFFF" d="M131.1,42.5c0.1,0.4,0.1,0.5,0.5,0.6c1,0.2,1.8,0.6,2.8,0.6c2.2,0,3.7-1.4,3.7-3.5c0-2-1.1-2.7-2.9-3.5
					c-2.2-0.9-3.1-1.2-3.1-2.2c0-1.1,0.7-1.7,1.8-1.7c2.8,0,3.1,3,3.5,3c0.4,0,0.4-0.2,0.4-0.5l-0.2-2.1c0-0.4,0-0.6-0.2-0.6
					c-0.2,0-0.6,0.3-0.8,0.3c-0.5,0-1.2-0.6-2.5-0.6c-1.9,0-3.3,1.3-3.3,3.2c0,1.7,1,2.3,2.4,2.9c2.7,1.1,3.7,1.3,3.7,2.7
					c0,1.3-1,2-2.3,2c-1.8,0-2.9-1.5-3.4-3c-0.1-0.2-0.1-0.4-0.4-0.4c-0.4,0-0.2,0.5-0.2,0.7L131.1,42.5L131.1,42.5z"/>
				<path fill="#FFFFFF" d="M153,34c0-1.5,1.2-0.9,1.2-1.5c0-0.2-0.1-0.2-0.6-0.2c-0.9,0-1.5,0.1-2.1,0.1c-0.6,0-1.2-0.1-1.9-0.1
					c-0.1,0-0.6,0-0.6,0.2c0,0.6,1.9,0.1,1.9,1.6v7.7c0,1.5-1.2,1.1-1.2,1.7c0,0.1,0,0.2,0.2,0.2c0.4,0,1.1-0.1,1.9-0.1
					c1.3,0,1.9,0.1,2.5,0.1c0.4,0,0.5-0.1,0.5-0.2c0-0.5-1.9,0.2-1.9-1.7V34L153,34z"/>
				<path fill="#FFFFFF" d="M169.9,41.5c0,1.9-1.9,1.1-1.9,1.8c0,0.4,0.3,0.3,0.6,0.3c0.7,0,1.2-0.1,2.3-0.1c1.1,0,1.7,0.1,2.3,0.1
					c0.5,0,0.8,0,0.8-0.3c0-0.4-2.1,0-2.1-2v-7.2c0-0.8,0.2-0.8,0.8-0.8h1.4c1.9-0.1,1.4,1.7,2,1.7c0.4,0,0.2-0.6,0.2-0.8l-0.2-1.5
					c0-0.2,0-0.4-0.3-0.4c-1.5,0-2.6,0.1-5.1,0.1s-3.5-0.1-5.1-0.1c-0.3,0-0.3,0.2-0.3,0.4l-0.3,2.1c0,0.2-0.1,0.6,0.2,0.6
					c0.7,0,0.2-2.1,2.1-2.1h1.4c0.7,0,0.8,0.1,0.8,0.8V41.5L169.9,41.5z"/>
				<path fill="#FFFFFF" d="M191.1,38.5c0.2,0.4,0.3,0.5,0.3,1v2.1c0,2-1.8,1.2-1.8,1.9c0,0.1,0.2,0.2,0.4,0.2
					c0.5,0,0.9-0.1,2.4-0.1c2.1,0,2.3,0.1,2.5,0.1c0.3,0,0.5,0,0.5-0.2c0-0.8-2,0.3-2-1.7v-2.4c0-0.6,0-0.7,0.2-1l2.2-4
					c1-1.8,1.7-1.4,1.7-1.9c0-0.1-0.1-0.2-0.3-0.2c-0.5,0-0.6,0.1-1.9,0.1c-0.9,0-1.2-0.1-1.4-0.1c-0.2,0-0.3,0.1-0.3,0.2
					c0,0.5,1.6,0.1,1.6,1.2c0,0.1,0,0.3-0.3,0.9l-1.5,2.6c-0.2,0.4-0.3,0.5-0.4,0.5c-0.1,0-0.2-0.2-0.5-0.7l-1.5-3
					c-0.2-0.4-0.2-0.6-0.2-0.7c0-0.5,0.9-0.4,0.9-0.8c0-0.1,0-0.2-0.3-0.2c-1,0.1-1.7,0.1-2.4,0.1c-0.8,0-1.2-0.1-1.5-0.1
					c-0.4,0-0.6,0-0.6,0.2c0,0.5,1,0.1,1.7,1.3L191.1,38.5L191.1,38.5z"/>
				<path fill-rule="evenodd" clip-rule="evenodd" fill="#FFFFFF" d="M7.6,4.5c0-1.9,0.1-3.1,2.3-3.1c3,0,5.4,2.1,5.4,5.1
					c0,2.4-1,3.7-3.5,3.7h-2C7.9,10,7.6,9.9,7.6,8.3V4.5L7.6,4.5z M3.5,19.3c0,3.2-2.9,2.3-2.9,3.4c0,0.5,0.3,0.5,1.1,0.5
					c0.7,0,1.6-0.1,2.4-0.1c1.7,0,3.3,0.1,8.3,0.1c5.4,0,8.5-2.8,8.5-7.1c0-2.9-1.3-4.7-5.3-5.7v-0.1c2.4-0.8,3.6-2.6,3.6-4.6
					c0-0.8,0-5.6-8.2-5.6C8.2,0,5.4,0.1,2.6,0.1C1,0.1,0.8,0,0.6,0C0.4,0,0,0,0,0.5c0,1.6,3.5-0.2,3.5,4.3V19.3L3.5,19.3z M7.6,14.2
					c0-1.7,0.1-2.5,2-2.5c6.1,0,7,2.9,7,4.9c0,3.2-1.7,5.3-5,5.3c-3.2,0-4.1-0.9-4.1-4V14.2L7.6,14.2z"/>
				<path fill="#FFFFFF" d="M28.5,7.4c0-2.5,2-1.5,2-2.4c0-0.3-0.1-0.4-0.9-0.4c-1.5,0-2.5,0.1-3.4,0.1c-0.9,0-2-0.1-3-0.1
					c-0.2,0-0.9-0.1-0.9,0.4c0,0.9,3,0.2,3,2.6v12.6c0,2.5-1.9,1.8-1.9,2.7c0,0.1,0.1,0.3,0.3,0.3c0.7,0,1.8-0.1,3-0.1
					c2.1,0,3.1,0.1,4,0.1c0.6,0,0.9-0.1,0.9-0.4c0-0.8-3,0.4-3-2.9V7.4L28.5,7.4z"/>
				<path fill="#FFFFFF" d="M34.7,19.6c0,2.7-2.6,2.2-2.6,3.2c0,0.4,0.5,0.3,0.8,0.3c0.7,0,1.4-0.1,2.3-0.1c0.9,0,1.8,0.1,3.1,0.1
					c0.3,0,1,0,1-0.3c0-1.2-3.4,0.6-3.4-4.5V9.4C36,9.2,36.1,9,36.2,9c0.1,0,0.3,0.1,0.5,0.3L49.5,23c0.2,0.2,0.3,0.4,0.7,0.4
					c0.3,0,0.3-0.2,0.3-0.8V7.9c0-2.7,2.3-2.1,2.3-2.9c0-0.1,0-0.3-0.5-0.3c-0.2,0-1.2,0.1-2.8,0.1c-1.8,0-2.6-0.1-3-0.1
					C46.1,4.6,46,4.9,46,5c0,0.9,3.2,0.4,3.2,2.8v8.7c0,0.7-0.1,1-0.2,1c-0.2,0-0.5-0.3-0.8-0.7L37.5,5.3c-0.5-0.5-0.2-0.7-1-0.7
					c-1.4,0-2.1,0.1-2.8,0.1c-0.5,0-1-0.1-1.5-0.1c-0.3,0-0.5,0.2-0.5,0.4c0,1.3,3-0.4,3,4.6V19.6L34.7,19.6z"/>
				<path fill="#FFFFFF" d="M71.6,6.3c0-0.4,0-1-0.4-1c-0.4,0-0.5,0.7-1.1,0.7c-0.7,0-3-1.7-6.7-1.7c-6.7,0-9.4,5.8-9.4,10.2
					c0,2.1,1.2,8.8,9,8.8c2.9,0,5.9-1.2,8.4-2.6c0.2-0.1,0.3-0.3,0.3-0.7c0-0.4-0.1-1.1-0.1-2.2c0-3.4,1.8-1.9,1.8-3.1
					c0-0.3-0.2-0.4-0.3-0.4c-1,0-1.9,0.1-2.9,0.1c-1.3,0-2.5-0.1-3.7-0.1c-0.5,0-1.3-0.2-1.3,0.5c0,1,3.2-0.8,3.2,3.3
					c0,1.5-0.1,3.7-4.9,3.7c-4.3,0-6.2-4.8-6.2-8.3c0-6.6,3.5-8.2,6-8.2c7,0,7,5.7,7.6,5.7c0.5,0,0.7-0.1,0.7-0.5V6.3L71.6,6.3z"/>
				<path fill="#FFFFFF" d="M92.9,7.4c0-2.6,1.9-1.4,1.9-2.4c0-0.2-0.1-0.3-0.6-0.3c-1.1,0-2.1,0.1-3.5,0.1c-1.6,0-2.3-0.1-3.4-0.1
					c-0.4,0-0.6-0.1-0.6,0.4c0,0.8,2.9-0.2,2.9,2.7v3.7c0,0.6-0.2,1.2-0.9,1.2h-7.9c-0.6,0-0.7-0.3-0.7-1V7.4c0-2.3,2-1.6,2-2.4
					c0-0.3-0.2-0.4-0.6-0.4c-0.8,0-1.8,0.1-3.4,0.1c-1.4,0-2.2-0.1-3-0.1c-0.5,0-1.3,0-1.3,0.4c0,1,3-0.2,3,2.7v11.7
					c0,3.2-2.3,2.3-2.3,3.3c0,0.3,0.3,0.4,0.6,0.4c1.3,0,2.4-0.1,3.6-0.1c1.9,0,2.8,0.1,3.9,0.1c0.9,0,0.8-0.2,0.8-0.4
					c0-0.9-3.3,0-3.3-3.2v-4.1c0-1.2,0.1-1.4,1.3-1.4h7.1c1.2,0,1.1,0.3,1.1,1.4v4.7c0,2.5-1.9,1.8-1.9,2.7c0,0.2,0.2,0.3,0.5,0.3
					c1.4,0,2.4-0.1,3.4-0.1c1.1,0,2.7,0.1,3.5,0.1c0.3,0,0.6,0,0.6-0.3c0-1-2.8-0.1-2.8-3.4V7.4L92.9,7.4z"/>
				<path fill-rule="evenodd" clip-rule="evenodd" fill="#FFFFFF" d="M102.9,15.3c-0.5,0-0.9,0-0.9-0.2c0-0.4,0.2-0.7,0.3-1l2-4.6
					c0.1-0.3,0.2-0.3,0.3-0.3c0.1,0,0.1,0,0.2,0.2l2.2,4.7c0.1,0.3,0.3,0.6,0.3,1c0,0.3-0.4,0.2-0.9,0.2H102.9L102.9,15.3z
					 M107.3,16.7c0.7,0,0.8,0.3,1.7,2.3c0.3,0.7,0.5,1.2,0.5,1.8c0,1.6-1.9,1.3-1.9,2.1c0,0.4,0.3,0.3,0.8,0.3
					c0.8,0,1.8-0.1,2.9-0.1c1.8,0,2.5,0.1,3.4,0.1c0.7,0,1,0.1,1-0.4c0-0.9-1.4,0.2-2.3-1.7l-7.2-16c-0.3-0.8-0.4-0.8-0.6-0.8
					c-0.3,0-0.5,0.5-0.7,0.9l-7.2,15.8c-0.7,1.5-2,1.3-2,1.9c0,0.3,0.4,0.3,0.8,0.3c0.8,0,1.5-0.1,2.3-0.1c0.9,0,1.6,0.1,2.5,0.1
					c0.6,0,1.4,0.2,1.4-0.4c0-0.7-2.9-0.3-2.9-2.2c0-0.6,0.4-1.5,0.6-2.1c0.6-1.7,1.2-1.8,1.6-1.8H107.3L107.3,16.7z"/>
				<path fill="#FFFFFF" d="M119.9,11.4c0-0.2,0-0.7,0.2-0.7c0.1,0,0.2,0.3,0.3,0.4l5.2,11.3c0.1,0.3,0.3,0.7,0.7,0.7
					c0.4,0,0.5-0.4,0.7-0.7l5-10.3c0.4-0.9,0.7-1.4,0.8-1.4c0.2,0,0.2,0.4,0.2,1.2l0.4,7.9c0.2,2.9-1.9,2-1.9,2.9
					c0,0.5,0.7,0.4,1.2,0.4c0.6,0,1.2-0.1,3-0.1c0.8,0,1.5,0.1,2.3,0.1c0.9,0,1.3,0,1.3-0.4c0-1-2.4,0.2-2.6-3.2l-0.5-11.6
					c-0.1-3,2.5-2,2.5-2.9c0-0.2-0.1-0.3-0.8-0.3c-0.7,0-1.2,0.1-1.7,0.1c-0.4,0-0.9-0.1-1.5-0.1c-0.5,0-0.6,0.3-0.7,0.5l-6.2,12.7
					c0,0.1-0.3,0.5-0.4,0.5c-0.2,0-0.2-0.2-0.3-0.4l-5.9-12.6c-0.4-0.8-0.6-0.8-0.9-0.8c-0.9,0-1.9,0.1-2.5,0.1
					c-0.9,0-1.3-0.1-1.6-0.1c-0.2,0-0.3,0.2-0.3,0.4c0,1.2,2.8-0.1,2.7,4.2l-0.4,10.5c-0.1,2.7-2.3,2.1-2.3,3c0,0.2,0.1,0.4,0.5,0.4
					c0.4,0,1.3-0.1,2.6-0.1c1.2,0,1.8,0.1,2.7,0.1c0.7,0,0.6-0.3,0.6-0.4c0-1.1-2.9,0.4-2.8-4L119.9,11.4L119.9,11.4z"/>
				<path fill="#FFFFFF" d="M147,19.7c0,3.1-3,1.9-3,2.9c0,0.6,0.5,0.5,0.9,0.5c1.1,0,1.9-0.1,3.7-0.1c1.8,0,2.7,0.1,3.7,0.1
					c0.8,0,1.3,0.1,1.3-0.5c0-0.7-3.4,0-3.4-3.2V7.6c0-1.3,0.3-1.4,1.4-1.4h2.3c3.1-0.1,2.2,2.8,3.3,2.8c0.7,0,0.4-1,0.3-1.3
					l-0.3-2.4c0-0.3,0-0.6-0.4-0.6c-2.5,0-4.3,0.1-8.1,0.1c-3.9,0-5.7-0.1-8.1-0.1c-0.4,0-0.4,0.4-0.4,0.6l-0.4,3.5
					c-0.1,0.3-0.2,0.9,0.3,0.9c1.2,0,0.4-3.4,3.4-3.4h2.2c1.1,0,1.4,0.1,1.4,1.4V19.7L147,19.7z"/>
				<path fill-rule="evenodd" clip-rule="evenodd" fill="#FFFFFF" d="M158.4,14.5c0,5.3,3.6,8.8,8.9,8.8c8.5,0,10.1-6.4,10.1-10.1
					c0-5.5-4-8.9-9.2-8.9C162,4.4,158.4,8.7,158.4,14.5L158.4,14.5z M161.7,13c0-3.8,1.3-7.4,5.8-7.5c3.4-0.1,6.7,3,6.7,8.8
					c0,4.3-1.5,7.9-6.1,7.9C163.4,22.3,161.7,16.8,161.7,13L161.7,13z"/>
				<path fill="#FFFFFF" d="M181.2,19.6c0,2.7-2.6,2.2-2.6,3.2c0,0.4,0.5,0.3,0.8,0.3c0.7,0,1.4-0.1,2.3-0.1c0.9,0,1.8,0.1,3.1,0.1
					c0.3,0,1,0,1-0.3c0-1.2-3.4,0.6-3.4-4.5V9.4c0-0.2,0.1-0.4,0.2-0.4c0.1,0,0.3,0.1,0.5,0.3L196,23c0.2,0.2,0.3,0.4,0.7,0.4
					c0.3,0,0.3-0.2,0.3-0.8V7.9c0-2.7,2.3-2.1,2.3-2.9c0-0.1,0-0.3-0.5-0.3c-0.2,0-1.2,0.1-2.8,0.1c-1.8,0-2.6-0.1-3-0.1
					c-0.3,0-0.4,0.3-0.4,0.4c0,0.9,3.2,0.4,3.2,2.8v8.7c0,0.7-0.1,1-0.2,1c-0.2,0-0.5-0.3-0.8-0.7L184,5.3c-0.5-0.5-0.2-0.7-1-0.7
					c-1.4,0-2.1,0.1-2.8,0.1c-0.5,0-1-0.1-1.5-0.1c-0.3,0-0.5,0.2-0.5,0.4c0,1.3,3-0.4,3,4.6V19.6L181.2,19.6z"/>
			</g>
			<g>
				<path fill="#FFFFFF" d="M13.8,56.8c-0.1-0.7-0.5-1.1-1.1-1.1c-0.8,0-1.1,0.5-1.1,0.9c0,0.4,0.3,0.7,0.9,0.9l0.7,0.3
					c0.9,0.3,1.4,0.8,1.4,1.5c0,0.9-0.8,1.5-1.9,1.5c-1.1,0-1.8-0.5-1.9-1.6h0.7c0.1,0.6,0.4,1,1.2,1c0.6,0,1.1-0.4,1.1-0.9
					c0-0.4-0.4-0.7-0.9-0.9l-0.8-0.3c-0.9-0.3-1.3-0.8-1.3-1.5c0-1,0.9-1.5,1.8-1.5c1,0,1.7,0.5,1.8,1.7H13.8z"/>
				<path fill="#FFFFFF" d="M18.6,55.8h-1.5v-0.7h3.7v0.7h-1.5v4.9h-0.7V55.8z"/>
				<path fill="#FFFFFF" d="M26.7,59.4h-2.8l-0.5,1.3h-0.8l2.4-5.5h0.7l2.4,5.5h-0.8L26.7,59.4z M25.3,56.1l-1.1,2.7h2.2L25.3,56.1z
					"/>
				<path fill="#FFFFFF" d="M31.2,55.8h-1.5v-0.7h3.7v0.7H32v4.9h-0.7V55.8z"/>
				<path fill="#FFFFFF" d="M36.3,55.2h3.1v0.7h-2.3v1.7h2.3v0.7h-2.3v1.8h2.3v0.7h-3.1V55.2z"/>
				<path fill="#FFFFFF" d="M46.6,55.2h0.7v3.3c0,0.9,0.5,1.6,1.6,1.6c1,0,1.6-0.7,1.6-1.6v-3.3h0.7v3.5c0,1.2-1,2.1-2.3,2.1
					c-1.3,0-2.3-0.9-2.3-2.1V55.2z"/>
				<path fill="#FFFFFF" d="M58.4,55.2h0.7v5.5h-0.7l-3.2-4.3h0v4.3h-0.7v-5.5h0.7l3.2,4.3h0V55.2z"/>
				<path fill="#FFFFFF" d="M62.4,55.2h0.7v5.5h-0.7V55.2z"/>
				<path fill="#FFFFFF" d="M70.2,55.2H71l-2.2,5.5h-0.6L66,55.2h0.8l1.7,4.4h0L70.2,55.2z"/>
				<path fill="#FFFFFF" d="M73.8,55.2h3.1v0.7h-2.3v1.7h2.3v0.7h-2.3v1.8h2.3v0.7h-3.1V55.2z"/>
				<path fill="#FFFFFF" d="M80.7,58.4v2.4H80v-5.5h1.7c1.1,0,2,0.6,2,1.7c0,1-0.8,1.6-1.8,1.6l2.3,2.2h-1.1L80.7,58.4z M80.7,57.9
					c0.1,0,0.2,0,0.7,0c1.1,0,1.5-0.5,1.5-1.1c0-0.6-0.5-1.1-1.3-1.1h-0.9V57.9z"/>
				<path fill="#FFFFFF" d="M89.8,56.8c-0.1-0.7-0.5-1.1-1.1-1.1c-0.8,0-1.1,0.5-1.1,0.9c0,0.4,0.3,0.7,0.9,0.9l0.7,0.3
					c0.9,0.3,1.4,0.8,1.4,1.5c0,0.9-0.8,1.5-1.9,1.5c-1.1,0-1.8-0.5-1.9-1.6h0.7c0.1,0.6,0.4,1,1.2,1c0.6,0,1.1-0.4,1.1-0.9
					c0-0.4-0.4-0.7-0.9-0.9l-0.8-0.3c-0.9-0.3-1.3-0.8-1.3-1.5c0-1,0.9-1.5,1.8-1.5c1,0,1.7,0.5,1.8,1.7H89.8z"/>
				<path fill="#FFFFFF" d="M93.6,55.2h0.7v5.5h-0.7V55.2z"/>
				<path fill="#FFFFFF" d="M98.6,55.8h-1.5v-0.7h3.7v0.7h-1.5v4.9h-0.7V55.8z"/>
				<path fill="#FFFFFF" d="M107.1,55.2h0.9l-2,3.3v2.2h-0.7v-2.2l-2-3.3h0.9l1.5,2.6L107.1,55.2z"/>
				<path fill="#FFFFFF" d="M117.8,55.1c2,0,3.1,1.5,3.1,2.8c0,1.4-1.1,2.8-3.1,2.8c-2,0-3.1-1.5-3.1-2.8
					C114.7,56.6,115.8,55.1,117.8,55.1z M117.8,60.1c1.2,0,2.3-0.9,2.3-2.2c0-1.3-1.1-2.2-2.3-2.2c-1.2,0-2.3,0.9-2.3,2.2
					C115.5,59.3,116.6,60.1,117.8,60.1z"/>
				<path fill="#FFFFFF" d="M124.1,55.2h3.1v0.7h-2.3v1.7h2.3v0.7h-2.3v2.5h-0.7V55.2z"/>
				<path fill="#FFFFFF" d="M138.2,55.2h0.7v5.5h-0.7l-3.2-4.3h0v4.3h-0.8v-5.5h0.7l3.2,4.3h0V55.2z"/>
				<path fill="#FFFFFF" d="M142.2,55.2h3.1v0.7H143v1.7h2.3v0.7H143v1.8h2.3v0.7h-3.1V55.2z"/>
				<path fill="#FFFFFF" d="M154.8,55.2h0.8l-1.8,5.5h-0.6l-1.4-4.4h0l-1.4,4.4h-0.6l-1.8-5.5h0.8l1.3,4.2h0l1.4-4.2h0.7l1.4,4.2h0
					L154.8,55.2z"/>
				<path fill="#FFFFFF" d="M165.7,55.2h0.9l-2,3.3v2.2h-0.7v-2.2l-2-3.3h0.9l1.5,2.6L165.7,55.2z"/>
				<path fill="#FFFFFF" d="M172,55.1c2,0,3.1,1.5,3.1,2.8c0,1.4-1.1,2.8-3.1,2.8s-3.1-1.5-3.1-2.8C168.9,56.6,170,55.1,172,55.1z
					 M172,60.1c1.2,0,2.3-0.9,2.3-2.2c0-1.3-1.1-2.2-2.3-2.2c-1.2,0-2.3,0.9-2.3,2.2C169.7,59.3,170.8,60.1,172,60.1z"/>
				<path fill="#FFFFFF" d="M179,58.4v2.4h-0.7v-5.5h1.7c1.1,0,2,0.6,2,1.7c0,1-0.8,1.6-1.8,1.6l2.3,2.2h-1.1L179,58.4z M179,57.9
					c0.1,0,0.2,0,0.7,0c1.1,0,1.5-0.5,1.5-1.1c0-0.6-0.5-1.1-1.3-1.1H179V57.9z"/>
				<path fill="#FFFFFF" d="M188.5,55.2h1l-2.7,2.7l2.7,2.8h-1.1l-2.4-2.5v2.5h-0.7v-5.5h0.7v2.5L188.5,55.2z"/>
			</g>
		</g>
		<line fill="#FFFFFF" stroke="#FFFFFF" stroke-width="1.25" x1="215.8" y1="3.5" x2="215.8" y2="63.2"/>
	</g>
	<g>
		<path fill="#FFFFFF" d="M235.7,6.2v10H234v-10h-3.2V4.6h8.1v1.6H235.7z"/>
		<path fill="#FFFFFF" d="M245.6,16.2v-5.1c0-1.3-0.7-1.8-1.7-1.8c-0.9,0-1.7,0.6-1.7,1.8v5.1h-1.7V4.6h1.7v4.2
			c0.6-0.6,1.3-0.9,2.1-0.9c1.8,0,2.9,1.2,2.9,3v5.3H245.6z"/>
		<path fill="#FFFFFF" d="M255.1,15.3c-0.5,0.6-1.4,1-2.5,1s-1.9-0.4-2.5-1c-0.8-0.8-1-1.9-1-3.3c0-1.4,0.2-2.4,1-3.2
			c0.5-0.6,1.3-1,2.5-1s1.9,0.4,2.5,1c0.8,0.8,1,1.9,1,3.2C256.1,13.5,255.9,14.5,255.1,15.3z M253.9,9.8c-0.3-0.3-0.7-0.5-1.2-0.5
			s-0.9,0.2-1.2,0.5c-0.5,0.5-0.6,1.4-0.6,2.3c0,0.9,0.1,1.8,0.6,2.3c0.3,0.3,0.7,0.5,1.2,0.5s0.9-0.2,1.2-0.5
			c0.5-0.5,0.6-1.4,0.6-2.3C254.4,11.2,254.4,10.3,253.9,9.8z"/>
		<path fill="#FFFFFF" d="M268.2,16.2v-5c0-1.3-0.7-1.8-1.7-1.8c-0.9,0-1.7,0.6-1.7,1.8v5.1h-1.7v-5c0-1.3-0.7-1.8-1.7-1.8
			s-1.7,0.6-1.7,1.8v5h-1.7V7.9h1.6v0.8c0.6-0.6,1.4-0.9,2.2-0.9c1,0,1.8,0.4,2.3,1.2c0.7-0.8,1.5-1.2,2.6-1.2
			c0.8,0,1.6,0.3,2.1,0.7c0.6,0.6,0.9,1.4,0.9,2.3v5.3H268.2z"/>
		<path fill="#FFFFFF" d="M276.7,16.2v-0.7c-0.6,0.6-1.2,0.8-2.2,0.8c-1,0-1.7-0.2-2.2-0.7c-0.4-0.4-0.7-1.1-0.7-1.8
			c0-1.4,1-2.4,2.8-2.4h2.2v-0.6c0-1-0.5-1.5-1.8-1.5c-0.9,0-1.3,0.2-1.8,0.8L272,9c0.8-0.9,1.6-1.2,3-1.2c2.3,0,3.4,1,3.4,2.8v5.5
			H276.7z M276.7,12.5h-1.9c-1,0-1.5,0.4-1.5,1.2s0.5,1.2,1.5,1.2c0.6,0,1.1,0,1.5-0.5c0.2-0.2,0.4-0.6,0.4-1.2V12.5z"/>
		<path fill="#FFFFFF" d="M283.4,16.3c-1.4,0-2.5-0.2-3.5-1.2L281,14c0.7,0.7,1.6,0.9,2.4,0.9c1,0,1.8-0.4,1.8-1.1
			c0-0.6-0.3-0.9-1.1-1l-1.3-0.1c-1.5-0.1-2.4-0.8-2.4-2.3c0-1.6,1.4-2.5,3.1-2.5c1.2,0,2.3,0.3,3.1,0.9l-1,1.1
			c-0.5-0.4-1.3-0.6-2-0.6c-1,0-1.5,0.4-1.5,1.1c0,0.5,0.3,0.9,1.1,0.9l1.3,0.1c1.5,0.1,2.5,0.9,2.5,2.3
			C286.8,15.4,285.4,16.3,283.4,16.3z"/>
		<path fill="#FFFFFF" d="M294.2,16.3c-1.2,0-2-0.3-2.8-1.1l1.2-1.2c0.4,0.4,0.8,0.7,1.6,0.7c1.3,0,2.1-0.8,2.1-2.3V4.6h1.8v7.9
			C298,14.9,296.3,16.3,294.2,16.3z"/>
		<path fill="#FFFFFF" d="M300.5,16.2v-2h2v2H300.5z"/>
		<path fill="#FFFFFF" d="M318.3,16.2h-1.5l-2.4-8.1l-2.3,8.1h-1.5l-3-11.6h1.9l2,8.3l2.3-8.3h1.4l2.3,8.3l2-8.3h1.9L318.3,16.2z"/>
		<path fill="#FFFFFF" d="M326.4,16.2v-0.7c-0.6,0.6-1.2,0.8-2.2,0.8c-1,0-1.7-0.2-2.2-0.7c-0.4-0.4-0.7-1.1-0.7-1.8
			c0-1.4,1-2.4,2.8-2.4h2.2v-0.6c0-1-0.5-1.5-1.8-1.5c-0.9,0-1.3,0.2-1.8,0.8l-1.1-1c0.8-0.9,1.6-1.2,3-1.2c2.3,0,3.4,1,3.4,2.8v5.5
			H326.4z M326.4,12.5h-1.9c-1,0-1.5,0.4-1.5,1.2s0.5,1.2,1.5,1.2c0.6,0,1.1,0,1.5-0.5c0.2-0.2,0.4-0.6,0.4-1.2V12.5z"/>
		<path fill="#FFFFFF" d="M332.9,16.2c-1.5,0-2.3-1.1-2.3-2.3V9.4h-0.9V8.1h0.9V5.6h1.7v2.5h1.6v1.3h-1.6v4.5c0,0.6,0.3,1,0.9,1h0.7
			v1.4H332.9z"/>
		<path fill="#FFFFFF" d="M338.5,16.3c-1.4,0-2.5-0.2-3.5-1.2l1.1-1.1c0.7,0.7,1.6,0.9,2.4,0.9c1,0,1.8-0.4,1.8-1.1
			c0-0.6-0.3-0.9-1.1-1l-1.3-0.1c-1.5-0.1-2.4-0.8-2.4-2.3c0-1.6,1.4-2.5,3.1-2.5c1.2,0,2.3,0.3,3.1,0.9l-1,1.1
			c-0.5-0.4-1.3-0.6-2-0.6c-1,0-1.5,0.4-1.5,1.1c0,0.5,0.3,0.9,1.1,0.9l1.3,0.1c1.5,0.1,2.5,0.9,2.5,2.3
			C341.9,15.4,340.5,16.3,338.5,16.3z"/>
		<path fill="#FFFFFF" d="M349.3,15.3c-0.5,0.6-1.4,1-2.5,1s-1.9-0.4-2.5-1c-0.8-0.8-1-1.9-1-3.3c0-1.4,0.2-2.4,1-3.2
			c0.5-0.6,1.3-1,2.5-1s1.9,0.4,2.5,1c0.8,0.8,1,1.9,1,3.2C350.3,13.5,350.1,14.5,349.3,15.3z M348,9.8c-0.3-0.3-0.7-0.5-1.2-0.5
			s-0.9,0.2-1.2,0.5c-0.5,0.5-0.6,1.4-0.6,2.3c0,0.9,0.1,1.8,0.6,2.3c0.3,0.3,0.7,0.5,1.2,0.5s0.9-0.2,1.2-0.5
			c0.5-0.5,0.6-1.4,0.6-2.3C348.6,11.2,348.6,10.3,348,9.8z"/>
		<path fill="#FFFFFF" d="M357.4,16.2v-5c0-1.3-0.7-1.8-1.7-1.8s-1.7,0.6-1.7,1.8v5h-1.7V7.9h1.6v0.8c0.6-0.6,1.4-0.9,2.2-0.9
			c0.8,0,1.5,0.3,2,0.7c0.6,0.6,0.8,1.4,0.8,2.3v5.3H357.4z"/>
		<path fill="#FFFFFF" d="M234.9,37.8c-1.7,0-3-0.4-4.1-1.5l1.2-1.2c0.8,0.8,1.8,1.1,3,1.1c1.5,0,2.4-0.7,2.4-1.8
			c0-0.5-0.1-0.9-0.5-1.2c-0.3-0.3-0.6-0.4-1.3-0.5l-1.4-0.2c-0.9-0.1-1.7-0.5-2.2-0.9c-0.6-0.5-0.8-1.3-0.8-2.2
			c0-2,1.5-3.4,3.9-3.4c1.5,0,2.6,0.4,3.6,1.3l-1.1,1.1c-0.7-0.7-1.5-0.9-2.5-0.9c-1.4,0-2.1,0.8-2.1,1.8c0,0.4,0.1,0.8,0.4,1.1
			c0.3,0.3,0.8,0.5,1.3,0.5l1.3,0.2c1.1,0.2,1.7,0.4,2.2,0.9c0.6,0.6,0.9,1.4,0.9,2.4C239.1,36.5,237.3,37.8,234.9,37.8z"/>
		<path fill="#FFFFFF" d="M244.3,37.8c-1.9,0-3.7-1.1-3.7-4.2s1.8-4.2,3.7-4.2c1.1,0,1.9,0.3,2.7,1.2l-1.1,1.1
			c-0.5-0.6-0.9-0.8-1.6-0.8c-0.6,0-1.2,0.3-1.5,0.7c-0.4,0.5-0.5,1-0.5,2s0.1,1.6,0.5,2c0.4,0.5,0.9,0.7,1.5,0.7
			c0.7,0,1.1-0.2,1.6-0.8l1.1,1.1C246.2,37.5,245.4,37.8,244.3,37.8z"/>
		<path fill="#FFFFFF" d="M253.8,37.7v-5.1c0-1.3-0.7-1.8-1.7-1.8c-0.9,0-1.7,0.6-1.7,1.8v5.1h-1.7V26.1h1.7v4.2
			c0.6-0.6,1.3-0.9,2.1-0.9c1.8,0,2.9,1.2,2.9,3v5.3H253.8z"/>
		<path fill="#FFFFFF" d="M263.3,36.8c-0.5,0.6-1.4,1-2.5,1s-1.9-0.4-2.5-1c-0.8-0.8-1-1.9-1-3.3c0-1.4,0.2-2.4,1-3.2
			c0.5-0.6,1.3-1,2.5-1s1.9,0.4,2.5,1c0.8,0.8,1,1.9,1,3.2C264.3,35,264.1,36,263.3,36.8z M262.1,31.3c-0.3-0.3-0.7-0.5-1.2-0.5
			s-0.9,0.2-1.2,0.5c-0.5,0.5-0.6,1.4-0.6,2.3s0.1,1.8,0.6,2.3c0.3,0.3,0.7,0.5,1.2,0.5s0.9-0.2,1.2-0.5c0.5-0.5,0.6-1.4,0.6-2.3
			S262.6,31.8,262.1,31.3z"/>
		<path fill="#FFFFFF" d="M271.9,36.8c-0.5,0.6-1.4,1-2.5,1s-1.9-0.4-2.5-1c-0.8-0.8-1-1.9-1-3.3c0-1.4,0.2-2.4,1-3.2
			c0.5-0.6,1.3-1,2.5-1s1.9,0.4,2.5,1c0.8,0.8,1,1.9,1,3.2C272.9,35,272.7,36,271.9,36.8z M270.7,31.3c-0.3-0.3-0.7-0.5-1.2-0.5
			s-0.9,0.2-1.2,0.5c-0.5,0.5-0.6,1.4-0.6,2.3s0.1,1.8,0.6,2.3c0.3,0.3,0.7,0.5,1.2,0.5s0.9-0.2,1.2-0.5c0.5-0.5,0.6-1.4,0.6-2.3
			S271.2,31.8,270.7,31.3z"/>
		<path fill="#FFFFFF" d="M277.2,37.7c-1.6,0-2.3-1.1-2.3-2.3v-9.3h1.7v9.2c0,0.6,0.2,1,0.9,1h0.7v1.4H277.2z"/>
		<path fill="#FFFFFF" d="M289.1,36.8c-0.5,0.6-1.4,1-2.5,1s-1.9-0.4-2.5-1c-0.8-0.8-1-1.9-1-3.3c0-1.4,0.2-2.4,1-3.2
			c0.5-0.6,1.3-1,2.5-1s1.9,0.4,2.5,1c0.8,0.8,1,1.9,1,3.2C290.1,35,289.9,36,289.1,36.8z M287.9,31.3c-0.3-0.3-0.7-0.5-1.2-0.5
			s-0.9,0.2-1.2,0.5c-0.5,0.5-0.6,1.4-0.6,2.3s0.1,1.8,0.6,2.3c0.3,0.3,0.7,0.5,1.2,0.5s0.9-0.2,1.2-0.5c0.5-0.5,0.6-1.4,0.6-2.3
			S288.4,31.8,287.9,31.3z"/>
		<path fill="#FFFFFF" d="M294.1,30.9v6.8h-1.7v-6.8h-0.9v-1.3h0.9v-1.3c0-1.2,0.7-2.3,2.3-2.3h1v1.4H295c-0.6,0-0.9,0.4-0.9,1v1.2
			h1.6v1.3H294.1z"/>
		<path fill="#FFFFFF" d="M301.3,37.7V26.1h7.4v1.6h-5.6v3.4h4.8v1.6h-4.8v3.5h5.6v1.6H301.3z"/>
		<path fill="#FFFFFF" d="M315.8,37.7v-5c0-1.3-0.7-1.8-1.7-1.8s-1.7,0.6-1.7,1.8v5h-1.7v-8.2h1.6v0.8c0.6-0.6,1.4-0.9,2.2-0.9
			c0.8,0,1.5,0.3,2,0.7c0.6,0.6,0.8,1.4,0.8,2.3v5.3H315.8z"/>
		<path fill="#FFFFFF" d="M322.6,41.1c-1.3,0-2-0.3-2.9-1.1l1.1-1.1c0.5,0.5,1,0.7,1.8,0.7c1.4,0,1.9-1,1.9-2.1v-1.1
			c-0.6,0.7-1.3,0.9-2.1,0.9c-0.8,0-1.5-0.3-2-0.7c-0.8-0.8-0.9-2-0.9-3.4c0-1.4,0.1-2.6,0.9-3.4c0.5-0.5,1.2-0.7,2-0.7
			c0.9,0,1.5,0.2,2.2,1v-0.9h1.6v8.2C326.1,39.7,324.8,41.1,322.6,41.1z M322.8,30.8c-1.5,0-1.7,1.3-1.7,2.6c0,1.3,0.2,2.6,1.7,2.6
			c1.5,0,1.7-1.3,1.7-2.6C324.5,32.1,324.3,30.8,322.8,30.8z"/>
		<path fill="#FFFFFF" d="M328.5,27.8v-1.8h1.8v1.8H328.5z M328.6,37.7v-8.2h1.7v8.2H328.6z"/>
		<path fill="#FFFFFF" d="M337.8,37.7v-5c0-1.3-0.7-1.8-1.7-1.8s-1.7,0.6-1.7,1.8v5h-1.7v-8.2h1.6v0.8c0.6-0.6,1.4-0.9,2.2-0.9
			c0.8,0,1.5,0.3,2,0.7c0.6,0.6,0.8,1.4,0.8,2.3v5.3H337.8z"/>
		<path fill="#FFFFFF" d="M343,34.1c0,1.4,0.7,2.3,2.1,2.3c0.9,0,1.4-0.3,2-0.8l1.1,1c-0.8,0.8-1.6,1.3-3.1,1.3
			c-2.1,0-3.7-1.1-3.7-4.2c0-2.7,1.4-4.2,3.5-4.2c2.2,0,3.5,1.6,3.5,4v0.7H343z M346.5,31.8c-0.3-0.6-0.8-1-1.6-1
			c-0.8,0-1.4,0.4-1.6,1c-0.2,0.4-0.2,0.6-0.2,1.1h3.7C346.7,32.4,346.7,32.2,346.5,31.8z"/>
		<path fill="#FFFFFF" d="M351.6,34.1c0,1.4,0.7,2.3,2.1,2.3c0.9,0,1.4-0.3,2-0.8l1.1,1c-0.8,0.8-1.6,1.3-3.1,1.3
			c-2.1,0-3.7-1.1-3.7-4.2c0-2.7,1.4-4.2,3.5-4.2c2.2,0,3.5,1.6,3.5,4v0.7H351.6z M355.1,31.8c-0.3-0.6-0.8-1-1.6-1
			c-0.8,0-1.4,0.4-1.6,1c-0.2,0.4-0.2,0.6-0.2,1.1h3.7C355.3,32.4,355.3,32.2,355.1,31.8z"/>
		<path fill="#FFFFFF" d="M363.6,31.4c-0.4-0.4-0.7-0.6-1.2-0.6c-0.9,0-1.6,0.7-1.6,1.9v5H359v-8.2h1.6v0.9c0.4-0.6,1.3-1,2.2-1
			c0.8,0,1.4,0.2,2,0.8L363.6,31.4z"/>
		<path fill="#FFFFFF" d="M365.9,27.8v-1.8h1.8v1.8H365.9z M366,37.7v-8.2h1.7v8.2H366z"/>
		<path fill="#FFFFFF" d="M375.1,37.7v-5c0-1.3-0.7-1.8-1.7-1.8s-1.7,0.6-1.7,1.8v5h-1.7v-8.2h1.6v0.8c0.6-0.6,1.4-0.9,2.2-0.9
			c0.8,0,1.5,0.3,2,0.7c0.6,0.6,0.8,1.4,0.8,2.3v5.3H375.1z"/>
		<path fill="#FFFFFF" d="M382,41.1c-1.3,0-2-0.3-2.9-1.1l1.1-1.1c0.5,0.5,1,0.7,1.8,0.7c1.4,0,1.9-1,1.9-2.1v-1.1
			c-0.6,0.7-1.3,0.9-2.1,0.9c-0.8,0-1.5-0.3-2-0.7c-0.8-0.8-0.9-2-0.9-3.4c0-1.4,0.1-2.6,0.9-3.4c0.5-0.5,1.2-0.7,2-0.7
			c0.9,0,1.5,0.2,2.2,1v-0.9h1.6v8.2C385.5,39.7,384.2,41.1,382,41.1z M382.2,30.8c-1.5,0-1.7,1.3-1.7,2.6c0,1.3,0.2,2.6,1.7,2.6
			c1.5,0,1.7-1.3,1.7-2.6C383.8,32.1,383.7,30.8,382.2,30.8z"/>
		<path fill="#FFFFFF" d="M236.1,59.2v-0.7c-0.6,0.6-1.2,0.8-2.2,0.8c-1,0-1.7-0.2-2.2-0.7c-0.4-0.4-0.7-1.1-0.7-1.8
			c0-1.4,1-2.4,2.8-2.4h2.2v-0.6c0-1-0.5-1.5-1.8-1.5c-0.9,0-1.3,0.2-1.8,0.8l-1.1-1c0.8-0.9,1.6-1.2,3-1.2c2.3,0,3.4,1,3.4,2.8v5.5
			H236.1z M236,55.6h-1.9c-1,0-1.5,0.4-1.5,1.2c0,0.7,0.5,1.2,1.5,1.2c0.6,0,1.1,0,1.5-0.5c0.2-0.2,0.4-0.6,0.4-1.2V55.6z"/>
		<path fill="#FFFFFF" d="M245.1,59.2v-5c0-1.3-0.7-1.8-1.7-1.8s-1.7,0.6-1.7,1.8v5h-1.7V51h1.6v0.8c0.6-0.6,1.4-0.9,2.2-0.9
			c0.8,0,1.5,0.3,2,0.7c0.6,0.6,0.8,1.4,0.8,2.3v5.3H245.1z"/>
		<path fill="#FFFFFF" d="M253.9,59.2v-0.9c-0.6,0.7-1.3,1-2.2,1c-0.8,0-1.6-0.3-2-0.7c-0.8-0.8-0.9-2.2-0.9-3.5
			c0-1.3,0.1-2.7,0.9-3.5c0.5-0.5,1.2-0.7,2-0.7c0.9,0,1.6,0.2,2.2,0.9v-4.2h1.7v11.6H253.9z M252.2,52.3c-1.5,0-1.7,1.3-1.7,2.7
			s0.2,2.7,1.7,2.7s1.7-1.3,1.7-2.7S253.6,52.3,252.2,52.3z"/>
		<path fill="#FFFFFF" d="M268.6,59.2l-0.8-2.3h-4.6l-0.8,2.3h-1.9l4.2-11.6h1.4l4.2,11.6H268.6z M265.5,50.2l-1.8,5.1h3.6
			L265.5,50.2z"/>
		<path fill="#FFFFFF" d="M277.6,58.6c-0.5,0.5-1.2,0.7-2,0.7c-0.9,0-1.6-0.2-2.2-0.9v4.2h-1.7V51h1.6v0.9c0.6-0.7,1.3-1,2.2-1
			c0.8,0,1.6,0.3,2,0.7c0.8,0.8,0.9,2.2,0.9,3.5C278.5,56.3,278.4,57.7,277.6,58.6z M275.1,52.3c-1.5,0-1.7,1.3-1.7,2.7
			s0.2,2.7,1.7,2.7c1.5,0,1.7-1.3,1.7-2.7S276.6,52.3,275.1,52.3z"/>
		<path fill="#FFFFFF" d="M286.4,58.6c-0.5,0.5-1.2,0.7-2,0.7c-0.9,0-1.6-0.2-2.2-0.9v4.2h-1.7V51h1.6v0.9c0.6-0.7,1.3-1,2.2-1
			c0.8,0,1.6,0.3,2,0.7c0.8,0.8,0.9,2.2,0.9,3.5C287.3,56.3,287.2,57.7,286.4,58.6z M284,52.3c-1.5,0-1.7,1.3-1.7,2.7
			s0.2,2.7,1.7,2.7c1.5,0,1.7-1.3,1.7-2.7S285.5,52.3,284,52.3z"/>
		<path fill="#FFFFFF" d="M291.6,59.2c-1.6,0-2.3-1.1-2.3-2.3v-9.3h1.7v9.2c0,0.6,0.2,1,0.9,1h0.7v1.4H291.6z"/>
		<path fill="#FFFFFF" d="M294.3,49.3v-1.8h1.8v1.8H294.3z M294.3,59.2V51h1.7v8.2H294.3z"/>
		<path fill="#FFFFFF" d="M299.7,55.6c0,1.4,0.7,2.3,2.1,2.3c0.9,0,1.4-0.3,2-0.8l1.1,1c-0.8,0.8-1.6,1.3-3.1,1.3
			c-2.1,0-3.7-1.1-3.7-4.2c0-2.7,1.4-4.2,3.5-4.2c2.2,0,3.5,1.6,3.5,4v0.7H299.7z M303.1,53.3c-0.3-0.6-0.8-1-1.6-1
			c-0.8,0-1.4,0.4-1.6,1c-0.2,0.4-0.2,0.6-0.2,1.1h3.7C303.3,53.9,303.3,53.7,303.1,53.3z"/>
		<path fill="#FFFFFF" d="M311.8,59.2v-0.9c-0.6,0.7-1.3,1-2.2,1c-0.8,0-1.6-0.3-2-0.7c-0.8-0.8-0.9-2.2-0.9-3.5
			c0-1.3,0.1-2.7,0.9-3.5c0.5-0.5,1.2-0.7,2-0.7c0.9,0,1.6,0.2,2.2,0.9v-4.2h1.7v11.6H311.8z M310,52.3c-1.5,0-1.7,1.3-1.7,2.7
			s0.2,2.7,1.7,2.7s1.7-1.3,1.7-2.7S311.5,52.3,310,52.3z"/>
		<path fill="#FFFFFF" d="M322.9,59.3c-1.7,0-3-0.4-4.1-1.5l1.2-1.2c0.8,0.8,1.8,1.1,3,1.1c1.5,0,2.4-0.7,2.4-1.8
			c0-0.5-0.1-0.9-0.5-1.2c-0.3-0.3-0.6-0.4-1.3-0.5l-1.4-0.2c-0.9-0.1-1.7-0.5-2.2-0.9c-0.6-0.5-0.8-1.3-0.8-2.2
			c0-2,1.5-3.4,3.9-3.4c1.5,0,2.6,0.4,3.6,1.3l-1.1,1.1c-0.7-0.7-1.5-0.9-2.5-0.9c-1.4,0-2.1,0.8-2.1,1.8c0,0.4,0.1,0.8,0.4,1.1
			c0.3,0.3,0.8,0.5,1.3,0.5l1.3,0.2c1.1,0.2,1.7,0.4,2.2,0.9c0.6,0.6,0.9,1.4,0.9,2.4C327,58,325.3,59.3,322.9,59.3z"/>
		<path fill="#FFFFFF" d="M332.3,59.3c-1.9,0-3.7-1.1-3.7-4.2s1.8-4.2,3.7-4.2c1.1,0,1.9,0.3,2.7,1.2l-1.1,1.1
			c-0.5-0.6-0.9-0.8-1.6-0.8c-0.6,0-1.2,0.3-1.5,0.7c-0.4,0.5-0.5,1-0.5,2s0.1,1.6,0.5,2c0.4,0.5,0.9,0.7,1.5,0.7
			c0.7,0,1.1-0.2,1.6-0.8l1.1,1.1C334.2,59,333.4,59.3,332.3,59.3z"/>
		<path fill="#FFFFFF" d="M336.7,49.3v-1.8h1.8v1.8H336.7z M336.8,59.2V51h1.7v8.2H336.8z"/>
		<path fill="#FFFFFF" d="M342.1,55.6c0,1.4,0.7,2.3,2.1,2.3c0.9,0,1.4-0.3,2-0.8l1.1,1c-0.8,0.8-1.6,1.3-3.1,1.3
			c-2.1,0-3.7-1.1-3.7-4.2c0-2.7,1.4-4.2,3.5-4.2c2.2,0,3.5,1.6,3.5,4v0.7H342.1z M345.6,53.3c-0.3-0.6-0.8-1-1.6-1
			c-0.8,0-1.4,0.4-1.6,1c-0.2,0.4-0.2,0.6-0.2,1.1h3.7C345.8,53.9,345.8,53.7,345.6,53.3z"/>
		<path fill="#FFFFFF" d="M354.5,59.2v-5c0-1.3-0.7-1.8-1.7-1.8s-1.7,0.6-1.7,1.8v5h-1.7V51h1.6v0.8c0.6-0.6,1.4-0.9,2.2-0.9
			c0.8,0,1.5,0.3,2,0.7c0.6,0.6,0.8,1.4,0.8,2.3v5.3H354.5z"/>
		<path fill="#FFFFFF" d="M361.8,59.3c-1.9,0-3.7-1.1-3.7-4.2s1.8-4.2,3.7-4.2c1.1,0,1.9,0.3,2.7,1.2l-1.1,1.1
			c-0.5-0.6-0.9-0.8-1.6-0.8c-0.6,0-1.2,0.3-1.5,0.7c-0.4,0.5-0.5,1-0.5,2s0.1,1.6,0.5,2c0.4,0.5,0.9,0.7,1.5,0.7
			c0.7,0,1.1-0.2,1.6-0.8l1.1,1.1C363.8,59,363,59.3,361.8,59.3z"/>
		<path fill="#FFFFFF" d="M367.2,55.6c0,1.4,0.7,2.3,2.1,2.3c0.9,0,1.4-0.3,2-0.8l1.1,1c-0.8,0.8-1.6,1.3-3.1,1.3
			c-2.1,0-3.7-1.1-3.7-4.2c0-2.7,1.4-4.2,3.5-4.2c2.2,0,3.5,1.6,3.5,4v0.7H367.2z M370.7,53.3c-0.3-0.6-0.8-1-1.6-1
			c-0.8,0-1.4,0.4-1.6,1c-0.2,0.4-0.2,0.6-0.2,1.1h3.7C370.9,53.9,370.9,53.7,370.7,53.3z"/>
	</g>
</g>
</svg>
