<?xml version="1.0" encoding="utf-8"?>
<!-- Generator: Adobe Illustrator 17.1.0, SVG Export Plug-In . SVG Version: 6.00 Build 0)  -->
<!DOCTYPE svg PUBLIC "-//W3C//DTD SVG 1.1//EN" "http://www.w3.org/Graphics/SVG/1.1/DTD/svg11.dtd">
<svg version="1.1" id="Layer_1" xmlns="http://www.w3.org/2000/svg" xmlns:xlink="http://www.w3.org/1999/xlink" x="0px" y="0px"
	 viewBox="196.8 365.9 181.8 38.5" enable-background="new 196.8 365.9 181.8 38.5" xml:space="preserve">
<text transform="matrix(1 0 0 1 327.5762 377.3374)" fill="#FFFFFF" font-family="'DINAlternate-Bold'" font-size="9.2727">Career </text>
<text transform="matrix(1 0 0 1 327.5762 389.624)" fill="#FFFFFF" font-family="'DINAlternate-Bold'" font-size="9.2727">Development</text>
<text transform="matrix(1 0 0 1 327.5762 401.8331)" fill="#FFFFFF" font-family="'DINAlternate-Bold'" font-size="9.2727">Center</text>
<line fill="none" stroke="#FFFFFF" stroke-width="0.625" x1="319.3" y1="369" x2="319.3" y2="403.3"/>
<g>
	<g>
		<path fill="#FFFFFF" d="M204.9,387.1c0-1.1,0.6-0.8,0.6-1c0-0.1-0.1-0.2-0.2-0.2c-0.5,0-0.8,0.1-1.1,0.1c-0.2,0-0.5,0-0.8-0.1
			c-0.2,0-0.3-0.1-0.3,0.1c0,0.4,1.2,0.1,1.2,1.2v1.9c0,1.6-0.2,3.2-2.1,3.2c-1.7,0-2-1.2-2-2.7v-2.1c0-1.6,0.8-1.1,0.8-1.4
			c0-0.1,0-0.2-0.1-0.2c-0.2,0-0.9,0.1-1.3,0.1s-1.2-0.1-1.3-0.1s-0.2,0-0.2,0.2c0,0.4,1,0.1,1,0.9v3.2c0,1.9,0.9,2.7,2.7,2.7
			c2.5,0,3.1-1.6,3.1-3.6L204.9,387.1L204.9,387.1z"/>
		<path fill="#FFFFFF" d="M212.3,391.5c0,1-0.9,0.9-0.9,1.2c0,0.2,0.2,0.2,0.3,0.2c0.2,0,0.5-0.1,0.8-0.1s0.6,0.1,1.1,0.1
			c0.2,0,0.4,0,0.4-0.2c0-0.5-1.2,0.2-1.2-1.6v-3.3c0-0.1,0-0.2,0.1-0.2s0.1,0.1,0.2,0.2l4.5,5c0.1,0.1,0.1,0.2,0.2,0.2
			c0.1,0,0.1-0.1,0.1-0.3v-5.4c0-1,0.8-0.8,0.8-1.1c0,0,0-0.2-0.2-0.2c-0.1,0-0.4,0.1-1,0.1s-0.9-0.1-1.1-0.1s-0.2,0.1-0.2,0.2
			c0,0.3,1.2,0.2,1.2,1v3.2c0,0.2,0,0.4-0.1,0.4s-0.2-0.2-0.3-0.2l-3.8-4.2c-0.2-0.2-0.1-0.2-0.4-0.2c-0.5,0-0.8,0.1-1,0.1
			s-0.3-0.1-0.5-0.1c-0.1,0-0.2,0.1-0.2,0.2c0,0.5,1.1-0.2,1.1,1.7v3.6h0.1V391.5z"/>
		<path fill="#FFFFFF" d="M227.1,387c0-0.9,0.7-0.5,0.7-0.9c0-0.2-0.1-0.2-0.3-0.2c-0.5,0-0.8,0.1-1.2,0.1c-0.3,0-0.7-0.1-1.1-0.1
			c-0.1,0-0.3,0-0.3,0.2c0,0.3,1.1,0.1,1.1,0.9v4.6c0,0.9-0.7,0.7-0.7,1c0,0.1,0,0.2,0.1,0.2c0.2,0,0.6-0.1,1.1-0.1
			c0.7,0,1.1,0.1,1.4,0.1c0.2,0,0.3-0.1,0.3-0.2c0-0.3-1.1,0.2-1.1-1.1V387L227.1,387z"/>
		<path fill="#FFFFFF" d="M240.3,386.9c0.2-0.5,0.6-0.5,0.6-0.8c0-0.2-0.2-0.2-0.3-0.2c-0.2,0-0.5,0.1-0.8,0.1s-0.5-0.1-0.8-0.1
			c-0.1,0-0.4,0-0.4,0.2c0,0.3,0.9,0,0.9,0.9c0,0.2,0,0.5-0.3,1.2l-1.3,2.9c0,0.1-0.1,0.2-0.2,0.2c-0.1,0-0.1-0.2-0.2-0.2l-1.2-3.1
			c-0.2-0.6-0.4-1.1-0.4-1.3c0-0.4,0.5-0.2,0.5-0.5c0-0.2-0.1-0.2-0.3-0.2s-0.4,0.1-1,0.1c-0.3,0-0.6-0.1-0.9-0.1
			c-0.2,0-0.5-0.1-0.5,0.2c0,0.1,0.2,0.2,0.2,0.2c0.4,0.1,0.5,0.2,0.7,0.6l2.3,5.6c0.2,0.4,0.2,0.5,0.4,0.5c0.1,0,0.2-0.1,0.2-0.3
			L240.3,386.9L240.3,386.9z"/>
		<path fill="#FFFFFF" d="M248.9,387.1c0-0.7,0-0.7,1.2-0.7c1.8,0,1.1,1.2,1.5,1.2c0.2,0,0.2-0.3,0.2-0.5v-0.9
			c0-0.1-0.1-0.2-0.2-0.2c-0.8,0-1.5,0.1-2.2,0.1c-1.4,0-2.1-0.1-2.5-0.1c-0.2,0-0.2,0.1-0.2,0.2c0,0.4,1.1,0.1,1.1,0.9v4.6
			c0,1.2-0.7,0.7-0.7,1.1c0,0.1,0.1,0.1,0.2,0.1c0.5,0,0.9-0.1,1.2-0.1c0.5,0,1,0.1,2.5,0.1c0.8,0,1.3-0.8,1.3-1.5
			c0-0.2-0.1-0.2-0.1-0.2c-0.4,0-0.2,1.2-2.6,1.2c-0.7,0-0.6-0.4-0.6-0.9v-1.2c0-0.5,0-0.7,0.4-0.7h0.7c1,0,0.7,1,1,1
			c0.2,0,0.2-0.4,0.2-0.5l-0.1-1.7c0-0.2-0.1-0.2-0.2-0.2c-0.2,0-0.2,0.9-1,0.9h-0.6c-0.4,0-0.4-0.1-0.4-0.5L248.9,387.1
			L248.9,387.1z"/>
		<path fill="#FFFFFF" d="M260.6,387c0-0.6,0.3-0.6,0.6-0.6c0.9,0,1.5,0.7,1.5,1.7c0,0.5-0.1,1.1-1.5,1.1c-0.3,0-0.6,0-0.6-0.2V387
			L260.6,387z M259.5,391.4c0,1.2-0.8,0.9-0.8,1.2c0,0.2,0.2,0.2,0.3,0.2c0.5,0,0.9-0.1,1.5-0.1c0.4,0,0.6,0.1,0.8,0.1
			c0.2,0,0.3-0.1,0.3-0.2c0-0.4-0.9,0.1-0.9-1V390c0-0.3-0.1-0.4,0.5-0.4c0.5,0,0.6,0.1,0.9,0.5l0.8,1.5c0.3,0.5,0.6,1.2,1.3,1.2
			c0.4,0,1-0.2,1-0.5c0-0.1-0.1-0.2-0.2-0.2s-0.2,0.1-0.3,0.1c-0.1,0-0.2,0-0.3-0.2c-0.7-1.2-1.5-2.6-1.5-2.7s0.3-0.2,0.5-0.4
			c0.3-0.2,0.5-0.6,0.5-1.2c0-0.5-0.2-1.8-2.2-1.8c-0.6,0-1.2,0.1-1.9,0.1c-0.6,0-0.7-0.1-1.1-0.1c-0.1,0-0.2,0.1-0.2,0.2
			c0,0.4,1,0,1,1.1L259.5,391.4L259.5,391.4z"/>
		<path fill="#FFFFFF" d="M271,392.2c0.1,0.2,0,0.3,0.2,0.4c0.5,0.2,1,0.4,1.6,0.4c1.2,0,2.1-0.9,2.1-2.2c0-1.2-0.6-1.6-1.6-2.1
			c-1.2-0.5-1.8-0.7-1.8-1.3s0.4-1,1-1c1.6,0,1.8,1.8,1.9,1.8c0.2,0,0.2-0.2,0.2-0.3l-0.1-1.3c0-0.2,0-0.4-0.2-0.4s-0.4,0.2-0.5,0.2
			c-0.3,0-0.7-0.4-1.5-0.4c-1.1,0-1.9,0.9-1.9,1.9s0.5,1.4,1.4,1.8c1.5,0.7,2.1,0.9,2.1,1.6c0,0.8-0.5,1.2-1.3,1.2
			c-1,0-1.6-0.9-1.9-1.8c0-0.2-0.1-0.2-0.2-0.2c-0.2,0-0.2,0.3-0.1,0.4L271,392.2L271,392.2z"/>
		<path fill="#FFFFFF" d="M283.7,387c0-0.9,0.7-0.5,0.7-0.9c0-0.2-0.1-0.2-0.3-0.2c-0.5,0-0.9,0.1-1.2,0.1c-0.3,0-0.7-0.1-1.1-0.1
			c-0.1,0-0.3,0-0.3,0.2c0,0.3,1.1,0.1,1.1,0.9v4.6c0,0.9-0.7,0.7-0.7,1c0,0.1,0,0.2,0.1,0.2c0.2,0,0.6-0.1,1.1-0.1
			c0.7,0,1.1,0.1,1.4,0.1c0.2,0,0.3-0.1,0.3-0.2c0-0.3-1.1,0.2-1.1-1.1V387L283.7,387z"/>
		<path fill="#FFFFFF" d="M293.4,391.6c0,1.2-1.1,0.7-1.1,1.1c0,0.2,0.2,0.2,0.3,0.2c0.4,0,0.7-0.1,1.3-0.1c0.6,0,0.9,0.1,1.3,0.1
			c0.2,0,0.5,0,0.5-0.2c0-0.3-1.2,0-1.2-1.2v-4.4c0-0.5,0.1-0.5,0.5-0.5h0.8c1.1-0.1,0.8,1,1.2,1c0.2,0,0.2-0.4,0.2-0.5l-0.1-0.9
			c0-0.1,0-0.2-0.2-0.2c-0.9,0-1.5,0.1-2.9,0.1s-2-0.1-2.9-0.1c-0.2,0-0.2,0.2-0.2,0.2l-0.2,1.3c0,0.2-0.1,0.3,0.2,0.3
			c0.4,0,0.2-1.2,1.2-1.2h0.8c0.4,0,0.5,0.1,0.5,0.5L293.4,391.6L293.4,391.6z"/>
		<path fill="#FFFFFF" d="M304.8,389.7c0.1,0.2,0.2,0.3,0.2,0.6v1.2c0,1.2-1,0.7-1,1.2c0,0.1,0.1,0.1,0.2,0.1c0.2,0,0.5-0.1,1.4-0.1
			c1.2,0,1.3,0.1,1.4,0.1c0.2,0,0.3,0,0.3-0.2c0-0.5-1.2,0.2-1.2-1.1V390c0-0.4,0-0.4,0.2-0.6l1.2-2.4c0.5-1.1,1-0.8,1-1.2
			c0-0.1-0.1-0.1-0.2-0.1c-0.2,0-0.4,0.1-1.1,0.1c-0.5,0-0.7-0.1-0.8-0.1s-0.2,0.1-0.2,0.2c0,0.3,0.9,0.1,0.9,0.7
			c0,0.1,0,0.2-0.2,0.5l-0.9,1.6c-0.1,0.2-0.2,0.3-0.2,0.3s-0.2-0.2-0.3-0.5l-0.9-1.8c-0.1-0.2-0.2-0.4-0.2-0.5
			c0-0.3,0.5-0.2,0.5-0.5c0-0.1,0-0.2-0.2-0.2c-0.5,0.1-1,0.1-1.4,0.1c-0.5,0-0.7-0.1-0.9-0.1c-0.2,0-0.3,0-0.3,0.2
			c0,0.3,0.5,0.1,0.9,0.8L304.8,389.7L304.8,389.7z"/>
	</g>
	<g>
		<path fill="#FFFFFF" d="M201.3,369c0-1.2,0-1.9,1.3-1.9c1.7,0,3.1,1.3,3.1,3.2c0,1.5-0.5,2.2-2,2.2h-1.2c-1.1-0.1-1.3-0.2-1.3-1.2
			L201.3,369L201.3,369z M198.9,378c0,1.9-1.6,1.4-1.6,2.1c0,0.3,0.2,0.3,0.6,0.3c0.4,0,0.9-0.1,1.3-0.1c0.9,0,1.9,0.1,4.7,0.1
			c3.1,0,4.9-1.7,4.9-4.4c0-1.8-0.7-2.9-3-3.6v-0.1c1.3-0.5,2.1-1.5,2.1-2.9c0-0.5,0-3.5-4.7-3.5c-1.6,0-3.2,0.1-4.9,0.1
			c-0.9,0-1-0.1-1.2-0.1c-0.1,0-0.3,0-0.3,0.3c0,1,2-0.2,2,2.6L198.9,378L198.9,378z M201.3,374.9c0-1.1,0-1.5,1.2-1.5
			c3.5,0,4,1.8,4,3c0,1.9-1,3.2-2.9,3.2s-2.3-0.5-2.3-2.5V374.9L201.3,374.9z"/>
		<path fill="#FFFFFF" d="M212.7,370.7c0-1.5,1.2-0.9,1.2-1.5c0-0.2-0.1-0.2-0.5-0.2c-0.9,0-1.4,0.1-1.9,0.1s-1.2-0.1-1.7-0.1
			c-0.2,0-0.5-0.1-0.5,0.2c0,0.5,1.7,0.1,1.7,1.5v7.7c0,1.5-1.1,1.1-1.1,1.7c0,0.1,0,0.2,0.2,0.2c0.4,0,1.1-0.1,1.7-0.1
			c1.2,0,1.8,0.1,2.3,0.1c0.4,0,0.5-0.1,0.5-0.2c0-0.5-1.7,0.2-1.7-1.8v-7.6H212.7z"/>
		<path fill="#FFFFFF" d="M216.6,378.2c0,1.6-1.5,1.3-1.5,2c0,0.3,0.3,0.2,0.5,0.2c0.4,0,0.9-0.1,1.3-0.1c0.5,0,1.1,0.1,1.8,0.1
			c0.2,0,0.5,0,0.5-0.2c0-0.8-1.9,0.3-1.9-2.8v-5.5c0-0.2,0-0.2,0.2-0.2c0.1,0,0.2,0.1,0.3,0.2l7.3,8.3c0.1,0.2,0.2,0.2,0.4,0.2
			s0.2-0.2,0.2-0.5v-9c0-1.7,1.3-1.3,1.3-1.8c0-0.1,0-0.2-0.3-0.2c-0.2,0-0.7,0.1-1.6,0.1c-1.1,0-1.5-0.1-1.7-0.1s-0.2,0.2-0.2,0.3
			c0,0.5,1.9,0.2,1.9,1.7v5.3c0,0.4,0,0.6-0.2,0.6c-0.1,0-0.3-0.2-0.5-0.4l-6.1-7.1c-0.3-0.3-0.1-0.4-0.5-0.4
			c-0.8,0-1.2,0.1-1.6,0.1c-0.3,0-0.5-0.1-0.9-0.1c-0.2,0-0.2,0.2-0.2,0.3c0,0.8,1.7-0.3,1.7,2.8L216.6,378.2L216.6,378.2z"/>
		<path fill="#FFFFFF" d="M237.1,370.1c0-0.2,0-0.6-0.2-0.6s-0.3,0.5-0.6,0.5c-0.4,0-1.7-1.1-3.8-1.1c-3.9,0-5.4,3.6-5.4,6.3
			c0,1.2,0.7,5.4,5.2,5.4c1.6,0,3.3-0.8,4.8-1.5c0.2-0.1,0.2-0.2,0.2-0.4s-0.1-0.7-0.1-1.3c0-2.1,1.1-1.2,1.1-1.9
			c0-0.2-0.1-0.2-0.2-0.2c-0.5,0-1.1,0.1-1.6,0.1c-0.7,0-1.4-0.1-2.2-0.1c-0.2,0-0.8-0.2-0.8,0.3c0,0.6,1.8-0.5,1.8,2
			c0,0.9-0.1,2.3-2.8,2.3c-2.5,0-3.6-2.9-3.6-5.1c0-4.1,2-5,3.4-5c4,0,4,3.5,4.3,3.5s0.4-0.1,0.4-0.3L237.1,370.1L237.1,370.1z"/>
		<path fill="#FFFFFF" d="M249,370.7c0-1.5,1.1-0.9,1.1-1.5c0-0.2-0.1-0.2-0.3-0.2c-0.6,0-1.2,0.1-2,0.1c-0.9,0-1.3-0.1-1.9-0.1
			c-0.2,0-0.4,0-0.4,0.2c0,0.5,1.7-0.1,1.7,1.6v2.2c0,0.4-0.1,0.7-0.5,0.7h-4.5c-0.3,0-0.4-0.2-0.4-0.6v-2.5c0-1.5,1.2-0.9,1.2-1.5
			c0-0.2-0.2-0.2-0.4-0.2c-0.5,0-1.1,0.1-1.9,0.1c-0.8,0-1.2-0.1-1.7-0.1c-0.3,0-0.8,0-0.8,0.2c0,0.6,1.7-0.1,1.7,1.6v7.2
			c0,2-1.3,1.4-1.3,2.1c0,0.2,0.2,0.2,0.3,0.2c0.8,0,1.4-0.1,2-0.1c1.1,0,1.6,0.1,2.2,0.1c0.5,0,0.5-0.2,0.5-0.2c0-0.6-1.9,0-1.9-2
			v-2.5c0-0.7,0.1-0.9,0.8-0.9h4.1c0.7,0,0.6,0.2,0.6,0.9v2.9c0,1.5-1.1,1.2-1.1,1.7c0,0.1,0.1,0.2,0.3,0.2c0.8,0,1.4-0.1,1.9-0.1
			c0.6,0,1.5,0.1,2,0.1c0.2,0,0.3,0,0.3-0.2c0-0.6-1.5,0-1.5-2.1L249,370.7L249,370.7z"/>
		<path fill="#FFFFFF" d="M254.9,375.6c-0.3,0-0.5,0-0.5-0.2s0.1-0.4,0.2-0.6l1.2-2.9c0.1-0.2,0.2-0.2,0.2-0.2c0.1,0,0,0,0.2,0.2
			l1.2,2.9c0.1,0.2,0.2,0.4,0.2,0.6s-0.2,0.2-0.5,0.2H254.9L254.9,375.6z M257.5,376.5c0.4,0,0.5,0.2,1,1.4c0.2,0.5,0.3,0.7,0.3,1.1
			c0,1-1.1,0.8-1.1,1.2c0,0.2,0.2,0.2,0.5,0.2c0.5,0,1-0.1,1.7-0.1c1,0,1.4,0.1,1.9,0.1c0.4,0,0.5,0,0.5-0.2c0-0.5-0.9,0.1-1.3-1.1
			l-4.1-9.8c-0.2-0.5-0.2-0.5-0.4-0.5c-0.2,0-0.3,0.3-0.4,0.5L252,379c-0.4,0.9-1.2,0.8-1.2,1.2c0,0.2,0.2,0.2,0.5,0.2
			c0.5,0,0.9-0.1,1.3-0.1s0.9,0.1,1.5,0.1c0.3,0,0.8,0.1,0.8-0.2c0-0.5-1.6-0.2-1.6-1.3c0-0.4,0.2-0.9,0.3-1.2
			c0.4-1.1,0.7-1.2,0.9-1.2h2.9v0H257.5z"/>
		<path fill="#FFFFFF" d="M265,373.2c0-0.1,0-0.4,0.1-0.4s0.2,0.2,0.2,0.3l2.9,7c0.1,0.2,0.2,0.5,0.4,0.5c0.2,0,0.3-0.2,0.4-0.5
			l2.9-6.3c0.2-0.5,0.4-0.9,0.5-0.9s0.1,0.2,0.2,0.7l0.2,4.9c0.1,1.8-1.1,1.2-1.1,1.8c0,0.3,0.4,0.2,0.7,0.2c0.4,0,0.7-0.1,1.7-0.1
			c0.5,0,0.9,0.1,1.3,0.1c0.5,0,0.7,0,0.7-0.3c0-0.6-1.4,0.1-1.5-2l-0.2-7.1c-0.1-1.9,1.5-1.2,1.5-1.8c0-0.2,0-0.2-0.5-0.2
			s-0.7,0.1-1,0.1c-0.2,0-0.5-0.1-0.9-0.1s-0.3,0.2-0.4,0.3l-3.6,7.8c0,0.1-0.2,0.3-0.2,0.3c-0.1,0-0.2-0.1-0.2-0.2l-3.3-7.7
			c-0.2-0.5-0.4-0.5-0.5-0.5c-0.5,0-1.1,0.1-1.4,0.1c-0.5,0-0.7-0.1-0.9-0.1c-0.1,0-0.2,0.2-0.2,0.2c0,0.7,1.6-0.1,1.5,2.6l-0.2,6.5
			c-0.1,1.7-1.3,1.3-1.3,1.9c0,0.1,0.1,0.2,0.3,0.2c0.2,0,0.8-0.1,1.5-0.1s1,0.1,1.5,0.1c0.4,0,0.4-0.2,0.4-0.2
			c0-0.7-1.7,0.3-1.5-2.5V373.2L265,373.2z"/>
		<path fill="#FFFFFF" d="M280.4,378.3c0,1.9-1.7,1.2-1.7,1.8c0,0.4,0.2,0.3,0.5,0.3c0.6,0,1.1-0.1,2.2-0.1c1,0,1.5,0.1,2.2,0.1
			c0.5,0,0.8,0.1,0.8-0.3c0-0.5-1.9,0-1.9-1.9v-7.3c0-0.8,0.2-0.9,0.8-0.9h1.3c1.8-0.1,1.2,1.7,1.9,1.7c0.4,0,0.2-0.6,0.2-0.9
			l-0.2-1.5c0-0.2,0-0.4-0.2-0.4c-1.4,0-2.5,0.1-4.6,0.1c-2.2,0-3.2-0.1-4.6-0.1c-0.2,0-0.2,0.2-0.2,0.4l-0.2,2.1
			c0,0.2-0.2,0.5,0.2,0.5c0.7,0,0.2-2.1,1.9-2.1h1.3c0.6,0,0.8,0.1,0.8,0.9v7.5L280.4,378.3L280.4,378.3z"/>
		<path fill="#FFFFFF" d="M286.7,375.1c0,3.2,2.1,5.4,5.1,5.4c4.9,0,5.8-3.9,5.8-6.2c0-3.4-2.2-5.5-5.3-5.5
			C288.8,368.9,286.7,371.6,286.7,375.1L286.7,375.1z M288.6,374.2c0-2.3,0.8-4.6,3.3-4.6c1.9,0,3.8,1.9,3.8,5.4
			c0,2.7-0.9,4.8-3.5,4.9C289.5,379.9,288.6,376.5,288.6,374.2L288.6,374.2z"/>
		<path fill="#FFFFFF" d="M299.4,378.2c0,1.6-1.5,1.3-1.5,2c0,0.3,0.3,0.2,0.5,0.2c0.4,0,0.9-0.1,1.3-0.1c0.5,0,1.1,0.1,1.8,0.1
			c0.2,0,0.5,0,0.5-0.2c0-0.8-1.9,0.3-1.9-2.8v-5.5c0-0.2,0-0.2,0.2-0.2c0.1,0,0.2,0.1,0.3,0.2l7.3,8.3c0.1,0.2,0.2,0.2,0.4,0.2
			c0.2,0,0.2-0.2,0.2-0.5v-9c0-1.7,1.3-1.3,1.3-1.8c0-0.1,0-0.2-0.3-0.2c-0.2,0-0.7,0.1-1.6,0.1c-1.1,0-1.5-0.1-1.7-0.1
			s-0.2,0.2-0.2,0.3c0,0.5,1.9,0.2,1.9,1.7v5.3c0,0.4,0,0.6-0.2,0.6c-0.1,0-0.3-0.2-0.5-0.4l-6.1-7.1c-0.3-0.3-0.1-0.4-0.5-0.4
			c-0.8,0-1.2,0.1-1.6,0.1c-0.3,0-0.5-0.1-0.8-0.1c-0.2,0-0.2,0.2-0.2,0.3c0,0.8,1.7-0.3,1.7,2.8L299.4,378.2L299.4,378.2z"/>
	</g>
	<g>
		<path fill="#FFFFFF" d="M204.7,400.8c-0.1-0.4-0.3-0.6-0.6-0.6c-0.5,0-0.6,0.3-0.6,0.5s0.2,0.4,0.5,0.5l0.4,0.2
			c0.5,0.2,0.8,0.5,0.8,0.9c0,0.5-0.5,0.9-1.1,0.9s-1-0.3-1.1-1h0.4c0,0.4,0.2,0.6,0.7,0.6c0.4,0,0.6-0.2,0.6-0.5
			c0-0.2-0.2-0.5-0.5-0.5l-0.5-0.2c-0.5-0.2-0.8-0.5-0.8-0.9c0-0.5,0.5-0.9,1-0.9s1,0.3,1,1H204.7z"/>
		<path fill="#FFFFFF" d="M207.2,400.2h-0.9v-0.4h2.1v0.4h-0.9v2.9h-0.4L207.2,400.2L207.2,400.2z"/>
		<path fill="#FFFFFF" d="M211.5,402.4H210l-0.3,0.8h-0.5l1.4-3.3h0.4l1.4,3.3h-0.5L211.5,402.4z M210.7,400.4l-0.6,1.6h1.2
			L210.7,400.4z"/>
		<path fill="#FFFFFF" d="M213.9,400.2H213v-0.4h2.1v0.4h-0.9v2.9h-0.4L213.9,400.2L213.9,400.2z"/>
		<path fill="#FFFFFF" d="M216.8,399.9h1.7v0.4h-1.3v1.1h1.3v0.4h-1.3v1.1h1.3v0.4h-1.7V399.9z"/>
		<path fill="#FFFFFF" d="M223.1,399.9h0.4v2c0,0.5,0.3,1,0.9,1c0.6,0,0.9-0.5,0.9-1v-2h0.4v2.2c0,0.7-0.5,1.2-1.3,1.2
			s-1.3-0.5-1.3-1.2L223.1,399.9L223.1,399.9z"/>
		<path fill="#FFFFFF" d="M229.5,399.9h0.4v3.3h-0.4l-1.8-2.6l0,0v2.6h-0.4v-3.3h0.4l1.8,2.6l0,0V399.9z"/>
		<path fill="#FFFFFF" d="M231.7,399.9h0.4v3.3h-0.4V399.9z"/>
		<path fill="#FFFFFF" d="M236.1,399.9h0.5l-1.2,3.3H235l-1.2-3.3h0.5l0.9,2.7l0,0L236.1,399.9z"/>
		<path fill="#FFFFFF" d="M237.9,399.9h1.7v0.4h-1.3v1.1h1.3v0.4h-1.3v1.1h1.3v0.4h-1.7V399.9z"/>
		<path fill="#FFFFFF" d="M241.8,401.8v1.4h-0.4v-3.3h0.9c0.6,0,1.2,0.4,1.2,1s-0.5,1-1,1l1.3,1.3h-0.6L241.8,401.8z M241.8,401.6
			c0.1,0,0.2,0,0.4,0c0.6,0,0.9-0.3,0.9-0.6c0-0.4-0.2-0.6-0.7-0.6h-0.5L241.8,401.6L241.8,401.6z"/>
		<path fill="#FFFFFF" d="M246.7,400.8c-0.1-0.4-0.3-0.6-0.6-0.6c-0.5,0-0.6,0.3-0.6,0.5s0.2,0.4,0.5,0.5l0.4,0.2
			c0.5,0.2,0.8,0.5,0.8,0.9c0,0.5-0.5,0.9-1.1,0.9s-1-0.3-1.1-1h0.4c0,0.4,0.2,0.6,0.7,0.6c0.4,0,0.6-0.2,0.6-0.5
			c0-0.2-0.2-0.5-0.5-0.5l-0.5-0.2c-0.5-0.2-0.8-0.5-0.8-0.9c0-0.5,0.5-0.9,1-0.9s1,0.3,1,1H246.7z"/>
		<path fill="#FFFFFF" d="M248.7,399.9h0.4v3.3h-0.4V399.9z"/>
		<path fill="#FFFFFF" d="M251.4,400.2h-0.9v-0.4h2.1v0.4h-0.8v2.9h-0.4L251.4,400.2L251.4,400.2z"/>
		<path fill="#FFFFFF" d="M255.9,399.9h0.5l-1.2,2v1.3h-0.4v-1.3l-1.2-2h0.5l0.9,1.5L255.9,399.9z"/>
		<path fill="#FFFFFF" d="M262.8,399.8c1.2,0,1.8,0.9,1.8,1.7c0,0.9-0.6,1.7-1.8,1.7s-1.8-0.9-1.8-1.7
			C261,400.7,261.7,399.8,262.8,399.8z M262.8,402.9c0.7,0,1.3-0.5,1.3-1.3s-0.6-1.3-1.3-1.3c-0.7,0-1.3,0.5-1.3,1.3
			S262.1,402.9,262.8,402.9z"/>
		<path fill="#FFFFFF" d="M266.1,399.9h1.7v0.4h-1.3v1.1h1.3v0.4h-1.3v1.5h-0.4L266.1,399.9L266.1,399.9z"/>
		<path fill="#FFFFFF" d="M275.1,399.9h0.4v3.3h-0.4l-1.8-2.6l0,0v2.6h-0.4v-3.3h0.4l1.8,2.6l0,0V399.9z"/>
		<path fill="#FFFFFF" d="M277.2,399.9h1.7v0.4h-1.3v1.1h1.3v0.4h-1.3v1.1h1.3v0.4h-1.7V399.9z"/>
		<path fill="#FFFFFF" d="M284.1,399.9h0.5l-1,3.3h-0.3l-0.8-2.6l0,0l-0.8,2.6h-0.5l-1-3.3h0.5l0.8,2.6l0,0l0.8-2.6h0.4l0.8,2.6l0,0
			L284.1,399.9z"/>
		<path fill="#FFFFFF" d="M291.2,399.9h0.5l-1.2,2v1.3h-0.4v-1.3l-1.1-2h0.5l0.9,1.5L291.2,399.9z"/>
		<path fill="#FFFFFF" d="M294.3,399.8c1.2,0,1.8,0.9,1.8,1.7c0,0.9-0.6,1.7-1.8,1.7s-1.8-0.9-1.8-1.7S293.2,399.8,294.3,399.8z
			 M294.3,402.9c0.7,0,1.3-0.5,1.3-1.3s-0.6-1.3-1.3-1.3s-1.3,0.5-1.3,1.3C293,402.3,293.6,402.9,294.3,402.9z"/>
		<path fill="#FFFFFF" d="M298,401.8v1.4h-0.4v-3.3h0.9c0.6,0,1.2,0.4,1.2,1s-0.5,1-1,1l1.3,1.3h-0.6L298,401.8z M298,401.6
			c0.1,0,0.2,0,0.4,0c0.6,0,0.9-0.3,0.9-0.6c0-0.4-0.2-0.6-0.7-0.6H298V401.6z"/>
		<path fill="#FFFFFF" d="M303.3,399.9h0.5l-1.5,1.6l1.5,1.7h-0.6l-1.3-1.5v1.5h-0.4v-3.3h0.4v1.5L303.3,399.9z"/>
	</g>
</g>
</svg>
