<?xml version="1.0" encoding="utf-8"?>
<!-- Generator: Adobe Illustrator 17.1.0, SVG Export Plug-In . SVG Version: 6.00 Build 0)  -->
<!DOCTYPE svg PUBLIC "-//W3C//DTD SVG 1.1//EN" "http://www.w3.org/Graphics/SVG/1.1/DTD/svg11.dtd">
<svg version="1.1" id="Layer_1" xmlns="http://www.w3.org/2000/svg" xmlns:xlink="http://www.w3.org/1999/xlink" x="0px" y="0px"
	 viewBox="196.8 697.1 612.1 129.5" enable-background="new 196.8 697.1 612.1 129.5" xml:space="preserve">
<text transform="matrix(1 0 0 1 637.0359 735.5997)" fill="#FFFFFF" font-family="'DINAlternate-Bold'" font-size="31.215">Career </text>
<text transform="matrix(1 0 0 1 637.0359 776.9615)" fill="#FFFFFF" font-family="'DINAlternate-Bold'" font-size="31.215">Development</text>
<text transform="matrix(1 0 0 1 637.0359 818.0612)" fill="#FFFFFF" font-family="'DINAlternate-Bold'" font-size="31.215">Center</text>
<line fill="none" stroke="#FFFFFF" stroke-width="0.625" x1="609.2" y1="707.5" x2="609.2" y2="823"/>
<g>
	<g>
		<path fill="#FFFFFF" d="M224.1,768.5c0-3.7,2-2.7,2-3.4c0-0.3-0.3-0.7-0.7-0.7c-1.7,0-2.7,0.3-3.7,0.3c-0.7,0-1.7,0-2.7-0.3
			c-0.7,0-1-0.3-1,0.3c0,1.3,4,0.3,4,4v6.4c0,5.4-0.7,10.8-7.1,10.8c-5.7,0-6.7-4-6.7-9.1v-7.1c0-5.4,2.7-3.7,2.7-4.7
			c0-0.3,0-0.7-0.3-0.7c-0.7,0-3,0.3-4.4,0.3c-1.3,0-4-0.3-4.4-0.3s-0.7,0-0.7,0.7c0,1.3,3.4,0.3,3.4,3v10.8c0,6.4,3,9.1,9.1,9.1
			c8.4,0,10.4-5.4,10.4-12.1L224.1,768.5L224.1,768.5z"/>
		<path fill="#FFFFFF" d="M249,783.3c0,3.4-3,3-3,4c0,0.7,0.7,0.7,1,0.7c0.7,0,1.7-0.3,2.7-0.3c1,0,2,0.3,3.7,0.3
			c0.7,0,1.3,0,1.3-0.7c0-1.7-4,0.7-4-5.4v-11.1c0-0.3,0-0.7,0.3-0.7s0.3,0.3,0.7,0.7l15.1,16.8c0.3,0.3,0.3,0.7,0.7,0.7
			c0.3,0,0.3-0.3,0.3-1v-18.2c0-3.4,2.7-2.7,2.7-3.7c0,0,0-0.7-0.7-0.7c-0.3,0-1.3,0.3-3.4,0.3c-2,0-3-0.3-3.7-0.3s-0.7,0.3-0.7,0.7
			c0,1,4,0.7,4,3.4v10.8c0,0.7,0,1.3-0.3,1.3c-0.3,0-0.7-0.7-1-0.7L252,766.1c-0.7-0.7-0.3-0.7-1.3-0.7c-1.7,0-2.7,0.3-3.4,0.3
			c-0.7,0-1-0.3-1.7-0.3c-0.3,0-0.7,0.3-0.7,0.7c0,1.7,3.7-0.7,3.7,5.7v12.1h0.3L249,783.3L249,783.3z"/>
		<path fill="#FFFFFF" d="M298.8,768.1c0-3,2.4-1.7,2.4-3c0-0.7-0.3-0.7-1-0.7c-1.7,0-2.7,0.3-4,0.3c-1,0-2.4-0.3-3.7-0.3
			c-0.3,0-1,0-1,0.7c0,1,3.7,0.3,3.7,3v15.5c0,3-2.4,2.4-2.4,3.4c0,0.3,0,0.7,0.3,0.7c0.7,0,2-0.3,3.7-0.3c2.4,0,3.7,0.3,4.7,0.3
			c0.7,0,1-0.3,1-0.7c0-1-3.7,0.7-3.7-3.7V768.1L298.8,768.1z"/>
		<path fill="#FFFFFF" d="M343.2,767.8c0.7-1.7,2-1.7,2-2.7c0-0.7-0.7-0.7-1-0.7c-0.7,0-1.7,0.3-2.7,0.3c-1,0-1.7-0.3-2.7-0.3
			c-0.3,0-1.3,0-1.3,0.7c0,1,3,0,3,3c0,0.7,0,1.7-1,4l-4.4,9.8c0,0.3-0.3,0.7-0.7,0.7c-0.3,0-0.3-0.7-0.7-0.7l-4-10.4
			c-0.7-2-1.3-3.7-1.3-4.4c0-1.3,1.7-0.7,1.7-1.7c0-0.7-0.3-0.7-1-0.7s-1.3,0.3-3.4,0.3c-1,0-2-0.3-3-0.3c-0.7,0-1.7-0.3-1.7,0.7
			c0,0.3,0.7,0.7,0.7,0.7c1.3,0.3,1.7,0.7,2.4,2l7.7,18.9c0.7,1.3,0.7,1.7,1.3,1.7c0.3,0,0.7-0.3,0.7-1L343.2,767.8L343.2,767.8z"/>
		<path fill="#FFFFFF" d="M372.2,768.5c0-2.4,0-2.4,4-2.4c6.1,0,3.7,4,5,4c0.7,0,0.7-1,0.7-1.7v-3c0-0.3-0.3-0.7-0.7-0.7
			c-2.7,0-5,0.3-7.4,0.3c-4.7,0-7.1-0.3-8.4-0.3c-0.7,0-0.7,0.3-0.7,0.7c0,1.3,3.7,0.3,3.7,3v15.5c0,4-2.4,2.4-2.4,3.7
			c0,0.3,0.3,0.3,0.7,0.3c1.7,0,3-0.3,4-0.3c1.7,0,3.4,0.3,8.4,0.3c2.7,0,4.4-2.7,4.4-5c0-0.7-0.3-0.7-0.3-0.7c-1.3,0-0.7,4-8.8,4
			c-2.4,0-2-1.3-2-3v-4c0-1.7,0-2.4,1.3-2.4h2.4c3.4,0,2.4,3.4,3.4,3.4c0.7,0,0.7-1.3,0.7-1.7l-0.3-5.7c0-0.7-0.3-0.7-0.7-0.7
			c-0.7,0-0.7,3-3.4,3h-2c-1.3,0-1.3-0.3-1.3-1.7L372.2,768.5L372.2,768.5z"/>
		<path fill="#FFFFFF" d="M411.6,768.1c0-2,1-2,2-2c3,0,5,2.4,5,5.7c0,1.7-0.3,3.7-5,3.7c-1,0-2,0-2-0.7V768.1L411.6,768.1z
			 M407.9,782.9c0,4-2.7,3-2.7,4c0,0.7,0.7,0.7,1,0.7c1.7,0,3-0.3,5-0.3c1.3,0,2,0.3,2.7,0.3c0.7,0,1-0.3,1-0.7c0-1.3-3,0.3-3-3.4
			v-5.4c0-1-0.3-1.3,1.7-1.3c1.7,0,2,0.3,3,1.7l2.7,5c1,1.7,2,4,4.4,4c1.3,0,3.4-0.7,3.4-1.7c0-0.3-0.3-0.7-0.7-0.7
			c-0.3,0-0.7,0.3-1,0.3c-0.3,0-0.7,0-1-0.7c-2.4-4-5-8.8-5-9.1c0-0.3,1-0.7,1.7-1.3c1-0.7,1.7-2,1.7-4c0-1.7-0.7-6.1-7.4-6.1
			c-2,0-4,0.3-6.4,0.3c-2,0-2.4-0.3-3.7-0.3c-0.3,0-0.7,0.3-0.7,0.7c0,1.3,3.4,0,3.4,3.7L407.9,782.9L407.9,782.9z"/>
		<path fill="#FFFFFF" d="M446.6,785.6c0.3,0.7,0,1,0.7,1.3c1.7,0.7,3.4,1.3,5.4,1.3c4,0,7.1-3,7.1-7.4c0-4-2-5.4-5.4-7.1
			c-4-1.7-6.1-2.4-6.1-4.4s1.3-3.4,3.4-3.4c5.4,0,6.1,6.1,6.4,6.1c0.7,0,0.7-0.7,0.7-1l-0.3-4.4c0-0.7,0-1.3-0.7-1.3
			s-1.3,0.7-1.7,0.7c-1,0-2.4-1.3-5-1.3c-3.7,0-6.4,3-6.4,6.4s1.7,4.7,4.7,6.1c5,2.4,7.1,3,7.1,5.4c0,2.7-1.7,4-4.4,4
			c-3.4,0-5.4-3-6.4-6.1c0-0.7-0.3-0.7-0.7-0.7c-0.7,0-0.7,1-0.3,1.3L446.6,785.6L446.6,785.6z"/>
		<path fill="#FFFFFF" d="M489.3,768.1c0-3,2.4-1.7,2.4-3c0-0.7-0.3-0.7-1-0.7c-1.7,0-3,0.3-4,0.3c-1,0-2.4-0.3-3.7-0.3
			c-0.3,0-1,0-1,0.7c0,1,3.7,0.3,3.7,3v15.5c0,3-2.4,2.4-2.4,3.4c0,0.3,0,0.7,0.3,0.7c0.7,0,2-0.3,3.7-0.3c2.4,0,3.7,0.3,4.7,0.3
			c0.7,0,1-0.3,1-0.7c0-1-3.7,0.7-3.7-3.7V768.1L489.3,768.1z"/>
		<path fill="#FFFFFF" d="M522,783.6c0,4-3.7,2.4-3.7,3.7c0,0.7,0.7,0.7,1,0.7c1.3,0,2.4-0.3,4.4-0.3c2,0,3,0.3,4.4,0.3
			c0.7,0,1.7,0,1.7-0.7c0-1-4,0-4-4v-14.8c0-1.7,0.3-1.7,1.7-1.7h2.7c3.7-0.3,2.7,3.4,4,3.4c0.7,0,0.7-1.3,0.7-1.7l-0.3-3
			c0-0.3,0-0.7-0.7-0.7c-3,0-5,0.3-9.8,0.3c-4.7,0-6.7-0.3-9.8-0.3c-0.7,0-0.7,0.7-0.7,0.7l-0.7,4.4c0,0.7-0.3,1,0.7,1
			c1.3,0,0.7-4,4-4h2.7c1.3,0,1.7,0.3,1.7,1.7L522,783.6L522,783.6z"/>
		<path fill="#FFFFFF" d="M560.4,777.2c0.3,0.7,0.7,1,0.7,2v4c0,4-3.4,2.4-3.4,4c0,0.3,0.3,0.3,0.7,0.3c0.7,0,1.7-0.3,4.7-0.3
			c4,0,4.4,0.3,4.7,0.3c0.7,0,1,0,1-0.7c0-1.7-4,0.7-4-3.7v-5c0-1.3,0-1.3,0.7-2l4-8.1c1.7-3.7,3.4-2.7,3.4-4c0-0.3-0.3-0.3-0.7-0.3
			c-0.7,0-1.3,0.3-3.7,0.3c-1.7,0-2.4-0.3-2.7-0.3s-0.7,0.3-0.7,0.7c0,1,3,0.3,3,2.4c0,0.3,0,0.7-0.7,1.7l-3,5.4
			c-0.3,0.7-0.7,1-0.7,1s-0.7-0.7-1-1.7l-3-6.1c-0.3-0.7-0.7-1.3-0.7-1.7c0-1,1.7-0.7,1.7-1.7c0-0.3,0-0.7-0.7-0.7
			c-1.7,0.3-3.4,0.3-4.7,0.3c-1.7,0-2.4-0.3-3-0.3c-0.7,0-1,0-1,0.7c0,1,1.7,0.3,3,2.7L560.4,777.2L560.4,777.2z"/>
	</g>
	<g>
		<path fill="#FFFFFF" d="M211.9,707.5c0-4,0-6.4,4.4-6.4c5.7,0,10.4,4.4,10.4,10.8c0,5-1.7,7.4-6.7,7.4h-4c-3.7-0.3-4.4-0.7-4.4-4
			L211.9,707.5L211.9,707.5z M203.9,737.8c0,6.4-5.4,4.7-5.4,7.1c0,1,0.7,1,2,1c1.3,0,3-0.3,4.4-0.3c3,0,6.4,0.3,15.8,0.3
			c10.4,0,16.5-5.7,16.5-14.8c0-6.1-2.4-9.8-10.1-12.1v-0.3c4.4-1.7,7.1-5,7.1-9.8c0-1.7,0-11.8-15.8-11.8c-5.4,0-10.8,0.3-16.5,0.3
			c-3,0-3.4-0.3-4-0.3c-0.3,0-1,0-1,1c0,3.4,6.7-0.7,6.7,8.8L203.9,737.8L203.9,737.8z M211.9,727.4c0-3.7,0-5,4-5
			c11.8,0,13.5,6.1,13.5,10.1c0,6.4-3.4,10.8-9.8,10.8c-6.4,0-7.7-1.7-7.7-8.4V727.4L211.9,727.4z"/>
		<path fill="#FFFFFF" d="M250.3,713.3c0-5,4-3,4-5c0-0.7-0.3-0.7-1.7-0.7c-3,0-4.7,0.3-6.4,0.3s-4-0.3-5.7-0.3
			c-0.7,0-1.7-0.3-1.7,0.7c0,1.7,5.7,0.3,5.7,5v25.9c0,5-3.7,3.7-3.7,5.7c0,0.3,0,0.7,0.7,0.7c1.3,0,3.7-0.3,5.7-0.3
			c4,0,6.1,0.3,7.7,0.3c1.3,0,1.7-0.3,1.7-0.7c0-1.7-5.7,0.7-5.7-6.1v-25.6L250.3,713.3L250.3,713.3z"/>
		<path fill="#FFFFFF" d="M263.5,738.5c0,5.4-5,4.4-5,6.7c0,1,1,0.7,1.7,0.7c1.3,0,3-0.3,4.4-0.3c1.7,0,3.7,0.3,6.1,0.3
			c0.7,0,1.7,0,1.7-0.7c0-2.7-6.4,1-6.4-9.4v-18.5c0-0.7,0-0.7,0.7-0.7c0.3,0,0.7,0.3,1,0.7l24.6,27.9c0.3,0.7,0.7,0.7,1.3,0.7
			s0.7-0.7,0.7-1.7v-30.3c0-5.7,4.4-4.4,4.4-6.1c0-0.3,0-0.7-1-0.7c-0.7,0-2.4,0.3-5.4,0.3c-3.7,0-5-0.3-5.7-0.3s-0.7,0.7-0.7,1
			c0,1.7,6.4,0.7,6.4,5.7v17.8c0,1.3,0,2-0.7,2c-0.3,0-1-0.7-1.7-1.3l-20.5-23.9c-1-1-0.3-1.3-1.7-1.3c-2.7,0-4,0.3-5.4,0.3
			c-1,0-1.7-0.3-3-0.3c-0.7,0-0.7,0.7-0.7,1c0,2.7,5.7-1,5.7,9.4L263.5,738.5L263.5,738.5z"/>
		<path fill="#FFFFFF" d="M332.5,711.2c0-0.7,0-2-0.7-2c-0.7,0-1,1.7-2,1.7c-1.3,0-5.7-3.7-12.8-3.7c-13.1,0-18.2,12.1-18.2,21.2
			c0,4,2.4,18.2,17.5,18.2c5.4,0,11.1-2.7,16.2-5c0.7-0.3,0.7-0.7,0.7-1.3s-0.3-2.4-0.3-4.4c0-7.1,3.7-4,3.7-6.4
			c0-0.7-0.3-0.7-0.7-0.7c-1.7,0-3.7,0.3-5.4,0.3c-2.4,0-4.7-0.3-7.4-0.3c-0.7,0-2.7-0.7-2.7,1c0,2,6.1-1.7,6.1,6.7
			c0,3-0.3,7.7-9.4,7.7c-8.4,0-12.1-9.8-12.1-17.2c0-13.8,6.7-16.8,11.4-16.8c13.5,0,13.5,11.8,14.5,11.8s1.3-0.3,1.3-1L332.5,711.2
			L332.5,711.2z"/>
		<path fill="#FFFFFF" d="M372.5,713.3c0-5,3.7-3,3.7-5c0-0.7-0.3-0.7-1-0.7c-2,0-4,0.3-6.7,0.3c-3,0-4.4-0.3-6.4-0.3
			c-0.7,0-1.3,0-1.3,0.7c0,1.7,5.7-0.3,5.7,5.4v7.4c0,1.3-0.3,2.4-1.7,2.4h-15.1c-1,0-1.3-0.7-1.3-2v-8.4c0-5,4-3,4-5
			c0-0.7-0.7-0.7-1.3-0.7c-1.7,0-3.7,0.3-6.4,0.3c-2.7,0-4-0.3-5.7-0.3c-1,0-2.7,0-2.7,0.7c0,2,5.7-0.3,5.7,5.4v24.2
			c0,6.7-4.4,4.7-4.4,7.1c0,0.7,0.7,0.7,1,0.7c2.7,0,4.7-0.3,6.7-0.3c3.7,0,5.4,0.3,7.4,0.3c1.7,0,1.7-0.7,1.7-0.7
			c0-2-6.4,0-6.4-6.7v-8.4c0-2.4,0.3-3,2.7-3h13.8c2.4,0,2,0.7,2,3v9.8c0,5-3.7,4-3.7,5.7c0,0.3,0.3,0.7,1,0.7
			c2.7,0,4.7-0.3,6.4-0.3c2,0,5,0.3,6.7,0.3c0.7,0,1,0,1-0.7c0-2-5,0-5-7.1L372.5,713.3L372.5,713.3z"/>
		<path fill="#FFFFFF" d="M392.4,729.8c-1,0-1.7,0-1.7-0.7c0-0.7,0.3-1.3,0.7-2l4-9.8c0.3-0.7,0.7-0.7,0.7-0.7c0.3,0,0,0,0.7,0.7
			l4,9.8c0.3,0.7,0.7,1.3,0.7,2c0,0.7-0.7,0.7-1.7,0.7H392.4L392.4,729.8z M401.1,732.8c1.3,0,1.7,0.7,3.4,4.7c0.7,1.7,1,2.4,1,3.7
			c0,3.4-3.7,2.7-3.7,4c0,0.7,0.7,0.7,1.7,0.7c1.7,0,3.4-0.3,5.7-0.3c3.4,0,4.7,0.3,6.4,0.3c1.3,0,1.7,0,1.7-0.7
			c0-1.7-3,0.3-4.4-3.7l-13.8-33c-0.7-1.7-0.7-1.7-1.3-1.7c-0.7,0-1,1-1.3,1.7l-13.8,32.7c-1.3,3-4,2.7-4,4c0,0.7,0.7,0.7,1.7,0.7
			c1.7,0,3-0.3,4.4-0.3s3,0.3,5,0.3c1,0,2.7,0.3,2.7-0.7c0-1.7-5.4-0.7-5.4-4.4c0-1.3,0.7-3,1-4c1.3-3.7,2.4-4,3-4h9.8l0,0H401.1z"
			/>
		<path fill="#FFFFFF" d="M426.4,721.7c0-0.3,0-1.3,0.3-1.3c0.3,0,0.7,0.7,0.7,1l9.8,23.6c0.3,0.7,0.7,1.7,1.3,1.7
			c0.7,0,1-0.7,1.3-1.7l9.8-21.2c0.7-1.7,1.3-3,1.7-3c0.3,0,0.3,0.7,0.7,2.4l0.7,16.5c0.3,6.1-3.7,4-3.7,6.1c0,1,1.3,0.7,2.4,0.7
			c1.3,0,2.4-0.3,5.7-0.3c1.7,0,3,0.3,4.4,0.3c1.7,0,2.4,0,2.4-1c0-2-4.7,0.3-5-6.7l-0.7-23.9c-0.3-6.4,5-4,5-6.1
			c0-0.7,0-0.7-1.7-0.7s-2.4,0.3-3.4,0.3c-0.7,0-1.7-0.3-3-0.3c-1.3,0-1,0.7-1.3,1l-12.1,26.3c0,0.3-0.7,1-0.7,1
			c-0.3,0-0.7-0.3-0.7-0.7l-11.1-25.9c-0.7-1.7-1.3-1.7-1.7-1.7c-1.7,0-3.7,0.3-4.7,0.3c-1.7,0-2.4-0.3-3-0.3
			c-0.3,0-0.7,0.7-0.7,0.7c0,2.4,5.4-0.3,5,8.8l-0.7,21.9c-0.3,5.7-4.4,4.4-4.4,6.4c0,0.3,0.3,0.7,1,0.7c0.7,0,2.7-0.3,5-0.3
			s3.4,0.3,5,0.3c1.3,0,1.3-0.7,1.3-0.7c0-2.4-5.7,1-5-8.4V721.7L426.4,721.7z"/>
		<path fill="#FFFFFF" d="M478.2,738.8c0,6.4-5.7,4-5.7,6.1c0,1.3,0.7,1,1.7,1c2,0,3.7-0.3,7.4-0.3c3.4,0,5,0.3,7.4,0.3
			c1.7,0,2.7,0.3,2.7-1c0-1.7-6.4,0-6.4-6.4v-24.6c0-2.7,0.7-3,2.7-3h4.4c6.1-0.3,4,5.7,6.4,5.7c1.3,0,0.7-2,0.7-3l-0.7-5
			c0-0.7,0-1.3-0.7-1.3c-4.7,0-8.4,0.3-15.5,0.3c-7.4,0-10.8-0.3-15.5-0.3c-0.7,0-0.7,0.7-0.7,1.3l-0.7,7.1c0,0.7-0.7,1.7,0.7,1.7
			c2.4,0,0.7-7.1,6.4-7.1h4.4c2,0,2.7,0.3,2.7,3v25.2L478.2,738.8L478.2,738.8z"/>
		<path fill="#FFFFFF" d="M499.4,728.1c0,10.8,7.1,18.2,17.2,18.2c16.5,0,19.5-13.1,19.5-20.9c0-11.4-7.4-18.5-17.8-18.5
			C506.5,707.2,499.4,716.3,499.4,728.1L499.4,728.1z M505.8,725c0-7.7,2.7-15.5,11.1-15.5c6.4,0,12.8,6.4,12.8,18.2
			c0,9.1-3,16.2-11.8,16.5C508.9,744.2,505.8,732.8,505.8,725L505.8,725z"/>
		<path fill="#FFFFFF" d="M542.2,738.5c0,5.4-5,4.4-5,6.7c0,1,1,0.7,1.7,0.7c1.3,0,3-0.3,4.4-0.3c1.7,0,3.7,0.3,6.1,0.3
			c0.7,0,1.7,0,1.7-0.7c0-2.7-6.4,1-6.4-9.4v-18.5c0-0.7,0-0.7,0.7-0.7c0.3,0,0.7,0.3,1,0.7l24.6,27.9c0.3,0.7,0.7,0.7,1.3,0.7
			c0.7,0,0.7-0.7,0.7-1.7v-30.3c0-5.7,4.4-4.4,4.4-6.1c0-0.3,0-0.7-1-0.7c-0.7,0-2.4,0.3-5.4,0.3c-3.7,0-5-0.3-5.7-0.3
			c-0.7,0-0.7,0.7-0.7,1c0,1.7,6.4,0.7,6.4,5.7v17.8c0,1.3,0,2-0.7,2c-0.3,0-1-0.7-1.7-1.3l-20.5-23.9c-1-1-0.3-1.3-1.7-1.3
			c-2.7,0-4,0.3-5.4,0.3c-1,0-1.7-0.3-2.7-0.3c-0.7,0-0.7,0.7-0.7,1c0,2.7,5.7-1,5.7,9.4L542.2,738.5L542.2,738.5z"/>
	</g>
	<g>
		<path fill="#FFFFFF" d="M223.4,814.6c-0.3-1.3-1-2-2-2c-1.7,0-2,1-2,1.7c0,0.7,0.7,1.3,1.7,1.7l1.3,0.7c1.7,0.7,2.7,1.7,2.7,3
			c0,1.7-1.7,3-3.7,3c-2,0-3.4-1-3.7-3.4h1.3c0,1.3,0.7,2,2.4,2c1.3,0,2-0.7,2-1.7c0-0.7-0.7-1.7-1.7-1.7l-1.7-0.7
			c-1.7-0.7-2.7-1.7-2.7-3c0-1.7,1.7-3,3.4-3c1.7,0,3.4,1,3.4,3.4H223.4z"/>
		<path fill="#FFFFFF" d="M231.8,812.6h-3v-1.3h7.1v1.3h-3v9.8h-1.3L231.8,812.6L231.8,812.6z"/>
		<path fill="#FFFFFF" d="M246.3,820h-5l-1,2.7h-1.7l4.7-11.1h1.3l4.7,11.1h-1.7L246.3,820z M243.6,813.2l-2,5.4h4L243.6,813.2z"/>
		<path fill="#FFFFFF" d="M254.4,812.6h-3v-1.3h7.1v1.3h-3v9.8H254L254.4,812.6L254.4,812.6z"/>
		<path fill="#FFFFFF" d="M264.1,811.6h5.7v1.3h-4.4v3.7h4.4v1.3h-4.4v3.7h4.4v1.3h-5.7V811.6z"/>
		<path fill="#FFFFFF" d="M285.3,811.6h1.3v6.7c0,1.7,1,3.4,3,3.4c2,0,3-1.7,3-3.4v-6.7h1.3v7.4c0,2.4-1.7,4-4.4,4s-4.4-1.7-4.4-4
			L285.3,811.6L285.3,811.6z"/>
		<path fill="#FFFFFF" d="M306.9,811.6h1.3v11.1h-1.3l-6.1-8.8l0,0v8.8h-1.3v-11.1h1.3l6.1,8.8l0,0V811.6z"/>
		<path fill="#FFFFFF" d="M314.3,811.6h1.3v11.1h-1.3V811.6z"/>
		<path fill="#FFFFFF" d="M329.1,811.6h1.7l-4,11.1h-1.3l-4-11.1h1.7l3,9.1l0,0L329.1,811.6z"/>
		<path fill="#FFFFFF" d="M335.2,811.6h5.7v1.3h-4.4v3.7h4.4v1.3h-4.4v3.7h4.4v1.3h-5.7V811.6z"/>
		<path fill="#FFFFFF" d="M348.3,817.9v4.7h-1.3v-11.1h3c2,0,4,1.3,4,3.4s-1.7,3.4-3.4,3.4l4.4,4.4h-2L348.3,817.9z M348.3,817.3
			c0.3,0,0.7,0,1.3,0c2,0,3-1,3-2c0-1.3-0.7-2-2.4-2h-1.7L348.3,817.3L348.3,817.3z"/>
		<path fill="#FFFFFF" d="M364.8,814.6c-0.3-1.3-1-2-2-2c-1.7,0-2,1-2,1.7c0,0.7,0.7,1.3,1.7,1.7l1.3,0.7c1.7,0.7,2.7,1.7,2.7,3
			c0,1.7-1.7,3-3.7,3c-2,0-3.4-1-3.7-3.4h1.3c0,1.3,0.7,2,2.4,2c1.3,0,2-0.7,2-1.7c0-0.7-0.7-1.7-1.7-1.7l-1.7-0.7
			c-1.7-0.7-2.7-1.7-2.7-3c0-1.7,1.7-3,3.4-3s3.4,1,3.4,3.4H364.8z"/>
		<path fill="#FFFFFF" d="M371.5,811.6h1.3v11.1h-1.3V811.6z"/>
		<path fill="#FFFFFF" d="M380.6,812.6h-3v-1.3h7.1v1.3h-2.7v9.8h-1.3L380.6,812.6L380.6,812.6z"/>
		<path fill="#FFFFFF" d="M395.8,811.6h1.7l-4,6.7v4.4H392v-4.4l-4-6.7h1.7l3,5L395.8,811.6z"/>
		<path fill="#FFFFFF" d="M419,811.2c4,0,6.1,3,6.1,5.7c0,3-2,5.7-6.1,5.7c-4,0-6.1-3-6.1-5.7C412.9,814.2,415.3,811.2,419,811.2z
			 M419,821.7c2.4,0,4.4-1.7,4.4-4.4c0-2.7-2-4.4-4.4-4.4c-2.4,0-4.4,1.7-4.4,4.4C414.6,820,416.6,821.7,419,821.7z"/>
		<path fill="#FFFFFF" d="M430.1,811.6h5.7v1.3h-4.4v3.7h4.4v1.3h-4.4v5h-1.3L430.1,811.6L430.1,811.6z"/>
		<path fill="#FFFFFF" d="M460.4,811.6h1.3v11.1h-1.3l-6.1-8.8l0,0v8.8H453v-11.1h1.3l6.1,8.8l0,0V811.6z"/>
		<path fill="#FFFFFF" d="M467.5,811.6h5.7v1.3h-4.4v3.7h4.4v1.3h-4.4v3.7h4.4v1.3h-5.7V811.6z"/>
		<path fill="#FFFFFF" d="M490.7,811.6h1.7l-3.4,11.1h-1l-2.7-8.8l0,0l-2.7,8.8h-1.7l-3.4-11.1h1.7l2.7,8.8l0,0l2.7-8.8h1.3l2.7,8.8
			l0,0L490.7,811.6z"/>
		<path fill="#FFFFFF" d="M514.6,811.6h1.7l-4,6.7v4.4h-1.3v-4.4l-3.7-6.7h1.7l3,5L514.6,811.6z"/>
		<path fill="#FFFFFF" d="M525,811.2c4,0,6.1,3,6.1,5.7c0,3-2,5.7-6.1,5.7s-6.1-3-6.1-5.7S521.3,811.2,525,811.2z M525,821.7
			c2.4,0,4.4-1.7,4.4-4.4c0-2.7-2-4.4-4.4-4.4s-4.4,1.7-4.4,4.4C520.6,819.6,522.7,821.7,525,821.7z"/>
		<path fill="#FFFFFF" d="M537.5,817.9v4.7h-1.3v-11.1h3c2,0,4,1.3,4,3.4s-1.7,3.4-3.4,3.4l4.4,4.4h-2L537.5,817.9z M537.5,817.3
			c0.3,0,0.7,0,1.3,0c2,0,3-1,3-2c0-1.3-0.7-2-2.4-2h-2V817.3z"/>
		<path fill="#FFFFFF" d="M555.3,811.6h1.7l-5,5.4l5,5.7h-2l-4.4-5v5h-1.3v-11.1h1.3v5L555.3,811.6z"/>
	</g>
</g>
</svg>
