<?xml version="1.0" encoding="utf-8"?>
<!-- Generator: Adobe Illustrator 17.1.0, SVG Export Plug-In . SVG Version: 6.00 Build 0)  -->
<!DOCTYPE svg PUBLIC "-//W3C//DTD SVG 1.1//EN" "http://www.w3.org/Graphics/SVG/1.1/DTD/svg11.dtd">
<svg version="1.1" id="Layer_1" xmlns="http://www.w3.org/2000/svg" xmlns:xlink="http://www.w3.org/1999/xlink" x="0px" y="0px"
	 viewBox="0 0 263.8 48" enable-background="new 0 0 263.8 48" xml:space="preserve">
<g>
	<path fill="#FFFFFF" d="M173,28.5c-0.8,0-1.6-0.3-2.2-0.9c-0.8-0.8-0.8-1.6-0.8-3.5c0-1.8,0-2.7,0.8-3.5c0.6-0.6,1.3-0.9,2.2-0.9
		c1.5,0,2.7,0.9,3,2.5H175c-0.2-1-1-1.7-2-1.7c-0.6,0-1.1,0.2-1.5,0.6c-0.5,0.6-0.6,1.1-0.6,2.9c0,1.8,0.1,2.4,0.6,2.9
		c0.4,0.4,0.9,0.6,1.5,0.6c1.1,0,1.8-0.7,2.1-1.7h0.9C175.7,27.6,174.5,28.5,173,28.5z"/>
	<path fill="#FFFFFF" d="M181.5,27.8c-0.4,0.4-1,0.7-1.7,0.7c-0.7,0-1.3-0.3-1.7-0.7c-0.6-0.6-0.7-1.4-0.7-2.4
		c0-0.9,0.1-1.7,0.7-2.4c0.4-0.4,1-0.7,1.7-0.7c0.7,0,1.3,0.3,1.7,0.7c0.6,0.6,0.7,1.4,0.7,2.4C182.2,26.4,182.1,27.2,181.5,27.8z
		 M180.9,23.7c-0.3-0.3-0.7-0.4-1.1-0.4c-0.4,0-0.8,0.2-1.1,0.4c-0.4,0.4-0.5,1.2-0.5,1.8c0,0.7,0,1.4,0.5,1.8
		c0.3,0.3,0.6,0.4,1.1,0.4c0.4,0,0.8-0.2,1.1-0.4c0.4-0.4,0.5-1.2,0.5-1.8C181.4,24.8,181.3,24.1,180.9,23.7z"/>
	<path fill="#FFFFFF" d="M191.5,28.4v-3.6c0-1-0.6-1.6-1.5-1.6c-0.9,0-1.5,0.5-1.5,1.5v3.7h-0.9v-3.6c0-1-0.6-1.6-1.5-1.6
		c-0.9,0-1.5,0.5-1.5,1.6v3.6h-0.9v-5.9h0.9v0.6c0.4-0.5,1-0.7,1.7-0.7c0.8,0,1.5,0.3,1.8,1c0.5-0.6,1.1-1,1.9-1
		c0.6,0,1.2,0.2,1.5,0.6c0.4,0.4,0.6,1,0.6,1.6v3.8H191.5z"/>
	<path fill="#FFFFFF" d="M198.3,28c-0.3,0.3-0.8,0.5-1.4,0.5c-0.6,0-1.2-0.2-1.7-0.8v3.3h-0.9v-8.5h0.9v0.7c0.5-0.6,1-0.8,1.7-0.8
		c0.6,0,1.1,0.2,1.4,0.5c0.6,0.6,0.7,1.6,0.7,2.5C199.1,26.4,198.9,27.4,198.3,28z M196.7,23.2c-1.3,0-1.5,1.1-1.5,2.3
		s0.2,2.3,1.5,2.3c1.3,0,1.5-1.1,1.5-2.3S198,23.2,196.7,23.2z"/>
	<path fill="#FFFFFF" d="M204.5,28.4v-0.7c-0.4,0.5-1,0.7-1.7,0.7c-0.6,0-1.2-0.2-1.5-0.6c-0.4-0.4-0.6-1-0.6-1.7v-3.8h0.9v3.6
		c0,1,0.6,1.6,1.4,1.6c0.9,0,1.5-0.5,1.5-1.6v-3.6h0.9v5.9H204.5z"/>
	<path fill="#FFFFFF" d="M209.1,28.4c-1,0-1.5-0.7-1.5-1.6v-3.6h-0.7v-0.7h0.7v-1.8h0.9v1.8h1.3v0.7h-1.3v3.6c0,0.5,0.3,0.9,0.8,0.9
		h0.5v0.7H209.1z"/>
	<path fill="#FFFFFF" d="M211.7,25.7c0,1.3,0.6,2,1.7,2c0.7,0,1.1-0.2,1.5-0.7l0.6,0.5c-0.6,0.6-1.2,0.9-2.2,0.9
		c-1.6,0-2.6-0.9-2.6-3c0-1.9,0.9-3,2.4-3c1.5,0,2.4,1.1,2.4,2.9v0.4H211.7z M214.7,24.1c-0.2-0.5-0.8-0.9-1.4-0.9
		c-0.6,0-1.2,0.3-1.4,0.9c-0.1,0.3-0.2,0.5-0.2,1h3.1C214.8,24.6,214.8,24.4,214.7,24.1z"/>
	<path fill="#FFFFFF" d="M220.7,23.7c-0.3-0.3-0.6-0.4-1-0.4c-0.9,0-1.4,0.7-1.4,1.6v3.6h-0.9v-5.9h0.9v0.7c0.3-0.5,1-0.8,1.7-0.8
		c0.6,0,1,0.1,1.4,0.6L220.7,23.7z"/>
	<path fill="#FFFFFF" d="M227.6,28.5c-1.3,0-2.1-0.3-2.9-1.1l0.6-0.6c0.7,0.7,1.4,0.9,2.3,0.9c1.2,0,2-0.6,2-1.6
		c0-0.4-0.1-0.8-0.4-1.1c-0.3-0.2-0.5-0.3-1.1-0.4l-1-0.2c-0.7-0.1-1.2-0.3-1.6-0.6c-0.4-0.4-0.6-0.9-0.6-1.6c0-1.5,1-2.4,2.7-2.4
		c1.1,0,1.8,0.3,2.5,0.9l-0.6,0.6c-0.5-0.5-1.1-0.7-2-0.7c-1.1,0-1.8,0.6-1.8,1.6c0,0.4,0.1,0.8,0.4,1c0.3,0.2,0.7,0.4,1.2,0.5
		l0.9,0.1c0.8,0.1,1.2,0.3,1.6,0.6c0.5,0.4,0.7,1,0.7,1.7C230.5,27.6,229.4,28.5,227.6,28.5z"/>
	<path fill="#FFFFFF" d="M234.5,28.5c-1.5,0-2.6-1-2.6-3c0-2,1.1-3,2.6-3c0.8,0,1.3,0.2,1.9,0.9l-0.6,0.6c-0.4-0.5-0.8-0.7-1.4-0.7
		c-0.6,0-1.1,0.2-1.4,0.7c-0.3,0.4-0.4,0.8-0.4,1.6c0,0.7,0.1,1.2,0.4,1.6c0.3,0.4,0.8,0.7,1.4,0.7c0.6,0,0.9-0.2,1.4-0.7l0.6,0.6
		C235.8,28.3,235.3,28.5,234.5,28.5z"/>
	<path fill="#FFFFFF" d="M237.9,20.8v-1h1v1H237.9z M237.9,28.4v-5.9h0.9v5.9H237.9z"/>
	<path fill="#FFFFFF" d="M241.4,25.7c0,1.3,0.6,2,1.7,2c0.7,0,1.1-0.2,1.5-0.7l0.6,0.5c-0.6,0.6-1.2,0.9-2.2,0.9
		c-1.6,0-2.6-0.9-2.6-3c0-1.9,0.9-3,2.4-3c1.5,0,2.4,1.1,2.4,2.9v0.4H241.4z M244.3,24.1c-0.2-0.5-0.8-0.9-1.4-0.9
		c-0.6,0-1.2,0.3-1.4,0.9c-0.1,0.3-0.2,0.5-0.2,1h3.1C244.5,24.6,244.4,24.4,244.3,24.1z"/>
	<path fill="#FFFFFF" d="M250.9,28.4v-3.6c0-1-0.6-1.6-1.5-1.6c-0.9,0-1.5,0.5-1.5,1.6v3.6h-0.9v-5.9h0.9v0.6c0.4-0.5,1-0.7,1.7-0.7
		c0.6,0,1.2,0.2,1.5,0.6c0.4,0.4,0.6,1,0.6,1.6v3.8H250.9z"/>
	<path fill="#FFFFFF" d="M256,28.5c-1.5,0-2.6-1-2.6-3c0-2,1.1-3,2.6-3c0.8,0,1.3,0.2,1.9,0.9l-0.6,0.6c-0.4-0.5-0.8-0.7-1.4-0.7
		c-0.6,0-1.1,0.2-1.4,0.7c-0.3,0.4-0.4,0.8-0.4,1.6c0,0.7,0.1,1.2,0.4,1.6c0.3,0.4,0.8,0.7,1.4,0.7c0.6,0,0.9-0.2,1.4-0.7l0.6,0.6
		C257.3,28.3,256.8,28.5,256,28.5z"/>
	<path fill="#FFFFFF" d="M259.8,25.7c0,1.3,0.6,2,1.7,2c0.7,0,1.1-0.2,1.5-0.7l0.6,0.5c-0.6,0.6-1.2,0.9-2.2,0.9
		c-1.6,0-2.6-0.9-2.6-3c0-1.9,0.9-3,2.4-3c1.5,0,2.4,1.1,2.4,2.9v0.4H259.8z M262.8,24.1c-0.2-0.5-0.8-0.9-1.4-0.9
		c-0.6,0-1.2,0.3-1.4,0.9c-0.1,0.3-0.2,0.5-0.2,1h3.1C262.9,24.6,262.9,24.4,262.8,24.1z"/>
</g>
<line fill="#FFFFFF" stroke="#FFFFFF" stroke-width="0.625" x1="158.4" y1="3.7" x2="158.4" y2="48"/>
<g>
	<g>
		<path fill="#FFFFFF" d="M10.3,27.1c0-1.4,0.8-1,0.8-1.3c0-0.1-0.1-0.2-0.2-0.2c-0.6,0-1,0.1-1.4,0.1c-0.3,0-0.7,0-1-0.1
			c-0.2,0-0.4-0.1-0.4,0.1c0,0.5,1.5,0.1,1.5,1.5v2.5c0,2.1-0.3,4.1-2.7,4.1c-2.2,0-2.6-1.6-2.6-3.5v-2.7c0-2.1,1-1.4,1-1.8
			c0-0.1,0-0.2-0.1-0.2c-0.2,0-1.1,0.1-1.7,0.1c-0.6,0-1.5-0.1-1.7-0.1c-0.1,0-0.3,0-0.3,0.2c0,0.5,1.3,0.1,1.3,1.2V31
			c0,2.4,1.2,3.5,3.5,3.5c3.3,0,4-2.1,4-4.7V27.1L10.3,27.1z"/>
		<path fill="#FFFFFF" d="M19.8,32.8c0,1.3-1.2,1.1-1.2,1.6c0,0.2,0.2,0.2,0.4,0.2c0.3,0,0.7-0.1,1-0.1c0.4,0,0.8,0.1,1.4,0.1
			c0.2,0,0.5,0,0.5-0.2c0-0.6-1.5,0.3-1.5-2.1v-4.3c0-0.1,0-0.2,0.1-0.2c0.1,0,0.1,0.1,0.2,0.2l5.8,6.5c0.1,0.1,0.1,0.2,0.3,0.2
			c0.1,0,0.1-0.1,0.1-0.4v-7c0-1.3,1-1,1-1.4c0,0,0-0.2-0.2-0.2c-0.1,0-0.5,0.1-1.3,0.1c-0.8,0-1.2-0.1-1.4-0.1
			c-0.2,0-0.2,0.1-0.2,0.2c0,0.4,1.5,0.2,1.5,1.3v4.2c0,0.3,0,0.5-0.1,0.5c-0.1,0-0.2-0.2-0.4-0.3l-4.9-5.5
			c-0.2-0.2-0.1-0.3-0.5-0.3c-0.6,0-1,0.1-1.3,0.1c-0.2,0-0.4-0.1-0.7-0.1c-0.1,0-0.2,0.1-0.2,0.2c0,0.6,1.4-0.2,1.4,2.2V32.8
			L19.8,32.8z"/>
		<path fill="#FFFFFF" d="M39.1,26.9c0-1.2,0.9-0.7,0.9-1.2c0-0.2-0.1-0.2-0.4-0.2c-0.7,0-1.1,0.1-1.6,0.1c-0.4,0-0.9-0.1-1.4-0.1
			c-0.1,0-0.4,0-0.4,0.2c0,0.4,1.4,0.1,1.4,1.2v6c0,1.2-0.9,0.9-0.9,1.3c0,0.1,0,0.2,0.1,0.2c0.3,0,0.8-0.1,1.4-0.1
			c0.9,0,1.4,0.1,1.8,0.1c0.3,0,0.4-0.1,0.4-0.2c0-0.4-1.4,0.2-1.4-1.4V26.9L39.1,26.9z"/>
		<path fill="#FFFFFF" d="M56.2,26.7c0.3-0.7,0.8-0.7,0.8-1c0-0.2-0.2-0.2-0.4-0.2c-0.3,0-0.7,0.1-1,0.1c-0.4,0-0.7-0.1-1-0.1
			c-0.1,0-0.5,0-0.5,0.2c0,0.4,1.2,0,1.2,1.2c0,0.2,0,0.6-0.4,1.5l-1.7,3.8c0,0.1-0.1,0.3-0.2,0.3c-0.1,0-0.1-0.2-0.2-0.3l-1.6-4
			c-0.3-0.8-0.5-1.4-0.5-1.7c0-0.5,0.7-0.3,0.7-0.7c0-0.2-0.1-0.2-0.4-0.2c-0.2,0-0.5,0.1-1.3,0.1c-0.4,0-0.8-0.1-1.2-0.1
			c-0.2,0-0.6-0.1-0.6,0.2c0,0.1,0.2,0.2,0.2,0.2c0.5,0.1,0.7,0.3,0.9,0.8l3,7.3c0.2,0.5,0.3,0.7,0.5,0.7c0.1,0,0.2-0.1,0.3-0.4
			L56.2,26.7L56.2,26.7z"/>
		<path fill="#FFFFFF" d="M67.2,27.1c0-0.9,0-0.9,1.5-0.9c2.3,0,1.4,1.5,2,1.5c0.3,0,0.2-0.4,0.2-0.6l0-1.2c0-0.1-0.1-0.2-0.2-0.2
			c-1.1,0-1.9,0.1-2.8,0.1c-1.8,0-2.7-0.1-3.2-0.1c-0.2,0-0.3,0.1-0.3,0.2c0,0.5,1.4,0.1,1.4,1.2v5.9c0,1.5-0.9,0.9-0.9,1.4
			c0,0.1,0.1,0.1,0.2,0.1c0.7,0,1.2-0.1,1.5-0.1c0.6,0,1.3,0.1,3.2,0.1c1,0,1.7-1,1.7-2c0-0.2-0.1-0.3-0.1-0.3
			c-0.5,0-0.3,1.6-3.3,1.6c-0.9,0-0.8-0.5-0.8-1.2V31c0-0.7,0-0.9,0.5-0.9h0.9c1.3,0,0.9,1.3,1.3,1.3c0.3,0,0.2-0.5,0.2-0.6
			l-0.1-2.2c0-0.3-0.1-0.3-0.2-0.3c-0.2,0-0.3,1.2-1.3,1.2h-0.8c-0.5,0-0.5-0.1-0.5-0.6V27.1L67.2,27.1z"/>
		<path fill-rule="evenodd" clip-rule="evenodd" fill="#FFFFFF" d="M82.4,26.9c0-0.8,0.4-0.8,0.8-0.8c1.2,0,1.9,0.9,1.9,2.2
			c0,0.7-0.1,1.4-1.9,1.4c-0.4,0-0.8,0-0.8-0.3V26.9L82.4,26.9z M80.9,32.7c0,1.6-1,1.2-1,1.6c0,0.3,0.3,0.2,0.4,0.2
			c0.6,0,1.2-0.1,1.9-0.1c0.5,0,0.8,0.1,1,0.1c0.3,0,0.4-0.1,0.4-0.2c0-0.5-1.2,0.1-1.2-1.3v-2.2c0-0.4-0.1-0.5,0.6-0.5
			c0.6,0,0.8,0.1,1.1,0.7l1,2c0.4,0.7,0.8,1.5,1.7,1.5c0.5,0,1.3-0.3,1.3-0.7c0-0.1-0.1-0.2-0.2-0.2c-0.1,0-0.2,0.1-0.4,0.1
			c-0.1,0-0.3,0-0.4-0.2c-0.9-1.6-1.9-3.4-1.9-3.5c0-0.1,0.4-0.2,0.7-0.5c0.4-0.3,0.7-0.8,0.7-1.6c0-0.6-0.2-2.3-2.9-2.3
			c-0.8,0-1.6,0.1-2.4,0.1c-0.8,0-0.9-0.1-1.4-0.1c-0.1,0-0.3,0.1-0.3,0.2c0,0.5,1.3,0,1.3,1.4V32.7L80.9,32.7z"/>
		<path fill="#FFFFFF" d="M95.9,33.6c0.1,0.3,0,0.4,0.3,0.5c0.7,0.2,1.3,0.5,2.1,0.5c1.6,0,2.7-1.1,2.7-2.8c0-1.6-0.8-2.1-2.1-2.7
			c-1.6-0.7-2.3-0.9-2.3-1.7c0-0.8,0.5-1.3,1.3-1.3c2.1,0,2.3,2.3,2.5,2.3c0.3,0,0.3-0.2,0.3-0.4l-0.1-1.7c0-0.3,0-0.5-0.2-0.5
			c-0.2,0-0.5,0.2-0.6,0.2c-0.4,0-0.9-0.5-1.9-0.5c-1.4,0-2.4,1.1-2.4,2.5c0,1.3,0.7,1.8,1.8,2.3c1.9,0.9,2.7,1.1,2.7,2.1
			c0,1-0.7,1.6-1.7,1.6c-1.3,0-2.1-1.1-2.5-2.3c0-0.2-0.1-0.3-0.3-0.3c-0.3,0-0.2,0.4-0.1,0.5L95.9,33.6L95.9,33.6z"/>
		<path fill="#FFFFFF" d="M112.3,26.9c0-1.2,0.9-0.7,0.9-1.2c0-0.2-0.1-0.2-0.4-0.2c-0.7,0-1.1,0.1-1.6,0.1c-0.4,0-0.9-0.1-1.4-0.1
			c-0.1,0-0.4,0-0.4,0.2c0,0.4,1.4,0.1,1.4,1.2v6c0,1.2-0.9,0.9-0.9,1.3c0,0.1,0,0.2,0.1,0.2c0.3,0,0.8-0.1,1.4-0.1
			c0.9,0,1.4,0.1,1.8,0.1c0.3,0,0.4-0.1,0.4-0.2c0-0.4-1.4,0.2-1.4-1.4V26.9L112.3,26.9z"/>
		<path fill="#FFFFFF" d="M124.9,32.8c0,1.5-1.4,0.9-1.4,1.4c0,0.3,0.2,0.3,0.4,0.3c0.5,0,0.9-0.1,1.7-0.1c0.8,0,1.2,0.1,1.7,0.1
			c0.3,0,0.6,0,0.6-0.3c0-0.4-1.5,0-1.5-1.5V27c0-0.6,0.1-0.7,0.6-0.7h1c1.4-0.1,1,1.3,1.5,1.3c0.3,0,0.2-0.5,0.2-0.6l-0.1-1.2
			c0-0.1,0-0.3-0.2-0.3c-1.1,0-1.9,0.1-3.7,0.1c-1.8,0-2.6-0.1-3.7-0.1c-0.2,0-0.2,0.2-0.2,0.3l-0.2,1.7c0,0.2-0.1,0.4,0.2,0.4
			c0.5,0,0.2-1.6,1.5-1.6h1c0.5,0,0.6,0.1,0.6,0.7V32.8L124.9,32.8z"/>
		<path fill="#FFFFFF" d="M139.7,30.5c0.1,0.3,0.2,0.4,0.2,0.8v1.6c0,1.6-1.3,0.9-1.3,1.5c0,0.1,0.1,0.1,0.3,0.1
			c0.3,0,0.7-0.1,1.8-0.1c1.5,0,1.7,0.1,1.8,0.1c0.2,0,0.4,0,0.4-0.2c0-0.6-1.5,0.2-1.5-1.4v-1.9c0-0.5,0-0.5,0.2-0.8l1.6-3.1
			c0.7-1.4,1.3-1.1,1.3-1.5c0-0.1-0.1-0.1-0.2-0.1c-0.3,0-0.5,0.1-1.4,0.1c-0.6,0-0.9-0.1-1-0.1c-0.1,0-0.2,0.1-0.2,0.2
			c0,0.4,1.2,0.1,1.2,0.9c0,0.1,0,0.3-0.2,0.7l-1.1,2.1c-0.1,0.3-0.2,0.4-0.3,0.4c-0.1,0-0.2-0.2-0.4-0.6l-1.1-2.3
			c-0.1-0.3-0.2-0.5-0.2-0.6c0-0.4,0.7-0.3,0.7-0.6c0-0.1,0-0.2-0.2-0.2c-0.7,0.1-1.3,0.1-1.8,0.1c-0.6,0-0.9-0.1-1.1-0.1
			c-0.3,0-0.4,0-0.4,0.2c0,0.4,0.7,0.1,1.2,1L139.7,30.5L139.7,30.5z"/>
	</g>
	<g>
		<path fill-rule="evenodd" clip-rule="evenodd" fill="#FFFFFF" d="M5.6,3.6c0-1.5,0-2.5,1.7-2.5c2.2,0,4,1.7,4,4.1
			c0,1.9-0.7,2.9-2.6,2.9H7.3C5.9,8,5.6,7.9,5.6,6.6V3.6L5.6,3.6z M2.6,15.3c0,2.5-2.1,1.8-2.1,2.7c0,0.4,0.2,0.4,0.8,0.4
			c0.5,0,1.2-0.1,1.7-0.1c1.2,0,2.5,0.1,6.1,0.1c4,0,6.3-2.2,6.3-5.7c0-2.3-0.9-3.7-3.9-4.6V8.1c1.7-0.6,2.7-2,2.7-3.7
			c0-0.6,0-4.5-6.1-4.5C6.1,0,4,0.1,1.9,0.1C0.8,0.1,0.6,0,0.4,0C0.3,0,0,0,0,0.4c0,1.3,2.6-0.2,2.6,3.4V15.3L2.6,15.3z M5.6,11.3
			c0-1.4,0-2,1.5-2c4.5,0,5.2,2.3,5.2,3.9c0,2.5-1.3,4.2-3.7,4.2c-2.4,0-3-0.7-3-3.2V11.3L5.6,11.3z"/>
		<path fill="#FFFFFF" d="M20.5,5.9c0-2,1.5-1.2,1.5-1.9c0-0.3-0.1-0.3-0.7-0.3c-1.1,0-1.8,0.1-2.5,0.1c-0.7,0-1.5-0.1-2.2-0.1
			c-0.2,0-0.7-0.1-0.7,0.3c0,0.7,2.2,0.1,2.2,2v10c0,2-1.4,1.4-1.4,2.2c0,0.1,0,0.2,0.2,0.2c0.5,0,1.4-0.1,2.2-0.1
			c1.5,0,2.3,0.1,3,0.1c0.5,0,0.6-0.1,0.6-0.3c0-0.7-2.2,0.3-2.2-2.3V5.9L20.5,5.9z"/>
		<path fill="#FFFFFF" d="M25.4,15.6c0,2.1-1.9,1.7-1.9,2.6c0,0.4,0.4,0.2,0.6,0.2c0.5,0,1.1-0.1,1.7-0.1c0.7,0,1.4,0.1,2.3,0.1
			c0.3,0,0.7,0,0.7-0.3c0-1-2.5,0.4-2.5-3.6V7.5c0-0.2,0-0.3,0.2-0.3c0.1,0,0.2,0.1,0.4,0.3l9.5,10.8c0.1,0.2,0.2,0.3,0.5,0.3
			c0.2,0,0.2-0.2,0.2-0.6V6.2c0-2.2,1.7-1.7,1.7-2.3c0-0.1,0-0.3-0.4-0.3c-0.2,0-0.9,0.1-2.1,0.1c-1.4,0-1.9-0.1-2.2-0.1
			c-0.3,0-0.3,0.2-0.3,0.4c0,0.7,2.4,0.3,2.4,2.2v6.9c0,0.5,0,0.8-0.2,0.8c-0.1,0-0.4-0.2-0.6-0.5l-7.9-9.2
			c-0.4-0.4-0.1-0.5-0.7-0.5c-1,0-1.6,0.1-2.1,0.1c-0.4,0-0.7-0.1-1.1-0.1c-0.2,0-0.3,0.2-0.3,0.4c0,1,2.2-0.4,2.2,3.6V15.6
			L25.4,15.6z"/>
		<path fill="#FFFFFF" d="M52.1,5c0-0.3,0-0.8-0.3-0.8c-0.3,0-0.4,0.6-0.8,0.6c-0.5,0-2.2-1.4-4.9-1.4c-5,0-7,4.6-7,8.1
			c0,1.6,0.9,7,6.7,7c2.1,0,4.3-1,6.2-2c0.2-0.1,0.2-0.2,0.2-0.5c0-0.3-0.1-0.9-0.1-1.7c0-2.7,1.4-1.5,1.4-2.4
			c0-0.2-0.1-0.3-0.2-0.3c-0.7,0-1.4,0.1-2.1,0.1c-0.9,0-1.8-0.1-2.8-0.1c-0.3,0-1-0.2-1,0.4c0,0.8,2.3-0.6,2.3,2.6
			c0,1.2-0.1,3-3.6,3c-3.2,0-4.6-3.8-4.6-6.6c0-5.3,2.6-6.5,4.4-6.5c5.2,0,5.2,4.5,5.6,4.5c0.4,0,0.5-0.1,0.5-0.4V5L52.1,5z"/>
		<path fill="#FFFFFF" d="M67.4,5.8c0-2,1.4-1.1,1.4-1.9c0-0.2-0.1-0.2-0.4-0.2c-0.8,0-1.6,0.1-2.6,0.1c-1.2,0-1.7-0.1-2.5-0.1
			c-0.3,0-0.5,0-0.5,0.3c0,0.6,2.2-0.1,2.2,2.1v2.9c0,0.5-0.1,0.9-0.7,0.9h-5.8C58.1,10,58,9.7,58,9.2V5.9C58,4,59.5,4.6,59.5,4
			c0-0.2-0.2-0.3-0.5-0.3c-0.6,0-1.4,0.1-2.5,0.1c-1,0-1.6-0.1-2.2-0.1c-0.4,0-1,0-1,0.3c0,0.8,2.2-0.1,2.2,2.1v9.3
			c0,2.6-1.7,1.8-1.7,2.7c0,0.3,0.2,0.3,0.4,0.3c1,0,1.8-0.1,2.6-0.1c1.4,0,2.1,0.1,2.9,0.1c0.6,0,0.6-0.2,0.6-0.3
			c0-0.8-2.4,0-2.4-2.6v-3.3c0-0.9,0.1-1.1,1-1.1h5.3c0.9,0,0.8,0.2,0.8,1.1V16c0,2-1.4,1.5-1.4,2.2c0,0.1,0.1,0.2,0.4,0.2
			c1,0,1.8-0.1,2.5-0.1c0.8,0,2,0.1,2.6,0.1c0.3,0,0.4,0,0.4-0.2c0-0.8-2,0-2-2.7V5.8L67.4,5.8z"/>
		<path fill-rule="evenodd" clip-rule="evenodd" fill="#FFFFFF" d="M75.1,12.2c-0.4,0-0.6,0-0.6-0.2c0-0.3,0.1-0.5,0.2-0.8l1.5-3.7
			c0.1-0.2,0.2-0.2,0.2-0.2c0.1,0,0,0,0.2,0.2l1.6,3.8c0.1,0.2,0.2,0.5,0.2,0.8c0,0.2-0.3,0.2-0.6,0.2H75.1L75.1,12.2z M78.4,13.3
			c0.5,0,0.6,0.2,1.3,1.8c0.2,0.6,0.4,0.9,0.4,1.4c0,1.3-1.4,1-1.4,1.6c0,0.3,0.3,0.2,0.6,0.2c0.6,0,1.3-0.1,2.2-0.1
			c1.3,0,1.8,0.1,2.5,0.1c0.5,0,0.7,0,0.7-0.3c0-0.7-1.1,0.1-1.7-1.4L77.6,4c-0.3-0.6-0.3-0.7-0.5-0.7c-0.3,0-0.4,0.4-0.5,0.7
			l-5.3,12.6c-0.5,1.2-1.5,1-1.5,1.5c0,0.3,0.3,0.2,0.6,0.2c0.6,0,1.1-0.1,1.7-0.1c0.6,0,1.2,0.1,1.9,0.1c0.4,0,1,0.1,1-0.3
			c0-0.6-2.1-0.2-2.1-1.7c0-0.5,0.3-1.2,0.4-1.6c0.5-1.4,0.9-1.5,1.2-1.5H78.4L78.4,13.3z"/>
		<path fill="#FFFFFF" d="M88.1,9c0-0.1,0-0.5,0.1-0.5c0.1,0,0.2,0.2,0.2,0.4l3.8,9c0.1,0.2,0.2,0.6,0.5,0.6c0.3,0,0.4-0.3,0.5-0.6
			L97,9.6c0.3-0.7,0.5-1.1,0.6-1.1c0.1,0,0.1,0.3,0.2,0.9l0.3,6.3c0.1,2.3-1.4,1.6-1.4,2.3c0,0.4,0.5,0.3,0.9,0.3
			c0.5,0,0.9-0.1,2.2-0.1c0.6,0,1.1,0.1,1.7,0.1c0.7,0,0.9,0,0.9-0.4c0-0.8-1.8,0.1-1.9-2.6l-0.3-9.2C100,3.8,102,4.7,102,3.9
			c0-0.2,0-0.2-0.6-0.2c-0.6,0-0.9,0.1-1.3,0.1c-0.3,0-0.7-0.1-1.1-0.1c-0.4,0-0.4,0.3-0.5,0.4l-4.6,10.1c0,0.1-0.2,0.4-0.3,0.4
			c-0.1,0-0.2-0.1-0.3-0.3L89,4.3c-0.3-0.6-0.5-0.6-0.7-0.6c-0.6,0-1.4,0.1-1.8,0.1c-0.6,0-0.9-0.1-1.2-0.1c-0.1,0-0.2,0.2-0.2,0.3
			c0,0.9,2.1-0.1,2,3.4l-0.3,8.4c-0.1,2.2-1.7,1.7-1.7,2.4c0,0.1,0.1,0.3,0.4,0.3c0.3,0,1-0.1,1.9-0.1c0.9,0,1.3,0.1,2,0.1
			c0.5,0,0.5-0.2,0.5-0.3c0-0.9-2.2,0.4-2-3.2L88.1,9L88.1,9z"/>
		<path fill="#FFFFFF" d="M108.1,15.7c0,2.5-2.2,1.5-2.2,2.3c0,0.5,0.3,0.4,0.7,0.4c0.8,0,1.4-0.1,2.8-0.1c1.3,0,2,0.1,2.8,0.1
			c0.6,0,1,0.1,1-0.4c0-0.6-2.5,0-2.5-2.5V6c0-1,0.2-1.1,1-1.1h1.7c2.3-0.1,1.6,2.2,2.4,2.2c0.5,0,0.3-0.8,0.3-1.1l-0.2-1.9
			c0-0.2,0-0.5-0.3-0.5c-1.8,0-3.2,0.1-6,0.1c-2.9,0-4.2-0.1-6-0.1C103,3.7,103,4,103,4.2l-0.3,2.7c0,0.3-0.2,0.7,0.3,0.7
			c0.9,0,0.3-2.7,2.5-2.7h1.7c0.8,0,1,0.1,1,1.1V15.7L108.1,15.7z"/>
		<path fill-rule="evenodd" clip-rule="evenodd" fill="#FFFFFF" d="M116.2,11.5c0,4.2,2.7,7,6.6,7c6.3,0,7.5-5.1,7.5-8
			c0-4.4-2.9-7.1-6.8-7.1C118.8,3.5,116.2,7,116.2,11.5L116.2,11.5z M118.6,10.3c0-3,1-5.9,4.3-6c2.5,0,4.9,2.4,4.9,7
			c0,3.5-1.1,6.2-4.5,6.3C119.9,17.7,118.6,13.4,118.6,10.3L118.6,10.3z"/>
		<path fill="#FFFFFF" d="M132.7,15.6c0,2.1-1.9,1.7-1.9,2.6c0,0.4,0.4,0.2,0.6,0.2c0.5,0,1.1-0.1,1.7-0.1c0.7,0,1.4,0.1,2.3,0.1
			c0.3,0,0.7,0,0.7-0.3c0-1-2.5,0.4-2.5-3.6V7.5c0-0.2,0-0.3,0.2-0.3c0.1,0,0.2,0.1,0.4,0.3l9.5,10.8c0.1,0.2,0.2,0.3,0.5,0.3
			c0.2,0,0.2-0.2,0.2-0.6V6.2c0-2.2,1.7-1.7,1.7-2.3c0-0.1,0-0.3-0.4-0.3c-0.2,0-0.9,0.1-2.1,0.1c-1.4,0-1.9-0.1-2.2-0.1
			c-0.3,0-0.3,0.2-0.3,0.4c0,0.7,2.4,0.3,2.4,2.2v6.9c0,0.5,0,0.8-0.2,0.8c-0.1,0-0.4-0.2-0.6-0.5l-7.9-9.2
			c-0.4-0.4-0.1-0.5-0.7-0.5c-1,0-1.6,0.1-2.1,0.1c-0.4,0-0.7-0.1-1.1-0.1c-0.2,0-0.3,0.2-0.3,0.4c0,1,2.2-0.4,2.2,3.6V15.6
			L132.7,15.6z"/>
	</g>
	<g>
		<path fill="#FFFFFF" d="M10.1,44.8C10,44.3,9.7,44,9.2,44c-0.6,0-0.8,0.4-0.8,0.7c0,0.3,0.2,0.5,0.6,0.7l0.5,0.2
			c0.7,0.3,1,0.7,1,1.2c0,0.7-0.6,1.2-1.4,1.2c-0.8,0-1.3-0.4-1.4-1.3h0.5c0,0.5,0.3,0.8,0.9,0.8c0.5,0,0.8-0.3,0.8-0.7
			c0-0.3-0.3-0.6-0.7-0.7l-0.6-0.2c-0.6-0.2-1-0.6-1-1.2c0-0.7,0.6-1.2,1.3-1.2c0.7,0,1.3,0.4,1.3,1.3H10.1z"/>
		<path fill="#FFFFFF" d="M13.3,44.1h-1.1v-0.5h2.7v0.5h-1.1v3.8h-0.5V44.1z"/>
		<path fill="#FFFFFF" d="M18.9,46.9h-2l-0.4,1h-0.6l1.8-4.3h0.5l1.8,4.3h-0.6L18.9,46.9z M17.9,44.3l-0.8,2.1h1.6L17.9,44.3z"/>
		<path fill="#FFFFFF" d="M22,44.1h-1.1v-0.5h2.7v0.5h-1.1v3.8H22V44.1z"/>
		<path fill="#FFFFFF" d="M25.7,43.6h2.2v0.5h-1.7v1.4h1.7V46h-1.7v1.4h1.7v0.5h-2.2V43.6z"/>
		<path fill="#FFFFFF" d="M33.9,43.6h0.5v2.6c0,0.7,0.4,1.3,1.2,1.3c0.8,0,1.2-0.6,1.2-1.3v-2.6h0.5v2.8c0,0.9-0.7,1.6-1.7,1.6
			c-1,0-1.7-0.7-1.7-1.6V43.6z"/>
		<path fill="#FFFFFF" d="M42.1,43.6h0.5v4.3h-0.5l-2.3-3.4h0v3.4h-0.5v-4.3h0.5l2.3,3.4h0V43.6z"/>
		<path fill="#FFFFFF" d="M45,43.6h0.5v4.3H45V43.6z"/>
		<path fill="#FFFFFF" d="M50.7,43.6h0.6l-1.6,4.3h-0.5l-1.6-4.3h0.6l1.2,3.5h0L50.7,43.6z"/>
		<path fill="#FFFFFF" d="M53,43.6h2.2v0.5h-1.7v1.4h1.7V46h-1.7v1.4h1.7v0.5H53V43.6z"/>
		<path fill="#FFFFFF" d="M58.1,46.1v1.8h-0.5v-4.3h1.2c0.8,0,1.5,0.5,1.5,1.3c0,0.8-0.6,1.3-1.3,1.3l1.7,1.7h-0.8L58.1,46.1z
			 M58.1,45.7c0.1,0,0.2,0,0.5,0c0.8,0,1.1-0.4,1.1-0.8c0-0.5-0.3-0.8-0.9-0.8h-0.7V45.7z"/>
		<path fill="#FFFFFF" d="M64.3,44.8C64.3,44.3,64,44,63.5,44c-0.6,0-0.8,0.4-0.8,0.7c0,0.3,0.2,0.5,0.6,0.7l0.5,0.2
			c0.7,0.3,1,0.7,1,1.2c0,0.7-0.6,1.2-1.4,1.2c-0.8,0-1.3-0.4-1.4-1.3h0.5c0,0.5,0.3,0.8,0.9,0.8c0.5,0,0.8-0.3,0.8-0.7
			c0-0.3-0.3-0.6-0.7-0.7l-0.6-0.2c-0.6-0.2-1-0.6-1-1.2c0-0.7,0.6-1.2,1.3-1.2c0.7,0,1.3,0.4,1.3,1.3H64.3z"/>
		<path fill="#FFFFFF" d="M67.1,43.6h0.5v4.3h-0.5V43.6z"/>
		<path fill="#FFFFFF" d="M70.6,44.1h-1.1v-0.5h2.7v0.5h-1.1v3.8h-0.5V44.1z"/>
		<path fill="#FFFFFF" d="M76.4,43.6h0.6l-1.5,2.6v1.7H75v-1.7l-1.5-2.6h0.6l1.1,2L76.4,43.6z"/>
		<path fill="#FFFFFF" d="M85.3,43.5c1.5,0,2.3,1.2,2.3,2.2c0,1.1-0.8,2.2-2.3,2.2c-1.5,0-2.3-1.2-2.3-2.2
			C83,44.7,83.8,43.5,85.3,43.5z M85.3,47.5c0.9,0,1.7-0.7,1.7-1.7c0-1-0.8-1.7-1.7-1.7c-0.9,0-1.7,0.7-1.7,1.7
			C83.6,46.8,84.4,47.5,85.3,47.5z"/>
		<path fill="#FFFFFF" d="M89.6,43.6h2.2v0.5h-1.7v1.4h1.7V46h-1.7v1.9h-0.5V43.6z"/>
		<path fill="#FFFFFF" d="M101.1,43.6h0.5v4.3h-0.5l-2.3-3.4h0v3.4h-0.5v-4.3h0.5l2.3,3.4h0V43.6z"/>
		<path fill="#FFFFFF" d="M103.9,43.6h2.2v0.5h-1.7v1.4h1.7V46h-1.7v1.4h1.7v0.5h-2.2V43.6z"/>
		<path fill="#FFFFFF" d="M112.9,43.6h0.6l-1.3,4.3h-0.4l-1-3.4h0l-1,3.4h-0.4l-1.3-4.3h0.6l1,3.3h0l1-3.3h0.5l1,3.3h0L112.9,43.6z"
			/>
		<path fill="#FFFFFF" d="M122,43.6h0.6l-1.5,2.6v1.7h-0.5v-1.7l-1.5-2.6h0.6l1.1,2L122,43.6z"/>
		<path fill="#FFFFFF" d="M126.1,43.5c1.5,0,2.3,1.2,2.3,2.2c0,1.1-0.8,2.2-2.3,2.2c-1.5,0-2.3-1.2-2.3-2.2
			C123.8,44.7,124.6,43.5,126.1,43.5z M126.1,47.5c0.9,0,1.7-0.7,1.7-1.7c0-1-0.8-1.7-1.7-1.7c-0.9,0-1.7,0.7-1.7,1.7
			C124.3,46.8,125.2,47.5,126.1,47.5z"/>
		<path fill="#FFFFFF" d="M130.9,46.1v1.8h-0.5v-4.3h1.2c0.8,0,1.5,0.5,1.5,1.3c0,0.8-0.6,1.3-1.3,1.3l1.7,1.7h-0.8L130.9,46.1z
			 M130.9,45.7c0.1,0,0.2,0,0.5,0c0.8,0,1.1-0.4,1.1-0.8c0-0.5-0.3-0.8-0.9-0.8h-0.7V45.7z"/>
		<path fill="#FFFFFF" d="M137.7,43.6h0.7l-1.9,2.1l2,2.2h-0.8l-1.7-2v2h-0.5v-4.3h0.5v2L137.7,43.6z"/>
	</g>
</g>
</svg>
