<?xml version="1.0" encoding="utf-8"?>
<!-- Generator: Adobe Illustrator 17.1.0, SVG Export Plug-In . SVG Version: 6.00 Build 0)  -->
<!DOCTYPE svg PUBLIC "-//W3C//DTD SVG 1.1//EN" "http://www.w3.org/Graphics/SVG/1.1/DTD/svg11.dtd">
<svg version="1.1" id="Layer_1" xmlns="http://www.w3.org/2000/svg" xmlns:xlink="http://www.w3.org/1999/xlink" x="0px" y="0px"
	 viewBox="0 0 410.2 257.1" enable-background="new 0 0 410.2 257.1" xml:space="preserve">
<g>
	<path fill="#FFFFFF" d="M101.2,215.6h-38c-2.8,0-5,2.3-5,5V257h5h3.2v-31c0-1.8,1.5-3.3,3.3-3.3h25c1.8,0,3.3,1.5,3.3,3.3v31h8.2
		v-36.4C106.2,217.9,104,215.6,101.2,215.6"/>
	<path fill="#FFFFFF" d="M405.1,215.6h-38c-2.8,0-5.1,2.3-5.1,5V252c0,2.8,2.3,5.1,5.1,5.1h43V250h-36.5c-1.8,0-3.3-1.5-3.3-3.3
		v-6.8h39.9v-0.1v-19.1C410.2,217.9,407.9,215.6,405.1,215.6 M370.3,232.8V226c0-1.8,1.5-3.3,3.3-3.3h25c1.8,0,3.3,1.5,3.3,3.3v6.8
		H370.3z"/>
	<path fill="#FFFFFF" d="M153.3,215.6l-10.1,31c-0.7,1.9-1.5,3.3-3.3,3.3h-4.4c-1.8,0-2.6-1.5-3.3-3.3l-10.1-31h-3.2h-5L125,252
		c1.1,3.3,2.3,5,5.1,5h15c2.8,0,4-1.7,5.1-5l11.2-36.4H153.3z"/>
	<rect x="169.5" y="215.6" fill="#FFFFFF" width="8.2" height="41.4"/>
	<path fill="#FFFFFF" d="M230.6,232.9h-31.4c-1.8,0-3.3-1.5-3.3-3.3V226c0-1.8,1.5-3.3,3.3-3.3h36.3v-7h-42.8c-2.8,0-5,2.2-5,5v14.2
		c0,2.8,2.2,5,5,5h31.4c1.8,0,3.3,1.5,3.3,3.3v3.5c0,1.8-1.5,3.3-3.3,3.3h-36.3h-0.1v7h42.8c2.8,0,5-2.3,5-5v-14.1
		C235.6,235.1,233.4,232.9,230.6,232.9"/>
	<path fill="#FFFFFF" d="M43,215.6H5c-2.8,0-5,2.3-5,5V252c0,2.8,2.2,5,5,5h43V250H11.5c-1.8,0-3.3-1.5-3.3-3.3v-6.8h39.9v-0.1
		v-19.1C48.1,217.9,45.8,215.6,43,215.6 M39.8,232.8H8.2V226c0-1.8,1.5-3.3,3.3-3.3h25c1.8,0,3.3,1.5,3.3,3.3V232.8z"/>
	<path fill="#FFFFFF" d="M309,215.6c-2.8,0-5,2.3-5,5.1V252c0,2.8,2.2,5.1,5,5.1h38c2.8,0,5.1-2.3,5.1-5.1v-19.3h-24v7.3h15.8v6.7
		c0,1.8-1.5,3.3-3.3,3.3h-25c-1.8,0-3.3-1.5-3.3-3.3V226c0-1.8,1.5-3.3,3.3-3.3H352v-7.1H309z"/>
	<path fill="#FFFFFF" d="M288.8,215.6h-38c-2.8,0-5,2.3-5,5V257h8.2v-10.9h31.7V257h8.2v-36.4C293.8,217.9,291.5,215.6,288.8,215.6
		 M285.6,239.7h-31.7V226c0-1.8,1.5-3.3,3.3-3.3h25c1.8,0,3.3,1.5,3.3,3.3V239.7z"/>
	<path fill="#FFFFFF" d="M131.1,176c0.7,0.7,1.5,1.3,2.3,1.9c0.8,0.6,1.7,1,2.7,1.4c1.9,0.8,4,1.2,6,1.2h160l-137.7-37.9L131.1,176z
		"/>
	<path fill="#FFFFFF" d="M297.9,0h-160c-2.1,0-4.2,0.4-6.1,1.2c-0.9,0.4-1.8,0.9-2.7,1.5c-0.8,0.6-1.6,1.2-2.3,1.9
		c-0.7,0.7-1.4,1.5-1.9,2.3c-0.6,0.8-1.1,1.8-1.5,2.7c-0.8,1.9-1.2,4-1.2,6.1V160c0,1.1,0.1,2.2,0.3,3.2c0.2,1,0.5,2,1,3
		c0.4,0.9,0.9,1.9,1.5,2.7c0.6,0.8,1.3,1.6,2,2.4L297.9,0z"/>
</g>
</svg>
