<?xml version="1.0" encoding="utf-8"?>
<!-- Generator: Adobe Illustrator 17.1.0, SVG Export Plug-In . SVG Version: 6.00 Build 0)  -->
<!DOCTYPE svg PUBLIC "-//W3C//DTD SVG 1.1//EN" "http://www.w3.org/Graphics/SVG/1.1/DTD/svg11.dtd">
<svg version="1.1" id="Layer_1" xmlns="http://www.w3.org/2000/svg" xmlns:xlink="http://www.w3.org/1999/xlink" x="0px" y="0px"
	 viewBox="0 0 98 43.4" enable-background="new 0 0 98 43.4" xml:space="preserve">
<g>
	<path fill-rule="evenodd" clip-rule="evenodd" fill="#FFFFFF" d="M37,37.1c-8.5,8.5-22.3,8.4-30.7-0.1c-8.5-8.5-8.4-22.3,0.1-30.7
		c8.5-8.5,22.3-8.4,30.7,0.1C45.6,14.9,45.5,28.7,37,37.1L37,37.1z M34.6,9C27.5,1.9,16.1,1.8,9,8.9c-7.1,7.1-7.1,18.5-0.1,25.6
		c7.1,7.1,18.5,7.1,25.6,0.1C41.6,27.5,41.6,16.1,34.6,9L34.6,9z"/>
	<g>
		<defs>
			<path id="SVGID_1_" d="M23.2,20.7c0,0,12.2-3.5,14.7-3.3c1.3,0.1,1.7,6.2,0.2,6.5c0,0-7.8-0.6-14.9-2.5
				C23.3,21.4,22.9,21.1,23.2,20.7L23.2,20.7z"/>
		</defs>
		<use xlink:href="#SVGID_1_"  overflow="visible" fill-rule="evenodd" clip-rule="evenodd" fill="#FFFFFF"/>
		<clipPath id="SVGID_2_">
			<use xlink:href="#SVGID_1_"  overflow="visible"/>
		</clipPath>
		<g transform="matrix(1 0 0 1 0 0)" clip-path="url(#SVGID_2_)">
			
				<image overflow="visible" width="1000" height="600" xlink:href="4523073520173A5C.jpg"  transform="matrix(0.2022 0 0 0.2022 -12.1287 -38.7185)">
			</image>
		</g>
		<rect x="19.3" y="13.9" clip-path="url(#SVGID_2_)" fill="#FFFFFF" width="22.7" height="12.9"/>
	</g>
	<g>
		<defs>
			<path id="SVGID_3_" d="M22.9,19.9c0,0,8.8-8.9,10.9-9.9c0.9-0.4,4.2,4.3,3.2,5.2c0,0-7,3.4-13.7,5.3
				C23.2,20.4,22.7,20.4,22.9,19.9L22.9,19.9z"/>
		</defs>
		<use xlink:href="#SVGID_3_"  overflow="visible" fill-rule="evenodd" clip-rule="evenodd" fill="#FFFFFF"/>
		<clipPath id="SVGID_4_">
			<use xlink:href="#SVGID_3_"  overflow="visible"/>
		</clipPath>
		<g transform="matrix(1 0 0 1 0 0)" clip-path="url(#SVGID_4_)">
			
				<image overflow="visible" width="1000" height="600" xlink:href="4523073520173A5D.jpg"  transform="matrix(0.2022 0 0 0.2022 -12.1287 -38.7185)">
			</image>
		</g>
		<rect x="19.6" y="7.6" clip-path="url(#SVGID_4_)" fill="#FFFFFF" width="21" height="15.4"/>
	</g>
	<g>
		<defs>
			<path id="SVGID_5_" d="M22.1,19.4c0,0,2.8-11.6,4.2-13.5c0.6-0.8,5.9,1.4,5.5,2.7c0,0-4.2,6.2-9.1,11.1
				C22.7,19.7,22.2,19.9,22.1,19.4L22.1,19.4z"/>
		</defs>
		<use xlink:href="#SVGID_5_"  overflow="visible" fill-rule="evenodd" clip-rule="evenodd" fill="#FFFFFF"/>
		<clipPath id="SVGID_6_">
			<use xlink:href="#SVGID_5_"  overflow="visible"/>
		</clipPath>
		<g transform="matrix(1 0 0 1 0 0)" clip-path="url(#SVGID_6_)">
			
				<image overflow="visible" width="1000" height="600" xlink:href="4523073520173A5B.jpg"  transform="matrix(0.2022 0 0 0.2022 -12.1287 -38.7185)">
			</image>
		</g>
		<rect x="19.6" y="2.5" clip-path="url(#SVGID_6_)" fill="#FFFFFF" width="15.9" height="18.9"/>
	</g>
	<g>
		<defs>
			<path id="SVGID_7_" d="M20.8,22.3c0,0-8.7,9.6-9.6,11.9c-0.5,1.3,5.1,4.2,6,3.1c0,0,2.8-7.5,4.2-14.7
				C21.4,22.6,21.3,22.1,20.8,22.3L20.8,22.3z"/>
		</defs>
		<use xlink:href="#SVGID_7_"  overflow="visible" fill-rule="evenodd" clip-rule="evenodd" fill="#FFFFFF"/>
		<clipPath id="SVGID_8_">
			<use xlink:href="#SVGID_7_"  overflow="visible"/>
		</clipPath>
		<g transform="matrix(1 0 0 1 0 0)" clip-path="url(#SVGID_8_)">
			
				<image overflow="visible" width="1000" height="600" xlink:href="4523073520173A64.jpg"  transform="matrix(0.2022 0 0 0.2022 -12.1287 -38.7185)">
			</image>
		</g>
		<rect x="7.6" y="18.5" clip-path="url(#SVGID_8_)" fill="#FFFFFF" width="17.8" height="22.8"/>
	</g>
	<g>
		<defs>
			<path id="SVGID_9_" d="M20.2,21.6c0,0-12.2,4.3-14,5.8c-0.7,0.6,2,5.7,3.3,5.2c0,0,6.5-5.2,11.1-10.5
				C20.5,22.2,20.7,21.7,20.2,21.6L20.2,21.6z"/>
		</defs>
		<use xlink:href="#SVGID_9_"  overflow="visible" fill-rule="evenodd" clip-rule="evenodd" fill="#FFFFFF"/>
		<clipPath id="SVGID_10_">
			<use xlink:href="#SVGID_9_"  overflow="visible"/>
		</clipPath>
		<g transform="matrix(1 0 0 1 0 0)" clip-path="url(#SVGID_10_)">
			
				<image overflow="visible" width="1000" height="600" xlink:href="4523073520173A67.jpg"  transform="matrix(0.2022 0 0 0.2022 -12.1287 -38.7185)">
			</image>
		</g>
		<rect x="3.2" y="18.5" clip-path="url(#SVGID_10_)" fill="#FFFFFF" width="21.8" height="16.7"/>
	</g>
	<g>
		<defs>
			<path id="SVGID_11_" d="M20.1,20.7c0,0-11.8-2.5-14.1-2.1c-1.7,0.3-1.4,6.2,0,6.4c0,0,7.6-1.4,14.1-3.7
				C20.1,21.3,20.4,21,20.1,20.7L20.1,20.7z"/>
		</defs>
		<use xlink:href="#SVGID_11_"  overflow="visible" fill-rule="evenodd" clip-rule="evenodd" fill="#FFFFFF"/>
		<clipPath id="SVGID_12_">
			<use xlink:href="#SVGID_11_"  overflow="visible"/>
		</clipPath>
		<g transform="matrix(1 0 0 1 0 0)" clip-path="url(#SVGID_12_)">
			
				<image overflow="visible" width="1000" height="600" xlink:href="4523073520173A65.jpg"  transform="matrix(0.2022 0 0 0.2022 -12.1287 -38.7185)">
			</image>
		</g>
		<rect x="0.8" y="15.8" clip-path="url(#SVGID_12_)" fill="#FFFFFF" width="23.3" height="13.2"/>
	</g>
	<g>
		<defs>
			<path id="SVGID_13_" d="M20.6,20.2c0,0-9.2-8.2-11.5-9.1c-1.3-0.5-4.1,4.8-3,5.7c0,0,7,2.6,14.2,4C20.3,20.8,20.8,20.7,20.6,20.2
				L20.6,20.2z"/>
		</defs>
		<use xlink:href="#SVGID_13_"  overflow="visible" fill-rule="evenodd" clip-rule="evenodd" fill="#FFFFFF"/>
		<clipPath id="SVGID_14_">
			<use xlink:href="#SVGID_13_"  overflow="visible"/>
		</clipPath>
		<g transform="matrix(1 0 0 1 0 0)" clip-path="url(#SVGID_14_)">
			
				<image overflow="visible" width="1000" height="600" xlink:href="4523073520173A6B.jpg"  transform="matrix(0.2022 0 0 0.2022 -12.1287 -38.7185)">
			</image>
		</g>
		<rect x="3.4" y="7" clip-path="url(#SVGID_14_)" fill="#FFFFFF" width="21.7" height="17.6"/>
	</g>
	<g>
		<defs>
			<path id="SVGID_15_" d="M21.3,19.6c0,0-4-11.7-5.5-13.5c-0.6-0.7-5.7,1.9-5.2,3.2c0,0,4.9,6.1,10.1,10.6
				C20.8,19.9,21.2,20.1,21.3,19.6L21.3,19.6z"/>
		</defs>
		<use xlink:href="#SVGID_15_"  overflow="visible" fill-rule="evenodd" clip-rule="evenodd" fill="#FFFFFF"/>
		<clipPath id="SVGID_16_">
			<use xlink:href="#SVGID_15_"  overflow="visible"/>
		</clipPath>
		<g transform="matrix(1 0 0 1 0 0)" clip-path="url(#SVGID_16_)">
			
				<image overflow="visible" width="1000" height="600" xlink:href="4523073520173A6C.jpg"  transform="matrix(0.2022 0 0 0.2022 -12.1287 -38.7185)">
			</image>
		</g>
		<rect x="7.6" y="2.3" clip-path="url(#SVGID_16_)" fill="#FFFFFF" width="18" height="22"/>
	</g>
	<g>
		<defs>
			<path id="SVGID_17_" d="M22.2,19.5c0,0,2.3-11.7,2-14C24,4,18.3,4.2,18.1,5.6c0,0,1.2,7.4,3.5,13.9
				C21.6,19.5,21.9,19.8,22.2,19.5L22.2,19.5z"/>
		</defs>
		<use xlink:href="#SVGID_17_"  overflow="visible" fill-rule="evenodd" clip-rule="evenodd" fill="#FFFFFF"/>
		<clipPath id="SVGID_18_">
			<use xlink:href="#SVGID_17_"  overflow="visible"/>
		</clipPath>
		<g transform="matrix(1 0 0 1 0 0)" clip-path="url(#SVGID_18_)">
			
				<image overflow="visible" width="1000" height="600" xlink:href="4523073520173A6F.jpg"  transform="matrix(0.2022 0 0 0.2022 -12.1287 -38.7185)">
			</image>
		</g>
		<rect x="15.4" y="0.9" clip-path="url(#SVGID_18_)" fill="#FFFFFF" width="11.5" height="20.4"/>
	</g>
	<g>
		<defs>
			<path id="SVGID_19_" d="M22.9,22.4c0,0,9.6,7.7,12,8.4c1.3,0.4,3.9-5,2.7-5.9c0,0-7.1-2.2-14.4-3.2
				C23.2,21.7,22.7,21.9,22.9,22.4L22.9,22.4z"/>
		</defs>
		<use xlink:href="#SVGID_19_"  overflow="visible" fill-rule="evenodd" clip-rule="evenodd" fill="#FFFFFF"/>
		<clipPath id="SVGID_20_">
			<use xlink:href="#SVGID_19_"  overflow="visible"/>
		</clipPath>
		<g transform="matrix(1 0 0 1 0 0)" clip-path="url(#SVGID_20_)">
			
				<image overflow="visible" width="1000" height="600" xlink:href="FE100AADA35B6FAB.jpg"  transform="matrix(0.2022 0 0 0.2022 -12.1287 -38.7185)">
			</image>
		</g>
		<rect x="19.7" y="18.9" clip-path="url(#SVGID_20_)" fill="#FFFFFF" width="20.4" height="14.4"/>
	</g>
	<g>
		<defs>
			<path id="SVGID_21_" d="M22.2,23c0,0,4.7,11.4,6.3,13.1c0.7,0.7,5.6-2.2,5-3.5c0,0-5.2-5.8-10.7-10C22.8,22.6,22.3,22.5,22.2,23
				L22.2,23z"/>
		</defs>
		<use xlink:href="#SVGID_21_"  overflow="visible" fill-rule="evenodd" clip-rule="evenodd" fill="#FFFFFF"/>
		<clipPath id="SVGID_22_">
			<use xlink:href="#SVGID_21_"  overflow="visible"/>
		</clipPath>
		<g transform="matrix(1 0 0 1 0 0)" clip-path="url(#SVGID_22_)">
			
				<image overflow="visible" width="1000" height="600" xlink:href="FE100AADA35B6FA9.jpg"  transform="matrix(0.2022 0 0 0.2022 -12.1287 -38.7185)">
			</image>
		</g>
		<rect x="19.5" y="20.6" clip-path="url(#SVGID_22_)" fill="#FFFFFF" width="17.6" height="19"/>
	</g>
	<g>
		<defs>
			<path id="SVGID_23_" d="M21.3,23.2c0,0-1.7,11.8-1.2,14.1c0.3,1.5,6,0.9,6.1-0.4c0,0-1.6-7.3-4.3-13.7
				C22,23.1,21.6,22.8,21.3,23.2L21.3,23.2z"/>
		</defs>
		<use xlink:href="#SVGID_23_"  overflow="visible" fill-rule="evenodd" clip-rule="evenodd" fill="#FFFFFF"/>
		<clipPath id="SVGID_24_">
			<use xlink:href="#SVGID_23_"  overflow="visible"/>
		</clipPath>
		<g transform="matrix(1 0 0 1 0 0)" clip-path="url(#SVGID_24_)">
			
				<image overflow="visible" width="1000" height="600" xlink:href="FE100AADA35B6FAF.jpg"  transform="matrix(0.2022 0 0 0.2022 -12.1287 -38.7185)">
			</image>
		</g>
		<rect x="17.7" y="20.4" clip-path="url(#SVGID_24_)" fill="#FFFFFF" width="12.3" height="21.4"/>
	</g>
	<g>
		<defs>
			<path id="SVGID_25_" d="M20.3,23.9c0,0-6.8,7.7-6.4,8.4C14.3,32.9,20.3,23.9,20.3,23.9L20.3,23.9z"/>
		</defs>
		<use xlink:href="#SVGID_25_"  overflow="visible" fill-rule="evenodd" clip-rule="evenodd" fill="#FFFFFF"/>
		<clipPath id="SVGID_26_">
			<use xlink:href="#SVGID_25_"  overflow="visible"/>
		</clipPath>
		<g transform="matrix(1 0 0 1 0 0)" clip-path="url(#SVGID_26_)">
			
				<image overflow="visible" width="1000" height="600" xlink:href="FE100AADA35B6FAA.jpg"  transform="matrix(0.2022 0 0 0.2022 -12.1287 -38.7185)">
			</image>
		</g>
	</g>
	<g>
		<defs>
			<path id="SVGID_27_" d="M19,26.4c0,0-3,4.9-2.7,5.3C16.6,32.1,19,26.4,19,26.4L19,26.4z"/>
		</defs>
		<use xlink:href="#SVGID_27_"  overflow="visible" fill-rule="evenodd" clip-rule="evenodd" fill="#FFFFFF"/>
		<clipPath id="SVGID_28_">
			<use xlink:href="#SVGID_27_"  overflow="visible"/>
		</clipPath>
		<g transform="matrix(1 0 0 1 0 0)" clip-path="url(#SVGID_28_)">
			
				<image overflow="visible" width="1000" height="600" xlink:href="FE100AADA35B6FB5.jpg"  transform="matrix(0.2022 0 0 0.2022 -12.1287 -38.7185)">
			</image>
		</g>
	</g>
	<g>
		<defs>
			<path id="SVGID_29_" d="M17.9,30.1c0,0-1.7,5.5-1.3,6.1C17.1,36.9,17.9,30.1,17.9,30.1L17.9,30.1z"/>
		</defs>
		<use xlink:href="#SVGID_29_"  overflow="visible" fill-rule="evenodd" clip-rule="evenodd" fill="#FFFFFF"/>
		<clipPath id="SVGID_30_">
			<use xlink:href="#SVGID_29_"  overflow="visible"/>
		</clipPath>
		<g transform="matrix(1 0 0 1 0 0)" clip-path="url(#SVGID_30_)">
			
				<image overflow="visible" width="1000" height="600" xlink:href="FE100AADA35B6FB6.jpg"  transform="matrix(0.2022 0 0 0.2022 -12.1287 -38.7185)">
			</image>
		</g>
	</g>
	<g>
		<defs>
			<path id="SVGID_31_" d="M15.5,25.6c0,0-3.3,2.4-3.9,2.3C10.9,27.8,15.5,25.6,15.5,25.6L15.5,25.6z"/>
		</defs>
		<use xlink:href="#SVGID_31_"  overflow="visible" fill-rule="evenodd" clip-rule="evenodd" fill="#FFFFFF"/>
		<clipPath id="SVGID_32_">
			<use xlink:href="#SVGID_31_"  overflow="visible"/>
		</clipPath>
		<g transform="matrix(1 0 0 1 0 0)" clip-path="url(#SVGID_32_)">
			
				<image overflow="visible" width="1000" height="600" xlink:href="FE100AADA35B6FB7.jpg"  transform="matrix(0.2022 0 0 0.2022 -12.1287 -38.7185)">
			</image>
		</g>
	</g>
	<g>
		<defs>
			<path id="SVGID_33_" d="M14.9,25.7c0,0-5.8,2.8-6,2.6C8.6,28.1,14.9,25.7,14.9,25.7L14.9,25.7z"/>
		</defs>
		<use xlink:href="#SVGID_33_"  overflow="visible" fill-rule="evenodd" clip-rule="evenodd" fill="#FFFFFF"/>
		<clipPath id="SVGID_34_">
			<use xlink:href="#SVGID_33_"  overflow="visible"/>
		</clipPath>
		<g transform="matrix(1 0 0 1 0 0)" clip-path="url(#SVGID_34_)">
			
				<image overflow="visible" width="1000" height="600" xlink:href="FE100AADA35B6FB9.jpg"  transform="matrix(0.2022 0 0 0.2022 -12.1287 -38.7185)">
			</image>
		</g>
	</g>
	<g>
		<defs>
			<path id="SVGID_35_" d="M14.4,25.4c0,0-4.4,1.7-4.7,1.4C9.4,26.5,14.4,25.4,14.4,25.4L14.4,25.4z"/>
		</defs>
		<use xlink:href="#SVGID_35_"  overflow="visible" fill-rule="evenodd" clip-rule="evenodd" fill="#FFFFFF"/>
		<clipPath id="SVGID_36_">
			<use xlink:href="#SVGID_35_"  overflow="visible"/>
		</clipPath>
		<g transform="matrix(1 0 0 1 0 0)" clip-path="url(#SVGID_36_)">
			
				<image overflow="visible" width="1000" height="600" xlink:href="FE100AADA35B6FBB.jpg"  transform="matrix(0.2022 0 0 0.2022 -12.1287 -38.7185)">
			</image>
		</g>
	</g>
	<g>
		<defs>
			<path id="SVGID_37_" d="M18,23.8c0,0-6.3,6.8-7.3,6.8C9.7,30.6,18,23.8,18,23.8L18,23.8z"/>
		</defs>
		<use xlink:href="#SVGID_37_"  overflow="visible" fill-rule="evenodd" clip-rule="evenodd" fill="#FFFFFF"/>
		<clipPath id="SVGID_38_">
			<use xlink:href="#SVGID_37_"  overflow="visible"/>
		</clipPath>
		<g transform="matrix(1 0 0 1 0 0)" clip-path="url(#SVGID_38_)">
			
				<image overflow="visible" width="1000" height="600" xlink:href="FE100AADA35B6FBE.jpg"  transform="matrix(0.2022 0 0 0.2022 -12.1287 -38.7185)">
			</image>
		</g>
	</g>
	<g>
		<defs>
			<path id="SVGID_39_" d="M17.1,21.6c0,0-9.1,2.5-9.5,2.1C7.2,23.2,17.1,21.6,17.1,21.6L17.1,21.6z"/>
		</defs>
		<use xlink:href="#SVGID_39_"  overflow="visible" fill-rule="evenodd" clip-rule="evenodd" fill="#FFFFFF"/>
		<clipPath id="SVGID_40_">
			<use xlink:href="#SVGID_39_"  overflow="visible"/>
		</clipPath>
		<g transform="matrix(1 0 0 1 0 0)" clip-path="url(#SVGID_40_)">
			
				<image overflow="visible" width="1000" height="600" xlink:href="FE100AADA35B6FD2.jpg"  transform="matrix(0.2022 0 0 0.2022 -12.1287 -38.7185)">
			</image>
		</g>
	</g>
	<g>
		<defs>
			<path id="SVGID_41_" d="M15.5,21.6c0,0-4.4,1-4.8,0.6C10.4,21.8,15.5,21.6,15.5,21.6L15.5,21.6z"/>
		</defs>
		<use xlink:href="#SVGID_41_"  overflow="visible" fill-rule="evenodd" clip-rule="evenodd" fill="#FFFFFF"/>
		<clipPath id="SVGID_42_">
			<use xlink:href="#SVGID_41_"  overflow="visible"/>
		</clipPath>
		<g transform="matrix(1 0 0 1 0 0)" clip-path="url(#SVGID_42_)">
			
				<image overflow="visible" width="1000" height="600" xlink:href="FE100AADA35B6FD1.jpg"  transform="matrix(0.2022 0 0 0.2022 -12.1287 -38.7185)">
			</image>
		</g>
	</g>
	<g>
		<defs>
			<path id="SVGID_43_" d="M15.4,21.4c0,0-8.2,0.1-8.6-0.4C6.5,20.5,15.4,21.4,15.4,21.4L15.4,21.4z"/>
		</defs>
		<use xlink:href="#SVGID_43_"  overflow="visible" fill-rule="evenodd" clip-rule="evenodd" fill="#FFFFFF"/>
		<clipPath id="SVGID_44_">
			<use xlink:href="#SVGID_43_"  overflow="visible"/>
		</clipPath>
		<g transform="matrix(1 0 0 1 0 0)" clip-path="url(#SVGID_44_)">
			
				<image overflow="visible" width="1000" height="600" xlink:href="FE100AADA35B6FDE.jpg"  transform="matrix(0.2022 0 0 0.2022 -12.1287 -38.7185)">
			</image>
		</g>
	</g>
	<g>
		<defs>
			<path id="SVGID_45_" d="M19.1,20.3c0,0-7.9-2.5-8.4-3.3C10.2,16.2,19.1,20.3,19.1,20.3L19.1,20.3z"/>
		</defs>
		<use xlink:href="#SVGID_45_"  overflow="visible" fill-rule="evenodd" clip-rule="evenodd" fill="#FFFFFF"/>
		<clipPath id="SVGID_46_">
			<use xlink:href="#SVGID_45_"  overflow="visible"/>
		</clipPath>
		<g transform="matrix(1 0 0 1 0 0)" clip-path="url(#SVGID_46_)">
			
				<image overflow="visible" width="1000" height="600" xlink:href="FE100AADA35B6FD0.jpg"  transform="matrix(0.2022 0 0 0.2022 -12.1287 -38.7185)">
			</image>
		</g>
	</g>
	<g>
		<defs>
			<path id="SVGID_47_" d="M17,19c0,0-5.3-2.4-5.6-3.1c-0.3-0.7,2.2,0.9,2.2,0.9s-1.7-1.5-2-2C11.3,14.3,16.7,18.3,17,19L17,19z"/>
		</defs>
		<use xlink:href="#SVGID_47_"  overflow="visible" fill-rule="evenodd" clip-rule="evenodd" fill="#FFFFFF"/>
		<clipPath id="SVGID_48_">
			<use xlink:href="#SVGID_47_"  overflow="visible"/>
		</clipPath>
		<g transform="matrix(1 0 0 1 0 0)" clip-path="url(#SVGID_48_)">
			
				<image overflow="visible" width="1000" height="600" xlink:href="FE100AADA35B6FD3.jpg"  transform="matrix(0.2022 0 0 0.2022 -12.1287 -38.7185)">
			</image>
		</g>
	</g>
	<g>
		<defs>
			<path id="SVGID_49_" d="M16.1,21.1c0,0-3.6-0.7-3.8-0.8C12,20.1,15.6,20.5,16.1,21.1L16.1,21.1z"/>
		</defs>
		<use xlink:href="#SVGID_49_"  overflow="visible" fill-rule="evenodd" clip-rule="evenodd" fill="#FFFFFF"/>
		<clipPath id="SVGID_50_">
			<use xlink:href="#SVGID_49_"  overflow="visible"/>
		</clipPath>
		<g transform="matrix(1 0 0 1 0 0)" clip-path="url(#SVGID_50_)">
			
				<image overflow="visible" width="1000" height="600" xlink:href="FE100AADA35B6FD7.jpg"  transform="matrix(0.2022 0 0 0.2022 -12.1287 -38.7185)">
			</image>
		</g>
	</g>
	<g>
		<defs>
			<path id="SVGID_51_" d="M20.5,18.9c0,0-5-3.9-5.6-5.7C14.3,11.3,20.5,18.9,20.5,18.9L20.5,18.9z"/>
		</defs>
		<use xlink:href="#SVGID_51_"  overflow="visible" fill-rule="evenodd" clip-rule="evenodd" fill="#FFFFFF"/>
		<clipPath id="SVGID_52_">
			<use xlink:href="#SVGID_51_"  overflow="visible"/>
		</clipPath>
		<g transform="matrix(1 0 0 1 0 0)" clip-path="url(#SVGID_52_)">
			
				<image overflow="visible" width="1000" height="600" xlink:href="FE100AADA35B6FD6.jpg"  transform="matrix(0.2022 0 0 0.2022 -12.1287 -38.7185)">
			</image>
		</g>
	</g>
	<g>
		<defs>
			<path id="SVGID_53_" d="M18.9,16.4c0,0-4.1-6-4.1-7.4C14.7,7.6,18.9,16.4,18.9,16.4L18.9,16.4z"/>
		</defs>
		<use xlink:href="#SVGID_53_"  overflow="visible" fill-rule="evenodd" clip-rule="evenodd" fill="#FFFFFF"/>
		<clipPath id="SVGID_54_">
			<use xlink:href="#SVGID_53_"  overflow="visible"/>
		</clipPath>
		<g transform="matrix(1 0 0 1 0 0)" clip-path="url(#SVGID_54_)">
			
				<image overflow="visible" width="1000" height="600" xlink:href="FE100AADA35B6FED.jpg"  transform="matrix(0.2022 0 0 0.2022 -12.1287 -38.7185)">
			</image>
		</g>
	</g>
	<g>
		<defs>
			<path id="SVGID_55_" d="M19.6,16.9c-0.2-0.2-3-5.6-2.9-6C16.9,10.4,19.8,17.1,19.6,16.9L19.6,16.9z"/>
		</defs>
		<use xlink:href="#SVGID_55_"  overflow="visible" fill-rule="evenodd" clip-rule="evenodd" fill="#FFFFFF"/>
		<clipPath id="SVGID_56_">
			<use xlink:href="#SVGID_55_"  overflow="visible"/>
		</clipPath>
		<g transform="matrix(1 0 0 1 0 0)" clip-path="url(#SVGID_56_)">
			
				<image overflow="visible" width="1000" height="600" xlink:href="FE100AADA35B6FEE.jpg"  transform="matrix(0.2022 0 0 0.2022 -12.1287 -38.7185)">
			</image>
		</g>
	</g>
	<g>
		<defs>
			<path id="SVGID_57_" d="M21.4,16.8c0,0-2.2-8.7-1.6-9.1C20.3,7.2,21.4,16.8,21.4,16.8L21.4,16.8z"/>
		</defs>
		<use xlink:href="#SVGID_57_"  overflow="visible" fill-rule="evenodd" clip-rule="evenodd" fill="#FFFFFF"/>
		<clipPath id="SVGID_58_">
			<use xlink:href="#SVGID_57_"  overflow="visible"/>
		</clipPath>
		<g transform="matrix(1 0 0 1 0 0)" clip-path="url(#SVGID_58_)">
			
				<image overflow="visible" width="1000" height="600" xlink:href="FE100AADA35B6FEF.jpg"  transform="matrix(0.2022 0 0 0.2022 -12.1287 -38.7185)">
			</image>
		</g>
	</g>
	<g>
		<defs>
			<path id="SVGID_59_" d="M21.7,17.3c0,0-0.5-4.6-0.1-4.9C22,12.1,21.7,17.3,21.7,17.3L21.7,17.3z"/>
		</defs>
		<use xlink:href="#SVGID_59_"  overflow="visible" fill-rule="evenodd" clip-rule="evenodd" fill="#FFFFFF"/>
		<clipPath id="SVGID_60_">
			<use xlink:href="#SVGID_59_"  overflow="visible"/>
		</clipPath>
		<g transform="matrix(1 0 0 1 0 0)" clip-path="url(#SVGID_60_)">
			
				<image overflow="visible" width="1000" height="600" xlink:href="FE100AADA35B6FF5.jpg"  transform="matrix(0.2022 0 0 0.2022 -12.1287 -38.7185)">
			</image>
		</g>
	</g>
	<g>
		<defs>
			<path id="SVGID_61_" d="M22.3,14.4c0,0-0.9-6.5-0.5-6.7C22.3,7.4,22.3,14.4,22.3,14.4L22.3,14.4z"/>
		</defs>
		<use xlink:href="#SVGID_61_"  overflow="visible" fill-rule="evenodd" clip-rule="evenodd" fill="#FFFFFF"/>
		<clipPath id="SVGID_62_">
			<use xlink:href="#SVGID_61_"  overflow="visible"/>
		</clipPath>
		<g transform="matrix(1 0 0 1 0 0)" clip-path="url(#SVGID_62_)">
			
				<image overflow="visible" width="1000" height="600" xlink:href="FE100AADA35B6FF3.jpg"  transform="matrix(0.2022 0 0 0.2022 -12.1287 -38.7185)">
			</image>
		</g>
	</g>
	<g>
		<defs>
			<path id="SVGID_63_" d="M23.7,17.8c0,0,6.1-7.5,5.7-8.1C29,9.2,23.7,17.8,23.7,17.8L23.7,17.8z"/>
		</defs>
		<use xlink:href="#SVGID_63_"  overflow="visible" fill-rule="evenodd" clip-rule="evenodd" fill="#FFFFFF"/>
		<clipPath id="SVGID_64_">
			<use xlink:href="#SVGID_63_"  overflow="visible"/>
		</clipPath>
		<g transform="matrix(1 0 0 1 0 0)" clip-path="url(#SVGID_64_)">
			
				<image overflow="visible" width="1000" height="600" xlink:href="FE100AADA35B6FCD.jpg"  transform="matrix(0.2022 0 0 0.2022 -12.1287 -38.7185)">
			</image>
		</g>
	</g>
	<g>
		<defs>
			<path id="SVGID_65_" d="M23.4,18c0,0,3.1-6.8,2.9-7.1C26.2,10.6,23.4,18,23.4,18L23.4,18z"/>
		</defs>
		<use xlink:href="#SVGID_65_"  overflow="visible" fill-rule="evenodd" clip-rule="evenodd" fill="#FFFFFF"/>
		<clipPath id="SVGID_66_">
			<use xlink:href="#SVGID_65_"  overflow="visible"/>
		</clipPath>
		<g transform="matrix(1 0 0 1 0 0)" clip-path="url(#SVGID_66_)">
			
				<image overflow="visible" width="1000" height="600" xlink:href="FE100AADA35B6FCF.jpg"  transform="matrix(0.2022 0 0 0.2022 -12.1287 -38.7185)">
			</image>
		</g>
	</g>
	<g>
		<defs>
			<path id="SVGID_67_" d="M25.1,19c0,0,6.1-1.5,6.3-1.9C31.6,16.7,25.1,19,25.1,19L25.1,19z"/>
		</defs>
		<use xlink:href="#SVGID_67_"  overflow="visible" fill-rule="evenodd" clip-rule="evenodd" fill="#FFFFFF"/>
		<clipPath id="SVGID_68_">
			<use xlink:href="#SVGID_67_"  overflow="visible"/>
		</clipPath>
		<g transform="matrix(1 0 0 1 0 0)" clip-path="url(#SVGID_68_)">
			
				<image overflow="visible" width="1000" height="600" xlink:href="FE100AADA35B6FCC.jpg"  transform="matrix(0.2022 0 0 0.2022 -12.1287 -38.7185)">
			</image>
		</g>
	</g>
	<g>
		<defs>
			<path id="SVGID_69_" d="M27.5,17.7c0,0,6.2-2.5,6.3-3.1C33.8,14,27.5,17.7,27.5,17.7L27.5,17.7z"/>
		</defs>
		<use xlink:href="#SVGID_69_"  overflow="visible" fill-rule="evenodd" clip-rule="evenodd" fill="#FFFFFF"/>
		<clipPath id="SVGID_70_">
			<use xlink:href="#SVGID_69_"  overflow="visible"/>
		</clipPath>
		<g transform="matrix(1 0 0 1 0 0)" clip-path="url(#SVGID_70_)">
			
				<image overflow="visible" width="1000" height="600" xlink:href="FE100AADA35B6FD4.jpg"  transform="matrix(0.2022 0 0 0.2022 -12.1287 -38.7185)">
			</image>
		</g>
	</g>
	<g>
		<defs>
			<path id="SVGID_71_" d="M26.6,18c0,0,6.6-5.2,6.8-6.4C33.7,10.3,26.6,18,26.6,18L26.6,18z"/>
		</defs>
		<use xlink:href="#SVGID_71_"  overflow="visible" fill-rule="evenodd" clip-rule="evenodd" fill="#FFFFFF"/>
		<clipPath id="SVGID_72_">
			<use xlink:href="#SVGID_71_"  overflow="visible"/>
		</clipPath>
		<g transform="matrix(1 0 0 1 0 0)" clip-path="url(#SVGID_72_)">
			
				<image overflow="visible" width="1000" height="600" xlink:href="FE100AADA35B6FD5.jpg"  transform="matrix(0.2022 0 0 0.2022 -12.1287 -38.7185)">
			</image>
		</g>
	</g>
	<g>
		<defs>
			<path id="SVGID_73_" d="M25.6,20.8c0,0,9.6-2.2,9.7-1.8C35.4,19.4,25.6,20.8,25.6,20.8L25.6,20.8z"/>
		</defs>
		<use xlink:href="#SVGID_73_"  overflow="visible" fill-rule="evenodd" clip-rule="evenodd" fill="#FFFFFF"/>
		<clipPath id="SVGID_74_">
			<use xlink:href="#SVGID_73_"  overflow="visible"/>
		</clipPath>
		<g transform="matrix(1 0 0 1 0 0)" clip-path="url(#SVGID_74_)">
			
				<image overflow="visible" width="1000" height="600" xlink:href="FE100AADA35B6FDA.jpg"  transform="matrix(0.2022 0 0 0.2022 -12.1287 -38.7185)">
			</image>
		</g>
	</g>
	<g>
		<defs>
			<path id="SVGID_75_" d="M29,20.9c0,0,7.3-1.5,7.5-0.9C36.7,20.7,29,20.9,29,20.9L29,20.9z"/>
		</defs>
		<use xlink:href="#SVGID_75_"  overflow="visible" fill-rule="evenodd" clip-rule="evenodd" fill="#FFFFFF"/>
		<clipPath id="SVGID_76_">
			<use xlink:href="#SVGID_75_"  overflow="visible"/>
		</clipPath>
		<g transform="matrix(1 0 0 1 0 0)" clip-path="url(#SVGID_76_)">
			
				<image overflow="visible" width="1000" height="600" xlink:href="FE100AADA35B6FDB.jpg"  transform="matrix(0.2022 0 0 0.2022 -12.1287 -38.7185)">
			</image>
		</g>
	</g>
	<g>
		<defs>
			<path id="SVGID_77_" d="M27.7,21c0,0,8.4,1.1,8.4,1.3C36,22.6,27.7,21,27.7,21L27.7,21z"/>
		</defs>
		<use xlink:href="#SVGID_77_"  overflow="visible" fill-rule="evenodd" clip-rule="evenodd" fill="#FFFFFF"/>
		<clipPath id="SVGID_78_">
			<use xlink:href="#SVGID_77_"  overflow="visible"/>
		</clipPath>
		<g transform="matrix(1 0 0 1 0 0)" clip-path="url(#SVGID_78_)">
			
				<image overflow="visible" width="1000" height="600" xlink:href="FE100AADA35B6FDC.jpg"  transform="matrix(0.2022 0 0 0.2022 -12.1287 -38.7185)">
			</image>
		</g>
	</g>
	<g>
		<defs>
			<path id="SVGID_79_" d="M22,36.4c0,0-0.4-8.8-0.3-10.2C21.9,24.9,22,36.4,22,36.4L22,36.4z"/>
		</defs>
		<use xlink:href="#SVGID_79_"  overflow="visible" fill-rule="evenodd" clip-rule="evenodd" fill="#FFFFFF"/>
		<clipPath id="SVGID_80_">
			<use xlink:href="#SVGID_79_"  overflow="visible"/>
		</clipPath>
		<g transform="matrix(1 0 0 1 0 0)" clip-path="url(#SVGID_80_)">
			
				<image overflow="visible" width="1000" height="600" xlink:href="FE100AADA35B7038.jpg"  transform="matrix(0.2022 0 0 0.2022 -12.1287 -38.7185)">
			</image>
		</g>
	</g>
	<g>
		<defs>
			<path id="SVGID_81_" d="M23.1,36.4c0,0-0.5-3.2-0.4-5.3C22.7,28.9,23.1,36.4,23.1,36.4L23.1,36.4z"/>
		</defs>
		<use xlink:href="#SVGID_81_"  overflow="visible" fill-rule="evenodd" clip-rule="evenodd" fill="#FFFFFF"/>
		<clipPath id="SVGID_82_">
			<use xlink:href="#SVGID_81_"  overflow="visible"/>
		</clipPath>
		<g transform="matrix(1 0 0 1 0 0)" clip-path="url(#SVGID_82_)">
			
				<image overflow="visible" width="1000" height="600" xlink:href="FE100AADA35B703B.jpg"  transform="matrix(0.2022 0 0 0.2022 -12.1287 -38.7185)">
			</image>
		</g>
	</g>
	<g>
		<defs>
			<path id="SVGID_83_" d="M24.6,36.6c0,0-1.7-5.4-1.5-8.5C23.3,25,24.6,36.6,24.6,36.6L24.6,36.6z"/>
		</defs>
		<use xlink:href="#SVGID_83_"  overflow="visible" fill-rule="evenodd" clip-rule="evenodd" fill="#FFFFFF"/>
		<clipPath id="SVGID_84_">
			<use xlink:href="#SVGID_83_"  overflow="visible"/>
		</clipPath>
		<g transform="matrix(1 0 0 1 0 0)" clip-path="url(#SVGID_84_)">
			
				<image overflow="visible" width="1000" height="600" xlink:href="FE100AADA35B7039.jpg"  transform="matrix(0.2022 0 0 0.2022 -12.1287 -38.7185)">
			</image>
		</g>
	</g>
	<g>
		<defs>
			<path id="SVGID_85_" d="M29.5,34.2c0,0-4.5-6.4-4.5-7.6C25,25.3,29.5,34.2,29.5,34.2L29.5,34.2z"/>
		</defs>
		<use xlink:href="#SVGID_85_"  overflow="visible" fill-rule="evenodd" clip-rule="evenodd" fill="#FFFFFF"/>
		<clipPath id="SVGID_86_">
			<use xlink:href="#SVGID_85_"  overflow="visible"/>
		</clipPath>
		<g transform="matrix(1 0 0 1 0 0)" clip-path="url(#SVGID_86_)">
			
				<image overflow="visible" width="1000" height="600" xlink:href="FE100AADA35B703F.jpg"  transform="matrix(0.2022 0 0 0.2022 -12.1287 -38.7185)">
			</image>
		</g>
	</g>
	<g>
		<defs>
			<path id="SVGID_87_" d="M30.1,32.7c0,0-2.6-3.2-2.5-4.1C27.7,27.7,30.1,32.7,30.1,32.7L30.1,32.7z"/>
		</defs>
		<use xlink:href="#SVGID_87_"  overflow="visible" fill-rule="evenodd" clip-rule="evenodd" fill="#FFFFFF"/>
		<clipPath id="SVGID_88_">
			<use xlink:href="#SVGID_87_"  overflow="visible"/>
		</clipPath>
		<g transform="matrix(1 0 0 1 0 0)" clip-path="url(#SVGID_88_)">
			
				<image overflow="visible" width="1000" height="600" xlink:href="FE100AADA35B703A.jpg"  transform="matrix(0.2022 0 0 0.2022 -12.1287 -38.7185)">
			</image>
		</g>
	</g>
	<g>
		<defs>
			<path id="SVGID_89_" d="M34.5,28.5c0,0-7.7-3.9-9.1-5.4C24.1,21.6,34.1,28.2,34.5,28.5L34.5,28.5z"/>
		</defs>
		<use xlink:href="#SVGID_89_"  overflow="visible" fill-rule="evenodd" clip-rule="evenodd" fill="#FFFFFF"/>
		<clipPath id="SVGID_90_">
			<use xlink:href="#SVGID_89_"  overflow="visible"/>
		</clipPath>
		<g transform="matrix(1 0 0 1 0 0)" clip-path="url(#SVGID_90_)">
			
				<image overflow="visible" width="1000" height="600" xlink:href="FE100AADA35B7025.jpg"  transform="matrix(0.2022 0 0 0.2022 -12.1287 -38.7185)">
			</image>
		</g>
	</g>
	<g>
		<defs>
			<path id="SVGID_91_" d="M35.6,26.6c0,0-4.1-2.5-5.2-2.3C29.3,24.5,35.6,26.6,35.6,26.6L35.6,26.6z"/>
		</defs>
		<use xlink:href="#SVGID_91_"  overflow="visible" fill-rule="evenodd" clip-rule="evenodd" fill="#FFFFFF"/>
		<clipPath id="SVGID_92_">
			<use xlink:href="#SVGID_91_"  overflow="visible"/>
		</clipPath>
		<g transform="matrix(1 0 0 1 0 0)" clip-path="url(#SVGID_92_)">
			
				<image overflow="visible" width="1000" height="600" xlink:href="FE100AADA35B7026.jpg"  transform="matrix(0.2022 0 0 0.2022 -12.1287 -38.7185)">
			</image>
		</g>
	</g>
	<g>
		<path fill="#FFFFFF" d="M58,36.3h-2.1V15.4c0-4.1,0.9-7,2.8-8.9c1.8-1.8,4.8-2.8,8.8-2.8h4.9v1.9h-4.9c-3,0-5.4,0.7-7.1,2
			c-0.8,0.7-1.4,1.6-1.8,2.9c-0.4,1.3-0.6,2.9-0.6,4.9v3.7h14.4V21H58V36.3z"/>
		<path fill="#FFFFFF" d="M89.2,36.3H76.8v-1.9h12c2,0,3.7-0.4,5-1.3c1.4-0.9,2.1-2.3,2.1-4.1c0-3.2-1.7-5.5-5-7l-9.3-3.2
			c-3.3-1.5-5-3.8-5-7.1c0-2.7,0.8-4.7,2.5-5.9c1.7-1.3,3.7-1.9,5.9-1.9h11.2v1.9H85.5c-2,0-3.6,0.5-4.9,1.4c-1.3,1-1.9,2.4-1.9,4.4
			c0,2.5,1.6,4.4,4.8,5.6l9.5,3.4c3.3,1.7,5,4.5,5,8.3c0,2-0.7,3.7-2.2,5.2C94.3,35.5,92.1,36.3,89.2,36.3z"/>
	</g>
</g>
</svg>
