<?xml version="1.0" encoding="utf-8"?>
<!-- Generator: Adobe Illustrator 17.1.0, SVG Export Plug-In . SVG Version: 6.00 Build 0)  -->
<!DOCTYPE svg PUBLIC "-//W3C//DTD SVG 1.1//EN" "http://www.w3.org/Graphics/SVG/1.1/DTD/svg11.dtd">
<svg version="1.1" xmlns="http://www.w3.org/2000/svg" xmlns:xlink="http://www.w3.org/1999/xlink" x="0px" y="0px"
	 viewBox="0 0 250.7 205.5" enable-background="new 0 0 250.7 205.5" xml:space="preserve">
<g id="Layer_2">
</g>
<g id="Layer_1">
	<g>
		<g>
			<path fill="#FFFFFF" d="M60.1,181.5c0,14.1-10.2,24-25.5,24c-8.9,0-16.2-2.3-22.8-8.4l6-7.5c4.6,4.9,9.8,7.6,16.6,7.6
				c13.2,0,16.8-8.3,16.8-16.1v-6.9H51c-3.3,5.6-9.7,8.3-16.1,8.3c-13.7,0-23.8-10.3-23.7-23.9c0-13.8,9.2-24.5,23.7-24.5
				c6.3,0,12.8,2.9,16.2,7.9h0.2v-6.7h8.9V181.5z M20.6,158.6c0,9.4,5.9,15.6,15.3,15.6c9.4,0,15.3-6.2,15.3-15.6
				c0-9.4-5.9-16.2-15.3-16.2C26.5,142.4,20.6,149.2,20.6,158.6z"/>
			<path fill="#FFFFFF" d="M119.8,181.9h-8.9v-7.2h-0.2c-2.3,4.9-8.2,8.4-15.3,8.4c-9.1,0-16.9-5.4-16.9-17.8v-30h8.9v27.5
				c0,8.8,5,12,10.6,12c7.4,0,13-4.7,13-15.5v-24h8.9V181.9z"/>
			<path fill="#FFFFFF" d="M162.8,147c-2.1-2.6-5.1-4.6-9.5-4.6c-4.1,0-7.8,1.9-7.8,5.2c0,5.6,8,6.4,11.9,7.3
				c7.7,1.9,13.6,4.8,13.6,13.6c0,10.5-9.6,14.7-18.9,14.7c-7.7,0-13.4-2-18-8.3l6.7-5.5c2.9,2.9,6.2,5.5,11.3,5.5
				c4.5,0,9.4-1.9,9.4-5.9c0-5.3-7.4-6.3-11.2-7.2c-7.6-1.9-14.3-4.3-14.3-13.3c0-9.7,9-14.4,17.7-14.4c6.2,0,12.6,2.2,15.9,7.7
				L162.8,147z"/>
			<path fill="#FFFFFF" d="M211.6,143h-12.7v21.2c0,5.2,0,10.7,6.7,10.7c2.1,0,4.5-0.3,6.3-1.4v8.1c-2.1,1.2-6.2,1.6-8,1.6
				c-13.7,0-13.9-8.4-13.9-15.8V143h-10.2v-7.7h10.2v-13.1h8.9v13.1h12.7V143z"/>
		</g>
	</g>
	<g>
		<path fill="#FFFFFF" d="M250.7,12.7c0,0-3.4-7.3-8.3-6.6c-1.6,2.4-12.8,13.6-26.5,25.6c6.4-6.9,12.8-14.4,19.2-22.6
			c1.5-2.4-5.2-10-8.2-9.1c-2.2,3-5.4,7.1-9.7,12.1c-2-2.6-5.5-5-5.5-5s-4.2,4.6-11,11.5c-2.1-2.8-5.2-5.7-7.3-5.3
			c-4.2,4.8-11.6,14-40.8,47.6c-2.4,2.6-4.8,5-7.1,7.2c-5,3.7-9.9,7.1-14.6,9.9c10.4-9,25.1-22.8,38.7-39.3
			c-0.7-4.2-6.8-8.1-8.4-8.1c-0.2,0-0.8,0.6-1.8,1.6c-1.1-0.7-1.9-1.1-1.9-1.1s-22.9,24-49.1,44.1c2.7-2.6,5.2-5.2,9.2-9.3
			c5.5-5.4,10.9-9.9,11.2-11.8c0.4-1.9-6.1-9.2-8.6-7.8c-0.8,0.5-2.9,2.3-5.7,5.1c-1.2-1.1-2.5-1.9-3.7-1.9
			C103,56.6,47.6,121.5,0,101.8c0,0,32.5,21,93.1,6.8c0,0,2.3-0.4,6.5-1.6C158,91.5,214.5,52.9,250.7,12.7"/>
		<g>
			<g>
				<path fill="#FFFFFF" d="M0,101.8c0,0,32.5,21,93.1,6.8c60.6-14.2,120-54.2,157.6-95.9c0,0-3.4-7.3-8.3-6.6
					c-3.5,5-49.5,49.3-71.2,57.7c46.1-44.3,47.4-45.5,47.2-48.9c-0.2-3.3-6.7-7.8-6.7-7.8s-66.5,72.1-100.8,79.7
					c42.9-35.1,52.2-43.1,53.9-47.2c1.6-4-7.3-8.6-7.3-8.6s-55.3,58.2-92.6,69.1c35.5-25.3,51.1-38.3,52.8-40.8
					c1.7-2.5-3.1-9.8-6.9-10C103,56.6,47.6,121.5,0,101.8"/>
			</g>
		</g>
		<g>
			<g>
				<path fill="#FFFFFF" d="M0,101.8c0,0,32.5,21,93.1,6.8c0,0,76.3-14.6,142-99.4c1.5-2.5-5.2-10-8.2-9.1
					c-7.6,10.4-28.2,34.6-64.1,65.2c31.5-33.7,39.5-40.9,39.9-42.5c0.4-1.6-5.9-10.1-9.4-9.4c-4.2,4.8-11.6,14-40.8,47.6
					C133.6,81,117,89.3,117,89.3s28-21,52.5-50.6c-0.7-4.2-6.8-8.1-8.4-8.1c-1.6,0-55,60-86.5,72.2c32.9-25.7,30.8-24.7,43-37
					c5.5-5.4,10.9-9.9,11.2-11.8c0.4-1.9-6.1-9.2-8.6-7.8c-2.5,1.4-15.7,14.9-29.8,30C76.3,91.5,53.1,106.6,27,108.5
					C15.8,109,0,101.8,0,101.8"/>
			</g>
		</g>
		<g>
			<g>
				<g>
					<defs>
						<path id="SVGID_1_" d="M245.8,18c0.5-0.5,0.9-1,1.4-1.5c1.2-1.3,2.4-2.5,3.5-3.8c0,0-3.4-7.3-8.3-6.6
							c-0.1,0.2-0.3,0.3-0.4,0.6c0,0.1-0.1,0.1-0.2,0.2c-0.2,0.2-0.3,0.4-0.5,0.6c-0.1,0.1-0.2,0.2-0.2,0.3
							c-0.2,0.2-0.4,0.4-0.6,0.7c-0.1,0.1-0.2,0.2-0.3,0.4c-0.2,0.3-0.5,0.5-0.8,0.8c-0.1,0.1-0.3,0.3-0.4,0.4
							c-0.3,0.3-0.6,0.6-0.9,0.9c-0.1,0.1-0.3,0.3-0.4,0.5c-0.3,0.3-0.7,0.7-1,1c-0.2,0.2-0.3,0.3-0.5,0.5c-0.4,0.4-0.7,0.7-1.1,1.1
							c-0.2,0.2-0.4,0.4-0.5,0.5c-0.4,0.4-0.8,0.8-1.2,1.2c-0.2,0.2-0.4,0.4-0.6,0.6c-0.4,0.4-0.9,0.8-1.3,1.3
							c-0.2,0.2-0.4,0.4-0.7,0.6c-0.5,0.4-0.9,0.9-1.4,1.4c-0.2,0.2-0.5,0.4-0.7,0.6c-0.5,0.5-1,1-1.5,1.4c-0.2,0.2-0.5,0.4-0.7,0.7
							c-0.5,0.5-1.1,1-1.6,1.5c-0.2,0.2-0.5,0.4-0.7,0.7c-0.6,0.5-1.1,1-1.7,1.6c-0.2,0.2-0.5,0.4-0.7,0.7c-0.6,0.6-1.2,1.1-1.9,1.7
							c-0.2,0.2-0.4,0.4-0.7,0.6c-0.7,0.6-1.4,1.2-2.1,1.8c-0.2,0.2-0.4,0.3-0.5,0.5c-0.1,0.1-0.2,0.2-0.3,0.3c0,0,0,0,0,0
							c1.5-1.6,3.1-3.3,4.6-5.1c0.1-0.2,0.3-0.3,0.4-0.5c3-3.4,6-6.9,9-10.6c0.2-0.3,0.5-0.6,0.7-0.9c1.5-1.8,2.9-3.6,4.4-5.5
							c1.5-2.5-5.2-10-8.2-9.1c-0.3,0.4-0.5,0.7-0.8,1.1c-0.1,0.1-0.1,0.2-0.2,0.2c-0.2,0.3-0.5,0.7-0.8,1c-0.1,0.1-0.1,0.2-0.2,0.3
							c-0.3,0.3-0.5,0.7-0.8,1c-0.1,0.1-0.2,0.2-0.2,0.3c-0.3,0.4-0.6,0.7-0.9,1.1c-0.1,0.1-0.2,0.2-0.2,0.3c-0.3,0.4-0.7,0.8-1,1.3
							c-0.1,0.1-0.1,0.2-0.2,0.3c-0.4,0.5-0.8,1-1.2,1.5c0,0,0,0.1-0.1,0.1c-0.9,1.1-1.9,2.3-3,3.5c0,0,0,0.1-0.1,0.1c0,0,0,0,0-0.1
							c-0.2-0.3-0.5-0.6-0.7-0.9c0,0,0,0,0,0c-0.1-0.2-0.3-0.3-0.4-0.4l0,0c-1-1.1-2.2-2-3-2.7c0,0,0,0,0,0
							c-0.4-0.3-0.7-0.5-0.9-0.6c0,0,0,0,0,0c-0.1,0-0.1-0.1-0.1-0.1c0,0-0.1,0-0.1-0.1c0,0-0.1,0-0.1,0c0,0,0,0,0,0
							s-4.2,4.5-11,11.5l0,0c-0.1-0.2-0.3-0.4-0.4-0.5c0-0.1-0.1-0.1-0.1-0.2c-0.2-0.2-0.3-0.4-0.5-0.6c-0.1-0.1-0.1-0.1-0.2-0.2
							c-0.2-0.2-0.4-0.4-0.6-0.7c-0.1-0.1-0.1-0.1-0.2-0.2c-0.2-0.2-0.4-0.4-0.6-0.6c0,0-0.1-0.1-0.1-0.1c-0.2-0.2-0.4-0.3-0.6-0.5
							c-0.1,0-0.1-0.1-0.2-0.2c-0.2-0.2-0.4-0.3-0.7-0.5c-0.1,0-0.1-0.1-0.2-0.1c-0.2-0.2-0.5-0.3-0.7-0.4c0,0,0,0-0.1,0
							c-0.2-0.1-0.4-0.2-0.6-0.3c0,0-0.1,0-0.1,0c-0.2-0.1-0.4-0.1-0.6-0.1c0,0-0.1,0-0.1,0c-0.2,0-0.4,0-0.6,0
							c-0.9,1.1-2,2.3-3.4,4c-5.1,6-14.6,17.3-37.4,43.5c-0.3,0.3-0.6,0.7-1,1c-0.3,0.3-0.6,0.6-0.8,0.9c-0.1,0.1-0.2,0.2-0.3,0.3
							c-0.5,0.5-1,1.1-1.5,1.6c0,0,0,0-0.1,0.1c-0.6,0.6-1.1,1.1-1.7,1.7c-0.1,0.1-0.1,0.1-0.2,0.2c-0.5,0.5-1,1-1.5,1.4
							c0,0,0,0-0.1,0.1c-1.2,0.9-2.4,1.7-3.6,2.6c-0.1,0.1-0.2,0.1-0.2,0.2c-1.2,0.8-2.3,1.6-3.4,2.4c-0.1,0.1-0.2,0.1-0.3,0.2
							c-1.1,0.8-2.2,1.5-3.3,2.2c-0.1,0.1-0.2,0.1-0.3,0.2c-1.1,0.7-2.2,1.4-3.3,2.1c0,0,0,0,0,0c0.4-0.3,0.8-0.7,1.2-1.1
							c0.1-0.1,0.2-0.2,0.3-0.3c0.4-0.4,0.9-0.8,1.4-1.2c0.2-0.2,0.4-0.4,0.6-0.6c0.4-0.4,0.8-0.7,1.2-1.1c0.3-0.2,0.6-0.5,0.8-0.8
							c0.4-0.4,0.8-0.7,1.2-1.1c0.3-0.3,0.6-0.6,1-0.9c0.4-0.4,0.8-0.7,1.1-1.1c0.4-0.3,0.7-0.7,1.1-1c0.4-0.3,0.7-0.7,1.1-1
							c0.4-0.4,0.8-0.8,1.2-1.2c0.3-0.3,0.7-0.7,1-1c0.5-0.5,1-1,1.6-1.5c0.3-0.3,0.6-0.5,0.8-0.8c0.7-0.7,1.5-1.5,2.2-2.2
							c0.3-0.3,0.6-0.6,0.9-0.9c0.5-0.5,1-1,1.5-1.5c0.3-0.3,0.7-0.7,1-1c0.5-0.5,0.9-1,1.4-1.4c0.4-0.4,0.7-0.7,1.1-1.1
							c0.5-0.5,0.9-1,1.4-1.4c0.4-0.4,0.7-0.8,1.1-1.2c0.5-0.5,0.9-1,1.4-1.5c0.4-0.4,0.7-0.8,1.1-1.2c0.5-0.5,0.9-1,1.4-1.5
							c0.4-0.4,0.7-0.8,1.1-1.2c0.5-0.5,1-1.1,1.4-1.6c0.3-0.4,0.7-0.8,1-1.2c0.5-0.6,1.1-1.2,1.6-1.8c0.3-0.3,0.6-0.7,0.9-1
							c0.8-1,1.6-1.9,2.4-2.9c-0.7-4.2-6.8-8.1-8.4-8.1c0,0-0.1,0-0.2,0.1c0,0,0,0-0.1,0c-0.2,0.1-0.5,0.4-0.9,0.8l0,0
							c-0.2,0.2-0.4,0.4-0.7,0.7c-1.1-0.7-1.9-1.1-1.9-1.1s0,0,0,0c0,0,0,0-0.1,0.1c-0.2,0.2-0.7,0.7-1.5,1.5c0,0,0,0-0.1,0.1
							c-0.6,0.6-1.4,1.4-2.3,2.4c0,0,0,0,0,0c-0.3,0.3-0.6,0.6-1,1c0,0,0,0-0.1,0.1c-4.9,4.9-13.2,13-23.1,21.7c0,0,0,0-0.1,0.1
							c-2.1,1.9-4.3,3.8-6.5,5.7c0,0-0.1,0.1-0.1,0.1c-0.7,0.6-1.4,1.2-2.2,1.8c0,0,0,0-0.1,0.1c-1.5,1.3-3.1,2.5-4.6,3.8
							c-0.1,0-0.1,0.1-0.2,0.1c-0.7,0.6-1.4,1.1-2.1,1.7l-0.3,0.2c-1.6,1.2-3.1,2.5-4.7,3.7c0,0,0-0.1,0.1-0.1
							c0.3-0.3,0.6-0.6,0.9-0.8c0,0,0.1-0.1,0.1-0.1c2.3-2.3,4.7-4.7,8.2-8.3c4.8-4.7,9.5-8.8,10.9-11c0.2-0.3,0.3-0.6,0.4-0.8
							c0.4-1.9-6.1-9.2-8.6-7.8c-0.1,0-0.2,0.1-0.3,0.2c0,0-0.1,0.1-0.1,0.1c-0.1,0.1-0.2,0.1-0.3,0.2c0,0-0.1,0.1-0.1,0.1
							c-0.2,0.1-0.3,0.3-0.5,0.4c0,0,0,0,0,0c-0.2,0.2-0.4,0.3-0.6,0.5c-0.1,0-0.1,0.1-0.2,0.2c-0.2,0.2-0.4,0.3-0.6,0.5
							c0,0-0.1,0.1-0.1,0.1c-0.5,0.5-1.1,1-1.7,1.6c-0.1,0.1-0.1,0.1-0.2,0.2c-0.3,0.2-0.5,0.5-0.8,0.8c0,0-0.1,0.1-0.1,0.1
							c0,0,0,0,0,0c-0.3-0.3-0.6-0.5-0.8-0.7c-0.1,0-0.1-0.1-0.2-0.1c-0.2-0.2-0.4-0.3-0.7-0.4c-0.1-0.1-0.2-0.1-0.3-0.1
							c-0.2-0.1-0.4-0.2-0.6-0.3c-0.1,0-0.2-0.1-0.3-0.1c-0.3-0.1-0.6-0.1-0.8-0.2c-7.5,6.9-59.8,68.1-106.3,53.9
							c-1.5-0.5-3-1-4.5-1.6c0,0,32.5,21,93.1,6.8c0,0,0,0,0.1,0c0,0,0,0,0,0c0.5-0.1,2.7-0.6,6.4-1.6c16.4-4.3,32.6-10.5,48.3-18
							c0,0,0,0,0.1,0c1.6-0.8,3.2-1.6,4.8-2.4c0.2-0.1,0.3-0.2,0.5-0.2c1.5-0.8,3-1.5,4.5-2.3c0.3-0.1,0.5-0.3,0.8-0.4
							c1.4-0.7,2.8-1.5,4.2-2.3c0.3-0.2,0.7-0.4,1-0.5c1.3-0.7,2.7-1.5,4-2.2c0.4-0.2,0.8-0.4,1.1-0.6c1.3-0.7,2.6-1.5,3.8-2.2
							c0.4-0.2,0.8-0.5,1.3-0.8c1.2-0.7,2.5-1.5,3.7-2.2c0.5-0.3,0.9-0.6,1.4-0.8c1.2-0.7,2.4-1.5,3.5-2.2c0.5-0.3,1-0.6,1.5-0.9
							c1.1-0.7,2.3-1.5,3.4-2.2c0.5-0.3,1-0.7,1.5-1c1.1-0.7,2.2-1.5,3.2-2.2c0.5-0.4,1.1-0.7,1.6-1.1c1-0.7,2.1-1.5,3.1-2.2
							c0.5-0.4,1.1-0.8,1.7-1.2c1-0.7,2-1.4,3-2.2c0.6-0.4,1.1-0.8,1.7-1.3c1-0.7,1.9-1.4,2.9-2.2c0.6-0.4,1.2-0.9,1.7-1.3
							c0.9-0.7,1.9-1.4,2.8-2.2c0.6-0.5,1.2-0.9,1.8-1.4c0.9-0.7,1.8-1.4,2.7-2.1c0.6-0.5,1.2-1,1.8-1.5c0.9-0.7,1.7-1.4,2.5-2.1
							c0.6-0.5,1.2-1,1.8-1.6c0.8-0.7,1.6-1.4,2.4-2.1c0.6-0.5,1.2-1.1,1.9-1.6c0.8-0.7,1.5-1.4,2.3-2c0.6-0.6,1.3-1.1,1.9-1.7
							c0.7-0.7,1.5-1.3,2.2-2c0.6-0.6,1.3-1.2,1.9-1.8c0.7-0.7,1.4-1.3,2.1-2c0.7-0.6,1.3-1.3,1.9-1.9c0.6-0.6,1.3-1.3,1.9-1.9
							c0.7-0.7,1.3-1.4,2-2c0.6-0.6,1.2-1.2,1.7-1.7C244.3,19.6,245.1,18.8,245.8,18"/>
					</defs>
					<use xlink:href="#SVGID_1_"  overflow="visible" fill="#FFFFFF"/>
					<clipPath id="SVGID_2_">
						<use xlink:href="#SVGID_1_"  overflow="visible"/>
					</clipPath>
				</g>
			</g>
		</g>
	</g>
</g>
</svg>
