<?xml version="1.0" encoding="utf-8"?>
<!-- Generator: Adobe Illustrator 17.1.0, SVG Export Plug-In . SVG Version: 6.00 Build 0)  -->
<!DOCTYPE svg PUBLIC "-//W3C//DTD SVG 1.1//EN" "http://www.w3.org/Graphics/SVG/1.1/DTD/svg11.dtd">
<svg version="1.1" id="Layer_1" xmlns="http://www.w3.org/2000/svg" xmlns:xlink="http://www.w3.org/1999/xlink" x="0px" y="0px"
	 viewBox="19.8 26 136.3 48" enable-background="new 19.8 26 136.3 48" xml:space="preserve">
<g id="guides">
</g>
<g id="Layer_2">
	<g>
		<g>
			<path fill="#FFFFFF" d="M127.7,47c0-5.8,0.1-11.5,0-17.2c0-1.8,0.8-2.1,2.3-2.1c2.6,0.1,2.8,0.1,2.9,2.1c0,2.8,0,5.7,0,8.5
				c0,2.5,0,2.5,2.4,2c4.3-0.9,8.5-1,12.6,0.7c3.8,1.6,6.2,4.4,7.3,8.3c1.5,5.2,1.4,10.4-0.3,15.5c-1.9,5.7-6.5,9-12.4,9.1
				c-2.8,0.1-5.6-0.1-8.2-1.1c-4.2-1.6-6.4-4.8-6.5-9.3C127.7,58,127.7,52.5,127.7,47z M151,56.5c0.1-2-0.2-4.1-0.8-6.1
				c-0.9-3-3-4.9-6.1-5.5c-3.3-0.7-6.5-0.3-9.7,0.7c-1,0.3-1.5,0.8-1.5,1.9c0,5.6,0,11.1,0.1,16.7c0,2.3,1.3,3.8,3.4,4.4
				c2.5,0.8,5.1,1.1,7.7,0.5c2.9-0.7,5-2.4,5.9-5.3C150.7,61.5,151,59.1,151,56.5z"/>
		</g>
		<g>
			<path fill="#FFFFFF" d="M120.2,57c0.1,1.8,0,3.5-0.3,5.2c-1.3,6.8-6,11.1-13,11.6c-2.7,0.2-5.4,0.1-8.1-0.7
				c-4.5-1.4-7.5-4.3-8.9-8.8c-1.3-4.6-1.5-9.2-0.3-13.8c1.7-6.7,6.5-10.5,13.5-10.8c2.1-0.1,4.2,0,6.3,0.5
				c6.6,1.6,10.4,6.5,10.8,13.9C120.3,55.1,120.2,56.1,120.2,57z M115.2,56.9c0,0-0.1,0-0.1,0c0-1.1,0.1-2.3,0-3.4
				c-0.4-3.1-1.2-6.1-4.2-7.6c-4-2-8.3-2-12.4,0c-1.6,0.8-2.5,2.2-3.2,3.8c-1.3,3.6-1.5,7.3-0.9,11.1c0.9,5.7,3.4,8.2,9,8.6
				c6.4,0.5,10.6-1.9,11.5-8.5C115.1,59.5,115.1,58.2,115.2,56.9z"/>
		</g>
		<g>
			<path fill="#FFFFFF" d="M23.2,54.6c-2.4,0-3.9-2.3-3.1-4.4c0.3-0.8,0.9-1.4,1.5-2c6.8-6.8,13.6-13.6,20.4-20.4
				c0.2-0.2,0.4-0.4,0.6-0.6c1.8-1.5,3.7-1.6,5-0.1c1.3,1.4,1.2,3.2-0.4,4.8C40.1,39.1,33,46.2,25.8,53.3
				C25,54.1,24.1,54.6,23.2,54.6z"/>
		</g>
		<g>
			<path fill="#FFFFFF" d="M60.3,30.6c0,1-0.4,1.8-1,2.4c-7.3,7.3-14.7,14.7-22.1,22c-1.4,1.4-3.2,1.4-4.5,0.2
				c-1.3-1.3-1.4-3.2,0-4.7c7.3-7.3,14.6-14.6,21.9-21.9c1-1,2.3-1.4,3.7-0.8C59.5,28.3,60.2,29.3,60.3,30.6z"/>
		</g>
		<g>
			<path fill="#FFFFFF" d="M30.3,73.2c-1.4,0.1-2.3-0.6-3-1.8c-0.6-1.1-0.4-2.2,0.4-3.2c0.3-0.3,0.6-0.6,0.9-0.9
				c7-7,13.9-13.9,20.9-20.9c0.3-0.3,0.7-0.7,1.1-1c1.3-0.9,3.1-0.7,4.1,0.4c1.1,1.2,1.1,2.6,0.3,4c-0.3,0.5-0.7,0.8-1.1,1.2
				C47,57.9,40.2,64.7,33.4,71.5C32.5,72.4,31.6,73.2,30.3,73.2z"/>
		</g>
		<g>
			<path fill="#FFFFFF" d="M80.7,50.8c0,6.8,0,13.7,0,20.5c0,2.2-0.1,2.3-2.4,2.3c-2.4,0-2.5-0.1-2.5-2.2c0-13.8,0-27.6,0-41.4
				c0-2.2,0.1-2.3,2.6-2.3c2.2,0,2.3,0.1,2.3,2.4C80.7,37,80.7,43.9,80.7,50.8z"/>
		</g>
	</g>
</g>
</svg>
