<?xml version="1.0" encoding="utf-8"?>
<!-- Generator: Adobe Illustrator 17.1.0, SVG Export Plug-In . SVG Version: 6.00 Build 0)  -->
<!DOCTYPE svg PUBLIC "-//W3C//DTD SVG 1.1//EN" "http://www.w3.org/Graphics/SVG/1.1/DTD/svg11.dtd">
<svg version="1.1" id="Layer_1" xmlns="http://www.w3.org/2000/svg" xmlns:xlink="http://www.w3.org/1999/xlink" x="0px" y="0px"
	 viewBox="20.7 359.7 611.7 130.7" enable-background="new 20.7 359.7 611.7 130.7" xml:space="preserve">
<g id="guides">
</g>
<g id="Layer_2">
	<g>
		<path fill="#FFFFFF" d="M20.7,359.7h62.2c0,20.8,0,41.4,0,62.2c-20.8,0-41.4,0-62.2,0V359.7L20.7,359.7z"/>
		<path fill="#FFFFFF" d="M89.1,359.7h62.2c0,20.8,0,41.4,0,62.2c-20.8,0-41.4,0-62.2,0C89.1,401,89.1,380.5,89.1,359.7L89.1,359.7z
			"/>
		<path fill="#FFFFFF" d="M293.3,384.2c2.8-0.3,5.6,0.6,7.5,2.5c2.2,2.2,2.5,5.9,0.9,8.7c-1.9,3.1-5.6,4.4-9,3.7
			c-3.4-0.6-6.5-3.7-6.2-7.5C286.4,388,289.5,384.6,293.3,384.2L293.3,384.2z"/>
		<path fill="#FFFFFF" d="M190.3,385.8c6.5,0,13.1,0,19.6,0c6.2,15.6,12.1,30.8,18.4,46.4c1.6,3.7,3.1,7.8,4.7,11.5
			c7.8-19.3,15.9-38.6,23.6-57.9c6.2,0,12.4,0,18.7,0c0,26.1,0,52.3,0,78.4c-4.7,0-9,0-13.7,0c0-19.3,0-38.6,0-57.9
			c0-0.9,0-1.9,0-2.5c-0.3,0.3-0.6,0.9-0.6,1.2c-7.8,19.6-15.6,39.5-23.3,59.1c-3.1,0-6.5,0-9.6,0c-8.1-19.6-15.9-39.5-24-59.4
			c-0.3-0.3-0.3-0.9-0.6-1.2c-0.3,8.4,0,16.8,0,25.2c0,11.8,0,23.3,0,35.2c-4.4,0-8.4,0-12.8,0C190.3,438.1,190.3,411.9,190.3,385.8
			L190.3,385.8z"/>
		<path fill="#FFFFFF" d="M330.3,407.9c6.5-1.9,13.4-1.9,19.9,0c1.2,0.3,2.5,0.9,3.7,1.6c0,4.4,0,8.7,0,12.8
			c-4.4-3.4-10-5.3-15.2-4.7c-4.4,0.3-8.4,2.8-11.2,6.2c-3.4,4.4-4,10.3-3.4,15.6c0.3,4,2.2,8.4,5.3,11.2c3.4,3.1,8.1,4,12.4,3.7
			c4.4-0.6,8.4-2.5,12.1-5c0,4,0,8.1,0,12.1c-5.6,3.4-12.1,4-18.4,3.7c-6.5-0.3-12.8-2.8-17.4-7.2c-5-5-7.8-11.8-8.1-18.7
			c-0.3-7.2,1.2-14.9,5.3-20.8C318.8,413.2,324.4,409.8,330.3,407.9L330.3,407.9z"/>
		<path fill="#FFFFFF" d="M477.1,407c6.2-1.2,12.8-0.3,18.7,1.9c0,4,0,8.1,0,12.4c-4-2.8-9-4.4-14-4c-2.5,0-5.3,1.2-6.5,3.4
			c-0.9,2.5-0.3,5.6,1.9,6.8c3.7,2.5,8.4,3.7,12.4,5.9c3.1,1.9,6.2,4,7.8,7.5c3.1,6.2,1.6,14.3-3.4,19c-5,4.7-12.1,5.9-18.7,5.6
			c-4.7-0.3-9.3-1.2-13.7-3.1c0-4.4,0-8.7,0-13.1c3.7,2.5,7.8,4.4,12.1,5.3c3.1,0.6,6.5,0.6,9.3-0.9c2.8-1.2,3.1-5.3,1.6-7.8
			c-1.6-1.9-3.7-2.8-5.9-3.7c-4-1.9-8.1-3.4-11.5-5.9c-2.5-1.9-4.4-4.7-5-7.8c-0.9-4.4-0.6-9.6,1.9-13.4
			C466.9,410.7,471.8,407.9,477.1,407L477.1,407z"/>
		<path fill="#FFFFFF" d="M384.1,408.8c3.7-2.2,8.4-2.5,12.4-0.9c0,4.4,0,9,0,13.4c-2.8-1.9-5.9-2.5-9-2.2c-3.7,0.3-6.8,3.4-8.4,6.8
			c-1.6,3.4-1.9,7.5-1.9,11.5c0,9,0,18,0,26.8c-4.4,0-8.7,0-13.4,0c0-18.7,0-37.3,0-56.3c4.4,0,8.7,0,13.4,0c0,3.1,0,6.5,0,9.6
			C378.8,414.1,380.7,410.7,384.1,408.8L384.1,408.8z"/>
		<path fill="#FFFFFF" d="M287.7,407.9c4.4,0,9,0,13.4,0c0,18.7,0,37.3,0,56c-4.4,0-9,0-13.4,0C287.7,445.5,287.7,426.9,287.7,407.9
			L287.7,407.9z"/>
		<path fill="#FFFFFF" d="M452.2,421.3c-2.5-5.3-6.5-9.6-11.8-11.8c-5.9-2.8-12.8-3.1-19.3-2.2c-6.8,0.9-13.4,4-17.7,9.3
			c-4,4.7-5.9,10.9-6.2,17.1c-0.6,7.2,0.6,14.9,5,20.8c3.7,5.3,9.3,8.7,15.6,10.3c5.3,0.9,10.6,1.2,15.9,0
			c5.9-1.2,11.8-4.7,15.6-9.6c3.7-4.7,5.6-10.6,5.9-16.5C455.4,432.8,454.7,426.6,452.2,421.3z M439.5,446.8
			c-1.2,2.8-3.7,5.3-6.5,6.5c-3.4,1.2-7.5,1.6-10.9,0.6c-3.7-0.9-6.8-3.7-8.4-6.8c-2.2-4.4-2.5-9.3-2.2-14c0.3-4.4,1.9-8.7,5.3-11.8
			c2.5-2.2,5.6-3.4,8.7-3.4c4-0.3,8.4,0.9,11.2,3.7c3.1,3.1,4.4,7.5,4.7,11.8C441.7,437.8,441.4,442.7,439.5,446.8z"/>
		<path fill="#FFFFFF" d="M560.2,422.8c-2.2-5.6-6.2-10.3-11.5-13.1c-6.2-3.1-13.4-3.4-19.9-2.8c-5.3,0.6-10.6,2.8-14.9,6.2
			c-5,4.4-8.1,10.6-9,17.1c-0.9,6.5-0.6,13.4,2.2,19.6c2.5,5.9,7.5,10.9,13.7,13.4c5.9,2.5,12.8,2.5,19,1.6
			c6.5-0.9,12.4-4.4,16.5-9.6c4.4-5.3,6.2-12.4,6.2-19.3C562.4,431.5,561.8,426.9,560.2,422.8z M548.1,441.8
			c-0.6,3.1-1.6,5.9-3.4,8.1c-1.9,2.5-5,3.7-7.8,4.4c-3.1,0.6-6.5,0.3-9.6-0.9s-5.9-4-7.2-7.5c-1.6-3.7-1.9-8.1-1.6-12.1
			s1.6-8.1,4-11.2c2.5-2.8,6.2-4.4,10-4.7c3.7-0.3,7.8,0.6,10.9,3.1c2.8,2.2,4,5.6,5,9C548.7,433.7,548.7,437.8,548.1,441.8z"/>
		<path fill="#FFFFFF" d="M632.4,418.8v-10.9c-4.4,0-9,0-13.4,0c0-5.6,0-11.2,0-16.8c-4.4,1.2-8.7,2.8-13.4,4c0,4.4,0,8.4,0,12.8
			c-6.5,0-13.1,0-19.6,0c0-3.4-0.3-6.8,0.3-10c0.3-2.5,1.9-5.3,4.4-6.2c3.1-1.2,6.8-0.3,10,0.9c0-3.7,0-7.8,0-11.5
			c-6.5-1.9-14-1.6-19.6,2.2c-3.7,2.5-6.2,6.2-7.5,10.3c-1.6,4.7-0.6,9.6-0.9,14.3c-3.1,0-6.2,0-9.3,0c0,3.7,0,7.2,0,10.9
			c3.1,0,6.2,0,9.3,0c0,15.2,0,30.2,0,45.4c4.4,0,9,0,13.4,0c0-15.2,0-30.2,0-45.4c6.5,0,13.1,0,19.6,0c0,9.6,0,19.3,0,28.9
			c0,4.4,0.9,9.3,3.7,12.8c2.5,3.1,6.5,4.7,10.6,5c4,0.3,8.4-0.3,12.4-1.9v-10.9c-2.8,1.9-7.2,2.8-10.3,0.9
			c-1.9-0.9-2.8-3.4-2.8-5.3c-0.3-3.4,0-6.8-0.3-10.6c0-6.2,0-12.4,0-19C623.7,418.8,628,418.8,632.4,418.8z"/>
		<path fill="#FFFFFF" d="M20.7,428.1c20.8,0,41.4,0,62.2,0c0,20.8,0,41.4,0,62.2H20.7V428.1L20.7,428.1z"/>
		<path fill="#FFFFFF" d="M89.1,428.1c20.8,0,41.4,0,62.2,0c0,20.8,0,41.4,0,62.2H89.1C89.1,469.5,89.1,449,89.1,428.1L89.1,428.1z"
			/>
	</g>
</g>
</svg>
