<?xml version="1.0" encoding="utf-8"?>
<!-- Generator: Adobe Illustrator 17.1.0, SVG Export Plug-In . SVG Version: 6.00 Build 0)  -->
<!DOCTYPE svg PUBLIC "-//W3C//DTD SVG 1.1//EN" "http://www.w3.org/Graphics/SVG/1.1/DTD/svg11.dtd">
<svg version="1.1" id="Layer_1" xmlns="http://www.w3.org/2000/svg" xmlns:xlink="http://www.w3.org/1999/xlink" x="0px" y="0px"
	 viewBox="27 26 112.1 48" enable-background="new 27 26 112.1 48" xml:space="preserve">
<g id="guides">
</g>
<g>
	<path fill="#FFFFFF" d="M27,63.5c0,0.7,0.4,1,1,1h7.6c0.7,0,1-0.4,1-1V35.4H27C27,35.4,27,63.5,27,63.5z M42.8,63.5
		c0,0.3,0.1,0.5,0.3,0.7c0.2,0.2,0.4,0.3,0.7,0.3h6.9c0.3,0,0.5-0.1,0.7-0.3c0.2-0.2,0.3-0.5,0.3-0.7V35.4h-9V63.5z M58,35.4v28.2
		c0,0.3,0.1,0.5,0.3,0.7c0.2,0.2,0.4,0.3,0.7,0.3h7.7c0.3,0,0.5-0.1,0.7-0.3c0.2-0.2,0.3-0.5,0.3-0.7V35.4H58"/>
</g>
<g>
	<path fill="#FFFFFF" d="M84.4,27v37.5h-8.7c-0.7,0-1-0.3-1-1V27c0-0.7,0.3-1,1-1h7.6C84.1,26,84.4,26.4,84.4,27"/>
</g>
<g>
	<path fill="#FFFFFF" d="M116.3,27v37.5h-8.7c-0.7,0-1-0.3-1-1V27c0-0.7,0.3-1,1-1h7.6C116,26,116.3,26.4,116.3,27"/>
</g>
<g>
	<path fill="#FFFFFF" d="M139.1,27v37.5h-8.7c-0.7,0-1-0.3-1-1V27c0-0.7,0.3-1,1-1h7.6C138.7,26,139.1,26.4,139.1,27"/>
</g>
<path fill="#FFFFFF" d="M67.7,32.4v2.9H27V27c0-0.7,0.4-1,1-1h33.2c0.9,0,1.7,0.2,2.5,0.5c0.8,0.3,1.5,0.8,2,1.4
	c0.6,0.6,1,1.2,1.4,2C67.5,30.7,67.7,31.6,67.7,32.4"/>
<path fill="#FFFFFF" d="M100.6,56.3v7.3c0,0.3-0.1,0.5-0.3,0.7c-0.2,0.2-0.4,0.3-0.7,0.3H84.4v-9.4h15.2c0.3,0,0.5,0.1,0.7,0.3
	C100.5,55.7,100.6,56,100.6,56.3"/>
<rect x="116.3" y="40.4" fill="#FFFFFF" width="13" height="9.4"/>
<path fill="#FFFFFF" d="M33.2,68.9c0,0,0,0.1,0,0.1c0,0.1,0,0.1,0,0.2v4.6c0,0,0,0.1,0,0.1c0,0-0.1,0-0.1,0h-1.2c0,0-0.1,0-0.1,0
	c0,0,0-0.1,0-0.1v-4.3h-1v4.3c0,0,0,0.1,0,0.1c0,0-0.1,0-0.1,0h-1.1c0,0-0.1,0-0.1,0c0,0,0-0.1,0-0.1v-4.3h-1v4.3
	c0,0.1-0.1,0.2-0.2,0.2h-1.2C27,74,27,73.9,27,73.8v-5.6c0,0,0-0.1,0-0.1c0,0,0.1-0.1,0.1-0.1h5c0,0,0.1,0,0.2,0c0.1,0,0.1,0,0.1,0
	L33.2,68.9z M39.5,68.9c0,0,0,0.1,0,0.2s0,0.1,0,0.2v4.6c0,0,0,0.1,0,0.1c0,0-0.1,0-0.1,0h-1.2c0,0-0.1,0-0.1,0c0,0,0-0.1,0-0.1
	v-1.5c0,0,0-0.1,0-0.1c0,0-0.1,0-0.1,0h-1.7c0,0-0.1,0-0.1,0c0,0,0,0.1,0,0.1v1.5c0,0,0,0.1,0,0.1c0,0-0.1,0-0.1,0h-1.2
	c0,0-0.1,0-0.1,0c0,0,0-0.1,0-0.1v-4.7c0,0,0-0.1,0-0.1c0-0.1,0-0.1,0-0.1l0.8-0.8c0,0,0.1,0,0.1,0s0.1,0,0.2,0h2.7c0,0,0.1,0,0.2,0
	c0.1,0,0.1,0,0.1,0L39.5,68.9z M38,69.4h-2v1.5h2V69.4z M44.7,68c0,0,0.1,0,0.1,0.1c0,0,0,0.1,0,0.1v4.6c0,0,0,0.1,0,0.2
	c0,0.1,0,0.1,0,0.1L44,73.9c0,0-0.1,0-0.1,0.1c-0.1,0-0.1,0-0.2,0h-2.2c0,0-0.1,0-0.2,0c-0.1,0-0.1,0-0.1-0.1l-0.8-0.8
	c0,0,0-0.1-0.1-0.1c0-0.1,0-0.1,0-0.2v-1.7c0,0,0-0.1,0-0.1c0,0,0.1,0,0.1,0h1.2c0,0,0.1,0,0.1,0c0,0,0,0.1,0,0.1v1.2
	c0,0,0,0.1,0,0.1c0,0,0.1,0,0.1,0h1.2c0,0,0.1,0,0.1,0c0,0,0-0.1,0-0.1v-4.2c0,0,0-0.1,0-0.1c0,0,0.1-0.1,0.1-0.1
	C43.6,68,44.7,68,44.7,68z M51.1,68.9c0,0,0,0.1,0,0.1c0,0.1,0,0.1,0,0.2v3.7c0,0,0,0.1,0,0.2c0,0.1,0,0.1,0,0.1l-0.8,0.8
	c0,0-0.1,0-0.2,0.1c-0.1,0-0.1,0-0.2,0h-2.7c0,0-0.1,0-0.2,0c-0.1,0-0.1,0-0.1-0.1l-0.8-0.8c0,0,0-0.1-0.1-0.1c0-0.1,0-0.1,0-0.2
	v-3.7c0,0,0-0.1,0-0.2c0-0.1,0-0.1,0.1-0.1l0.8-0.8c0,0,0.1,0,0.1,0c0.1,0,0.1,0,0.2,0H50c0,0,0.1,0,0.2,0c0.1,0,0.1,0,0.2,0
	L51.1,68.9z M49.7,69.5h-2v3.1h2V69.5z M57.6,73.9c0,0,0,0.1,0,0.1c0,0,0,0-0.1,0h-1.4c0,0-0.1,0-0.1,0c0,0-0.1-0.1-0.1-0.1l-1-1.6
	c0,0,0,0-0.1,0h-1c0,0,0,0,0,0v1.6c0,0.1-0.1,0.2-0.2,0.2h-1.2c-0.1,0-0.2-0.1-0.2-0.2v-5.6c0,0,0-0.1,0-0.1c0,0,0.1-0.1,0.1-0.1
	h3.7c0,0,0.1,0,0.2,0c0.1,0,0.1,0,0.2,0l0.8,0.8c0,0,0,0.1,0,0.1c0,0.1,0,0.1,0,0.2v1.9c0,0,0,0.1,0,0.1c0,0,0,0.1-0.1,0.1l-0.8,0.8
	L57.6,73.9z M55.9,69.4h-2.1v1.4h2.1V69.4z M65.6,72.6c0,0,0.1,0,0.1,0c0,0,0,0.1,0,0.1v1.1c0,0,0,0.1,0,0.1c0,0-0.1,0-0.1,0h-3.7
	c-0.1,0-0.2-0.1-0.2-0.2v-5.6c0-0.1,0.1-0.2,0.2-0.2h1.2c0.1,0,0.2,0.1,0.2,0.2v4.2c0,0,0,0.1,0,0.1c0,0,0.1,0,0.1,0L65.6,72.6
	L65.6,72.6z M68.1,69.4C68,69.4,68,69.4,68.1,69.4l0,1c0,0,0,0,0,0h2.4c0,0,0.1,0,0.1,0c0,0,0,0.1,0,0.1v0.9c0,0.1-0.1,0.2-0.2,0.2
	h-2.4c0,0,0,0,0,0v0.9c0,0,0,0,0,0h2.9c0,0,0.1,0,0.1,0c0,0,0,0.1,0,0.1v1.1c0,0,0,0.1,0,0.1c0,0-0.1,0-0.1,0h-3.2c0,0-0.1,0-0.2,0
	c-0.1,0-0.1,0-0.1-0.1l-0.8-0.8c0,0,0-0.1-0.1-0.1c0-0.1,0-0.1,0-0.2v-3.7c0,0,0-0.1,0-0.2c0-0.1,0-0.1,0.1-0.1l0.8-0.8
	c0,0,0.1,0,0.1,0c0.1,0,0.1,0,0.2,0h3.2c0,0,0.1,0,0.1,0.1c0,0,0,0.1,0,0.1v1.1c0,0,0,0.1,0,0.1c0,0-0.1,0-0.1,0L68.1,69.4
	L68.1,69.4z M77.3,68.9c0,0,0,0.1,0,0.2c0,0.1,0,0.1,0,0.2v4.6c0,0,0,0.1,0,0.1c0,0-0.1,0-0.1,0h-1.2c0,0-0.1,0-0.1,0
	c0,0,0-0.1,0-0.1v-1.5c0,0,0-0.1,0-0.1c0,0-0.1,0-0.1,0h-1.7c0,0-0.1,0-0.1,0c0,0,0,0.1,0,0.1v1.5c0,0,0,0.1,0,0.1c0,0-0.1,0-0.1,0
	h-1.2c0,0-0.1,0-0.1,0c0,0,0-0.1,0-0.1v-4.7c0,0,0-0.1,0-0.1c0-0.1,0-0.1,0-0.1l0.8-0.8c0,0,0.1,0,0.1,0c0.1,0,0.1,0,0.2,0h2.7
	c0,0,0.1,0,0.2,0c0.1,0,0.1,0,0.1,0L77.3,68.9z M75.9,69.4h-2v1.5h2V69.4z M83.5,70.8c0,0,0.1,0,0.1,0.1c0,0,0,0.1,0,0.1v1.9
	c0,0,0,0.1,0,0.2c0,0.1,0,0.1,0,0.1l-0.8,0.8c0,0-0.1,0-0.2,0.1c-0.1,0-0.1,0-0.2,0h-2.7c0,0-0.1,0-0.2,0c-0.1,0-0.1,0-0.1-0.1
	l-0.8-0.8c0,0,0-0.1-0.1-0.1c0-0.1,0-0.1,0-0.2v-3.7c0,0,0-0.1,0-0.2c0-0.1,0-0.1,0.1-0.1l0.8-0.8c0,0,0.1,0,0.1,0
	c0.1,0,0.1,0,0.2,0h3.4c0,0,0.1,0,0.1,0.1c0,0,0,0.1,0,0.1v1.1c0,0,0,0.1,0,0.1s-0.1,0-0.1,0h-2.9c0,0-0.1,0-0.1,0c0,0,0,0.1,0,0.1
	v2.8c0,0,0,0.1,0,0.1c0,0,0.1,0,0.1,0H82c0,0,0.1,0,0.1,0c0,0,0-0.1,0-0.1v-1.5c0,0,0-0.1,0-0.1c0,0,0.1-0.1,0.1-0.1L83.5,70.8
	L83.5,70.8z M89.8,68c0,0,0.1,0,0.1,0.1c0,0,0,0.1,0,0.1v4.7h0c0,0,0,0.1,0,0.2c0,0,0,0.1,0,0.1l-0.8,0.8c0,0-0.1,0-0.1,0.1
	c-0.1,0-0.1,0-0.2,0h-2.7c0,0-0.1,0-0.2,0c-0.1,0-0.1,0-0.1-0.1L85,73.2c0,0,0-0.1-0.1-0.1c0-0.1,0-0.1,0-0.2v-4.6c0,0,0-0.1,0-0.1
	c0,0,0.1-0.1,0.1-0.1h1.2c0,0,0.1,0,0.1,0.1c0,0,0,0.1,0,0.1v4.2c0,0,0,0.1,0,0.1c0,0,0.1,0,0.1,0h1.7c0,0,0.1,0,0.1,0
	c0,0,0-0.1,0-0.1v-4.2c0,0,0-0.1,0-0.1c0,0,0.1-0.1,0.1-0.1L89.8,68L89.8,68z M92.8,69.4C92.7,69.4,92.7,69.4,92.8,69.4l0,1
	c0,0,0,0,0,0h2.4c0,0,0.1,0,0.1,0c0,0,0,0.1,0,0.1v0.9c0,0.1-0.1,0.2-0.2,0.2h-2.4c0,0,0,0,0,0v0.9c0,0,0,0,0,0h2.9c0,0,0.1,0,0.1,0
	c0,0,0,0.1,0,0.1v1.1c0,0,0,0.1,0,0.1c0,0-0.1,0-0.1,0h-3.2c0,0-0.1,0-0.2,0c-0.1,0-0.1,0-0.1-0.1l-0.8-0.8c0,0,0-0.1-0.1-0.1
	c0-0.1,0-0.1,0-0.2v-3.7c0,0,0-0.1,0-0.2c0-0.1,0-0.1,0.1-0.1l0.8-0.8c0,0,0.1,0,0.1,0c0.1,0,0.1,0,0.2,0h3.2c0,0,0.1,0,0.1,0.1
	c0,0,0,0.1,0,0.1v1.1c0,0,0,0.1,0,0.1c0,0-0.1,0-0.1,0L92.8,69.4L92.8,69.4z M104.8,68c0,0,0.1,0,0.1,0.1c0,0,0.1,0.1,0.1,0.1v5.6
	c0,0,0,0.1-0.1,0.1c0,0-0.1,0-0.1,0h-1.2c0,0-0.1,0-0.1,0c0,0,0-0.1,0-0.1v-2c0,0,0-0.1,0-0.1c0,0-0.1,0-0.1,0h-1.7c0,0-0.1,0-0.1,0
	c0,0,0,0.1,0,0.1v2c0,0.1-0.1,0.2-0.2,0.2h-1.2c-0.1,0-0.2-0.1-0.2-0.2v-5.6c0-0.1,0.1-0.2,0.2-0.2h1.2c0.1,0,0.2,0.1,0.2,0.2v1.9
	c0,0.1,0.1,0.2,0.2,0.2h1.7c0,0,0.1,0,0.1,0c0,0,0-0.1,0-0.1v-1.9c0,0,0-0.1,0-0.1c0,0,0.1-0.1,0.1-0.1H104.8z M111.2,68.9
	c0,0,0,0.1,0,0.2c0,0.1,0,0.1,0,0.2v4.6c0,0,0,0.1,0,0.1c0,0-0.1,0-0.1,0H110c0,0-0.1,0-0.1,0c0,0,0-0.1,0-0.1v-1.5c0,0,0-0.1,0-0.1
	c0,0-0.1,0-0.1,0H108c0,0-0.1,0-0.1,0c0,0,0,0.1,0,0.1v1.5c0,0,0,0.1,0,0.1c0,0-0.1,0-0.1,0h-1.2c0,0-0.1,0-0.1,0c0,0,0-0.1,0-0.1
	v-4.7c0,0,0-0.1,0-0.1s0-0.1,0-0.1l0.8-0.8c0,0,0.1,0,0.1,0c0.1,0,0.1,0,0.2,0h2.7c0,0,0.1,0,0.2,0c0.1,0,0.1,0,0.1,0L111.2,68.9z
	 M109.8,69.4h-2v1.5h2V69.4z M114.2,69.5c0,0-0.1,0-0.1,0c0,0,0,0.1,0,0.1v2.8c0,0,0,0.1,0,0.1c0,0,0.1,0,0.1,0h2.7c0,0,0.1,0,0.1,0
	c0,0,0,0.1,0,0.1v1.1c0,0,0,0.1,0,0.1c0,0-0.1,0-0.1,0h-3.2c0,0-0.1,0-0.2,0c-0.1,0-0.1,0-0.1-0.1l-0.8-0.8c0,0,0-0.1-0.1-0.1
	c0-0.1,0-0.1,0-0.2v-3.7c0,0,0-0.1,0-0.2c0-0.1,0-0.1,0.1-0.1l0.8-0.8c0,0,0.1,0,0.1,0c0,0,0.1,0,0.1,0h3.3c0,0,0.1,0,0.1,0.1
	c0,0,0,0.1,0,0.1v1.1c0,0,0,0.1,0,0.1c0,0-0.1,0-0.1,0H114.2z M121.9,70.6C121.8,70.6,121.8,70.6,121.9,70.6l2,3.3c0,0,0,0.1,0,0.1
	c0,0-0.1,0-0.1,0h-1.4c0,0-0.1,0-0.1,0c0,0-0.1-0.1-0.1-0.1l-1.3-2.3c0,0,0,0,0,0l-0.7,0.8c0,0-0.1,0.1-0.1,0.1c0,0.1,0,0.1,0,0.1
	v1.3c0,0.1-0.1,0.2-0.2,0.2h-1.2c-0.1,0-0.2-0.1-0.2-0.2v-5.6c0-0.1,0.1-0.2,0.2-0.2h1.2c0.1,0,0.2,0.1,0.2,0.2v2.5l2.2-2.6
	c0,0,0.1-0.1,0.1-0.1c0.1,0,0.1,0,0.1,0h1.4c0,0,0.1,0,0.1,0c0,0,0,0.1,0,0.1L121.9,70.6z M126.4,73.8c0,0.1-0.1,0.2-0.2,0.2h-1.2
	c-0.1,0-0.2-0.1-0.2-0.2v-5.6c0-0.1,0.1-0.2,0.2-0.2h1.2c0.1,0,0.2,0.1,0.2,0.2V73.8z M132.7,68.9c0,0,0,0.1,0,0.1
	c0,0.1,0,0.1,0,0.2v4.6c0,0,0,0.1-0.1,0.1c0,0-0.1,0-0.1,0h-1.2c0,0-0.1,0-0.1,0c0,0,0-0.1,0-0.1v-4.2c0,0,0-0.1,0-0.1
	c0,0-0.1,0-0.1,0h-1.7c0,0-0.1,0-0.1,0c0,0,0,0.1,0,0.1v4.2c0,0.1-0.1,0.2-0.2,0.2h-1.2c-0.1,0-0.2-0.1-0.2-0.2v-5.6
	c0,0,0-0.1,0-0.1c0,0,0.1-0.1,0.1-0.1h3.7c0,0,0.1,0,0.2,0c0.1,0,0.1,0,0.1,0L132.7,68.9z M138.9,70.8c0,0,0.1,0,0.1,0.1
	c0,0,0,0.1,0,0.1v1.9c0,0,0,0.1,0,0.2c0,0.1,0,0.1,0,0.1l-0.8,0.8c0,0-0.1,0-0.2,0.1c-0.1,0-0.1,0-0.2,0h-2.7c0,0-0.1,0-0.2,0
	c-0.1,0-0.1,0-0.1-0.1l-0.8-0.8c0,0,0-0.1-0.1-0.1c0-0.1,0-0.1,0-0.2v-3.7c0,0,0-0.1,0-0.2c0-0.1,0-0.1,0.1-0.1l0.8-0.8
	c0,0,0.1,0,0.1,0c0.1,0,0.1,0,0.2,0h3.4c0,0,0.1,0,0.1,0.1c0,0,0,0.1,0,0.1v1.1c0,0,0,0.1,0,0.1c0,0-0.1,0-0.1,0h-2.9
	c0,0-0.1,0-0.1,0c0,0,0,0.1,0,0.1v2.8c0,0,0,0.1,0,0.1c0,0,0.1,0,0.1,0h1.7c0,0,0.1,0,0.1,0c0,0,0-0.1,0-0.1v-1.5c0,0,0-0.1,0-0.1
	c0,0,0.1-0.1,0.1-0.1L138.9,70.8L138.9,70.8z"/>
</svg>
