<?xml version="1.0" encoding="utf-8"?>
<!-- Generator: Adobe Illustrator 17.1.0, SVG Export Plug-In . SVG Version: 6.00 Build 0)  -->
<!DOCTYPE svg PUBLIC "-//W3C//DTD SVG 1.1//EN" "http://www.w3.org/Graphics/SVG/1.1/DTD/svg11.dtd">
<svg version="1.1" id="Layer_1" xmlns="http://www.w3.org/2000/svg" xmlns:xlink="http://www.w3.org/1999/xlink" x="0px" y="0px"
	 viewBox="0 0 216 64.1" enable-background="new 0 0 216 64.1" xml:space="preserve">
<g>
	<g>
		<path fill="#FFFFFF" d="M0,15.8h3.5V24c3.2-4.8,7.9-9.1,15.1-9.1c8.9,0,17.9,7.1,17.9,19.1v0.1c0,12-9,19.2-17.9,19.2
			c-7.3,0-12.1-4.2-15.1-8.8v19.4H0V15.8z M32.7,34.3v-0.1c0-9.6-6.7-15.8-14.4-15.8c-7.6,0-15,6.4-15,15.8v0.1
			c0,9.4,7.3,15.8,15,15.8C26.3,50,32.7,44.2,32.7,34.3z"/>
		<path fill="#FFFFFF" d="M88,44.7v7.9h-3.5V0H88v24c3.2-4.8,7.9-9.1,15.1-9.1c8.9,0,17.9,7.1,17.9,19.1v0.1c0,12-9,19.2-17.9,19.2
			C95.8,53.4,91,49.3,88,44.7z M117.2,34.3v-0.1c0-9.6-6.7-15.8-14.4-15.8c-7.6,0-15,6.4-15,15.8v0.1c0,9.4,7.3,15.8,15,15.8
			C110.8,50,117.2,44.2,117.2,34.3z"/>
		<path fill="#FFFFFF" d="M131.5,44.7v7.9H128V0h3.5v24c3.2-4.8,7.8-9.1,15.1-9.1c8.9,0,17.9,7.1,17.9,19.1v0.1
			c0,12-9,19.2-17.9,19.2C139.3,53.4,134.5,49.3,131.5,44.7z M160.7,34.3v-0.1c0-9.6-6.7-15.8-14.4-15.8c-7.6,0-15,6.4-15,15.8v0.1
			c0,9.4,7.3,15.8,15,15.8C154.3,50,160.7,44.2,160.7,34.3z"/>
		<path fill="#FFFFFF" d="M171.5,0h3.5v52.6h-3.5V0z"/>
		<path fill="#FFFFFF" d="M47.6,38c1.5,7.7,7.5,12.2,14.1,12.2c5.7,0,9.6-2.5,12.6-5.8l2.4,2.2c-3.7,4-8.1,6.9-15.2,6.9
			c-9.6,0-18-7.7-18-19.2v-0.1C43.5,23.5,51,15,61,15c8.4,0,14.3,5.5,16.2,13.4c0.1,0.5,0.2,1,0.3,1.5L47.6,38z M73.1,27.8
			c-1.7-5.4-5.7-9.6-12.3-9.6c-7.3,0-12.9,6.1-13.5,14.3v2.2L73.1,27.8z"/>
		<path fill="#FFFFFF" d="M186.1,38c1.5,7.7,7.5,12.2,14.1,12.2c5.7,0,9.6-2.5,12.6-5.8l2.4,2.2c-3.7,4-8.1,6.9-15.2,6.9
			c-9.7,0-18-7.7-18-19.2v-0.1c0-10.7,7.5-19.2,17.4-19.2c8.4,0,14.3,5.5,16.2,13.4c0.1,0.5,0.2,1,0.3,1.5L186.1,38z M211.7,27.8
			c-1.7-5.4-5.7-9.6-12.3-9.6c-7.3,0-12.9,6.1-13.5,14.3v2.2L211.7,27.8z"/>
	</g>
</g>
</svg>
