<?xml version="1.0" encoding="utf-8"?>
<!-- Generator: Adobe Illustrator 17.1.0, SVG Export Plug-In . SVG Version: 6.00 Build 0)  -->
<!DOCTYPE svg PUBLIC "-//W3C//DTD SVG 1.1//EN" "http://www.w3.org/Graphics/SVG/1.1/DTD/svg11.dtd">
<svg version="1.1" id="Layer_1" xmlns="http://www.w3.org/2000/svg" xmlns:xlink="http://www.w3.org/1999/xlink" x="0px" y="0px"
	 viewBox="206 296 200 200" enable-background="new 206 296 200 200" xml:space="preserve">
<g>
	<polygon fill="#0067A5" points="206,296 406,296 406,496 206,496 	"/>
	<path fill="#FFFFFF" d="M227.9,321.5h9.2c1,0,1.8-0.8,1.8-1.8s-0.8-1.8-1.8-1.8h-9.2V321.5L227.9,321.5z M237.1,314.2
		c3,0,5.4,2.4,5.4,5.5c0,1.4-0.5,2.7-1.4,3.6c0.9,1,1.4,2.2,1.4,3.6v5.5h-3.6v-5.5c0-1-0.8-1.8-1.8-1.8h-9.2v7.3h-3.6v-18.2H237.1
		L237.1,314.2z"/>
	<path fill="#FFFFFF" d="M278.9,314.2v12c0,3.1-2.1,6.2-5.4,6.2h-7.3c-3.3,0-5.5-3.1-5.5-6.2v-12h3.6v12c0,1.7,1.1,2.5,1.8,2.5h7.3
		c0.7,0,1.8-0.8,1.8-2.5v-12H278.9L278.9,314.2z"/>
	<path fill="#FFFFFF" d="M300.5,321.5h9.2c1,0,1.8-0.8,1.8-1.8s-0.8-1.8-1.8-1.8h-9.2V321.5L300.5,321.5z M309.7,325.1h-9.2v3.6h9.2
		c1,0,1.8-0.8,1.8-1.8C311.5,325.9,310.7,325.1,309.7,325.1L309.7,325.1z M300.5,314.2h9.2c3,0,5.5,2.4,5.5,5.5
		c0,1.4-0.5,2.7-1.4,3.6c0.9,1,1.4,2.2,1.4,3.6c0,3-2.4,5.5-5.5,5.5h-9.2h-3.7v-18.2H300.5L300.5,314.2z"/>
	<polygon fill="#FFFFFF" points="336.9,328.7 351.4,328.7 351.4,332.4 333.3,332.4 333.3,314.2 351.4,314.2 351.4,317.8 
		336.9,317.8 336.9,321.5 347.8,321.5 347.8,325.1 336.9,325.1 	"/>
	<polygon fill="#FFFFFF" points="384.1,327.2 384.1,314.2 387.8,314.2 387.8,332.4 383.6,332.4 373.3,319.4 373.3,332.4 
		369.6,332.4 369.6,314.2 373.8,314.2 	"/>
	<polygon fill="#FFFFFF" points="384.1,363.5 384.1,350.5 387.8,350.5 387.8,368.7 383.6,368.7 373.3,355.7 373.3,368.7 
		369.6,368.7 369.6,350.5 373.8,350.5 	"/>
	<polygon fill="#FFFFFF" points="333.3,350.5 351.4,350.5 351.4,354.2 344.2,354.2 344.2,365.1 351.4,365.1 351.4,368.7 
		333.3,368.7 333.3,365.1 340.5,365.1 340.5,354.2 333.3,354.2 	"/>
	<polygon fill="#FFFFFF" points="300.5,365.1 315.1,365.1 315.1,368.7 296.9,368.7 296.9,350.5 315.1,350.5 315.1,354.2 
		300.5,354.2 300.5,357.8 311.4,357.8 311.4,361.5 300.5,361.5 	"/>
	<polygon fill="#FFFFFF" points="260.7,350.5 278.8,350.5 278.8,354.2 271.6,354.2 271.6,368.7 267.9,368.7 267.9,354.2 
		260.7,354.2 	"/>
	<path fill="#FFFFFF" d="M224.2,365.1h12.9c1,0,1.8-0.8,1.8-1.8s-0.8-1.8-1.8-1.8h-7.4c-3,0-5.5-2.4-5.5-5.4s2.4-5.4,5.5-5.4h12.5
		v3.6h-12.5c-1,0-1.8,0.8-1.8,1.8s0.8,1.8,1.8,1.8h7.4c3,0,5.5,2.4,5.5,5.5c0,3-2.4,5.5-5.5,5.5h-12.9V365.1L224.2,365.1z"/>
	<polygon fill="#FFFFFF" points="224.3,387 242.5,387 242.5,390.6 235.2,390.6 235.2,405.1 231.6,405.1 231.6,390.6 224.3,390.6 	
		"/>
	<polygon fill="#FFFFFF" points="384.1,400 384.1,387 387.8,387 387.8,405.2 383.6,405.2 373.3,392.2 373.3,405.2 369.6,405.2 
		369.6,387 373.8,387 	"/>
	<polygon fill="#FFFFFF" points="264.3,401.2 278.8,401.2 278.8,404.9 260.7,404.9 260.7,386.7 278.8,386.7 278.8,390.3 
		264.3,390.3 264.3,394 275.2,394 275.2,397.6 264.3,397.6 	"/>
	<path fill="#FFFFFF" d="M315.1,404.9H303c-3.1,0-6.2-2.2-6.2-5.5v-7.3c0-3.3,3.1-5.5,6.2-5.5h12.2v3.6H303c-1.7,0-2.5,1.1-2.5,1.8
		v7.3c0,0.7,0.8,1.8,2.5,1.8h12.2v3.8H315.1z"/>
	<polygon fill="#FFFFFF" points="333.3,404.9 333.3,386.7 336.9,386.7 336.9,394 347.8,394 347.8,386.7 351.4,386.7 351.4,404.9 
		347.8,404.9 347.8,397.6 336.9,397.6 336.9,404.9 	"/>
	<path fill="#FFFFFF" d="M230.3,426.7c-1.7,0-2.5,1.1-2.5,1.8v7.6c0,0.7,0.8,1.8,2.5,1.8h6.1c1.7,0,2.5-1.1,2.5-1.8v-7.6
		c0-0.7-0.8-1.8-2.5-1.8H230.3L230.3,426.7z M230.3,441.5c-3.1,0-6.2-2.1-6.2-5.4v-7.6c0-3.3,3.1-5.4,6.2-5.4h6.1
		c3.1,0,6.2,2.1,6.2,5.4v7.6c0,3.3-3.1,5.4-6.2,5.4H230.3L230.3,441.5z"/>
	<path fill="#FFFFFF" d="M387.8,423.2v4.4c0,3.1-2.1,6.2-5.4,6.2h-1.9v7.7h-3.6v-7.7H375c-3.3,0-5.4-3.1-5.4-6.2v-4.4h3.6v4.4
		c0,1.7,1.1,2.5,1.8,2.5h7.3c0.7,0,1.8-0.8,1.8-2.5v-4.4H387.8L387.8,423.2z"/>
	<polygon fill="#FFFFFF" points="278.7,441.4 260.8,441.4 260.8,423.2 264.4,423.2 264.4,437.8 278.7,437.8 	"/>
	<path fill="#FFFFFF" d="M303,426.7c-1.7,0-2.5,1.1-2.5,1.8v7.6c0,0.7,0.8,1.8,2.5,1.8h6.1c1.7,0,2.5-1.1,2.5-1.8v-7.6
		c0-0.7-0.8-1.8-2.5-1.8H303L303,426.7z M303,441.5c-3.1,0-6.2-2.1-6.2-5.4v-7.6c0-3.3,3.1-5.4,6.2-5.4h6.1c3.1,0,6.2,2.1,6.2,5.4
		v7.6c0,3.3-3.1,5.4-6.2,5.4H303L303,441.5z"/>
	<path fill="#FFFFFF" d="M373.2,463.2v3.6h9.2c1,0,1.8-0.8,1.8-1.8s-0.8-1.8-1.8-1.8L373.2,463.2L373.2,463.2z M373.2,477.7h-3.6
		v-18.2h3.6h9.2c3,0,5.4,2.5,5.4,5.5s-2.4,5.4-5.4,5.4h-9.2V477.7L373.2,477.7z"/>
	<path fill="#FFFFFF" d="M351.5,459.6v12.3c0,3.1-2.1,6.2-5.5,6.2h-7.3c-3.3,0-5.4-3.1-5.4-6.2v-12.3h3.6v12.3
		c0,1.7,1.1,2.6,1.8,2.6h7.3c0.7,0,1.8-0.8,1.8-2.6v-12.3H351.5L351.5,459.6z"/>
	<path fill="#FFFFFF" d="M303,463.1c-1.7,0-2.5,1.1-2.5,1.8v7.5c0,0.7,0.8,1.9,2.5,1.9h6.1c1.7,0,2.5-1.2,2.5-1.9v-7.5
		c0-0.7-0.8-1.8-2.5-1.8H303L303,463.1z M303,477.9c-3.1,0-6.2-2.3-6.2-5.6v-7.5c0-3.3,3.1-5.4,6.2-5.4h6.1c3.1,0,6.2,2.2,6.2,5.4
		v7.5c0,3.3-3.1,5.6-6.2,5.6H303L303,477.9z"/>
	<path fill="#FFFFFF" d="M264.2,466.9h9.2c1,0,1.8-0.8,1.8-1.8s-0.8-1.8-1.8-1.8h-9.2V466.9L264.2,466.9z M264.2,459.6h9.2
		c3,0,5.5,2.5,5.5,5.5c0,1.4-0.5,2.7-1.4,3.6c0.9,1,1.4,2.2,1.4,3.7v5.5h-3.6v-5.5c0-1-0.8-1.8-1.8-1.8h-9.2v7.3h-3.6v-18.2h3.5
		V459.6z"/>
	<path fill="#FFFFFF" d="M236.2,477.9h-5.8c-3.2-0.1-6.2-2.2-6.2-5.4v-7.7c0-3.3,3.1-5.4,6.2-5.4h12.2v3.6h-12.2
		c-1.7,0-2.5,1.1-2.5,1.8v7.7c0,0.7,0.8,1.8,2.4,1.8h6h0.3c1,0,2.4-0.4,2.4-1.4V470h-7.3v-3.4h7.3h3.6v6.3c0,3-3,5-6,5H236.2
		L236.2,477.9z"/>
	<path fill="#FFFFFF" d="M345.2,441.7h-5.8c-3.2-0.1-6.2-2.2-6.2-5.4v-7.7c0-3.3,3.1-5.4,6.2-5.4h12.2v3.6h-12.2
		c-1.7,0-2.5,1.1-2.5,1.8v7.7c0,0.7,0.8,1.8,2.4,1.8h6h0.3c1,0,2.4-0.4,2.4-1.4v-2.9h-7.3v-3.4h7.3h3.6v6.3c0,3-3,5-6,5H345.2
		L345.2,441.7z"/>
</g>
</svg>
