<?xml version="1.0" encoding="utf-8"?>
<!-- Generator: Adobe Illustrator 17.1.0, SVG Export Plug-In . SVG Version: 6.00 Build 0)  -->
<!DOCTYPE svg PUBLIC "-//W3C//DTD SVG 1.1//EN" "http://www.w3.org/Graphics/SVG/1.1/DTD/svg11.dtd">
<svg version="1.1" id="Layer_1" xmlns="http://www.w3.org/2000/svg" xmlns:xlink="http://www.w3.org/1999/xlink" x="0px" y="0px"
	 viewBox="206 386 612 612" enable-background="new 206 386 612 612" xml:space="preserve">
<polygon fill="none" points="206,386 818,386 818,998 206,998 "/>
<path fill="#FFFFFF" d="M273,464h28.2c3.1,0,5.5-2.4,5.5-5.5s-2.4-5.5-5.5-5.5H273V464L273,464z M301.2,441.7
	c9.2,0,16.5,7.3,16.5,16.8c0,4.3-1.5,8.3-4.3,11c2.8,3.1,4.3,6.7,4.3,11v16.8h-11v-16.8c0-3.1-2.4-5.5-5.5-5.5H273v22.3h-11v-55.7
	H301.2L301.2,441.7z"/>
<path fill="#FFFFFF" d="M429.1,441.7v36.7c0,9.5-6.4,19-16.5,19h-22.3c-10.1,0-16.8-9.5-16.8-19v-36.7h11v36.7
	c0,5.2,3.4,7.6,5.5,7.6h22.3c2.1,0,5.5-2.4,5.5-7.6v-36.7H429.1L429.1,441.7z"/>
<path fill="#FFFFFF" d="M495.2,464h28.2c3.1,0,5.5-2.4,5.5-5.5s-2.4-5.5-5.5-5.5h-28.2V464L495.2,464z M523.3,475h-28.2v11h28.2
	c3.1,0,5.5-2.4,5.5-5.5C528.8,477.5,526.4,475,523.3,475L523.3,475z M495.2,441.7h28.2c9.2,0,16.8,7.3,16.8,16.8
	c0,4.3-1.5,8.3-4.3,11c2.8,3.1,4.3,6.7,4.3,11c0,9.2-7.3,16.8-16.8,16.8h-28.2h-11.3v-55.7H495.2L495.2,441.7z"/>
<polygon fill="#FFFFFF" points="606.6,486.1 650.9,486.1 650.9,497.4 595.5,497.4 595.5,441.7 650.9,441.7 650.9,452.7 606.6,452.7 
	606.6,464 639.9,464 639.9,475 606.6,475 "/>
<polygon fill="#FFFFFF" points="751,481.5 751,441.7 762.3,441.7 762.3,497.4 749.5,497.4 717.9,457.6 717.9,497.4 706.6,497.4 
	706.6,441.7 719.5,441.7 "/>
<polygon fill="#FFFFFF" points="751,592.5 751,552.8 762.3,552.8 762.3,608.5 749.5,608.5 717.9,568.7 717.9,608.5 706.6,608.5 
	706.6,552.8 719.5,552.8 "/>
<polygon fill="#FFFFFF" points="595.5,552.8 650.9,552.8 650.9,564.1 628.9,564.1 628.9,597.4 650.9,597.4 650.9,608.5 595.5,608.5 
	595.5,597.4 617.6,597.4 617.6,564.1 595.5,564.1 "/>
<polygon fill="#FFFFFF" points="495.2,597.4 539.8,597.4 539.8,608.5 484.2,608.5 484.2,552.8 539.8,552.8 539.8,564.1 495.2,564.1 
	495.2,575.1 528.5,575.1 528.5,586.4 495.2,586.4 "/>
<polygon fill="#FFFFFF" points="373.4,552.8 428.8,552.8 428.8,564.1 406.7,564.1 406.7,608.5 395.4,608.5 395.4,564.1 373.4,564.1 
	"/>
<path fill="#FFFFFF" d="M261.7,597.4h39.5c3.1,0,5.5-2.4,5.5-5.5s-2.4-5.5-5.5-5.5h-22.6c-9.2,0-16.8-7.3-16.8-16.5
	s7.3-16.5,16.8-16.5h38.2v11h-38.2c-3.1,0-5.5,2.4-5.5,5.5s2.4,5.5,5.5,5.5h22.6c9.2,0,16.8,7.3,16.8,16.8c0,9.2-7.3,16.8-16.8,16.8
	h-39.5V597.4L261.7,597.4z"/>
<polygon fill="#FFFFFF" points="262,664.5 317.7,664.5 317.7,675.5 295.4,675.5 295.4,719.8 284.3,719.8 284.3,675.5 262,675.5 "/>
<polygon fill="#FFFFFF" points="751,704.2 751,664.5 762.3,664.5 762.3,720.2 749.5,720.2 717.9,680.4 717.9,720.2 706.6,720.2 
	706.6,664.5 719.5,664.5 "/>
<polygon fill="#FFFFFF" points="384.4,707.9 428.8,707.9 428.8,719.2 373.4,719.2 373.4,663.5 428.8,663.5 428.8,674.6 384.4,674.6 
	384.4,685.9 417.8,685.9 417.8,696.9 384.4,696.9 "/>
<path fill="#FFFFFF" d="M539.8,719.2h-37c-9.5,0-19-6.7-19-16.8v-22.3c0-10.1,9.5-16.8,19-16.8h37.3v11h-37.3
	c-5.2,0-7.7,3.4-7.7,5.5v22.3c0,2.1,2.4,5.5,7.7,5.5h37.3v11.6L539.8,719.2L539.8,719.2z"/>
<polygon fill="#FFFFFF" points="595.5,719.2 595.5,663.5 606.6,663.5 606.6,685.9 639.9,685.9 639.9,663.5 650.9,663.5 650.9,719.2 
	639.9,719.2 639.9,696.9 606.6,696.9 606.6,719.2 "/>
<path fill="#FFFFFF" d="M280.4,785.9c-5.2,0-7.6,3.4-7.6,5.5v23.3c0,2.1,2.4,5.5,7.6,5.5H299c5.2,0,7.6-3.4,7.6-5.5v-23.3
	c0-2.1-2.4-5.5-7.6-5.5H280.4L280.4,785.9z M280.4,831.2c-9.5,0-19-6.4-19-16.5v-23.3c0-10.1,9.5-16.5,19-16.5H299
	c9.5,0,19,6.4,19,16.5v23.3c0,10.1-9.5,16.5-19,16.5H280.4L280.4,831.2z"/>
<path fill="#FFFFFF" d="M762.3,775.2v13.5c0,9.5-6.4,19-16.5,19H740v23.6h-11v-23.6h-5.8c-10.1,0-16.5-9.5-16.5-19v-13.5h11v13.5
	c0,5.2,3.4,7.7,5.5,7.7h22.3c2.1,0,5.5-2.4,5.5-7.7v-13.5H762.3L762.3,775.2z"/>
<polygon fill="#FFFFFF" points="428.5,830.9 373.7,830.9 373.7,775.2 384.7,775.2 384.7,819.9 428.5,819.9 "/>
<path fill="#FFFFFF" d="M502.8,785.9c-5.2,0-7.7,3.4-7.7,5.5v23.3c0,2.1,2.4,5.5,7.7,5.5h18.7c5.2,0,7.6-3.4,7.6-5.5v-23.3
	c0-2.1-2.4-5.5-7.6-5.5H502.8L502.8,785.9z M502.8,831.2c-9.5,0-19-6.4-19-16.5v-23.3c0-10.1,9.5-16.5,19-16.5h18.7
	c9.5,0,19,6.4,19,16.5v23.3c0,10.1-9.5,16.5-19,16.5H502.8L502.8,831.2z"/>
<path fill="#FFFFFF" d="M717.6,897.6v11h28.2c3.1,0,5.5-2.4,5.5-5.5s-2.4-5.5-5.5-5.5L717.6,897.6L717.6,897.6z M717.6,942h-11
	v-55.7h11h28.2c9.2,0,16.5,7.7,16.5,16.8s-7.3,16.5-16.5,16.5h-28.2V942L717.6,942z"/>
<path fill="#FFFFFF" d="M651.2,886.6v37.6c0,9.5-6.4,19-16.8,19h-22.3c-10.1,0-16.5-9.5-16.5-19v-37.6h11v37.6c0,5.2,3.4,8,5.5,8
	h22.3c2.1,0,5.5-2.4,5.5-8v-37.6H651.2L651.2,886.6z"/>
<path fill="#FFFFFF" d="M502.8,897.3c-5.2,0-7.7,3.4-7.7,5.5v23c0,2.1,2.4,5.8,7.7,5.8h18.7c5.2,0,7.6-3.7,7.6-5.8v-23
	c0-2.1-2.4-5.5-7.6-5.5H502.8L502.8,897.3z M502.8,942.6c-9.5,0-19-7-19-17.1v-23c0-10.1,9.5-16.5,19-16.5h18.7
	c9.5,0,19,6.7,19,16.5v23c0,10.1-9.5,17.1-19,17.1H502.8L502.8,942.6z"/>
<path fill="#FFFFFF" d="M384.1,909h28.2c3.1,0,5.5-2.4,5.5-5.5s-2.4-5.5-5.5-5.5h-28.2V909L384.1,909z M384.1,886.6h28.2
	c9.2,0,16.8,7.7,16.8,16.8c0,4.3-1.5,8.3-4.3,11c2.8,3.1,4.3,6.7,4.3,11.3v16.8h-11v-16.8c0-3.1-2.4-5.5-5.5-5.5h-28.2v22.3h-11
	v-55.7h10.7V886.6z"/>
<path fill="#FFFFFF" d="M298.4,942.6h-17.7c-9.8-0.3-19-6.7-19-16.5v-23.6c0-10.1,9.5-16.5,19-16.5H318v11h-37.3
	c-5.2,0-7.6,3.4-7.6,5.5v23.6c0,2.1,2.4,5.5,7.3,5.5h18.4h0.9c3.1,0,7.3-1.2,7.3-4.3v-8.9h-22.3V908H307h11v19.3
	c0,9.2-9.2,15.3-18.4,15.3H298.4L298.4,942.6z"/>
<path fill="#FFFFFF" d="M632,831.8h-17.7c-9.8-0.3-19-6.7-19-16.5v-23.6c0-10.1,9.5-16.5,19-16.5h37.3v11h-37.3
	c-5.2,0-7.6,3.4-7.6,5.5v23.6c0,2.1,2.4,5.5,7.3,5.5h18.4h0.9c3.1,0,7.3-1.2,7.3-4.3v-8.9h-22.3v-10.4h22.3h11v19.3
	c0,9.2-9.2,15.3-18.4,15.3H632L632,831.8z"/>
</svg>
