<?xml version="1.0" encoding="utf-8"?>
<!-- Generator: Adobe Illustrator 17.1.0, SVG Export Plug-In . SVG Version: 6.00 Build 0)  -->
<!DOCTYPE svg PUBLIC "-//W3C//DTD SVG 1.1//EN" "http://www.w3.org/Graphics/SVG/1.1/DTD/svg11.dtd">
<svg version="1.1" id="Layer_1" xmlns="http://www.w3.org/2000/svg" xmlns:xlink="http://www.w3.org/1999/xlink" x="0px" y="0px"
	 viewBox="0 318.4 612 155.1" enable-background="new 0 318.4 612 155.1" xml:space="preserve">
<g id="Layer_3" display="none">
	<rect x="-26.9" y="283.9" display="inline" fill="#404041" width="655.2" height="223.5"/>
	<g display="inline">
		<path fill="#FFFFFF" d="M265.1,376.8c-0.7,1.9-1.6,3.8-2.7,5.7c-1.8-0.9-3.7-1.6-5.7-2.2c-2-0.6-4.4-0.9-7.6-0.9
			c-1.2,0-2.4,0.1-3.7,0.3c-1.3,0.2-2.5,0.6-3.5,1.1c-1.1,0.6-1.9,1.3-2.6,2.2c-0.7,1-1.1,2.2-1.1,3.7c0,2.1,0.8,4,2.4,5.4
			s3.5,2.8,6,4.2c2.1,1.2,4.2,2.4,6,3.6c1.8,1.2,3.5,2.6,4.9,4c1.4,1.4,2.5,3,3.3,4.8c0.8,1.7,1.2,3.8,1.2,6.1
			c0,3.2-0.6,6.3-1.8,9.4c-1.2,3-3,5.6-5.4,7.8c-2.5,2.2-5.6,4-9.3,5.4c-3.8,1.3-8.2,2-13.4,2c-6,0-11.9-1.2-17.7-3.4
			c0.2-1.9,0.7-3.9,1.4-5.8c0.7-2,1.5-4,2.5-6.1c2.4,0.9,4.9,1.6,7.4,2.3s4.9,1,7.3,1c2,0,3.8-0.2,5.5-0.7c1.6-0.4,3.1-1.2,4.4-2
			c1.2-0.9,2.2-2,2.9-3.3c0.7-1.3,1.1-2.8,1.1-4.4c0-1.3-0.3-2.4-0.9-3.4c-0.6-1-1.3-1.8-2.2-2.6c-0.9-0.7-2-1.5-3.1-2.1
			c-1.2-0.7-2.4-1.4-3.6-2.1c-4.1-2.5-7.3-4.9-9.7-7.5c-2.4-2.6-3.6-5.6-3.6-9.1c0-3.5,0.6-6.5,1.8-9.2s3-5,5.2-6.8
			c2.2-1.8,4.9-3.3,8.1-4.3s6.7-1.5,10.6-1.5c3.5,0,6.5,0.2,9.1,0.7c2.6,0.5,5.3,1.3,8.1,2.4C266.1,373.1,265.6,374.9,265.1,376.8
			L265.1,376.8z M308.9,407.3c-1.3,2.1-3.1,3.9-5.4,5.4s-4.8,2.6-7.6,3.6c-2.8,0.9-5.8,1.6-8.8,2.1l-6.4,1.1c0.4,3,1.4,5.4,3,6.8
			c1.6,1.5,4.1,2.2,7.2,2.2c2.6,0,4.8-0.2,6.8-0.8c2-0.5,4-1.2,6.2-2.1c1,1.2,1.7,2.8,2.1,4.6c0.3,1.8,0.5,3.8,0.5,5.8
			c-1.1,0.5-2.3,1-3.8,1.4c-1.4,0.4-2.9,0.7-4.4,1.1s-3,0.5-4.6,0.7s-2.9,0.2-4.1,0.2c-3.9,0-7.2-0.5-10-1.4c-2.8-1-5-2.3-6.9-4
			c-1.8-1.7-3.1-3.9-4-6.4c-0.8-2.5-1.3-5.3-1.3-8.4c0-3.9,0.7-7.7,2-11.4c1.3-3.8,3.2-7.2,5.7-10.1s5.4-5.4,9-7.2
			c3.5-1.8,7.5-2.7,11.9-2.7c2.1,0,4,0.2,5.8,0.7c1.8,0.5,3.4,1.3,4.8,2.3c1.3,1.1,2.4,2.3,3.1,3.9c0.7,1.6,1.2,3.3,1.2,5.4
			C310.9,402.7,310.2,405.2,308.9,407.3L308.9,407.3z M296.8,398.6c-0.8-0.7-1.9-1.2-3.2-1.2c-1.6,0-3.2,0.4-4.5,1.1
			c-1.4,0.7-2.6,1.7-3.6,2.9c-1,1.2-1.9,2.6-2.6,4.2c-0.7,1.6-1.3,3.1-1.6,4.8l4.9-0.7c2.4-0.4,4.4-0.9,5.9-1.5
			c1.6-0.6,2.7-1.2,3.6-2s1.5-1.5,1.8-2.2c0.3-0.7,0.5-1.6,0.5-2.3C297.9,400.3,297.5,399.3,296.8,398.6L296.8,398.6z M361.1,403.3
			c-0.2,1.1-0.3,2.2-0.5,3.5l-5.5,31.4c-2.4,0.4-4.8,0.6-7,0.6s-4.4-0.2-6.6-0.6l5.4-30.3c0.2-1.2,0.4-2.5,0.4-3.6
			c0-1.9-0.4-3.2-1.2-4c-0.8-0.7-2-1.2-3.5-1.2c-0.9,0-1.9,0.2-3,0.7c-1.2,0.5-2.2,1.4-3.4,2.8c-1.2,1.5-2.3,3.5-3.4,6.1
			c-1.1,2.6-2,6-2.8,10.3l-3.5,19.3c-2.5,0.4-4.8,0.6-7,0.6s-4.4-0.2-6.6-0.6l5.2-28.3c0.7-4,1.2-7.6,1.6-10.6
			c0.3-3.1,0.5-5.5,0.5-7.2c0-0.7,0-1.3,0-1.8s0-1-0.1-1.6c2.1-0.4,4.2-0.6,6.3-0.6c1,0,1.9,0.1,2.9,0.2s2,0.2,3,0.4
			c0.2,0.5,0.2,1.1,0.4,1.8c0.1,0.7,0.2,1.7,0.2,3.1c0,0.6,0,1.2-0.1,1.7c0,0.6-0.1,1.2-0.2,2.1c0.7-1.3,1.7-2.6,2.9-3.8
			c1.2-1.2,2.5-2.3,4-3.1c1.5-0.9,3-1.6,4.8-2.1c1.6-0.5,3.4-0.7,5.1-0.7c3.8,0,6.8,1,9,3c2.1,2,3.2,5.2,3.2,9.7
			C361.3,401.1,361.2,402.2,361.1,403.3L361.1,403.3z M415.1,382l-6.3,34.7c-0.7,4-1.2,7.6-1.6,10.6c-0.3,3.1-0.5,5.5-0.5,7.2
			c0,0.7,0,1.3,0,1.8c0,0.5,0,1,0.1,1.6c-2.1,0.4-4.2,0.6-6.3,0.6c-1.8,0-3.8-0.2-5.9-0.6c-0.2-0.5-0.2-1.2-0.4-1.8
			c-0.2-0.7-0.2-1.7-0.2-3.1c0-0.6,0-1.2,0.1-2c0-0.7,0.1-1.6,0.2-2.4c-0.9,1.5-2,2.9-3.2,4.2s-2.6,2.5-4.1,3.4
			c-1.5,1-3.1,1.7-4.9,2.3c-1.7,0.6-3.5,0.9-5.4,0.9c-4.2,0-7.3-1.3-9.5-4c-2.1-2.7-3.1-6.3-3.1-10.6c0-4.8,0.7-9.4,2.1-13.9
			c1.4-4.4,3.5-8.4,6.4-11.9c2.8-3.5,6.3-6.2,10.5-8.2c4.2-2.1,9.1-3.1,14.7-3.1c0.4,0,0.9,0,1.3,0.1c0.4,0,0.8,0,1.1,0
			c0.7-3.8,1.2-6.9,1.5-9.6c0.2-2.6,0.4-4.8,0.4-6.5c0-0.7,0-1.3-0.1-1.7c0-0.5-0.1-1-0.2-1.6c1.1-0.2,2.3-0.3,3.7-0.4
			c1.4-0.1,2.6-0.2,3.6-0.2c1.9,0,3.9,0.2,6.1,0.6c0.3,1,0.5,2.1,0.5,3.6C416.3,374.6,415.9,378,415.1,382L415.1,382z M397,398.7
			c-0.6,0-1.1-0.1-1.6-0.1c-3,0-5.7,0.7-7.8,2.3c-2.1,1.6-3.9,3.5-5.4,5.8c-1.4,2.3-2.4,4.8-3,7.4c-0.7,2.6-1,5.1-1,7.2
			c0,4.7,1.6,7.1,4.7,7.1c3,0,5.9-1.8,8.5-5.6c2.6-3.7,4.5-9,5.8-15.7l1.4-8.2C398.1,398.8,397.6,398.7,397,398.7L397,398.7z
			 M469.9,376.5c-0.6,1.7-1.5,3.6-2.6,5.6c-2-0.8-3.8-1.4-5.4-1.6c-1.6-0.2-3.3-0.4-4.9-0.4c-4.3,0-7.9,0.9-11,2.8
			c-3,1.8-5.5,4.3-7.5,7.2c-2,3-3.4,6.3-4.3,10.1c-0.9,3.8-1.4,7.6-1.4,11.4c0,5.5,1.3,9.5,4,11.9c2.7,2.4,6.3,3.5,10.8,3.5
			c0.9,0,1.9-0.1,3-0.2c1.1-0.1,1.9-0.2,2.5-0.3l4.2-24c1.3-0.2,2.5-0.4,3.6-0.5c1.2-0.1,2.3-0.2,3.4-0.2c1.1,0,2.2,0.1,3.4,0.2
			c1.2,0.1,2.3,0.2,3.5,0.5l-6,34.1c-2.8,0.9-5.9,1.6-9.5,2.1c-3.5,0.4-6.8,0.7-9.9,0.7c-4.6,0-8.7-0.7-12.3-2
			c-3.5-1.3-6.4-3.2-8.8-5.5c-2.4-2.4-4.1-5.2-5.3-8.4c-1.2-3.2-1.8-6.8-1.8-10.5c0-6.2,0.9-12,2.8-17.4c1.8-5.4,4.4-10.1,7.8-14.2
			c3.4-4,7.4-7.2,12.1-9.6c4.7-2.3,10-3.5,15.7-3.5c3,0,5.7,0.2,8.1,0.6c2.4,0.4,4.8,1.2,7.2,2.2
			C471.1,372.9,470.6,374.8,469.9,376.5L469.9,376.5z M509.1,395.7c-0.4,1.9-1.1,3.5-1.8,4.8c-0.4-0.1-0.8-0.2-1.2-0.2
			c-0.4-0.1-1-0.1-1.7-0.1c-2.6,0-4.8,0.5-6.4,1.3c-1.7,0.9-3.1,2.1-4.2,3.8c-1.1,1.6-2,3.6-2.6,5.8c-0.7,2.3-1.2,4.9-1.7,7.7
			l-3.5,19.3c-2.5,0.4-4.9,0.6-7,0.6c-2.2,0-4.4-0.2-6.6-0.6l5.2-28.3c0.7-4,1.2-7.6,1.6-10.6c0.3-3.1,0.5-5.5,0.5-7.2
			c0-0.7,0-1.3,0-1.8c0-0.5,0-1-0.1-1.6c2.1-0.4,4.2-0.6,6.3-0.6c1,0,1.9,0.1,2.9,0.2s2,0.2,3,0.4c0.2,0.5,0.2,1.1,0.4,1.8
			c0.1,0.7,0.2,1.7,0.2,3.1c0,0.6,0,1.2,0,1.7s-0.1,1.2-0.2,2.1c0.7-1.2,1.5-2.3,2.4-3.4c1-1.2,2.1-2.1,3.2-3c1.2-0.9,2.5-1.6,4-2.1
			c1.4-0.6,3-0.8,4.7-0.8c1.3,0,2.5,0.2,3.5,0.5c0.1,0.2,0.1,0.5,0.1,0.7s0,0.6,0,0.9C509.8,392,509.5,393.8,509.1,395.7
			L509.1,395.7z M537.5,374c-0.4,2.1-1,4.1-1.7,6.3c-1.2,0.2-2.3,0.3-3.6,0.4c-1.2,0.1-2.4,0.1-3.4,0.1s-2.1,0-3.4-0.1
			s-2.4-0.2-3.5-0.4c-0.1-2.2,0.1-4.4,0.4-6.3c0.3-2,0.9-4.1,1.6-6.3c1.2-0.2,2.4-0.4,3.6-0.5s2.4-0.2,3.5-0.2c1,0,2.1,0.1,3.4,0.2
			c1.2,0.1,2.4,0.2,3.5,0.5C538,369.8,537.8,372,537.5,374L537.5,374z M525.6,438.1c-2.4,0.4-4.7,0.6-6.9,0.6c-2,0-4.1-0.2-6.4-0.6
			l6.9-39.1h-6c0-0.2,0-0.4-0.1-0.6c0-0.2-0.1-0.4-0.1-0.7c0-1.6,0.2-3.2,0.5-4.6c0.3-1.4,0.8-2.9,1.4-4.4h19.4L525.6,438.1
			L525.6,438.1z M585.7,382l-6.2,34.7c-0.7,4-1.2,7.6-1.6,10.6c-0.3,3.1-0.5,5.5-0.5,7.2c0,0.7,0,1.3,0,1.8c0,0.5,0,1,0.1,1.6
			c-2.1,0.4-4.2,0.6-6.2,0.6c-1.8,0-3.8-0.2-5.9-0.6c-0.2-0.5-0.2-1.2-0.4-1.8c-0.2-0.7-0.2-1.7-0.2-3.1c0-0.6,0-1.2,0.1-2
			c0-0.7,0.1-1.6,0.2-2.4c-0.9,1.5-2,2.9-3.2,4.2s-2.6,2.5-4.1,3.4c-1.5,1-3.1,1.7-4.9,2.3c-1.7,0.6-3.5,0.9-5.4,0.9
			c-4.2,0-7.4-1.3-9.5-4c-2.1-2.7-3.1-6.3-3.1-10.6c0-4.8,0.7-9.4,2.1-13.9c1.5-4.4,3.5-8.4,6.4-11.9c2.8-3.5,6.3-6.2,10.5-8.2
			c4.2-2.1,9.1-3.1,14.7-3.1c0.4,0,0.9,0,1.3,0.1c0.4,0,0.7,0,1.1,0c0.7-3.8,1.2-6.9,1.5-9.6c0.3-2.6,0.4-4.8,0.4-6.5
			c0-0.7,0-1.3-0.1-1.7c0-0.5-0.1-1-0.2-1.6c1.1-0.2,2.3-0.3,3.7-0.4c1.4-0.1,2.6-0.2,3.6-0.2c1.8,0,3.9,0.2,6.1,0.6
			c0.3,1,0.5,2.1,0.5,3.6C586.9,374.6,586.5,378,585.7,382L585.7,382z M567.6,398.7c-0.6,0-1.1-0.1-1.6-0.1c-3,0-5.7,0.7-7.8,2.3
			s-3.9,3.5-5.3,5.8c-1.4,2.3-2.4,4.8-3,7.4s-1,5.1-1,7.2c0,4.7,1.6,7.1,4.7,7.1c3,0,5.9-1.8,8.6-5.6c2.6-3.7,4.5-9,5.8-15.7
			l1.5-8.2C568.7,398.8,568.2,398.7,567.6,398.7L567.6,398.7z"/>
		<g>
			<path fill="#FFFFFF" d="M189.9,388.1c0-0.1-0.1-0.2-0.1-0.2c-0.4-1.1-0.9-2.1-1.3-3.2c-0.9-1.2-1.9-2-3-2.7
				c-0.5-0.3-1-0.6-1.5-0.8c-0.3-0.2-0.7-0.2-1-0.4c-2.1-0.7-4.2-1-6.1-1c-4.9,0-10.4,1.6-15.2,4.5c-15.8,9.4-31.1,31.5-38.2,42.7
				l0.4-0.3l-3,4.8c12.4-0.4,40.8-1.3,56-11.7C194.6,406.3,191.4,392.3,189.9,388.1z"/>
			<path fill="#FFFFFF" d="M32,409.1c17.3-10.3,35.1-37,41-47.1c-15.9,0.3-41.8,2.5-56.1,11.9c-9.7,6.2-17.3,20.2-13.1,31.3
				c0.1,0.1,0.1,0.2,0.2,0.2c0.4,1.1,0.9,2.2,1.4,3.4c3.1,3.9,7.7,4.8,11.4,4.8C21.7,413.7,27.2,412,32,409.1z"/>
			<path fill="#FFFFFF" d="M135,405.5c-13-4.4-27.2-8.6-39.2-12.8c-0.2-9.5-0.4-21.1-0.7-31.5c0-0.5,0-1,0-1.5c0-0.5,0-1-0.1-1.6
				c-0.2-9.1-0.6-17.1-0.8-21.9c-6.3,7.8-11.9,16.2-15.8,22.8c-0.3,0.5-0.7,1-0.9,1.5c-0.2,0.2-0.3,0.5-0.4,0.7c0,0-0.2,0.2-0.4,0.7
				c-1.7,3-8.6,14.5-18,26.2c0.2,0.4,15.4,25.8,27.4,45.6c0.2,0.5,0.6,0.9,0.8,1.4c0.3,0.5,0.6,1,0.8,1.4
				c6.1,10.1,11.1,18.4,12.3,20.3l-41.2-13l-2.1-0.7l-2.1-0.7l-1.8-0.6c1.7-15.7,4.6-48.7,5.8-53.8c-7.2,9.1-16.1,18.2-25,23.6
				c-5.3,3.1-11.4,4.9-16.8,4.9c-3.3,0-6.3-0.7-8.8-1.9c-0.2-0.2-0.5-0.2-0.7-0.4c8.2,17.9,20.7,39.3,32,54.5
				c1.1,1.5,2.1,2.9,3.2,4.2l0.1,0.1c4.4,5.3,11,8.2,18.7,8.2c4.9,0,10.1-1.2,15.6-3.5c16.8-8.2,32-32.7,38.5-43.2
				c0-0.1,0.1-0.1,0.1-0.2c0.3-0.6,0.7-1.2,1-1.6c0.2-0.2,0.2-0.3,0.3-0.6l0,0c0.1-0.2,0.2-0.6,0.5-1c0.6-1,1.5-2.6,3.1-5.1
				c2.1-3.4,5.5-8.6,9.7-14.3C131.5,410,133.2,407.7,135,405.5z"/>
			<path fill="#FFFFFF" d="M107.7,358.1c0.2,0.5,0.5,0.9,0.8,1.4c10,17.3,22.5,38.6,26.7,46c7-8.7,16-18.4,25.1-23.8
				c5.3-3.1,11.4-4.9,16.8-4.9c1.6,0,3,0.2,4.4,0.4l0,0c0,0,0,0-0.1-0.1c-12.1-7.4-28.7-17.2-37.5-22.9c0.3-2.2,0.6-4.4,0.9-6.7
				c0.1-0.7,0.2-1.4,0.2-2.1c0.1-0.7,0.2-1.5,0.2-2.2c1-7.7,1.9-15.1,2.6-20.9c1.9,2.5,3.7,5,5.6,7.7c0.4,0.6,0.8,1.2,1.2,1.7
				c0.3,0.5,0.7,1.1,1.1,1.6c0.2,0.2,0.3,0.5,0.5,0.7c8.5,12.5,25.3,43.2,25.3,43.2l1.8,0.5c0.8,0.2,1.6,0.6,2.3,1
				c0,0,0.1,0,0.1,0.1c-3.3-7.1-7.2-14.7-11.5-22.3c-5.5-9.6-11.6-19.4-17.7-28.1c-0.6-0.8-1.2-1.6-1.7-2.4c-1.3-1.8-2.6-3.6-4-5.3
				c-0.7-1-1.6-2.1-2.3-3c-0.1-0.1-0.2-0.2-0.2-0.2l0,0c-4.1-3.3-9.9-5.1-16.4-5.1c-5.3,0-10.7,1.2-14.8,3.4
				c-8,4-15.8,11.8-22.7,20.2c1.5,2.5,6.3,10.8,12.2,21C107.1,357.2,107.3,357.7,107.7,358.1z"/>
		</g>
		<g>
			<path fill="#FFFFFF" d="M594.5,376.5c-2.4,0-4.2-1.8-4.2-4.2c0-2.7,1.8-4.4,4.7-4.4c2.4,0,4.1,1.7,4.1,4.1
				C599.1,374.8,597.3,376.5,594.5,376.5z M594.7,368.9c-1.8,0-3.3,1.2-3.3,3.2c0,2.1,1.3,3.4,3.3,3.4c1.7,0,3.1-1.2,3.1-3.3
				C597.9,370.2,596.5,368.9,594.7,368.9z M595.4,374.4l-1.2-1.6v1c0,0,0,0.2,0.1,0.7h-1.3v-3.7l-0.1-0.8h1.6c0.9,0,1.8,0.5,1.8,1.5
				c0,0.5-0.3,1.1-0.9,1.3l1.6,1.8L595.4,374.4L595.4,374.4z M594.4,372.1c0.4,0,0.8-0.2,0.8-0.8c0-0.6-0.4-0.7-0.8-0.7h-0.1
				L594.4,372.1L594.4,372.1z"/>
		</g>
	</g>
</g>
<g id="Layer_5" display="none">
	<g display="inline">
		<path fill="#2A79BD" d="M265.1,376.8c-0.7,1.9-1.6,3.8-2.7,5.7c-1.8-0.9-3.7-1.6-5.7-2.2c-2-0.6-4.4-0.9-7.6-0.9
			c-1.2,0-2.4,0.1-3.7,0.3c-1.3,0.2-2.5,0.6-3.5,1.1c-1.1,0.6-1.9,1.3-2.6,2.2c-0.7,1-1.1,2.2-1.1,3.7c0,2.1,0.8,4,2.4,5.4
			s3.5,2.8,6,4.2c2.1,1.2,4.2,2.4,6,3.6c1.8,1.2,3.5,2.6,4.9,4c1.4,1.4,2.5,3,3.3,4.8c0.8,1.7,1.2,3.8,1.2,6.1
			c0,3.2-0.6,6.3-1.8,9.4c-1.2,3-3,5.6-5.4,7.8c-2.5,2.2-5.6,4-9.3,5.4c-3.8,1.3-8.2,2-13.4,2c-6,0-11.9-1.2-17.7-3.4
			c0.2-1.9,0.7-3.9,1.4-5.8c0.7-2,1.5-4,2.5-6.1c2.4,0.9,4.9,1.6,7.4,2.3s4.9,1,7.3,1c2,0,3.8-0.2,5.5-0.7c1.6-0.4,3.1-1.2,4.4-2
			c1.2-0.9,2.2-2,2.9-3.3c0.7-1.3,1.1-2.8,1.1-4.4c0-1.3-0.3-2.4-0.9-3.4c-0.6-1-1.3-1.8-2.2-2.6c-0.9-0.7-2-1.5-3.1-2.1
			c-1.2-0.7-2.4-1.4-3.6-2.1c-4.1-2.5-7.3-4.9-9.7-7.5c-2.4-2.6-3.6-5.6-3.6-9.1c0-3.5,0.6-6.5,1.8-9.2s3-5,5.2-6.8
			c2.2-1.8,4.9-3.3,8.1-4.3s6.7-1.5,10.6-1.5c3.5,0,6.5,0.2,9.1,0.7c2.6,0.5,5.3,1.3,8.1,2.4C266.1,373.1,265.6,374.9,265.1,376.8
			L265.1,376.8z M308.9,407.3c-1.3,2.1-3.1,3.9-5.4,5.4s-4.8,2.6-7.6,3.6c-2.8,0.9-5.8,1.6-8.8,2.1l-6.4,1.1c0.4,3,1.4,5.4,3,6.8
			c1.6,1.5,4.1,2.2,7.2,2.2c2.6,0,4.8-0.2,6.8-0.8c2-0.5,4-1.2,6.2-2.1c1,1.2,1.7,2.8,2.1,4.6c0.3,1.8,0.5,3.8,0.5,5.8
			c-1.1,0.5-2.3,1-3.8,1.4c-1.4,0.4-2.9,0.7-4.4,1.1s-3,0.5-4.6,0.7s-2.9,0.2-4.1,0.2c-3.9,0-7.2-0.5-10-1.4c-2.8-1-5-2.3-6.9-4
			c-1.8-1.7-3.1-3.9-4-6.4c-0.8-2.5-1.3-5.3-1.3-8.4c0-3.9,0.7-7.7,2-11.4c1.3-3.8,3.2-7.2,5.7-10.1s5.4-5.4,9-7.2
			c3.5-1.8,7.5-2.7,11.9-2.7c2.1,0,4,0.2,5.8,0.7c1.8,0.5,3.4,1.3,4.8,2.3c1.3,1.1,2.4,2.3,3.1,3.9c0.7,1.6,1.2,3.3,1.2,5.4
			C310.9,402.7,310.2,405.2,308.9,407.3L308.9,407.3z M296.8,398.6c-0.8-0.7-1.9-1.2-3.2-1.2c-1.6,0-3.2,0.4-4.5,1.1
			c-1.4,0.7-2.6,1.7-3.6,2.9c-1,1.2-1.9,2.6-2.6,4.2c-0.7,1.6-1.3,3.1-1.6,4.8l4.9-0.7c2.4-0.4,4.4-0.9,5.9-1.5
			c1.6-0.6,2.7-1.2,3.6-2s1.5-1.5,1.8-2.2c0.3-0.7,0.5-1.6,0.5-2.3C297.9,400.3,297.5,399.3,296.8,398.6L296.8,398.6z M361.1,403.3
			c-0.2,1.1-0.3,2.2-0.5,3.5l-5.5,31.4c-2.4,0.4-4.8,0.6-7,0.6s-4.4-0.2-6.6-0.6l5.4-30.3c0.2-1.2,0.4-2.5,0.4-3.6
			c0-1.9-0.4-3.2-1.2-4c-0.8-0.7-2-1.2-3.5-1.2c-0.9,0-1.9,0.2-3,0.7c-1.2,0.5-2.2,1.4-3.4,2.8c-1.2,1.5-2.3,3.5-3.4,6.1
			c-1.1,2.6-2,6-2.8,10.3l-3.5,19.3c-2.5,0.4-4.8,0.6-7,0.6s-4.4-0.2-6.6-0.6l5.2-28.3c0.7-4,1.2-7.6,1.6-10.6
			c0.3-3.1,0.5-5.5,0.5-7.2c0-0.7,0-1.3,0-1.8s0-1-0.1-1.6c2.1-0.4,4.2-0.6,6.3-0.6c1,0,1.9,0.1,2.9,0.2s2,0.2,3,0.4
			c0.2,0.5,0.2,1.1,0.4,1.8c0.1,0.7,0.2,1.7,0.2,3.1c0,0.6,0,1.2-0.1,1.7c0,0.6-0.1,1.2-0.2,2.1c0.7-1.3,1.7-2.6,2.9-3.8
			c1.2-1.2,2.5-2.3,4-3.1c1.5-0.9,3-1.6,4.8-2.1c1.6-0.5,3.4-0.7,5.1-0.7c3.8,0,6.8,1,9,3c2.1,2,3.2,5.2,3.2,9.7
			C361.3,401.1,361.2,402.2,361.1,403.3L361.1,403.3z M415.1,382l-6.3,34.7c-0.7,4-1.2,7.6-1.6,10.6c-0.3,3.1-0.5,5.5-0.5,7.2
			c0,0.7,0,1.3,0,1.8c0,0.5,0,1,0.1,1.6c-2.1,0.4-4.2,0.6-6.3,0.6c-1.8,0-3.8-0.2-5.9-0.6c-0.2-0.5-0.2-1.2-0.4-1.8
			c-0.2-0.7-0.2-1.7-0.2-3.1c0-0.6,0-1.2,0.1-2c0-0.7,0.1-1.6,0.2-2.4c-0.9,1.5-2,2.9-3.2,4.2s-2.6,2.5-4.1,3.4
			c-1.5,1-3.1,1.7-4.9,2.3c-1.7,0.6-3.5,0.9-5.4,0.9c-4.2,0-7.3-1.3-9.5-4c-2.1-2.7-3.1-6.3-3.1-10.6c0-4.8,0.7-9.4,2.1-13.9
			c1.4-4.4,3.5-8.4,6.4-11.9c2.8-3.5,6.3-6.2,10.5-8.2c4.2-2.1,9.1-3.1,14.7-3.1c0.4,0,0.9,0,1.3,0.1c0.4,0,0.8,0,1.1,0
			c0.7-3.8,1.2-6.9,1.5-9.6c0.2-2.6,0.4-4.8,0.4-6.5c0-0.7,0-1.3-0.1-1.7c0-0.5-0.1-1-0.2-1.6c1.1-0.2,2.3-0.3,3.7-0.4
			c1.4-0.1,2.6-0.2,3.6-0.2c1.9,0,3.9,0.2,6.1,0.6c0.3,1,0.5,2.1,0.5,3.6C416.3,374.6,415.9,378,415.1,382L415.1,382z M397,398.7
			c-0.6,0-1.1-0.1-1.6-0.1c-3,0-5.7,0.7-7.8,2.3c-2.1,1.6-3.9,3.5-5.4,5.8c-1.4,2.3-2.4,4.8-3,7.4c-0.7,2.6-1,5.1-1,7.2
			c0,4.7,1.6,7.1,4.7,7.1c3,0,5.9-1.8,8.5-5.6c2.6-3.7,4.5-9,5.8-15.7l1.4-8.2C398.1,398.8,397.6,398.7,397,398.7L397,398.7z
			 M469.9,376.5c-0.6,1.7-1.5,3.6-2.6,5.6c-2-0.8-3.8-1.4-5.4-1.6c-1.6-0.2-3.3-0.4-4.9-0.4c-4.3,0-7.9,0.9-11,2.8
			c-3,1.8-5.5,4.3-7.5,7.2c-2,3-3.4,6.3-4.3,10.1c-0.9,3.8-1.4,7.6-1.4,11.4c0,5.5,1.3,9.5,4,11.9c2.7,2.4,6.3,3.5,10.8,3.5
			c0.9,0,1.9-0.1,3-0.2c1.1-0.1,1.9-0.2,2.5-0.3l4.2-24c1.3-0.2,2.5-0.4,3.6-0.5c1.2-0.1,2.3-0.2,3.4-0.2c1.1,0,2.2,0.1,3.4,0.2
			c1.2,0.1,2.3,0.2,3.5,0.5l-6,34.1c-2.8,0.9-5.9,1.6-9.5,2.1c-3.5,0.4-6.8,0.7-9.9,0.7c-4.6,0-8.7-0.7-12.3-2
			c-3.5-1.3-6.4-3.2-8.8-5.5c-2.4-2.4-4.1-5.2-5.3-8.4c-1.2-3.2-1.8-6.8-1.8-10.5c0-6.2,0.9-12,2.8-17.4c1.8-5.4,4.4-10.1,7.8-14.2
			c3.4-4,7.4-7.2,12.1-9.6c4.7-2.3,10-3.5,15.7-3.5c3,0,5.7,0.2,8.1,0.6c2.4,0.4,4.8,1.2,7.2,2.2
			C471.1,372.9,470.6,374.8,469.9,376.5L469.9,376.5z M509.1,395.7c-0.4,1.9-1.1,3.5-1.8,4.8c-0.4-0.1-0.8-0.2-1.2-0.2
			c-0.4-0.1-1-0.1-1.7-0.1c-2.6,0-4.8,0.5-6.4,1.3c-1.7,0.9-3.1,2.1-4.2,3.8c-1.1,1.6-2,3.6-2.6,5.8c-0.7,2.3-1.2,4.9-1.7,7.7
			l-3.5,19.3c-2.5,0.4-4.9,0.6-7,0.6c-2.2,0-4.4-0.2-6.6-0.6l5.2-28.3c0.7-4,1.2-7.6,1.6-10.6c0.3-3.1,0.5-5.5,0.5-7.2
			c0-0.7,0-1.3,0-1.8c0-0.5,0-1-0.1-1.6c2.1-0.4,4.2-0.6,6.3-0.6c1,0,1.9,0.1,2.9,0.2s2,0.2,3,0.4c0.2,0.5,0.2,1.1,0.4,1.8
			c0.1,0.7,0.2,1.7,0.2,3.1c0,0.6,0,1.2,0,1.7s-0.1,1.2-0.2,2.1c0.7-1.2,1.5-2.3,2.4-3.4c1-1.2,2.1-2.1,3.2-3c1.2-0.9,2.5-1.6,4-2.1
			c1.4-0.6,3-0.8,4.7-0.8c1.3,0,2.5,0.2,3.5,0.5c0.1,0.2,0.1,0.5,0.1,0.7s0,0.6,0,0.9C509.8,392,509.5,393.8,509.1,395.7
			L509.1,395.7z M537.5,374c-0.4,2.1-1,4.1-1.7,6.3c-1.2,0.2-2.3,0.3-3.6,0.4c-1.2,0.1-2.4,0.1-3.4,0.1s-2.1,0-3.4-0.1
			s-2.4-0.2-3.5-0.4c-0.1-2.2,0.1-4.4,0.4-6.3c0.3-2,0.9-4.1,1.6-6.3c1.2-0.2,2.4-0.4,3.6-0.5s2.4-0.2,3.5-0.2c1,0,2.1,0.1,3.4,0.2
			c1.2,0.1,2.4,0.2,3.5,0.5C538,369.8,537.8,372,537.5,374L537.5,374z M525.6,438.1c-2.4,0.4-4.7,0.6-6.9,0.6c-2,0-4.1-0.2-6.4-0.6
			l6.9-39.1h-6c0-0.2,0-0.4-0.1-0.6c0-0.2-0.1-0.4-0.1-0.7c0-1.6,0.2-3.2,0.5-4.6c0.3-1.4,0.8-2.9,1.4-4.4h19.4L525.6,438.1
			L525.6,438.1z M585.7,382l-6.2,34.7c-0.7,4-1.2,7.6-1.6,10.6c-0.3,3.1-0.5,5.5-0.5,7.2c0,0.7,0,1.3,0,1.8c0,0.5,0,1,0.1,1.6
			c-2.1,0.4-4.2,0.6-6.2,0.6c-1.8,0-3.8-0.2-5.9-0.6c-0.2-0.5-0.2-1.2-0.4-1.8c-0.2-0.7-0.2-1.7-0.2-3.1c0-0.6,0-1.2,0.1-2
			c0-0.7,0.1-1.6,0.2-2.4c-0.9,1.5-2,2.9-3.2,4.2s-2.6,2.5-4.1,3.4c-1.5,1-3.1,1.7-4.9,2.3c-1.7,0.6-3.5,0.9-5.4,0.9
			c-4.2,0-7.4-1.3-9.5-4c-2.1-2.7-3.1-6.3-3.1-10.6c0-4.8,0.7-9.4,2.1-13.9c1.5-4.4,3.5-8.4,6.4-11.9c2.8-3.5,6.3-6.2,10.5-8.2
			c4.2-2.1,9.1-3.1,14.7-3.1c0.4,0,0.9,0,1.3,0.1c0.4,0,0.7,0,1.1,0c0.7-3.8,1.2-6.9,1.5-9.6c0.3-2.6,0.4-4.8,0.4-6.5
			c0-0.7,0-1.3-0.1-1.7c0-0.5-0.1-1-0.2-1.6c1.1-0.2,2.3-0.3,3.7-0.4c1.4-0.1,2.6-0.2,3.6-0.2c1.8,0,3.9,0.2,6.1,0.6
			c0.3,1,0.5,2.1,0.5,3.6C586.9,374.6,586.5,378,585.7,382L585.7,382z M567.6,398.7c-0.6,0-1.1-0.1-1.6-0.1c-3,0-5.7,0.7-7.8,2.3
			s-3.9,3.5-5.3,5.8c-1.4,2.3-2.4,4.8-3,7.4s-1,5.1-1,7.2c0,4.7,1.6,7.1,4.7,7.1c3,0,5.9-1.8,8.6-5.6c2.6-3.7,4.5-9,5.8-15.7
			l1.5-8.2C568.7,398.8,568.2,398.7,567.6,398.7L567.6,398.7z"/>
		<g>
			<path fill="#2A79BD" d="M189.9,388.1c0-0.1-0.1-0.2-0.1-0.2c-0.4-1.1-0.9-2.1-1.3-3.2c-0.9-1.2-1.9-2-3-2.7
				c-0.5-0.3-1-0.6-1.5-0.8c-0.3-0.2-0.7-0.2-1-0.4c-2.1-0.7-4.2-1-6.1-1c-4.9,0-10.4,1.6-15.2,4.5c-15.8,9.4-31.1,31.5-38.2,42.7
				l0.4-0.3l-3,4.8c12.4-0.4,40.8-1.3,56-11.7C194.6,406.3,191.4,392.3,189.9,388.1z"/>
			<path fill="#2A79BD" d="M32,409.1c17.3-10.3,35.1-37,41-47.1c-15.9,0.3-41.8,2.5-56.1,11.9c-9.7,6.2-17.3,20.2-13.1,31.3
				c0.1,0.1,0.1,0.2,0.2,0.2c0.4,1.1,0.9,2.2,1.4,3.4c3.1,3.9,7.7,4.8,11.4,4.8C21.7,413.7,27.2,412,32,409.1z"/>
			<path fill="#2A79BD" d="M135,405.5c-13-4.4-27.2-8.6-39.2-12.8c-0.2-9.5-0.4-21.1-0.7-31.5c0-0.5,0-1,0-1.5c0-0.5,0-1-0.1-1.6
				c-0.2-9.1-0.6-17.1-0.8-21.9c-6.3,7.8-11.9,16.2-15.8,22.8c-0.3,0.5-0.7,1-0.9,1.5c-0.2,0.2-0.3,0.5-0.4,0.7c0,0-0.2,0.2-0.4,0.7
				c-1.7,3-8.6,14.5-18,26.2c0.2,0.4,15.4,25.8,27.4,45.6c0.2,0.5,0.6,0.9,0.8,1.4c0.3,0.5,0.6,1,0.8,1.4
				c6.1,10.1,11.1,18.4,12.3,20.3l-41.2-13l-2.1-0.7l-2.1-0.7l-1.8-0.6c1.7-15.7,4.6-48.7,5.8-53.8c-7.2,9.1-16.1,18.2-25,23.6
				c-5.3,3.1-11.4,4.9-16.8,4.9c-3.3,0-6.3-0.7-8.8-1.9c-0.2-0.2-0.5-0.2-0.7-0.4c8.2,17.9,20.7,39.3,32,54.5
				c1.1,1.5,2.1,2.9,3.2,4.2l0.1,0.1c4.4,5.3,11,8.2,18.7,8.2c4.9,0,10.1-1.2,15.6-3.5c16.8-8.2,32-32.7,38.5-43.2
				c0-0.1,0.1-0.1,0.1-0.2c0.3-0.6,0.7-1.2,1-1.6c0.2-0.2,0.2-0.3,0.3-0.6l0,0c0.1-0.2,0.2-0.6,0.5-1c0.6-1,1.5-2.6,3.1-5.1
				c2.1-3.4,5.5-8.6,9.7-14.3C131.5,410,133.2,407.7,135,405.5z"/>
			<path fill="#2A79BD" d="M107.7,358.1c0.2,0.5,0.5,0.9,0.8,1.4c10,17.3,22.5,38.6,26.7,46c7-8.7,16-18.4,25.1-23.8
				c5.3-3.1,11.4-4.9,16.8-4.9c1.6,0,3,0.2,4.4,0.4l0,0c0,0,0,0-0.1-0.1c-12.1-7.4-28.7-17.2-37.5-22.9c0.3-2.2,0.6-4.4,0.9-6.7
				c0.1-0.7,0.2-1.4,0.2-2.1c0.1-0.7,0.2-1.5,0.2-2.2c1-7.7,1.9-15.1,2.6-20.9c1.9,2.5,3.7,5,5.6,7.7c0.4,0.6,0.8,1.2,1.2,1.7
				c0.3,0.5,0.7,1.1,1.1,1.6c0.2,0.2,0.3,0.5,0.5,0.7c8.5,12.5,25.3,43.2,25.3,43.2l1.8,0.5c0.8,0.2,1.6,0.6,2.3,1
				c0,0,0.1,0,0.1,0.1c-3.3-7.1-7.2-14.7-11.5-22.3c-5.5-9.6-11.6-19.4-17.7-28.1c-0.6-0.8-1.2-1.6-1.7-2.4c-1.3-1.8-2.6-3.6-4-5.3
				c-0.7-1-1.6-2.1-2.3-3c-0.1-0.1-0.2-0.2-0.2-0.2l0,0c-4.1-3.3-9.9-5.1-16.4-5.1c-5.3,0-10.7,1.2-14.8,3.4
				c-8,4-15.8,11.8-22.7,20.2c1.5,2.5,6.3,10.8,12.2,21C107.1,357.2,107.3,357.7,107.7,358.1z"/>
		</g>
		<g>
			<path fill="#2A79BD" d="M594.5,376.5c-2.4,0-4.2-1.8-4.2-4.2c0-2.7,1.8-4.4,4.7-4.4c2.4,0,4.1,1.7,4.1,4.1
				C599.1,374.8,597.3,376.5,594.5,376.5z M594.7,368.9c-1.8,0-3.3,1.2-3.3,3.2c0,2.1,1.3,3.4,3.3,3.4c1.7,0,3.1-1.2,3.1-3.3
				C597.9,370.2,596.5,368.9,594.7,368.9z M595.4,374.4l-1.2-1.6v1c0,0,0,0.2,0.1,0.7h-1.3v-3.7l-0.1-0.8h1.6c0.9,0,1.8,0.5,1.8,1.5
				c0,0.5-0.3,1.1-0.9,1.3l1.6,1.8L595.4,374.4L595.4,374.4z M594.4,372.1c0.4,0,0.8-0.2,0.8-0.8c0-0.6-0.4-0.7-0.8-0.7h-0.1
				L594.4,372.1L594.4,372.1z"/>
		</g>
	</g>
</g>
<g id="Layer_6" display="none">
	<g display="inline">
		<path fill="#404041" d="M265.1,376.8c-0.7,1.9-1.6,3.8-2.7,5.7c-1.8-0.9-3.7-1.6-5.7-2.2c-2-0.6-4.4-0.9-7.6-0.9
			c-1.2,0-2.4,0.1-3.7,0.3c-1.3,0.2-2.5,0.6-3.5,1.1c-1.1,0.6-1.9,1.3-2.6,2.2c-0.7,1-1.1,2.2-1.1,3.7c0,2.1,0.8,4,2.4,5.4
			s3.5,2.8,6,4.2c2.1,1.2,4.2,2.4,6,3.6c1.8,1.2,3.5,2.6,4.9,4c1.4,1.4,2.5,3,3.3,4.8c0.8,1.7,1.2,3.8,1.2,6.1
			c0,3.2-0.6,6.3-1.8,9.4c-1.2,3-3,5.6-5.4,7.8c-2.5,2.2-5.6,4-9.3,5.4c-3.8,1.3-8.2,2-13.4,2c-6,0-11.9-1.2-17.7-3.4
			c0.2-1.9,0.7-3.9,1.4-5.8c0.7-2,1.5-4,2.5-6.1c2.4,0.9,4.9,1.6,7.4,2.3s4.9,1,7.3,1c2,0,3.8-0.2,5.5-0.7c1.6-0.4,3.1-1.2,4.4-2
			c1.2-0.9,2.2-2,2.9-3.3c0.7-1.3,1.1-2.8,1.1-4.4c0-1.3-0.3-2.4-0.9-3.4c-0.6-1-1.3-1.8-2.2-2.6c-0.9-0.7-2-1.5-3.1-2.1
			c-1.2-0.7-2.4-1.4-3.6-2.1c-4.1-2.5-7.3-4.9-9.7-7.5c-2.4-2.6-3.6-5.6-3.6-9.1c0-3.5,0.6-6.5,1.8-9.2s3-5,5.2-6.8
			c2.2-1.8,4.9-3.3,8.1-4.3s6.7-1.5,10.6-1.5c3.5,0,6.5,0.2,9.1,0.7c2.6,0.5,5.3,1.3,8.1,2.4C266.1,373.1,265.6,374.9,265.1,376.8
			L265.1,376.8z M308.9,407.3c-1.3,2.1-3.1,3.9-5.4,5.4s-4.8,2.6-7.6,3.6c-2.8,0.9-5.8,1.6-8.8,2.1l-6.4,1.1c0.4,3,1.4,5.4,3,6.8
			c1.6,1.5,4.1,2.2,7.2,2.2c2.6,0,4.8-0.2,6.8-0.8c2-0.5,4-1.2,6.2-2.1c1,1.2,1.7,2.8,2.1,4.6c0.3,1.8,0.5,3.8,0.5,5.8
			c-1.1,0.5-2.3,1-3.8,1.4c-1.4,0.4-2.9,0.7-4.4,1.1s-3,0.5-4.6,0.7s-2.9,0.2-4.1,0.2c-3.9,0-7.2-0.5-10-1.4c-2.8-1-5-2.3-6.9-4
			c-1.8-1.7-3.1-3.9-4-6.4c-0.8-2.5-1.3-5.3-1.3-8.4c0-3.9,0.7-7.7,2-11.4c1.3-3.8,3.2-7.2,5.7-10.1s5.4-5.4,9-7.2
			c3.5-1.8,7.5-2.7,11.9-2.7c2.1,0,4,0.2,5.8,0.7c1.8,0.5,3.4,1.3,4.8,2.3c1.3,1.1,2.4,2.3,3.1,3.9c0.7,1.6,1.2,3.3,1.2,5.4
			C310.9,402.7,310.2,405.2,308.9,407.3L308.9,407.3z M296.8,398.6c-0.8-0.7-1.9-1.2-3.2-1.2c-1.6,0-3.2,0.4-4.5,1.1
			c-1.4,0.7-2.6,1.7-3.6,2.9c-1,1.2-1.9,2.6-2.6,4.2c-0.7,1.6-1.3,3.1-1.6,4.8l4.9-0.7c2.4-0.4,4.4-0.9,5.9-1.5
			c1.6-0.6,2.7-1.2,3.6-2s1.5-1.5,1.8-2.2c0.3-0.7,0.5-1.6,0.5-2.3C297.9,400.3,297.5,399.3,296.8,398.6L296.8,398.6z M361.1,403.3
			c-0.2,1.1-0.3,2.2-0.5,3.5l-5.5,31.4c-2.4,0.4-4.8,0.6-7,0.6s-4.4-0.2-6.6-0.6l5.4-30.3c0.2-1.2,0.4-2.5,0.4-3.6
			c0-1.9-0.4-3.2-1.2-4c-0.8-0.7-2-1.2-3.5-1.2c-0.9,0-1.9,0.2-3,0.7c-1.2,0.5-2.2,1.4-3.4,2.8c-1.2,1.5-2.3,3.5-3.4,6.1
			c-1.1,2.6-2,6-2.8,10.3l-3.5,19.3c-2.5,0.4-4.8,0.6-7,0.6s-4.4-0.2-6.6-0.6l5.2-28.3c0.7-4,1.2-7.6,1.6-10.6
			c0.3-3.1,0.5-5.5,0.5-7.2c0-0.7,0-1.3,0-1.8s0-1-0.1-1.6c2.1-0.4,4.2-0.6,6.3-0.6c1,0,1.9,0.1,2.9,0.2s2,0.2,3,0.4
			c0.2,0.5,0.2,1.1,0.4,1.8c0.1,0.7,0.2,1.7,0.2,3.1c0,0.6,0,1.2-0.1,1.7c0,0.6-0.1,1.2-0.2,2.1c0.7-1.3,1.7-2.6,2.9-3.8
			c1.2-1.2,2.5-2.3,4-3.1c1.5-0.9,3-1.6,4.8-2.1c1.6-0.5,3.4-0.7,5.1-0.7c3.8,0,6.8,1,9,3c2.1,2,3.2,5.2,3.2,9.7
			C361.3,401.1,361.2,402.2,361.1,403.3L361.1,403.3z M415.1,382l-6.3,34.7c-0.7,4-1.2,7.6-1.6,10.6c-0.3,3.1-0.5,5.5-0.5,7.2
			c0,0.7,0,1.3,0,1.8c0,0.5,0,1,0.1,1.6c-2.1,0.4-4.2,0.6-6.3,0.6c-1.8,0-3.8-0.2-5.9-0.6c-0.2-0.5-0.2-1.2-0.4-1.8
			c-0.2-0.7-0.2-1.7-0.2-3.1c0-0.6,0-1.2,0.1-2c0-0.7,0.1-1.6,0.2-2.4c-0.9,1.5-2,2.9-3.2,4.2s-2.6,2.5-4.1,3.4
			c-1.5,1-3.1,1.7-4.9,2.3c-1.7,0.6-3.5,0.9-5.4,0.9c-4.2,0-7.3-1.3-9.5-4c-2.1-2.7-3.1-6.3-3.1-10.6c0-4.8,0.7-9.4,2.1-13.9
			c1.4-4.4,3.5-8.4,6.4-11.9c2.8-3.5,6.3-6.2,10.5-8.2c4.2-2.1,9.1-3.1,14.7-3.1c0.4,0,0.9,0,1.3,0.1c0.4,0,0.8,0,1.1,0
			c0.7-3.8,1.2-6.9,1.5-9.6c0.2-2.6,0.4-4.8,0.4-6.5c0-0.7,0-1.3-0.1-1.7c0-0.5-0.1-1-0.2-1.6c1.1-0.2,2.3-0.3,3.7-0.4
			c1.4-0.1,2.6-0.2,3.6-0.2c1.9,0,3.9,0.2,6.1,0.6c0.3,1,0.5,2.1,0.5,3.6C416.3,374.6,415.9,378,415.1,382L415.1,382z M397,398.7
			c-0.6,0-1.1-0.1-1.6-0.1c-3,0-5.7,0.7-7.8,2.3c-2.1,1.6-3.9,3.5-5.4,5.8c-1.4,2.3-2.4,4.8-3,7.4c-0.7,2.6-1,5.1-1,7.2
			c0,4.7,1.6,7.1,4.7,7.1c3,0,5.9-1.8,8.5-5.6c2.6-3.7,4.5-9,5.8-15.7l1.4-8.2C398.1,398.8,397.6,398.7,397,398.7L397,398.7z
			 M469.9,376.5c-0.6,1.7-1.5,3.6-2.6,5.6c-2-0.8-3.8-1.4-5.4-1.6c-1.6-0.2-3.3-0.4-4.9-0.4c-4.3,0-7.9,0.9-11,2.8
			c-3,1.8-5.5,4.3-7.5,7.2c-2,3-3.4,6.3-4.3,10.1c-0.9,3.8-1.4,7.6-1.4,11.4c0,5.5,1.3,9.5,4,11.9c2.7,2.4,6.3,3.5,10.8,3.5
			c0.9,0,1.9-0.1,3-0.2c1.1-0.1,1.9-0.2,2.5-0.3l4.2-24c1.3-0.2,2.5-0.4,3.6-0.5c1.2-0.1,2.3-0.2,3.4-0.2c1.1,0,2.2,0.1,3.4,0.2
			c1.2,0.1,2.3,0.2,3.5,0.5l-6,34.1c-2.8,0.9-5.9,1.6-9.5,2.1c-3.5,0.4-6.8,0.7-9.9,0.7c-4.6,0-8.7-0.7-12.3-2
			c-3.5-1.3-6.4-3.2-8.8-5.5c-2.4-2.4-4.1-5.2-5.3-8.4c-1.2-3.2-1.8-6.8-1.8-10.5c0-6.2,0.9-12,2.8-17.4c1.8-5.4,4.4-10.1,7.8-14.2
			c3.4-4,7.4-7.2,12.1-9.6c4.7-2.3,10-3.5,15.7-3.5c3,0,5.7,0.2,8.1,0.6c2.4,0.4,4.8,1.2,7.2,2.2
			C471.1,372.9,470.6,374.8,469.9,376.5L469.9,376.5z M509.1,395.7c-0.4,1.9-1.1,3.5-1.8,4.8c-0.4-0.1-0.8-0.2-1.2-0.2
			c-0.4-0.1-1-0.1-1.7-0.1c-2.6,0-4.8,0.5-6.4,1.3c-1.7,0.9-3.1,2.1-4.2,3.8c-1.1,1.6-2,3.6-2.6,5.8c-0.7,2.3-1.2,4.9-1.7,7.7
			l-3.5,19.3c-2.5,0.4-4.9,0.6-7,0.6c-2.2,0-4.4-0.2-6.6-0.6l5.2-28.3c0.7-4,1.2-7.6,1.6-10.6c0.3-3.1,0.5-5.5,0.5-7.2
			c0-0.7,0-1.3,0-1.8c0-0.5,0-1-0.1-1.6c2.1-0.4,4.2-0.6,6.3-0.6c1,0,1.9,0.1,2.9,0.2s2,0.2,3,0.4c0.2,0.5,0.2,1.1,0.4,1.8
			c0.1,0.7,0.2,1.7,0.2,3.1c0,0.6,0,1.2,0,1.7s-0.1,1.2-0.2,2.1c0.7-1.2,1.5-2.3,2.4-3.4c1-1.2,2.1-2.1,3.2-3c1.2-0.9,2.5-1.6,4-2.1
			c1.4-0.6,3-0.8,4.7-0.8c1.3,0,2.5,0.2,3.5,0.5c0.1,0.2,0.1,0.5,0.1,0.7s0,0.6,0,0.9C509.8,392,509.5,393.8,509.1,395.7
			L509.1,395.7z M537.5,374c-0.4,2.1-1,4.1-1.7,6.3c-1.2,0.2-2.3,0.3-3.6,0.4c-1.2,0.1-2.4,0.1-3.4,0.1s-2.1,0-3.4-0.1
			s-2.4-0.2-3.5-0.4c-0.1-2.2,0.1-4.4,0.4-6.3c0.3-2,0.9-4.1,1.6-6.3c1.2-0.2,2.4-0.4,3.6-0.5s2.4-0.2,3.5-0.2c1,0,2.1,0.1,3.4,0.2
			c1.2,0.1,2.4,0.2,3.5,0.5C538,369.8,537.8,372,537.5,374L537.5,374z M525.6,438.1c-2.4,0.4-4.7,0.6-6.9,0.6c-2,0-4.1-0.2-6.4-0.6
			l6.9-39.1h-6c0-0.2,0-0.4-0.1-0.6c0-0.2-0.1-0.4-0.1-0.7c0-1.6,0.2-3.2,0.5-4.6c0.3-1.4,0.8-2.9,1.4-4.4h19.4L525.6,438.1
			L525.6,438.1z M585.7,382l-6.2,34.7c-0.7,4-1.2,7.6-1.6,10.6c-0.3,3.1-0.5,5.5-0.5,7.2c0,0.7,0,1.3,0,1.8c0,0.5,0,1,0.1,1.6
			c-2.1,0.4-4.2,0.6-6.2,0.6c-1.8,0-3.8-0.2-5.9-0.6c-0.2-0.5-0.2-1.2-0.4-1.8c-0.2-0.7-0.2-1.7-0.2-3.1c0-0.6,0-1.2,0.1-2
			c0-0.7,0.1-1.6,0.2-2.4c-0.9,1.5-2,2.9-3.2,4.2s-2.6,2.5-4.1,3.4c-1.5,1-3.1,1.7-4.9,2.3c-1.7,0.6-3.5,0.9-5.4,0.9
			c-4.2,0-7.4-1.3-9.5-4c-2.1-2.7-3.1-6.3-3.1-10.6c0-4.8,0.7-9.4,2.1-13.9c1.5-4.4,3.5-8.4,6.4-11.9c2.8-3.5,6.3-6.2,10.5-8.2
			c4.2-2.1,9.1-3.1,14.7-3.1c0.4,0,0.9,0,1.3,0.1c0.4,0,0.7,0,1.1,0c0.7-3.8,1.2-6.9,1.5-9.6c0.3-2.6,0.4-4.8,0.4-6.5
			c0-0.7,0-1.3-0.1-1.7c0-0.5-0.1-1-0.2-1.6c1.1-0.2,2.3-0.3,3.7-0.4c1.4-0.1,2.6-0.2,3.6-0.2c1.8,0,3.9,0.2,6.1,0.6
			c0.3,1,0.5,2.1,0.5,3.6C586.9,374.6,586.5,378,585.7,382L585.7,382z M567.6,398.7c-0.6,0-1.1-0.1-1.6-0.1c-3,0-5.7,0.7-7.8,2.3
			s-3.9,3.5-5.3,5.8c-1.4,2.3-2.4,4.8-3,7.4s-1,5.1-1,7.2c0,4.7,1.6,7.1,4.7,7.1c3,0,5.9-1.8,8.6-5.6c2.6-3.7,4.5-9,5.8-15.7
			l1.5-8.2C568.7,398.8,568.2,398.7,567.6,398.7L567.6,398.7z"/>
		<g>
			<path fill="#404041" d="M189.9,388.1c0-0.1-0.1-0.2-0.1-0.2c-0.4-1.1-0.9-2.1-1.3-3.2c-0.9-1.2-1.9-2-3-2.7
				c-0.5-0.3-1-0.6-1.5-0.8c-0.3-0.2-0.7-0.2-1-0.4c-2.1-0.7-4.2-1-6.1-1c-4.9,0-10.4,1.6-15.2,4.5c-15.8,9.4-31.1,31.5-38.2,42.7
				l0.4-0.3l-3,4.8c12.4-0.4,40.8-1.3,56-11.7C194.6,406.3,191.4,392.3,189.9,388.1z"/>
			<path fill="#404041" d="M32,409.1c17.3-10.3,35.1-37,41-47.1c-15.9,0.3-41.8,2.5-56.1,11.9c-9.7,6.2-17.3,20.2-13.1,31.3
				c0.1,0.1,0.1,0.2,0.2,0.2c0.4,1.1,0.9,2.2,1.4,3.4c3.1,3.9,7.7,4.8,11.4,4.8C21.7,413.7,27.2,412,32,409.1z"/>
			<path fill="#404041" d="M135,405.5c-13-4.4-27.2-8.6-39.2-12.8c-0.2-9.5-0.4-21.1-0.7-31.5c0-0.5,0-1,0-1.5c0-0.5,0-1-0.1-1.6
				c-0.2-9.1-0.6-17.1-0.8-21.9c-6.3,7.8-11.9,16.2-15.8,22.8c-0.3,0.5-0.7,1-0.9,1.5c-0.2,0.2-0.3,0.5-0.4,0.7c0,0-0.2,0.2-0.4,0.7
				c-1.7,3-8.6,14.5-18,26.2c0.2,0.4,15.4,25.8,27.4,45.6c0.2,0.5,0.6,0.9,0.8,1.4c0.3,0.5,0.6,1,0.8,1.4
				c6.1,10.1,11.1,18.4,12.3,20.3l-41.2-13l-2.1-0.7l-2.1-0.7l-1.8-0.6c1.7-15.7,4.6-48.7,5.8-53.8c-7.2,9.1-16.1,18.2-25,23.6
				c-5.3,3.1-11.4,4.9-16.8,4.9c-3.3,0-6.3-0.7-8.8-1.9c-0.2-0.2-0.5-0.2-0.7-0.4c8.2,17.9,20.7,39.3,32,54.5
				c1.1,1.5,2.1,2.9,3.2,4.2l0.1,0.1c4.4,5.3,11,8.2,18.7,8.2c4.9,0,10.1-1.2,15.6-3.5c16.8-8.2,32-32.7,38.5-43.2
				c0-0.1,0.1-0.1,0.1-0.2c0.3-0.6,0.7-1.2,1-1.6c0.2-0.2,0.2-0.3,0.3-0.6l0,0c0.1-0.2,0.2-0.6,0.5-1c0.6-1,1.5-2.6,3.1-5.1
				c2.1-3.4,5.5-8.6,9.7-14.3C131.5,410,133.2,407.7,135,405.5z"/>
			<path fill="#404041" d="M107.7,358.1c0.2,0.5,0.5,0.9,0.8,1.4c10,17.3,22.5,38.6,26.7,46c7-8.7,16-18.4,25.1-23.8
				c5.3-3.1,11.4-4.9,16.8-4.9c1.6,0,3,0.2,4.4,0.4l0,0c0,0,0,0-0.1-0.1c-12.1-7.4-28.7-17.2-37.5-22.9c0.3-2.2,0.6-4.4,0.9-6.7
				c0.1-0.7,0.2-1.4,0.2-2.1c0.1-0.7,0.2-1.5,0.2-2.2c1-7.7,1.9-15.1,2.6-20.9c1.9,2.5,3.7,5,5.6,7.7c0.4,0.6,0.8,1.2,1.2,1.7
				c0.3,0.5,0.7,1.1,1.1,1.6c0.2,0.2,0.3,0.5,0.5,0.7c8.5,12.5,25.3,43.2,25.3,43.2l1.8,0.5c0.8,0.2,1.6,0.6,2.3,1
				c0,0,0.1,0,0.1,0.1c-3.3-7.1-7.2-14.7-11.5-22.3c-5.5-9.6-11.6-19.4-17.7-28.1c-0.6-0.8-1.2-1.6-1.7-2.4c-1.3-1.8-2.6-3.6-4-5.3
				c-0.7-1-1.6-2.1-2.3-3c-0.1-0.1-0.2-0.2-0.2-0.2l0,0c-4.1-3.3-9.9-5.1-16.4-5.1c-5.3,0-10.7,1.2-14.8,3.4
				c-8,4-15.8,11.8-22.7,20.2c1.5,2.5,6.3,10.8,12.2,21C107.1,357.2,107.3,357.7,107.7,358.1z"/>
		</g>
		<g>
			<path fill="#404041" d="M594.5,376.5c-2.4,0-4.2-1.8-4.2-4.2c0-2.7,1.8-4.4,4.7-4.4c2.4,0,4.1,1.7,4.1,4.1
				C599.1,374.8,597.3,376.5,594.5,376.5z M594.7,368.9c-1.8,0-3.3,1.2-3.3,3.2c0,2.1,1.3,3.4,3.3,3.4c1.7,0,3.1-1.2,3.1-3.3
				C597.9,370.2,596.5,368.9,594.7,368.9z M595.4,374.4l-1.2-1.6v1c0,0,0,0.2,0.1,0.7h-1.3v-3.7l-0.1-0.8h1.6c0.9,0,1.8,0.5,1.8,1.5
				c0,0.5-0.3,1.1-0.9,1.3l1.6,1.8L595.4,374.4L595.4,374.4z M594.4,372.1c0.4,0,0.8-0.2,0.8-0.8c0-0.6-0.4-0.7-0.8-0.7h-0.1
				L594.4,372.1L594.4,372.1z"/>
		</g>
	</g>
</g>
<g id="Layer_4" display="none">
</g>
<g id="Layer_7">
	<g>
		<g>
			<path fill="#FFFFFF" d="M244,370.9c-0.7,2.1-1.6,4.2-3,6.3c-2.1-1-4.1-1.8-6.3-2.4c-2.1-0.7-4.9-1-8.4-1c-1.2,0-2.6,0.1-4,0.3
				c-1.4,0.2-2.7,0.6-3.9,1.2c-1.2,0.6-2.1,1.4-2.9,2.5c-0.8,1.1-1.2,2.4-1.2,4.1c0,2.4,0.9,4.4,2.6,5.9s3.9,3,6.6,4.6
				c2.4,1.3,4.6,2.6,6.7,4s3.8,2.8,5.4,4.4s2.7,3.3,3.6,5.2c0.9,2,1.3,4.2,1.3,6.7c0,3.6-0.7,7-2,10.3c-1.3,3.3-3.3,6.2-6,8.6
				c-2.7,2.5-6.1,4.4-10.3,5.9c-4.1,1.5-9.1,2.2-14.7,2.2c-6.6,0-13.1-1.2-19.5-3.7c0.2-2.1,0.8-4.2,1.6-6.3
				c0.7-2.1,1.6-4.4,2.7-6.7c2.6,1,5.4,1.8,8.2,2.6c2.8,0.7,5.5,1.1,8.1,1.1c2.1,0,4.2-0.2,6.1-0.7c1.9-0.5,3.5-1.2,4.9-2.2
				c1.4-1,2.5-2.2,3.2-3.6c0.7-1.4,1.2-3,1.2-4.9c0-1.4-0.3-2.6-1-3.7c-0.7-1.1-1.4-2-2.4-2.9c-1-0.8-2.1-1.6-3.5-2.4
				c-1.3-0.7-2.7-1.6-4-2.4c-4.5-2.7-8.1-5.4-10.7-8.3c-2.6-2.8-4-6.2-4-10c0-3.8,0.7-7.2,2-10.2c1.3-3,3.2-5.5,5.7-7.6
				c2.5-2.1,5.4-3.6,8.9-4.7c3.5-1.1,7.4-1.6,11.8-1.6c3.9,0,7.2,0.3,10,0.8c2.8,0.6,5.8,1.5,8.9,2.6
				C245.2,366.8,244.7,368.8,244,370.9L244,370.9z M292.3,404.5c-1.5,2.3-3.5,4.3-5.9,5.9c-2.5,1.6-5.3,3-8.4,4s-6.3,1.8-9.7,2.3
				l-7.1,1.2c0.4,3.4,1.6,5.9,3.4,7.6s4.5,2.5,8,2.5c2.8,0,5.3-0.3,7.4-0.9c2.1-0.6,4.4-1.4,6.8-2.4c1.2,1.4,1.9,3.1,2.3,5.1
				c0.4,2,0.6,4.1,0.6,6.3c-1.2,0.6-2.6,1.1-4.2,1.6c-1.6,0.5-3.2,0.8-4.9,1.2c-1.7,0.3-3.4,0.6-5,0.7c-1.6,0.2-3.2,0.2-4.5,0.2
				c-4.3,0-8-0.6-11-1.6c-3-1.1-5.6-2.6-7.6-4.4c-2-1.9-3.5-4.3-4.4-7.1c-1-2.8-1.4-5.8-1.4-9.2c0-4.3,0.7-8.5,2.2-12.6
				c1.5-4.1,3.5-7.8,6.3-11.1c2.7-3.3,6-5.9,9.9-7.9c3.9-2,8.2-3,13.1-3c2.3,0,4.4,0.3,6.5,0.8c2,0.6,3.7,1.4,5.2,2.6
				c1.5,1.2,2.6,2.6,3.5,4.3c0.8,1.7,1.2,3.6,1.2,5.9C294.5,399.5,293.7,402.2,292.3,404.5L292.3,404.5z M279,395
				c-0.9-0.8-2.1-1.3-3.5-1.3c-1.8,0-3.5,0.4-5,1.2c-1.5,0.8-2.8,1.9-4,3.2c-1.2,1.3-2.1,2.9-2.9,4.6c-0.8,1.7-1.4,3.5-1.8,5.2
				l5.5-0.8c2.6-0.4,4.9-1,6.5-1.6c1.7-0.7,3-1.4,4-2.2c1-0.8,1.6-1.6,2-2.5c0.3-0.8,0.5-1.6,0.5-2.6
				C280.3,396.9,279.8,395.8,279,395L279,395z M349.8,400.1c-0.2,1.2-0.3,2.5-0.5,3.8l-6.1,34.6c-2.6,0.4-5.3,0.7-7.7,0.7
				c-2.5,0-4.9-0.2-7.2-0.7l5.9-33.4c0.2-1.4,0.4-2.7,0.4-4c0-2.1-0.5-3.6-1.4-4.4c-0.9-0.8-2.2-1.2-3.9-1.2c-1,0-2.1,0.2-3.3,0.7
				c-1.2,0.5-2.5,1.6-3.7,3.1c-1.2,1.6-2.5,3.8-3.7,6.7c-1.2,2.9-2.2,6.7-3,11.4l-3.9,21.2c-2.7,0.4-5.3,0.7-7.7,0.7
				c-2.5,0-4.9-0.2-7.3-0.7l5.7-31.1c0.7-4.4,1.3-8.3,1.7-11.8c0.4-3.4,0.6-6.1,0.6-7.9c0-0.7,0-1.4,0-2c0-0.5,0-1.1-0.1-1.7
				c2.3-0.4,4.6-0.7,6.9-0.7c1.1,0,2.1,0.1,3.1,0.2c1.1,0.1,2.1,0.2,3.4,0.5c0.2,0.6,0.2,1.2,0.4,2c0.2,0.7,0.2,1.9,0.2,3.5
				c0,0.6,0,1.2-0.1,1.9c0,0.7-0.2,1.4-0.2,2.3c0.8-1.5,1.9-2.9,3.1-4.2c1.3-1.3,2.7-2.6,4.3-3.5c1.6-1,3.4-1.7,5.2-2.3
				c1.9-0.6,3.7-0.8,5.6-0.8c4.2,0,7.5,1.1,9.9,3.2c2.4,2.1,3.5,5.7,3.5,10.7C350.1,397.8,350,398.9,349.8,400.1L349.8,400.1z
				 M409.4,376.7l-6.8,38.1c-0.7,4.4-1.3,8.3-1.6,11.8c-0.3,3.4-0.5,6.1-0.5,8c0,0.8,0,1.4,0,2c0,0.5,0,1.1,0.1,1.7
				c-2.3,0.4-4.6,0.7-6.8,0.7c-2,0-4.1-0.2-6.5-0.7c-0.2-0.6-0.3-1.2-0.4-2c-0.2-0.7-0.2-2-0.2-3.5c0-0.7,0-1.4,0.1-2.2
				c0-0.8,0.2-1.7,0.2-2.6c-1,1.6-2.1,3.1-3.5,4.6c-1.4,1.4-2.9,2.7-4.5,3.7c-1.6,1.1-3.5,1.9-5.3,2.6c-1.9,0.7-3.9,1-6,1
				c-4.6,0-8.2-1.5-10.5-4.4s-3.5-6.8-3.5-11.7c0-5.3,0.8-10.4,2.4-15.3c1.6-4.9,4-9.3,7.1-13.1c3.1-3.8,7-6.8,11.6-9.1
				c4.6-2.3,10-3.5,16.2-3.5c0.5,0,1,0,1.4,0.1c0.5,0.1,0.9,0.1,1.2,0.1c0.7-4.1,1.3-7.7,1.6-10.5s0.5-5.3,0.5-7.2
				c0-0.7,0-1.4-0.1-2c0-0.5-0.1-1.1-0.2-1.7c1.2-0.2,2.6-0.4,4.1-0.5s2.9-0.2,4-0.2c2.1,0,4.3,0.2,6.8,0.7c0.3,1.1,0.5,2.4,0.5,4
				C410.7,368.5,410.3,372.3,409.4,376.7L409.4,376.7z M389.4,395c-0.6,0-1.2,0-1.7,0c-3.4,0-6.3,0.8-8.6,2.6
				c-2.4,1.6-4.3,3.8-5.8,6.3s-2.6,5.3-3.4,8.2c-0.7,2.9-1.1,5.6-1.1,8c0,5.2,1.7,7.8,5.2,7.8c3.4,0,6.5-2.1,9.4-6.2s5-9.9,6.3-17.4
				l1.6-9C390.6,395.1,390,395.1,389.4,395L389.4,395z M469.7,370.6c-0.7,1.9-1.6,4-2.8,6.2c-2.1-0.9-4.2-1.5-6-1.8
				s-3.6-0.4-5.4-0.4c-4.7,0-8.7,1-12,3c-3.4,2.1-6.1,4.7-8.2,8s-3.7,7-4.8,11.1c-1,4.1-1.6,8.3-1.6,12.5c0,6.1,1.5,10.5,4.4,13.1
				c3,2.6,6.9,3.9,11.9,3.9c1,0,2.1,0,3.3-0.2c1.2-0.1,2.1-0.2,2.7-0.3l4.6-26.4c1.4-0.3,2.7-0.5,4-0.6c1.2-0.1,2.5-0.2,3.7-0.2
				s2.5,0.1,3.7,0.2c1.3,0.1,2.6,0.2,3.9,0.6l-6.7,37.6c-3.1,1.1-6.6,1.8-10.5,2.2s-7.5,0.7-10.9,0.7c-5.1,0-9.6-0.7-13.5-2.2
				s-7.1-3.5-9.7-6.1c-2.6-2.6-4.5-5.7-5.8-9.2s-2-7.4-2-11.5c0-6.8,1-13.3,3-19.2c2.1-5.9,4.9-11.2,8.6-15.7
				c3.7-4.4,8.2-8,13.3-10.5c5.2-2.6,11-3.9,17.3-3.9c3.3,0,6.3,0.2,8.9,0.7s5.3,1.2,7.9,2.4C471,366.6,470.4,368.7,469.7,370.6
				L469.7,370.6z M512.9,391.8c-0.5,2.1-1.2,3.9-2,5.3c-0.4-0.1-0.9-0.2-1.4-0.2c-0.5-0.1-1.2-0.1-1.9-0.1c-2.9,0-5.3,0.5-7.1,1.5
				c-1.9,1-3.4,2.4-4.6,4.2c-1.2,1.8-2.1,4-2.8,6.5c-0.7,2.6-1.3,5.4-1.9,8.4l-3.9,21.2c-2.7,0.4-5.4,0.7-7.7,0.7
				c-2.5,0-4.9-0.2-7.2-0.7l5.7-31.1c0.7-4.4,1.3-8.3,1.7-11.8c0.4-3.4,0.6-6.1,0.6-7.9c0-0.7,0-1.4,0-2c0-0.5,0-1.1-0.1-1.7
				c2.3-0.4,4.6-0.7,7-0.7c1.1,0,2.1,0.1,3.1,0.2c1.1,0.1,2.1,0.2,3.4,0.5c0.2,0.6,0.3,1.2,0.4,2c0.2,0.7,0.2,1.9,0.2,3.5
				c0,0.6,0,1.2,0,1.9c-0.1,0.7-0.2,1.4-0.2,2.3c0.7-1.2,1.6-2.5,2.6-3.8c1.1-1.2,2.2-2.3,3.5-3.3c1.3-1,2.7-1.8,4.3-2.4
				c1.6-0.6,3.3-0.9,5.2-0.9c1.5,0,2.7,0.2,3.8,0.5c0.1,0.2,0.1,0.6,0.1,0.8s0,0.6,0,1C513.7,387.6,513.4,389.7,512.9,391.8
				L512.9,391.8z M531,438.5c-2.7,0.4-5.2,0.7-7.6,0.7c-2.1,0-4.5-0.2-7.1-0.7l7.6-43.2h-6.7c0-0.2,0-0.4-0.1-0.7
				c0-0.2-0.1-0.5-0.1-0.7c0-1.8,0.2-3.5,0.5-5.1s0.9-3.2,1.6-4.9h21.3L531,438.5L531,438.5z M597.3,376.7l-6.8,38.1
				c-0.7,4.4-1.3,8.3-1.6,11.8c-0.3,3.4-0.5,6.1-0.5,8c0,0.8,0,1.4,0,2c0,0.5,0,1.1,0.1,1.7c-2.3,0.4-4.6,0.7-6.8,0.7
				c-2,0-4.1-0.2-6.5-0.7c-0.2-0.6-0.2-1.2-0.4-2c-0.2-0.7-0.2-2-0.2-3.5c0-0.7,0-1.4,0.1-2.2c0-0.8,0.2-1.7,0.2-2.6
				c-1,1.6-2.1,3.1-3.5,4.6c-1.4,1.4-2.9,2.7-4.5,3.7c-1.6,1.1-3.5,1.9-5.4,2.6c-1.9,0.7-3.9,1-6,1c-4.6,0-8.2-1.5-10.5-4.4
				c-2.3-3-3.5-6.8-3.5-11.7c0-5.3,0.8-10.4,2.4-15.3c1.6-4.9,4-9.3,7.1-13.1s7-6.8,11.6-9.1c4.6-2.3,10-3.5,16.2-3.5
				c0.5,0,1,0,1.4,0.1c0.5,0.1,0.8,0.1,1.2,0.1c0.7-4.1,1.3-7.7,1.6-10.5s0.5-5.3,0.5-7.2c0-0.7,0-1.4-0.1-2c0-0.5-0.1-1.1-0.2-1.7
				c1.2-0.2,2.6-0.4,4.1-0.5s2.9-0.2,4-0.2c2.1,0,4.3,0.2,6.8,0.7c0.3,1.1,0.5,2.4,0.5,4C598.7,368.5,598.2,372.3,597.3,376.7
				L597.3,376.7z M577.4,395c-0.6,0-1.2,0-1.7,0c-3.4,0-6.3,0.8-8.6,2.6c-2.4,1.6-4.3,3.8-5.8,6.3c-1.6,2.6-2.6,5.3-3.4,8.2
				c-0.7,2.9-1.1,5.6-1.1,8c0,5.2,1.7,7.8,5.2,7.8c3.4,0,6.5-2.1,9.4-6.2c2.9-4.1,4.9-9.9,6.3-17.4l1.6-9
				C578.6,395.1,578,395.1,577.4,395L577.4,395z"/>
			<g>
				<path fill="#FFFFFF" d="M171.8,388c0-0.1-0.1-0.2-0.1-0.2c-0.4-1-0.8-2-1.2-3c-0.8-1.1-1.7-1.8-2.8-2.5
					c-0.4-0.2-0.9-0.6-1.4-0.7c-0.3-0.2-0.6-0.2-0.9-0.4c-1.9-0.7-3.9-0.9-5.6-0.9c-4.4,0-9.6,1.5-14,4.1
					c-14.5,8.6-28.5,28.8-35.1,39.2l0.4-0.3l-2.8,4.4c11.4-0.3,37.4-1.2,51.4-10.8C176.1,404.8,173.2,391.9,171.8,388z"/>
				<path fill="#FFFFFF" d="M26.9,407.3c15.9-9.4,32.2-33.9,37.7-43.2c-14.7,0.3-38.4,2.3-51.6,11c-8.9,5.7-15.8,18.5-12,28.7
					c0.1,0.1,0.1,0.2,0.1,0.2c0.4,1,0.8,2.1,1.2,3c2.9,3.5,7.1,4.4,10.5,4.4C17.4,411.5,22.5,410,26.9,407.3z"/>
				<path fill="#FFFFFF" d="M121.4,404c-11.9-4-25-7.9-36-11.8c-0.2-8.7-0.3-19.3-0.7-29c0-0.5,0-0.9,0-1.4c0-0.5,0-0.9,0-1.4
					c-0.2-8.3-0.5-15.7-0.7-20.1c-5.8,7.2-10.9,14.9-14.5,20.9c-0.3,0.5-0.6,0.9-0.8,1.4c-0.2,0.2-0.2,0.5-0.4,0.7
					c0,0-0.2,0.2-0.4,0.7c-1.6,2.7-7.9,13.3-16.5,24.1c0.2,0.4,14.2,23.6,25.1,41.8c0.2,0.4,0.5,0.9,0.7,1.3
					c0.2,0.4,0.5,0.9,0.8,1.3c5.6,9.3,10.2,16.9,11.3,18.6l-37.8-11.9l-2-0.7l-1.9-0.6l-1.6-0.5c1.6-14.4,4.2-44.7,5.3-49.4
					c-6.7,8.3-14.7,16.7-23,21.7c-4.9,2.9-10.5,4.5-15.5,4.5c-3,0-5.8-0.6-8.1-1.8c-0.2-0.1-0.5-0.2-0.7-0.4
					c7.5,16.4,18.9,36,29.3,50c1,1.3,2,2.6,3,3.9c0,0,0,0.1,0.1,0.1c4,4.9,10.1,7.6,17.1,7.6c4.4,0,9.3-1.1,14.2-3.2
					c15.5-7.5,29.4-30,35.4-39.6c0-0.1,0.1-0.1,0.1-0.2c0.3-0.6,0.7-1.1,0.9-1.5c0.1-0.2,0.2-0.3,0.3-0.5l0,0
					c0.1-0.2,0.2-0.5,0.5-0.9c0.5-0.9,1.4-2.4,2.9-4.7c1.9-3,5-7.9,8.9-13.2C118.3,408.1,119.8,406.1,121.4,404z"/>
				<path fill="#FFFFFF" d="M96.3,360.5c0.2,0.4,0.5,0.8,0.7,1.2c9.2,15.9,20.7,35.5,24.5,42.2c6.4-8.1,14.7-16.9,23.1-21.8
					c4.9-2.9,10.5-4.5,15.4-4.5c1.4,0,2.7,0.2,4,0.4l0,0c0,0,0,0,0-0.1c-11.1-6.8-26.3-15.8-34.3-21c0.2-2.1,0.6-4.1,0.8-6.2
					c0.1-0.7,0.2-1.2,0.2-1.9c0.1-0.7,0.2-1.3,0.2-2c0.9-7.1,1.8-13.8,2.4-19.2c1.7,2.2,3.5,4.6,5.2,7c0.3,0.6,0.7,1.1,1.1,1.6
					c0.3,0.5,0.7,1,1,1.5c0.2,0.2,0.3,0.5,0.5,0.7c7.8,11.4,23.2,39.5,23.2,39.5l1.7,0.5c0.7,0.2,1.5,0.6,2.1,0.9c0,0,0.1,0,0.1,0.1
					c-3-6.5-6.6-13.5-10.6-20.5c-5-8.9-10.6-17.8-16.2-25.8c-0.5-0.7-1.1-1.5-1.6-2.2c-1.2-1.6-2.4-3.3-3.6-4.9
					c-0.7-0.9-1.4-1.8-2.1-2.7c-0.1-0.1-0.2-0.2-0.2-0.2l0,0c-3.8-3-9.1-4.7-15.1-4.7c-4.9,0-9.8,1.2-13.6,3.1
					c-7.3,3.7-14.6,10.8-20.8,18.5c1.3,2.3,5.8,9.9,11.2,19.3C95.8,359.6,96,360,96.3,360.5z"/>
			</g>
			<g>
				<path fill="#FFFFFF" d="M606.9,371.1c-2.6,0-4.6-2.1-4.6-4.6c0-3,2-4.8,5.2-4.8c2.6,0,4.5,1.9,4.5,4.5
					C612,369.2,610.1,371.1,606.9,371.1z M607.2,362.7c-2,0-3.6,1.3-3.6,3.5c0,2.3,1.4,3.7,3.6,3.7c1.9,0,3.5-1.4,3.5-3.6
					C610.8,364.1,609.3,362.7,607.2,362.7z M608,368.7l-1.2-1.8v1.1c0,0.1,0,0.2,0.1,0.7h-1.5v-4.1l-0.1-0.9h1.7c1,0,2,0.6,2,1.6
					c0,0.5-0.4,1.2-1,1.4l1.7,2C609.8,368.7,608,368.7,608,368.7z M606.8,366.2c0.4,0,0.9-0.2,0.9-0.9c0-0.6-0.5-0.7-0.9-0.7h-0.1
					L606.8,366.2L606.8,366.2z"/>
			</g>
		</g>
		<path fill="#FFFFFF" d="M543.6,367.6c-0.4,2.2-1.1,4.5-1.9,6.9c-1.2,0.2-2.6,0.3-4,0.4c-1.4,0.1-2.6,0.1-3.7,0.1
			c-1.1,0-2.3,0-3.7-0.1c-1.4-0.1-2.6-0.2-3.8-0.4c-0.1-2.5,0.1-4.8,0.5-7c0.4-2.2,1-4.5,1.8-7c1.2-0.3,2.6-0.5,4-0.6
			c1.4-0.1,2.6-0.2,3.8-0.2s2.4,0.1,3.7,0.2c1.4,0.1,2.6,0.2,3.9,0.6C544.1,363,544,365.3,543.6,367.6L543.6,367.6z"/>
	</g>
</g>
<g id="Layer_7_copy" display="none">
	<rect x="-27.3" y="283.1" display="inline" fill="#444345" width="656.5" height="228.2"/>
	<g display="inline">
		<g>
			<path fill="#E6E6E6" d="M244,370.9c-0.7,2.1-1.6,4.2-3,6.3c-2.1-1-4.1-1.8-6.3-2.4c-2.1-0.7-4.9-1-8.4-1c-1.2,0-2.6,0.1-4,0.3
				c-1.4,0.2-2.7,0.6-3.9,1.2c-1.2,0.6-2.1,1.4-2.9,2.5c-0.8,1.1-1.2,2.4-1.2,4.1c0,2.4,0.9,4.4,2.6,5.9s3.9,3,6.6,4.6
				c2.4,1.3,4.6,2.6,6.7,4s3.8,2.8,5.4,4.4s2.7,3.3,3.6,5.2c0.9,2,1.3,4.2,1.3,6.7c0,3.6-0.7,7-2,10.3c-1.3,3.3-3.3,6.2-6,8.6
				c-2.7,2.5-6.1,4.4-10.3,5.9c-4.1,1.5-9.1,2.2-14.7,2.2c-6.6,0-13.1-1.2-19.5-3.7c0.2-2.1,0.8-4.2,1.6-6.3
				c0.7-2.1,1.6-4.4,2.7-6.7c2.6,1,5.4,1.8,8.2,2.6c2.8,0.7,5.5,1.1,8.1,1.1c2.1,0,4.2-0.2,6.1-0.7c1.9-0.5,3.5-1.2,4.9-2.2
				c1.4-1,2.5-2.2,3.2-3.6c0.7-1.4,1.2-3,1.2-4.9c0-1.4-0.3-2.6-1-3.7c-0.7-1.1-1.4-2-2.4-2.9c-1-0.8-2.1-1.6-3.5-2.4
				c-1.3-0.7-2.7-1.6-4-2.4c-4.5-2.7-8.1-5.4-10.7-8.3c-2.6-2.8-4-6.2-4-10c0-3.8,0.7-7.2,2-10.2c1.3-3,3.2-5.5,5.7-7.6
				c2.5-2.1,5.4-3.6,8.9-4.7c3.5-1.1,7.4-1.6,11.8-1.6c3.9,0,7.2,0.3,10,0.8c2.8,0.6,5.8,1.5,8.9,2.6
				C245.2,366.8,244.7,368.8,244,370.9L244,370.9z M292.3,404.5c-1.5,2.3-3.5,4.3-5.9,5.9c-2.5,1.6-5.3,3-8.4,4s-6.3,1.8-9.7,2.3
				l-7.1,1.2c0.4,3.4,1.6,5.9,3.4,7.6s4.5,2.5,8,2.5c2.8,0,5.3-0.3,7.4-0.9c2.1-0.6,4.4-1.4,6.8-2.4c1.2,1.4,1.9,3.1,2.3,5.1
				c0.4,2,0.6,4.1,0.6,6.3c-1.2,0.6-2.6,1.1-4.2,1.6c-1.6,0.5-3.2,0.8-4.9,1.2c-1.7,0.3-3.4,0.6-5,0.7c-1.6,0.2-3.2,0.2-4.5,0.2
				c-4.3,0-8-0.6-11-1.6c-3-1.1-5.6-2.6-7.6-4.4c-2-1.9-3.5-4.3-4.4-7.1c-1-2.8-1.4-5.8-1.4-9.2c0-4.3,0.7-8.5,2.2-12.6
				c1.5-4.1,3.5-7.8,6.3-11.1c2.7-3.3,6-5.9,9.9-7.9c3.9-2,8.2-3,13.1-3c2.3,0,4.4,0.3,6.5,0.8c2,0.6,3.7,1.4,5.2,2.6
				c1.5,1.2,2.6,2.6,3.5,4.3c0.8,1.7,1.2,3.6,1.2,5.9C294.5,399.5,293.7,402.2,292.3,404.5L292.3,404.5z M279,395
				c-0.9-0.8-2.1-1.3-3.5-1.3c-1.8,0-3.5,0.4-5,1.2c-1.5,0.8-2.8,1.9-4,3.2c-1.2,1.3-2.1,2.9-2.9,4.6c-0.8,1.7-1.4,3.5-1.8,5.2
				l5.5-0.8c2.6-0.4,4.9-1,6.5-1.6c1.7-0.7,3-1.4,4-2.2c1-0.8,1.6-1.6,2-2.5c0.3-0.8,0.5-1.6,0.5-2.6
				C280.3,396.9,279.8,395.8,279,395L279,395z M349.8,400.1c-0.2,1.2-0.3,2.5-0.5,3.8l-6.1,34.6c-2.6,0.4-5.3,0.7-7.7,0.7
				c-2.5,0-4.9-0.2-7.2-0.7l5.9-33.4c0.2-1.4,0.4-2.7,0.4-4c0-2.1-0.5-3.6-1.4-4.4c-0.9-0.8-2.2-1.2-3.9-1.2c-1,0-2.1,0.2-3.3,0.7
				c-1.2,0.5-2.5,1.6-3.7,3.1c-1.2,1.6-2.5,3.8-3.7,6.7c-1.2,2.9-2.2,6.7-3,11.4l-3.9,21.2c-2.7,0.4-5.3,0.7-7.7,0.7
				c-2.5,0-4.9-0.2-7.3-0.7l5.7-31.1c0.7-4.4,1.3-8.3,1.7-11.8c0.4-3.4,0.6-6.1,0.6-7.9c0-0.7,0-1.4,0-2c0-0.5,0-1.1-0.1-1.7
				c2.3-0.4,4.6-0.7,6.9-0.7c1.1,0,2.1,0.1,3.1,0.2c1.1,0.1,2.1,0.2,3.4,0.5c0.2,0.6,0.2,1.2,0.4,2c0.2,0.7,0.2,1.9,0.2,3.5
				c0,0.6,0,1.2-0.1,1.9c0,0.7-0.2,1.4-0.2,2.3c0.8-1.5,1.9-2.9,3.1-4.2c1.3-1.3,2.7-2.6,4.3-3.5c1.6-1,3.4-1.7,5.2-2.3
				c1.9-0.6,3.7-0.8,5.6-0.8c4.2,0,7.5,1.1,9.9,3.2c2.4,2.1,3.5,5.7,3.5,10.7C350.1,397.8,350,398.9,349.8,400.1L349.8,400.1z
				 M409.4,376.7l-6.8,38.1c-0.7,4.4-1.3,8.3-1.6,11.8c-0.3,3.4-0.5,6.1-0.5,8c0,0.8,0,1.4,0,2c0,0.5,0,1.1,0.1,1.7
				c-2.3,0.4-4.6,0.7-6.8,0.7c-2,0-4.1-0.2-6.5-0.7c-0.2-0.6-0.3-1.2-0.4-2c-0.2-0.7-0.2-2-0.2-3.5c0-0.7,0-1.4,0.1-2.2
				c0-0.8,0.2-1.7,0.2-2.6c-1,1.6-2.1,3.1-3.5,4.6c-1.4,1.4-2.9,2.7-4.5,3.7c-1.6,1.1-3.5,1.9-5.3,2.6c-1.9,0.7-3.9,1-6,1
				c-4.6,0-8.2-1.5-10.5-4.4s-3.5-6.8-3.5-11.7c0-5.3,0.8-10.4,2.4-15.3c1.6-4.9,4-9.3,7.1-13.1c3.1-3.8,7-6.8,11.6-9.1
				c4.6-2.3,10-3.5,16.2-3.5c0.5,0,1,0,1.4,0.1c0.5,0.1,0.9,0.1,1.2,0.1c0.7-4.1,1.3-7.7,1.6-10.5s0.5-5.3,0.5-7.2
				c0-0.7,0-1.4-0.1-2c0-0.5-0.1-1.1-0.2-1.7c1.2-0.2,2.6-0.4,4.1-0.5s2.9-0.2,4-0.2c2.1,0,4.3,0.2,6.8,0.7c0.3,1.1,0.5,2.4,0.5,4
				C410.7,368.5,410.3,372.3,409.4,376.7L409.4,376.7z M389.4,395c-0.6,0-1.2,0-1.7,0c-3.4,0-6.3,0.8-8.6,2.6
				c-2.4,1.6-4.3,3.8-5.8,6.3s-2.6,5.3-3.4,8.2c-0.7,2.9-1.1,5.6-1.1,8c0,5.2,1.7,7.8,5.2,7.8c3.4,0,6.5-2.1,9.4-6.2s5-9.9,6.3-17.4
				l1.6-9C390.6,395.1,390,395.1,389.4,395L389.4,395z M469.7,370.6c-0.7,1.9-1.6,4-2.8,6.2c-2.1-0.9-4.2-1.5-6-1.8
				s-3.6-0.4-5.4-0.4c-4.7,0-8.7,1-12,3c-3.4,2.1-6.1,4.7-8.2,8s-3.7,7-4.8,11.1c-1,4.1-1.6,8.3-1.6,12.5c0,6.1,1.5,10.5,4.4,13.1
				c3,2.6,6.9,3.9,11.9,3.9c1,0,2.1,0,3.3-0.2c1.2-0.1,2.1-0.2,2.7-0.3l4.6-26.4c1.4-0.3,2.7-0.5,4-0.6c1.2-0.1,2.5-0.2,3.7-0.2
				s2.5,0.1,3.7,0.2c1.3,0.1,2.6,0.2,3.9,0.6l-6.7,37.6c-3.1,1.1-6.6,1.8-10.5,2.2s-7.5,0.7-10.9,0.7c-5.1,0-9.6-0.7-13.5-2.2
				s-7.1-3.5-9.7-6.1c-2.6-2.6-4.5-5.7-5.8-9.2s-2-7.4-2-11.5c0-6.8,1-13.3,3-19.2c2.1-5.9,4.9-11.2,8.6-15.7
				c3.7-4.4,8.2-8,13.3-10.5c5.2-2.6,11-3.9,17.3-3.9c3.3,0,6.3,0.2,8.9,0.7s5.3,1.2,7.9,2.4C471,366.6,470.4,368.7,469.7,370.6
				L469.7,370.6z M512.9,391.8c-0.5,2.1-1.2,3.9-2,5.3c-0.4-0.1-0.9-0.2-1.4-0.2c-0.5-0.1-1.2-0.1-1.9-0.1c-2.9,0-5.3,0.5-7.1,1.5
				c-1.9,1-3.4,2.4-4.6,4.2c-1.2,1.8-2.1,4-2.8,6.5c-0.7,2.6-1.3,5.4-1.9,8.4l-3.9,21.2c-2.7,0.4-5.4,0.7-7.7,0.7
				c-2.5,0-4.9-0.2-7.2-0.7l5.7-31.1c0.7-4.4,1.3-8.3,1.7-11.8c0.4-3.4,0.6-6.1,0.6-7.9c0-0.7,0-1.4,0-2c0-0.5,0-1.1-0.1-1.7
				c2.3-0.4,4.6-0.7,7-0.7c1.1,0,2.1,0.1,3.1,0.2c1.1,0.1,2.1,0.2,3.4,0.5c0.2,0.6,0.3,1.2,0.4,2c0.2,0.7,0.2,1.9,0.2,3.5
				c0,0.6,0,1.2,0,1.9c-0.1,0.7-0.2,1.4-0.2,2.3c0.7-1.2,1.6-2.5,2.6-3.8c1.1-1.2,2.2-2.3,3.5-3.3c1.3-1,2.7-1.8,4.3-2.4
				c1.6-0.6,3.3-0.9,5.2-0.9c1.5,0,2.7,0.2,3.8,0.5c0.1,0.2,0.1,0.6,0.1,0.8s0,0.6,0,1C513.7,387.6,513.4,389.7,512.9,391.8
				L512.9,391.8z M531,438.5c-2.7,0.4-5.2,0.7-7.6,0.7c-2.1,0-4.5-0.2-7.1-0.7l7.6-43.2h-6.7c0-0.2,0-0.4-0.1-0.7
				c0-0.2-0.1-0.5-0.1-0.7c0-1.8,0.2-3.5,0.5-5.1s0.9-3.2,1.6-4.9h21.3L531,438.5L531,438.5z M597.3,376.7l-6.8,38.1
				c-0.7,4.4-1.3,8.3-1.6,11.8c-0.3,3.4-0.5,6.1-0.5,8c0,0.8,0,1.4,0,2c0,0.5,0,1.1,0.1,1.7c-2.3,0.4-4.6,0.7-6.8,0.7
				c-2,0-4.1-0.2-6.5-0.7c-0.2-0.6-0.2-1.2-0.4-2c-0.2-0.7-0.2-2-0.2-3.5c0-0.7,0-1.4,0.1-2.2c0-0.8,0.2-1.7,0.2-2.6
				c-1,1.6-2.1,3.1-3.5,4.6c-1.4,1.4-2.9,2.7-4.5,3.7c-1.6,1.1-3.5,1.9-5.4,2.6c-1.9,0.7-3.9,1-6,1c-4.6,0-8.2-1.5-10.5-4.4
				c-2.3-3-3.5-6.8-3.5-11.7c0-5.3,0.8-10.4,2.4-15.3c1.6-4.9,4-9.3,7.1-13.1s7-6.8,11.6-9.1c4.6-2.3,10-3.5,16.2-3.5
				c0.5,0,1,0,1.4,0.1c0.5,0.1,0.8,0.1,1.2,0.1c0.7-4.1,1.3-7.7,1.6-10.5s0.5-5.3,0.5-7.2c0-0.7,0-1.4-0.1-2c0-0.5-0.1-1.1-0.2-1.7
				c1.2-0.2,2.6-0.4,4.1-0.5s2.9-0.2,4-0.2c2.1,0,4.3,0.2,6.8,0.7c0.3,1.1,0.5,2.4,0.5,4C598.7,368.5,598.2,372.3,597.3,376.7
				L597.3,376.7z M577.4,395c-0.6,0-1.2,0-1.7,0c-3.4,0-6.3,0.8-8.6,2.6c-2.4,1.6-4.3,3.8-5.8,6.3c-1.6,2.6-2.6,5.3-3.4,8.2
				c-0.7,2.9-1.1,5.6-1.1,8c0,5.2,1.7,7.8,5.2,7.8c3.4,0,6.5-2.1,9.4-6.2c2.9-4.1,4.9-9.9,6.3-17.4l1.6-9
				C578.6,395.1,578,395.1,577.4,395L577.4,395z"/>
			<g>
				<path fill="#467BBD" d="M171.8,388c0-0.1-0.1-0.2-0.1-0.2c-0.4-1-0.8-2-1.2-3c-0.8-1.1-1.7-1.8-2.8-2.5
					c-0.4-0.2-0.9-0.6-1.4-0.7c-0.3-0.2-0.6-0.2-0.9-0.4c-1.9-0.7-3.9-0.9-5.6-0.9c-4.4,0-9.6,1.5-14,4.1
					c-14.5,8.6-28.5,28.8-35.1,39.2l0.4-0.3l-2.8,4.4c11.4-0.3,37.4-1.2,51.4-10.8C176.1,404.8,173.2,391.9,171.8,388z"/>
				<path fill="#467BBD" d="M26.9,407.3c15.9-9.4,32.2-33.9,37.7-43.2c-14.7,0.3-38.4,2.3-51.6,11c-8.9,5.7-15.8,18.5-12,28.7
					c0.1,0.1,0.1,0.2,0.1,0.2c0.4,1,0.8,2.1,1.2,3c2.9,3.5,7.1,4.4,10.5,4.4C17.4,411.5,22.5,410,26.9,407.3z"/>
				<path fill="#467BBD" d="M121.4,404c-11.9-4-25-7.9-36-11.8c-0.2-8.7-0.3-19.3-0.7-29c0-0.5,0-0.9,0-1.4c0-0.5,0-0.9,0-1.4
					c-0.2-8.3-0.5-15.7-0.7-20.1c-5.8,7.2-10.9,14.9-14.5,20.9c-0.3,0.5-0.6,0.9-0.8,1.4c-0.2,0.2-0.2,0.5-0.4,0.7
					c0,0-0.2,0.2-0.4,0.7c-1.6,2.7-7.9,13.3-16.5,24.1c0.2,0.4,14.2,23.6,25.1,41.8c0.2,0.4,0.5,0.9,0.7,1.3
					c0.2,0.4,0.5,0.9,0.8,1.3c5.6,9.3,10.2,16.9,11.3,18.6l-37.8-11.9l-2-0.7l-1.9-0.6l-1.6-0.5c1.6-14.4,4.2-44.7,5.3-49.4
					c-6.7,8.3-14.7,16.7-23,21.7c-4.9,2.9-10.5,4.5-15.5,4.5c-3,0-5.8-0.6-8.1-1.8c-0.2-0.1-0.5-0.2-0.7-0.4
					c7.5,16.4,18.9,36,29.3,50c1,1.3,2,2.6,3,3.9c0,0,0,0.1,0.1,0.1c4,4.9,10.1,7.6,17.1,7.6c4.4,0,9.3-1.1,14.2-3.2
					c15.5-7.5,29.4-30,35.4-39.6c0-0.1,0.1-0.1,0.1-0.2c0.3-0.6,0.7-1.1,0.9-1.5c0.1-0.2,0.2-0.3,0.3-0.5l0,0
					c0.1-0.2,0.2-0.5,0.5-0.9c0.5-0.9,1.4-2.4,2.9-4.7c1.9-3,5-7.9,8.9-13.2C118.3,408.1,119.8,406.1,121.4,404z"/>
				<path fill="#467BBD" d="M96.3,360.5c0.2,0.4,0.5,0.8,0.7,1.2c9.2,15.9,20.7,35.5,24.5,42.2c6.4-8.1,14.7-16.9,23.1-21.8
					c4.9-2.9,10.5-4.5,15.4-4.5c1.4,0,2.7,0.2,4,0.4l0,0c0,0,0,0,0-0.1c-11.1-6.8-26.3-15.8-34.3-21c0.2-2.1,0.6-4.1,0.8-6.2
					c0.1-0.7,0.2-1.2,0.2-1.9c0.1-0.7,0.2-1.3,0.2-2c0.9-7.1,1.8-13.8,2.4-19.2c1.7,2.2,3.5,4.6,5.2,7c0.3,0.6,0.7,1.1,1.1,1.6
					c0.3,0.5,0.7,1,1,1.5c0.2,0.2,0.3,0.5,0.5,0.7c7.8,11.4,23.2,39.5,23.2,39.5l1.7,0.5c0.7,0.2,1.5,0.6,2.1,0.9c0,0,0.1,0,0.1,0.1
					c-3-6.5-6.6-13.5-10.6-20.5c-5-8.9-10.6-17.8-16.2-25.8c-0.5-0.7-1.1-1.5-1.6-2.2c-1.2-1.6-2.4-3.3-3.6-4.9
					c-0.7-0.9-1.4-1.8-2.1-2.7c-0.1-0.1-0.2-0.2-0.2-0.2l0,0c-3.8-3-9.1-4.7-15.1-4.7c-4.9,0-9.8,1.2-13.6,3.1
					c-7.3,3.7-14.6,10.8-20.8,18.5c1.3,2.3,5.8,9.9,11.2,19.3C95.8,359.6,96,360,96.3,360.5z"/>
			</g>
			<g>
				<path fill="#444345" d="M606.9,371.1c-2.6,0-4.6-2.1-4.6-4.6c0-3,2-4.8,5.2-4.8c2.6,0,4.5,1.9,4.5,4.5
					C612,369.2,610.1,371.1,606.9,371.1z M607.2,362.7c-2,0-3.6,1.3-3.6,3.5c0,2.3,1.4,3.7,3.6,3.7c1.9,0,3.5-1.4,3.5-3.6
					C610.8,364.1,609.3,362.7,607.2,362.7z M608,368.7l-1.2-1.8v1.1c0,0.1,0,0.2,0.1,0.7h-1.5v-4.1l-0.1-0.9h1.7c1,0,2,0.6,2,1.6
					c0,0.5-0.4,1.2-1,1.4l1.7,2C609.8,368.7,608,368.7,608,368.7z M606.8,366.2c0.4,0,0.9-0.2,0.9-0.9c0-0.6-0.5-0.7-0.9-0.7h-0.1
					L606.8,366.2L606.8,366.2z"/>
			</g>
		</g>
		<path fill="#447BBE" d="M543.6,367.6c-0.4,2.2-1.1,4.5-1.9,6.9c-1.2,0.2-2.6,0.3-4,0.4c-1.4,0.1-2.6,0.1-3.7,0.1
			c-1.1,0-2.3,0-3.7-0.1c-1.4-0.1-2.6-0.2-3.8-0.4c-0.1-2.5,0.1-4.8,0.5-7c0.4-2.2,1-4.5,1.8-7c1.2-0.3,2.6-0.5,4-0.6
			c1.4-0.1,2.6-0.2,3.8-0.2s2.4,0.1,3.7,0.2c1.4,0.1,2.6,0.2,3.9,0.6C544.1,363,544,365.3,543.6,367.6L543.6,367.6z"/>
	</g>
</g>
<g id="Layer_7_copy_2">
	<path fill="#FFFFFF" d="M244,370.9c-0.7,2.1-1.6,4.2-3,6.3c-2.1-1-4.1-1.8-6.3-2.4c-2.1-0.7-4.9-1-8.4-1c-1.2,0-2.6,0.1-4,0.3
		c-1.4,0.2-2.7,0.6-3.9,1.2c-1.2,0.6-2.1,1.4-2.9,2.5c-0.8,1.1-1.2,2.4-1.2,4.1c0,2.4,0.9,4.4,2.6,5.9s3.9,3,6.6,4.6
		c2.4,1.3,4.6,2.6,6.7,4s3.8,2.8,5.4,4.4s2.7,3.3,3.6,5.2c0.9,2,1.3,4.2,1.3,6.7c0,3.6-0.7,7-2,10.3c-1.3,3.3-3.3,6.2-6,8.6
		c-2.7,2.5-6.1,4.4-10.3,5.9c-4.1,1.5-9.1,2.2-14.7,2.2c-6.6,0-13.1-1.2-19.5-3.7c0.2-2.1,0.8-4.2,1.6-6.3c0.7-2.1,1.6-4.4,2.7-6.7
		c2.6,1,5.4,1.8,8.2,2.6c2.8,0.7,5.5,1.1,8.1,1.1c2.1,0,4.2-0.2,6.1-0.7c1.9-0.5,3.5-1.2,4.9-2.2c1.4-1,2.5-2.2,3.2-3.6
		c0.7-1.4,1.2-3,1.2-4.9c0-1.4-0.3-2.6-1-3.7c-0.7-1.1-1.4-2-2.4-2.9c-1-0.8-2.1-1.6-3.5-2.4c-1.3-0.7-2.7-1.6-4-2.4
		c-4.5-2.7-8.1-5.4-10.7-8.3c-2.6-2.8-4-6.2-4-10c0-3.8,0.7-7.2,2-10.2c1.3-3,3.2-5.5,5.7-7.6c2.5-2.1,5.4-3.6,8.9-4.7
		c3.5-1.1,7.4-1.6,11.8-1.6c3.9,0,7.2,0.3,10,0.8c2.8,0.6,5.8,1.5,8.9,2.6C245.2,366.8,244.7,368.8,244,370.9L244,370.9z
		 M292.3,404.5c-1.5,2.3-3.5,4.3-5.9,5.9c-2.5,1.6-5.3,3-8.4,4s-6.3,1.8-9.7,2.3l-7.1,1.2c0.4,3.4,1.6,5.9,3.4,7.6s4.5,2.5,8,2.5
		c2.8,0,5.3-0.3,7.4-0.9c2.1-0.6,4.4-1.4,6.8-2.4c1.2,1.4,1.9,3.1,2.3,5.1c0.4,2,0.6,4.1,0.6,6.3c-1.2,0.6-2.6,1.1-4.2,1.6
		c-1.6,0.5-3.2,0.8-4.9,1.2c-1.7,0.3-3.4,0.6-5,0.7c-1.6,0.2-3.2,0.2-4.5,0.2c-4.3,0-8-0.6-11-1.6c-3-1.1-5.6-2.6-7.6-4.4
		c-2-1.9-3.5-4.3-4.4-7.1c-1-2.8-1.4-5.8-1.4-9.2c0-4.3,0.7-8.5,2.2-12.6c1.5-4.1,3.5-7.8,6.3-11.1c2.7-3.3,6-5.9,9.9-7.9
		c3.9-2,8.2-3,13.1-3c2.3,0,4.4,0.3,6.5,0.8c2,0.6,3.7,1.4,5.2,2.6c1.5,1.2,2.6,2.6,3.5,4.3c0.8,1.7,1.2,3.6,1.2,5.9
		C294.5,399.5,293.7,402.2,292.3,404.5L292.3,404.5z M279,395c-0.9-0.8-2.1-1.3-3.5-1.3c-1.8,0-3.5,0.4-5,1.2
		c-1.5,0.8-2.8,1.9-4,3.2c-1.2,1.3-2.1,2.9-2.9,4.6c-0.8,1.7-1.4,3.5-1.8,5.2l5.5-0.8c2.6-0.4,4.9-1,6.5-1.6c1.7-0.7,3-1.4,4-2.2
		c1-0.8,1.6-1.6,2-2.5c0.3-0.8,0.5-1.6,0.5-2.6C280.3,396.9,279.8,395.8,279,395L279,395z M349.8,400.1c-0.2,1.2-0.3,2.5-0.5,3.8
		l-6.1,34.6c-2.6,0.4-5.3,0.7-7.7,0.7c-2.5,0-4.9-0.2-7.2-0.7l5.9-33.4c0.2-1.4,0.4-2.7,0.4-4c0-2.1-0.5-3.6-1.4-4.4
		c-0.9-0.8-2.2-1.2-3.9-1.2c-1,0-2.1,0.2-3.3,0.7c-1.2,0.5-2.5,1.6-3.7,3.1c-1.2,1.6-2.5,3.8-3.7,6.7c-1.2,2.9-2.2,6.7-3,11.4
		l-3.9,21.2c-2.7,0.4-5.3,0.7-7.7,0.7c-2.5,0-4.9-0.2-7.3-0.7l5.7-31.1c0.7-4.4,1.3-8.3,1.7-11.8c0.4-3.4,0.6-6.1,0.6-7.9
		c0-0.7,0-1.4,0-2c0-0.5,0-1.1-0.1-1.7c2.3-0.4,4.6-0.7,6.9-0.7c1.1,0,2.1,0.1,3.1,0.2c1.1,0.1,2.1,0.2,3.4,0.5
		c0.2,0.6,0.2,1.2,0.4,2c0.2,0.7,0.2,1.9,0.2,3.5c0,0.6,0,1.2-0.1,1.9c0,0.7-0.2,1.4-0.2,2.3c0.8-1.5,1.9-2.9,3.1-4.2
		c1.3-1.3,2.7-2.6,4.3-3.5c1.6-1,3.4-1.7,5.2-2.3c1.9-0.6,3.7-0.8,5.6-0.8c4.2,0,7.5,1.1,9.9,3.2c2.4,2.1,3.5,5.7,3.5,10.7
		C350.1,397.8,350,398.9,349.8,400.1L349.8,400.1z M409.4,376.7l-6.8,38.1c-0.7,4.4-1.3,8.3-1.6,11.8c-0.3,3.4-0.5,6.1-0.5,8
		c0,0.8,0,1.4,0,2c0,0.5,0,1.1,0.1,1.7c-2.3,0.4-4.6,0.7-6.8,0.7c-2,0-4.1-0.2-6.5-0.7c-0.2-0.6-0.3-1.2-0.4-2
		c-0.2-0.7-0.2-2-0.2-3.5c0-0.7,0-1.4,0.1-2.2c0-0.8,0.2-1.7,0.2-2.6c-1,1.6-2.1,3.1-3.5,4.6c-1.4,1.4-2.9,2.7-4.5,3.7
		c-1.6,1.1-3.5,1.9-5.3,2.6c-1.9,0.7-3.9,1-6,1c-4.6,0-8.2-1.5-10.5-4.4s-3.5-6.8-3.5-11.7c0-5.3,0.8-10.4,2.4-15.3
		c1.6-4.9,4-9.3,7.1-13.1c3.1-3.8,7-6.8,11.6-9.1c4.6-2.3,10-3.5,16.2-3.5c0.5,0,1,0,1.4,0.1c0.5,0.1,0.9,0.1,1.2,0.1
		c0.7-4.1,1.3-7.7,1.6-10.5s0.5-5.3,0.5-7.2c0-0.7,0-1.4-0.1-2c0-0.5-0.1-1.1-0.2-1.7c1.2-0.2,2.6-0.4,4.1-0.5s2.9-0.2,4-0.2
		c2.1,0,4.3,0.2,6.8,0.7c0.3,1.1,0.5,2.4,0.5,4C410.7,368.5,410.3,372.3,409.4,376.7L409.4,376.7z M389.4,395c-0.6,0-1.2,0-1.7,0
		c-3.4,0-6.3,0.8-8.6,2.6c-2.4,1.6-4.3,3.8-5.8,6.3s-2.6,5.3-3.4,8.2c-0.7,2.9-1.1,5.6-1.1,8c0,5.2,1.7,7.8,5.2,7.8
		c3.4,0,6.5-2.1,9.4-6.2s5-9.9,6.3-17.4l1.6-9C390.6,395.1,390,395.1,389.4,395L389.4,395z M469.7,370.6c-0.7,1.9-1.6,4-2.8,6.2
		c-2.1-0.9-4.2-1.5-6-1.8s-3.6-0.4-5.4-0.4c-4.7,0-8.7,1-12,3c-3.4,2.1-6.1,4.7-8.2,8s-3.7,7-4.8,11.1c-1,4.1-1.6,8.3-1.6,12.5
		c0,6.1,1.5,10.5,4.4,13.1c3,2.6,6.9,3.9,11.9,3.9c1,0,2.1,0,3.3-0.2c1.2-0.1,2.1-0.2,2.7-0.3l4.6-26.4c1.4-0.3,2.7-0.5,4-0.6
		c1.2-0.1,2.5-0.2,3.7-0.2s2.5,0.1,3.7,0.2c1.3,0.1,2.6,0.2,3.9,0.6l-6.7,37.6c-3.1,1.1-6.6,1.8-10.5,2.2s-7.5,0.7-10.9,0.7
		c-5.1,0-9.6-0.7-13.5-2.2s-7.1-3.5-9.7-6.1c-2.6-2.6-4.5-5.7-5.8-9.2s-2-7.4-2-11.5c0-6.8,1-13.3,3-19.2c2.1-5.9,4.9-11.2,8.6-15.7
		c3.7-4.4,8.2-8,13.3-10.5c5.2-2.6,11-3.9,17.3-3.9c3.3,0,6.3,0.2,8.9,0.7s5.3,1.2,7.9,2.4C471,366.6,470.4,368.7,469.7,370.6
		L469.7,370.6z M512.9,391.8c-0.5,2.1-1.2,3.9-2,5.3c-0.4-0.1-0.9-0.2-1.4-0.2c-0.5-0.1-1.2-0.1-1.9-0.1c-2.9,0-5.3,0.5-7.1,1.5
		c-1.9,1-3.4,2.4-4.6,4.2c-1.2,1.8-2.1,4-2.8,6.5c-0.7,2.6-1.3,5.4-1.9,8.4l-3.9,21.2c-2.7,0.4-5.4,0.7-7.7,0.7
		c-2.5,0-4.9-0.2-7.2-0.7l5.7-31.1c0.7-4.4,1.3-8.3,1.7-11.8c0.4-3.4,0.6-6.1,0.6-7.9c0-0.7,0-1.4,0-2c0-0.5,0-1.1-0.1-1.7
		c2.3-0.4,4.6-0.7,7-0.7c1.1,0,2.1,0.1,3.1,0.2c1.1,0.1,2.1,0.2,3.4,0.5c0.2,0.6,0.3,1.2,0.4,2c0.2,0.7,0.2,1.9,0.2,3.5
		c0,0.6,0,1.2,0,1.9c-0.1,0.7-0.2,1.4-0.2,2.3c0.7-1.2,1.6-2.5,2.6-3.8c1.1-1.2,2.2-2.3,3.5-3.3c1.3-1,2.7-1.8,4.3-2.4
		c1.6-0.6,3.3-0.9,5.2-0.9c1.5,0,2.7,0.2,3.8,0.5c0.1,0.2,0.1,0.6,0.1,0.8s0,0.6,0,1C513.7,387.6,513.4,389.7,512.9,391.8
		L512.9,391.8z M531,438.5c-2.7,0.4-5.2,0.7-7.6,0.7c-2.1,0-4.5-0.2-7.1-0.7l7.6-43.2h-6.7c0-0.2,0-0.4-0.1-0.7
		c0-0.2-0.1-0.5-0.1-0.7c0-1.8,0.2-3.5,0.5-5.1s0.9-3.2,1.6-4.9h21.3L531,438.5L531,438.5z M597.3,376.7l-6.8,38.1
		c-0.7,4.4-1.3,8.3-1.6,11.8c-0.3,3.4-0.5,6.1-0.5,8c0,0.8,0,1.4,0,2c0,0.5,0,1.1,0.1,1.7c-2.3,0.4-4.6,0.7-6.8,0.7
		c-2,0-4.1-0.2-6.5-0.7c-0.2-0.6-0.2-1.2-0.4-2c-0.2-0.7-0.2-2-0.2-3.5c0-0.7,0-1.4,0.1-2.2c0-0.8,0.2-1.7,0.2-2.6
		c-1,1.6-2.1,3.1-3.5,4.6c-1.4,1.4-2.9,2.7-4.5,3.7c-1.6,1.1-3.5,1.9-5.4,2.6c-1.9,0.7-3.9,1-6,1c-4.6,0-8.2-1.5-10.5-4.4
		c-2.3-3-3.5-6.8-3.5-11.7c0-5.3,0.8-10.4,2.4-15.3c1.6-4.9,4-9.3,7.1-13.1s7-6.8,11.6-9.1c4.6-2.3,10-3.5,16.2-3.5
		c0.5,0,1,0,1.4,0.1c0.5,0.1,0.8,0.1,1.2,0.1c0.7-4.1,1.3-7.7,1.6-10.5s0.5-5.3,0.5-7.2c0-0.7,0-1.4-0.1-2c0-0.5-0.1-1.1-0.2-1.7
		c1.2-0.2,2.6-0.4,4.1-0.5s2.9-0.2,4-0.2c2.1,0,4.3,0.2,6.8,0.7c0.3,1.1,0.5,2.4,0.5,4C598.7,368.5,598.2,372.3,597.3,376.7
		L597.3,376.7z M577.4,395c-0.6,0-1.2,0-1.7,0c-3.4,0-6.3,0.8-8.6,2.6c-2.4,1.6-4.3,3.8-5.8,6.3c-1.6,2.6-2.6,5.3-3.4,8.2
		c-0.7,2.9-1.1,5.6-1.1,8c0,5.2,1.7,7.8,5.2,7.8c3.4,0,6.5-2.1,9.4-6.2c2.9-4.1,4.9-9.9,6.3-17.4l1.6-9
		C578.6,395.1,578,395.1,577.4,395L577.4,395z"/>
	<g>
		<path fill="#FFFFFF" d="M171.8,388c0-0.1-0.1-0.2-0.1-0.2c-0.4-1-0.8-2-1.2-3c-0.8-1.1-1.7-1.8-2.8-2.5c-0.4-0.2-0.9-0.6-1.4-0.7
			c-0.3-0.2-0.6-0.2-0.9-0.4c-1.9-0.7-3.9-0.9-5.6-0.9c-4.4,0-9.6,1.5-14,4.1c-14.5,8.6-28.5,28.8-35.1,39.2l0.4-0.3l-2.8,4.4
			c11.4-0.3,37.4-1.2,51.4-10.8C176.1,404.8,173.2,391.9,171.8,388z"/>
		<path fill="#FFFFFF" d="M26.9,407.3c15.9-9.4,32.2-33.9,37.7-43.2c-14.7,0.3-38.4,2.3-51.6,11c-8.9,5.7-15.8,18.5-12,28.7
			c0.1,0.1,0.1,0.2,0.1,0.2c0.4,1,0.8,2.1,1.2,3c2.9,3.5,7.1,4.4,10.5,4.4C17.4,411.5,22.5,410,26.9,407.3z"/>
		<path fill="#FFFFFF" d="M121.4,404c-11.9-4-25-7.9-36-11.8c-0.2-8.7-0.3-19.3-0.7-29c0-0.5,0-0.9,0-1.4c0-0.5,0-0.9,0-1.4
			c-0.2-8.3-0.5-15.7-0.7-20.1c-5.8,7.2-10.9,14.9-14.5,20.9c-0.3,0.5-0.6,0.9-0.8,1.4c-0.2,0.2-0.2,0.5-0.4,0.7
			c0,0-0.2,0.2-0.4,0.7c-1.6,2.7-7.9,13.3-16.5,24.1c0.2,0.4,14.2,23.6,25.1,41.8c0.2,0.4,0.5,0.9,0.7,1.3c0.2,0.4,0.5,0.9,0.8,1.3
			c5.6,9.3,10.2,16.9,11.3,18.6l-37.8-11.9l-2-0.7l-1.9-0.6l-1.6-0.5c1.6-14.4,4.2-44.7,5.3-49.4c-6.7,8.3-14.7,16.7-23,21.7
			c-4.9,2.9-10.5,4.5-15.5,4.5c-3,0-5.8-0.6-8.1-1.8c-0.2-0.1-0.5-0.2-0.7-0.4c7.5,16.4,18.9,36,29.3,50c1,1.3,2,2.6,3,3.9
			c0,0,0,0.1,0.1,0.1c4,4.9,10.1,7.6,17.1,7.6c4.4,0,9.3-1.1,14.2-3.2c15.5-7.5,29.4-30,35.4-39.6c0-0.1,0.1-0.1,0.1-0.2
			c0.3-0.6,0.7-1.1,0.9-1.5c0.1-0.2,0.2-0.3,0.3-0.5l0,0c0.1-0.2,0.2-0.5,0.5-0.9c0.5-0.9,1.4-2.4,2.9-4.7c1.9-3,5-7.9,8.9-13.2
			C118.3,408.1,119.8,406.1,121.4,404z"/>
		<path fill="#FFFFFF" d="M96.3,360.5c0.2,0.4,0.5,0.8,0.7,1.2c9.2,15.9,20.7,35.5,24.5,42.2c6.4-8.1,14.7-16.9,23.1-21.8
			c4.9-2.9,10.5-4.5,15.4-4.5c1.4,0,2.7,0.2,4,0.4l0,0c0,0,0,0,0-0.1c-11.1-6.8-26.3-15.8-34.3-21c0.2-2.1,0.6-4.1,0.8-6.2
			c0.1-0.7,0.2-1.2,0.2-1.9c0.1-0.7,0.2-1.3,0.2-2c0.9-7.1,1.8-13.8,2.4-19.2c1.7,2.2,3.5,4.6,5.2,7c0.3,0.6,0.7,1.1,1.1,1.6
			c0.3,0.5,0.7,1,1,1.5c0.2,0.2,0.3,0.5,0.5,0.7c7.8,11.4,23.2,39.5,23.2,39.5l1.7,0.5c0.7,0.2,1.5,0.6,2.1,0.9c0,0,0.1,0,0.1,0.1
			c-3-6.5-6.6-13.5-10.6-20.5c-5-8.9-10.6-17.8-16.2-25.8c-0.5-0.7-1.1-1.5-1.6-2.2c-1.2-1.6-2.4-3.3-3.6-4.9
			c-0.7-0.9-1.4-1.8-2.1-2.7c-0.1-0.1-0.2-0.2-0.2-0.2l0,0c-3.8-3-9.1-4.7-15.1-4.7c-4.9,0-9.8,1.2-13.6,3.1
			c-7.3,3.7-14.6,10.8-20.8,18.5c1.3,2.3,5.8,9.9,11.2,19.3C95.8,359.6,96,360,96.3,360.5z"/>
	</g>
	<g>
		<path fill="#FFFFFF" d="M606.9,371.1c-2.6,0-4.6-2.1-4.6-4.6c0-3,2-4.8,5.2-4.8c2.6,0,4.5,1.9,4.5,4.5
			C612,369.2,610.1,371.1,606.9,371.1z M607.2,362.7c-2,0-3.6,1.3-3.6,3.5c0,2.3,1.4,3.7,3.6,3.7c1.9,0,3.5-1.4,3.5-3.6
			C610.8,364.1,609.3,362.7,607.2,362.7z M608,368.7l-1.2-1.8v1.1c0,0.1,0,0.2,0.1,0.7h-1.5v-4.1l-0.1-0.9h1.7c1,0,2,0.6,2,1.6
			c0,0.5-0.4,1.2-1,1.4l1.7,2C609.8,368.7,608,368.7,608,368.7z M606.8,366.2c0.4,0,0.9-0.2,0.9-0.9c0-0.6-0.5-0.7-0.9-0.7h-0.1
			L606.8,366.2L606.8,366.2z"/>
	</g>
	<path fill="#FFFFFF" d="M543.6,367.6c-0.4,2.2-1.1,4.5-1.9,6.9c-1.2,0.2-2.6,0.3-4,0.4c-1.4,0.1-2.6,0.1-3.7,0.1
		c-1.1,0-2.3,0-3.7-0.1c-1.4-0.1-2.6-0.2-3.8-0.4c-0.1-2.5,0.1-4.8,0.5-7c0.4-2.2,1-4.5,1.8-7c1.2-0.3,2.6-0.5,4-0.6
		c1.4-0.1,2.6-0.2,3.8-0.2s2.4,0.1,3.7,0.2c1.4,0.1,2.6,0.2,3.9,0.6C544.1,363,544,365.3,543.6,367.6L543.6,367.6z"/>
</g>
</svg>
