<?xml version="1.0" encoding="utf-8"?>
<!-- Generator: Adobe Illustrator 17.1.0, SVG Export Plug-In . SVG Version: 6.00 Build 0)  -->
<!DOCTYPE svg PUBLIC "-//W3C//DTD SVG 1.1//EN" "http://www.w3.org/Graphics/SVG/1.1/DTD/svg11.dtd">
<svg version="1.1" id="Layer_1" xmlns="http://www.w3.org/2000/svg" xmlns:xlink="http://www.w3.org/1999/xlink" x="0px" y="0px"
	 viewBox="0.1 353.9 612 84.2" enable-background="new 0.1 353.9 612 84.2" xml:space="preserve">
<path fill="#FFFFFF" d="M122.2,432.4c-8.7,0-16.4-0.9-23.5-8l9-9c4.5,4.5,10.4,5.1,14.6,5.1c4.8,0,9.8-1.7,9.8-5.7
	c0-2.7-1.5-4.7-5.9-5.1l-8.7-0.9c-9.9-0.9-16.1-5.3-16.1-15.4c0-11.4,10.1-17.5,21.2-17.5c8.6,0,15.8,1.5,21.1,6.5l-8.4,8.6
	c-3.2-2.9-8-3.8-12.8-3.8c-5.4,0-7.8,2.6-7.8,5.3c0,2,0.9,4.4,5.7,4.8l8.7,0.9c10.8,1.1,16.4,6.9,16.4,16.1
	C145.5,426.5,135.1,432.4,122.2,432.4z"/>
<path fill="#FFFFFF" d="M169.5,431.8c-11.1,0-16-8-16-15.7v-27.4h-5.9v-10.4h5.9V362h13.7v16.3h9.8v10.4h-9.8v26.4
	c0,3.2,1.5,5,4.8,5h5v11.6h-7.5V431.8z"/>
<path fill="#FFFFFF" d="M183,367.3v-11.1h14v11.1H183z M183.3,431.8v-55.1H197v55h-13.7V431.8z"/>
<path fill="#FFFFFF" d="M228.1,432.4c-11,0-24.6-5.9-24.6-28.2c0-22.3,13.6-28.2,24.6-28.2c7.5,0,13.3,2.3,18.2,7.4l-9.3,9.3
	c-2.9-3-5.3-4.4-8.9-4.4c-3.3,0-5.9,1.2-7.8,3.6c-2.1,2.7-3,6.3-3,12.2c0,5.9,0.9,9.6,3,12.2c2,2.4,4.5,3.6,7.8,3.6
	c3.6,0,6-1.2,8.9-4.4l9.3,9.2C241.3,430,235.6,432.4,228.1,432.4z"/>
<path fill="#FFFFFF" d="M284.1,431.8l-13.6-22.9l-5.9,6.5v16.4h-13.7v-75.3h13.7v42.6l18.2-22.4h16.6l-19.6,22.1l21.1,32.8h-16.9
	V431.8z"/>
<path fill="#FFFFFF" d="M312.6,408.4c0,7.1,4.4,12.2,12.1,12.2c6,0,9-1.7,12.5-5.1l8.3,8.1c-5.6,5.6-11,8.7-20.9,8.7
	c-13,0-25.5-5.9-25.5-28.2c0-17.9,9.8-28.2,23.9-28.2c15.4,0,23.9,11.1,23.9,26.4v6.2h-34.3V408.4z M332.1,393.2
	c-1.5-3.3-4.5-5.7-9.2-5.7s-7.7,2.4-9.2,5.7c-0.9,2-1.2,3.5-1.2,5.9h20.9C333.3,396.7,333,395.2,332.1,393.2z"/>
<path fill="#FFFFFF" d="M383.3,391.7c-2.1-2.1-3.9-3.3-7.2-3.3c-4.2,0-8.9,3.2-8.9,10.1v33.1h-13.7v-55h13.4v5.3
	c2.7-3.2,8-5.9,13.9-5.9c5.4,0,9.2,1.4,13,5.1L383.3,391.7z"/>
<path fill="#FFFFFF" d="M56.3,437.8c-0.8,0.5-1.8,0.3-3,0.3c-0.9,0-2.3,0-2.9-0.5c-0.3-0.3-0.5-0.9-0.5-1.2c0-0.5,0.2-0.9,0.2-1.4
	c0.2-0.6,0.2-1.2,0-1.5c-0.3-0.3-1.1-0.2-1.5-0.5s-0.6-0.9-0.8-1.7c0-0.3-0.2-0.5-0.2-0.6c-0.2-1.1,0.3-2.6,0.5-3.8
	c0.3-1.2,0.6-2.3,0.8-3.5c0.3-1.7,0.5-3.6,0.3-5.3c0-0.9-0.2-1.7,0-2.4c0.2-0.8,0.5-1.4,0.6-2c0-0.2,0-0.5,0-0.8
	c0-0.2,0.2-0.5,0.2-0.6c0-0.5-0.2-1.1-0.2-1.7c-0.2-1.5,0-3.8,0.2-5.1c0-0.5,0.3-1.1-0.2-1.2c-1.7,0-3.2,0.3-4.7,0.5
	c-4.1,0.5-9.3,0.6-13.3-0.2c-0.3-0.2-0.8-0.2-1.1-0.2c-2.9-0.6-5.4-1.8-7.4-3.5c-0.3-0.3-0.6-0.5-1.1-0.8c-0.3-0.3-0.8-0.6-1.1-0.8
	c-1.7-0.8-3.8,0.2-4.4,1.2c-0.3,0.5-0.5,0.9-0.8,1.5c-0.3,0.5-0.5,0.9-0.6,1.5c-1.1,2.4-2.3,4.7-3.3,7.2c-0.6,1.4-1.4,3-1.8,4.5
	c-0.9,3.3,0,7.8,0.8,11c0,0.3,0.2,0.6,0.3,0.9c0.3,0.8,0.8,1.8,1.4,2.3c0.3,0.3,0.9,0.5,1.2,0.8c0.5,0.3,0.8,1.1,1.1,1.8
	c0.2,0.3,0.3,0.6,0.6,0.9c0.5,0.8,0.6,1.4-0.3,1.8c-0.5,0-1.4,0-2.3,0.2c-0.5,0.2-0.3,0.6-0.5,0.9c-0.2,0-0.8,0.3-1.1,0.5
	c-1.1,0.3-3,0.3-3.8,0c-0.5-0.2-0.9-0.5-1.1-0.8c-0.2-0.6,0.3-1.5-0.2-2.1c-0.2-0.3-0.6-0.2-1.1-0.3c-0.6-0.3-1.1-0.8-1.4-1.5
	c-0.6-1.7-0.3-4.2-0.3-6.3c0-0.6-0.2-1.2-0.2-1.8c0-1.2-0.3-2.4-0.5-3.6c0-0.6-0.3-1.1-0.3-1.7c-0.2-0.9-0.3-1.8-0.6-2.6
	c-0.3-0.9-0.3-1.8,0-2.7c0-0.3,0.3-0.5,0.5-0.8c0.2-0.5,0.3-1.1,0.3-1.5c-0.2-0.3-0.8,0-0.9-0.3c-0.3-2.6-0.8-5.1-0.9-7.8
	c0-0.9,0-1.8-0.2-2.7c-0.2-1.8,0-3.8-0.2-5.6c-0.2-0.9-0.3-1.7-0.5-2.6c-0.3-2.4-0.9-5.4-0.5-7.8c0.3-1.7,0.9-2.9,1.8-4.1
	c0.6-0.8,1.4-1.7,2.1-2.4c0.8-0.8,1.5-1.4,2.4-2c0.6-0.5,1.2-0.9,1.8-1.2c1.2-0.6,3-1.2,4.8-1.2c2-0.2,4.1-0.2,5.9,0.3
	c1.8,0.3,3.6,0.6,5.3,1.1c1.7,0.3,3.5,0.8,5,1.2c0.2,0,0.5,0.2,0.6,0.3c0.5,0.2,1.1,0.2,1.7,0.3c1.5,0.5,3.5,0.6,5.4,0.6
	c2,0,3.8,0,5.4-0.5c0.3,0,0.5-0.2,0.8-0.3c0.3-0.2,0.6-0.2,0.8-0.2c0.2,0,0.3-0.3,0.6-0.3c0.9-0.5,1.8-0.9,2.6-1.5
	c0.6-0.5,1.2-0.9,2.1-1.2c0.5-0.2,0.8-0.3,1.2-0.5c0.9-0.3,1.8-0.5,2.4-0.9c1.1-0.6,1.8-1.7,2.6-2.3c0.9-0.8,1.8-1.5,2.7-2.3
	c1.8-1.5,3.8-2.9,5.6-4.4c0.9-0.8,2-1.4,3-2c2.1-1.2,4.2-2.6,7.1-2.7c1.2-0.2,2.4-0.2,3.6,0c0.3,0,0.8,0.3,1.1,0.2
	c0.3,0,0.6-0.6,0.8-0.9c0.5-0.8,0.8-1.4,1.2-2.3c0.5-0.9,0.3-1.5,0.9-1.5c0.6,0,0.5,1.7,0.6,2.1c0,0.8-0.2,1.7,0,2.1
	c0.2,0.3,0.6,0.9,1.1,0.9c0.3,0,0.6-0.3,0.9-0.5c0.2-0.2,0.5-0.2,0.8-0.3c0.5-0.3,1.1-0.9,1.5-1.5c0.5-0.5,1.1-1.4,1.7-1.4
	c1.2,0.2,0,1.8-0.3,2.4c-0.6,1.4-1.2,2.4-1.8,3.6c-0.3,0.5-0.9,1.2-0.9,1.8c0,0.5,0.3,0.6,0.5,1.1c0.2,0.2,0.2,0.5,0.2,0.6
	c0.5,0.9,0.8,2.3,1.1,3.3c0.3,0.9,0.5,1.8,0.8,2.7c0.3,0.9,0.8,1.7,1.2,2.6c0.2,0.3,0.2,0.5,0.2,0.8c0.8,2,1.5,4.1,2.4,5.9
	c0.3,0.8,0.9,1.7,0.9,2.7c0,1.2-0.6,1.8-1.2,2.7c-0.3,0.5-0.8,1.2-1.2,1.4c-0.3,0.2-0.8,0-1.1,0c-0.5,0-0.8,0.3-1.2,0.5
	c-1.1,0.2-2.1-0.8-2.4-1.5c-0.2-0.3,0-0.6-0.2-1.1c-0.3-1.4-0.9-2-1.8-2.9c-0.6-0.6-1.1-0.9-1.8-1.4c-1.1-0.6-2.3-0.9-3.3-1.5
	c-0.5-0.2-0.9-0.5-1.2-0.3c-0.6,0.2-1.2,1.1-1.7,1.7c-2.9,3.8-5.4,7.7-8.3,11.4c-1.8,2.4-3.9,5-5.4,7.8c-0.5,0.8-0.6,1.5-0.9,2.4
	c-0.3,0.8-0.5,1.7-0.8,2.6c-1.1,3.2-1.4,6.9-2.4,10.1c-0.2,0.3-0.2,0.8-0.3,1.1c-0.5,1.7-0.9,3.6-1.5,5.3c-0.5,1.4-0.5,3-0.6,4.8
	c0,1.7-0.2,3.9,0.5,5c0.3,0.6,1.4,0.8,1.8,1.4c0.3,0.5,0.5,1.2,0.8,1.7c0.2,0.3,0.8,1.1,0.8,1.7c0,0.5-0.5,0.8-0.8,0.9
	c-0.3,0.2-0.9,0-1.2,0.3C56.6,437.2,56.8,437.6,56.3,437.8z"/>
<path fill="#FFFFFF" d="M455.5,376c-6.9,0-11.9,2.1-16.4,6.9c-3.5-4.8-8.4-6.9-14.6-6.9c-5.1,0-10.1,2-13.7,5.7v-5.1h-13.4v55h13.7
	v-33.1c0-7.5,4.8-10.1,9.2-10.1s9,2.6,9,10.1v33.3H443v-33.6c0-7.2,5-9.8,9.2-9.8c4.4,0,9,2.6,9,10.1v33.3h13.7v-35.2
	c0-6-1.7-11.1-6-15.7C465.9,377.8,460.9,376,455.5,376z"/>
<path fill="#FFFFFF" d="M515.1,409.9c0,7.5-4.8,10.1-9.2,10.1s-9-2.6-9-10.1v-33.3h-13.7v35.2c0,6,1.2,11.1,5.6,15.7
	c3,3,7.5,4.8,13,4.8c5.1,0,10.1-2,13.7-5.7v5.1h13.4v-55.1h-13.7V409.9z"/>
<path fill="#FFFFFF" d="M551.4,415.2v-58.7h-13.7V416c0,7.8,4.8,15.7,16.1,15.7h7.8v-11.4h-5.3C552.8,420.2,551.4,418.4,551.4,415.2
	z"/>
<path fill="#FFFFFF" d="M612,402.4c0-15.1-8.7-26.4-23.9-26.4c-14.3,0-23.9,10.1-23.9,28.2c0,22.3,12.5,28.2,25.5,28.2
	c9.9,0,15.4-3,20.9-8.7l-8.3-8.1c-3.5,3.5-6.5,5.1-12.5,5.1c-7.7,0-12.1-5.1-12.1-12.2h34.5v-6H612z M577.5,399.1
	c0.2-2.4,0.5-3.9,1.2-5.9c1.5-3.3,4.5-5.7,9.2-5.7c4.7,0,7.7,2.4,9.2,5.7c0.9,2,1.2,3.5,1.2,5.9H577.5z"/>
</svg>
