<?xml version="1.0" encoding="utf-8"?>
<!-- Generator: Adobe Illustrator 17.1.0, SVG Export Plug-In . SVG Version: 6.00 Build 0)  -->
<!DOCTYPE svg PUBLIC "-//W3C//DTD SVG 1.1//EN" "http://www.w3.org/Graphics/SVG/1.1/DTD/svg11.dtd">
<svg version="1.1" id="Layer_1" xmlns="http://www.w3.org/2000/svg" xmlns:xlink="http://www.w3.org/1999/xlink" x="0px" y="0px"
	 viewBox="0 0 375.1 73.8" enable-background="new 0 0 375.1 73.8" xml:space="preserve">
<g>
	<path fill="#FFFFFF" d="M0,0c27.5,0,54.8,0,82.3,0c0,24.6,0,49.1,0,73.8c-27.4,0-54.8,0-82.3,0C0,49.2,0,24.7,0,0z M44.7,51.8
		c0-0.8,0-1.3,0-1.8c0-8.5,0-17,0-25.4c0-1.2-0.4-1.6-1.6-1.5C40.8,23,38.4,23,36,23c-0.9,0-1.3,0.2-1.3,1.2c0,10.9,0,21.8,0,32.7
		c0,0.8,0.2,1.2,1.1,1.2c7.7-0.1,15.4,0,23-0.3c6.9-0.2,11.5-3.9,13.3-10.5c1.9-7.1,2-14.3,0.3-21.5c-1.1-4.7-3.8-8.5-8.7-10
		c-2.4-0.7-4.9-1.1-7.4-1.1c-15.4-0.1-30.9,0-46.3,0c-0.2,0-0.4,0-0.6,0c-0.8-0.1-1,0.2-1,1c0,1.4,0.1,2.9,0,4.3
		c0,0.9,0.3,1.2,1.2,1.1c3.2,0,6.5,0,9.7,0c1,0,2.1,0,3.2,0c0,0.7,0,1.2,0,1.6c0,11.2,0,22.5,0,33.7c0,1.2,0.3,1.7,1.6,1.6
		c2.1-0.1,4.3,0,6.4,0c1.9,0,1.9,0,1.9-1.8c0-11.2,0-22.5,0-33.7c0-1.1,0.2-1.5,1.4-1.4c6.6,0.1,13.3,0,19.9,0c4.8,0,7.3,2,8.4,6.6
		c1.1,4.3,1,8.7,0.6,13c-0.2,2.3-0.9,4.6-1.6,6.8c-0.8,2.1-2.5,3.6-4.8,3.9C52.4,51.7,48.6,51.7,44.7,51.8z"/>
	<path fill="#FFFFFF" d="M140.4,44.9c0-7.5,0-14.8,0-22.3c3.4,0,6.7,0,10.2,0c0,1.1,0,2.2,0,3.3c1.8-2.8,4.4-3.9,7.5-3.9
		c3,0,5.8,0.6,7.4,3.6c2.1-3.2,5.2-3.8,8.7-3.6c4.2,0.3,6.4,2.4,6.5,6.7c0.1,4.6,0.1,9.1,0.1,13.7c0,0.8,0,1.6,0,2.5
		c-3.6,0-7.1,0-10.9,0c0-0.4,0-0.9,0-1.3c0-3.8,0-7.6,0-11.5c0-0.4,0-0.8,0-1.1c-0.1-1.4-0.8-2.1-2-2.1c-1.1,0.1-1.8,0.7-1.8,2.2
		c0,4.1,0,8.1,0,12.2c0,0.5,0,1,0,1.6c-3.6,0-7.2,0-10.9,0c0-0.4,0-0.9,0-1.3c0-3.7,0-7.4,0-11.1c0-0.6,0-1.3-0.1-1.9
		c-0.1-1.1-0.7-1.7-1.8-1.7c-1.1,0-1.7,0.6-1.9,1.7c-0.1,0.6-0.1,1.2-0.1,1.8c0,4.1,0,8.3,0,12.6C147.6,44.9,144,44.9,140.4,44.9z"
		/>
	<path fill="#FFFFFF" d="M101.1,45c1.3-3.6,2.5-7,3.7-10.4c2.2-6.3,4.4-12.5,6.6-18.8c0.3-0.8,0.6-1.1,1.5-1.1c4.9,0.1,9.9,0,14.9,0
		c3.6,10,7.1,20,10.8,30.2c-1.3,0-2.3,0-3.4,0c-2.6,0-5.1,0-7.7,0c-0.8,0-1.2-0.2-1.4-1c-0.4-1.6-0.9-3.2-1.5-4.7
		c-0.1-0.4-0.7-0.8-1.1-0.8c-2.7-0.1-5.4,0-8.1-0.1c-0.7,0-1,0.2-1.1,0.9c-0.4,1.6-0.9,3.2-1.4,4.8c-0.1,0.3-0.5,0.8-0.8,0.8
		C108.5,45,104.9,45,101.1,45z M116.2,31.1c2.3,0,4.4,0,6.7,0c-1.1-3.3-2.1-6.4-3.2-9.6c-0.1,0-0.2,0-0.3,0
		C118.3,24.6,117.3,27.8,116.2,31.1z"/>
	<path fill="#FFFFFF" d="M346.6,45c-3.3,0-6.6,0-10,0c0-1.2,0-2.4,0-3.6c-0.2,0.1-0.3,0.1-0.4,0.1c-1.6,3.3-4.4,4.3-7.8,4.1
		c-3.5-0.2-6.2-1.8-7.7-5c-1.9-4.2-2-8.6-0.4-13c2.4-6.8,11.9-7.4,15.4-2.3c0-4.3,0-8.4,0-12.7c3.7,0,7.2,0,10.9,0
		C346.6,23.3,346.6,34.1,346.6,45z M336.3,33.5c-0.2-1.1-0.4-2.3-0.7-3.4c-0.3-1-1.2-1.5-2.3-1.5c-1,0-1.8,0.5-2.2,1.4
		c-0.8,2.2-0.8,4.5,0,6.7c0.4,1,1.2,1.5,2.3,1.5c1.1,0,1.9-0.6,2.2-1.6C336,35.7,336.1,34.6,336.3,33.5z"/>
	<path fill="#FFFFFF" d="M306.7,30.6c-0.2-1.6-1-2.5-2.9-2.8c-3.1-0.6-6-0.1-8.9,1.1c-0.4,0.1-0.7,0.3-1.1,0.4c-0.1,0-0.2,0-0.3-0.1
		c0-1.8,0-3.6,0-5.4c0-0.3,0.4-0.7,0.7-0.8c5.5-1.5,11-1.7,16.4-0.1c4,1.1,6,3.8,6.1,8c0.1,4.6,0,9.3,0,14c-3.4,0-6.7,0-10.1,0
		c0-1,0-1.9,0-2.8c-0.2,0-0.3,0-0.3,0c-2.7,3.5-6.4,3.9-10.4,2.9c-2.6-0.6-4.6-2.2-4.9-5.1c-0.4-3.2,0.4-5.9,3.4-7.7
		c2.1-1.2,4.4-1.6,6.8-1.7C303,30.6,304.8,30.6,306.7,30.6z M306.7,34.9c-1.6,0.3-3.2,0.4-4.6,0.8c-1.1,0.3-1.4,1.3-1.3,2.5
		c0.2,1.1,0.9,1.5,1.9,1.7C305.3,40.1,307,38.2,306.7,34.9z"/>
	<path fill="#FFFFFF" d="M209.4,36.3c-5.3,0-10.2,0-15.1,0c-0.1,1.6,0.7,2.6,2.4,3.1c2.8,0.8,5.6,0.5,8.3-0.1
		c0.8-0.2,1.5-0.4,2.5-0.7c0,1.8,0,3.5,0,5.3c0,0.2-0.4,0.5-0.6,0.6c-5.1,1.2-10.3,1.7-15.4,0.3c-4.9-1.4-7.7-5-8-10.1
		c-0.1-1.1-0.1-2.3,0.1-3.4c0.5-4,2.7-6.8,6.5-8.2c3.4-1.2,7-1.4,10.5-0.8c4.1,0.7,6.8,3.2,7.8,7.2C209,31.6,209.1,33.9,209.4,36.3z
		 M199.8,31.5c-0.1-1.5-0.1-3-1.4-4c-0.9-0.7-1.9-0.6-2.8,0c-1.3,1-1.5,2.4-1.5,4C196,31.5,197.8,31.5,199.8,31.5z"/>
	<path fill="#FFFFFF" d="M375.1,36.2c-5,0-9.9,0-14.8,0c-0.1,1.6,0.8,2.9,2.7,3.1c2,0.3,4,0.3,6,0.2c1.5-0.1,2.9-0.6,4.5-0.9
		c0,1.8,0,3.6,0,5.6c-5.7,1.2-11.5,2.1-17.2,0c-4.2-1.5-6.3-4.8-6.7-9.2c-0.1-1.5-0.1-3.1,0.2-4.6c0.5-3.4,2.4-5.8,5.6-7.1
		c4-1.7,8.2-2,12.5-0.9c4.3,1.1,6.8,4.6,7.3,9.8C375.2,33.5,375.1,34.8,375.1,36.2z M360.1,31.4c2,0,3.8,0,5.7,0
		c-0.1-1.6,0-3.3-1.6-4c-0.7-0.4-2-0.3-2.7,0.1C360.1,28.3,360,29.9,360.1,31.4z"/>
	<path fill="#FFFFFF" d="M262.9,22.5c1.8,0,3.3,0,4.9,0c0,2.2,0,4.2,0,6.4c-1.6,0-3.2,0-4.8,0c0,2.6-0.1,4.9,0,7.3
		c0.1,1.4,1.1,2.1,2.5,2.1c0.7,0,1.4-0.2,2.3-0.2c0,2,0,3.9,0,5.9c0,0.2-0.3,0.6-0.6,0.6c-3,0.9-6,1.3-9.1,0.8
		c-3.4-0.5-5.5-2.6-5.9-6.1c-0.3-2.8-0.2-5.7-0.2-8.5c0-0.5,0-1.1,0-1.8c-1.3,0-2.5,0-3.8,0c0-2.2,0-4.2,0-6.4c1.2,0,2.4,0,3.8,0
		c0-1.6,0-3,0-4.4c0-0.4,0.4-1,0.7-1.1c3.1-1,6.2-1.9,9.3-2.9c0.2-0.1,0.5-0.1,0.9-0.2C262.9,16.8,262.9,19.5,262.9,22.5z"/>
	<path fill="#FFFFFF" d="M231.1,22.1c0,0.3,0.1,0.5,0.1,0.8c0,2.7,0,5.4,0,8.2c-0.5-0.1-0.8-0.1-1.2-0.2c-3.8-0.5-6.8,2-6.9,5.9
		c0,2.3,0,4.5,0,6.8c0,0.4,0,0.8,0,1.3c-3.7,0-7.2,0-10.8,0c0-7.4,0-14.8,0-22.3c3.3,0,6.7,0,10.1,0c0,1.5,0,3,0,4.5
		C224.4,23.6,226.8,21.3,231.1,22.1z"/>
	<path fill="#FFFFFF" d="M281.9,44.9c-3.7,0-7.2,0-10.8,0c0-7.5,0-14.9,0-22.4c3.3,0,6.6,0,10,0c0,1.5,0,3,0,4.5
		c0.1,0.1,0.2,0.1,0.2,0.2c1.7-3.5,4.1-6,8.5-5.1c0,3,0,5.9,0,8.9c-0.4-0.1-0.8-0.1-1.1-0.2c-3.8-0.5-6.8,2.1-6.8,5.9
		c0,2.3,0,4.7,0,7C281.9,44.2,281.9,44.5,281.9,44.9z"/>
	<path fill="#FFFFFF" d="M245.2,44.9c-3.6,0-7.1,0-10.7,0c0-7.5,0-14.9,0-22.4c3.6,0,7.1,0,10.7,0C245.2,30,245.2,37.4,245.2,44.9z"
		/>
	<path fill="#FFFFFF" d="M234.4,19.9c0-2.4,0-4.8,0-7.3c3.5,0,7.1,0,10.7,0c0,2.4,0,4.8,0,7.3C241.6,19.9,238.1,19.9,234.4,19.9z"/>
</g>
</svg>
